<svg version="1.1" xmlns="http://www.w3.org/2000/svg" xmlns:xlink="http://www.w3.org/1999/xlink" width="280" height="200"><defs><clipPath id="dQERnVUhMzGD"><path fill="none" stroke="none" d="M 54.5 5.5 L 275.5 5.5 L 275.5 169.5 L 54.5 169.5 L 54.5 5.5"/></clipPath><clipPath id="gaDdTDIvsTns"><path fill="none" stroke="none" d="M 54.5 5.5 L 275.5 5.5 L 275.5 169.5 L 54.5 169.5 L 54.5 5.5"/></clipPath><clipPath id="STXTTTALKrgz"><path fill="none" stroke="none" d="M 54.5 5.5 L 275.5 5.5 L 275.5 169.5 L 54.5 169.5 L 54.5 5.5"/></clipPath><clipPath id="vdLfLDCRcHIF"><path fill="none" stroke="none" d="M 54.5 5.5 L 275.5 5.5 L 275.5 169.5 L 54.5 169.5 L 54.5 5.5"/></clipPath><clipPath id="qZfcVOvCsTJv"><path fill="none" stroke="none" d="M 54.5 5.5 L 275.5 5.5 L 275.5 169.5 L 54.5 169.5 L 54.5 5.5"/></clipPath><clipPath id="MHHPtfyRTJHs"><path fill="none" stroke="none" d="M 54.5 5.5 L 275.5 5.5 L 275.5 169.5 L 54.5 169.5 L 54.5 5.5"/></clipPath><clipPath id="fMrxlCLxcVrw"><path fill="none" stroke="none" d="M 54.5 5.5 L 275.5 5.5 L 275.5 169.5 L 54.5 169.5 L 54.5 5.5"/></clipPath><clipPath id="BqoMVgTZKGgS"><path fill="none" stroke="none" d="M 54.5 5.5 L 275.5 5.5 L 275.5 169.5 L 54.5 169.5 L 54.5 5.5"/></clipPath><clipPath id="TkNEGnlOPUgu"><path fill="none" stroke="none" d="M 54.5 5.5 L 275.5 5.5 L 275.5 169.5 L 54.5 169.5 L 54.5 5.5"/></clipPath><clipPath id="NVlNwkPBIcAn"><path fill="none" stroke="none" d="M 54.5 5.5 L 275.5 5.5 L 275.5 169.5 L 54.5 169.5 L 54.5 5.5"/></clipPath><clipPath id="ZXiLnRFqdhHM"><path fill="none" stroke="none" d="M 54.5 5.5 L 275.5 5.5 L 275.5 169.5 L 54.5 169.5 L 54.5 5.5"/></clipPath></defs><path fill="rgb(255,255,255)" stroke="none" paint-order="stroke" d="M 0.5 0.5 L 280.5 0.5 L 280.5 200.5 L 0.5 200.5 L 0.5 0.5" fill-opacity="1"/><rect fill="#FFFFFF" stroke="none" x="54" y="5" width="221" height="164" transform="matrix(1, 0, 0, 1, 0.5, 0.5)"/><path fill="rgb(255,255,255)" stroke="none" paint-order="stroke" d="M 54.5 5.5 L 275.5 5.5 L 275.5 169.5 L 54.5 169.5 L 54.5 5.5" fill-opacity="1"/><path fill="none" stroke="rgb(229,229,229)" paint-order="fill" d="M 54.5 5.5 L 275.5 5.5 L 275.5 169.5 L 54.5 169.5 L 54.5 5.5" stroke-opacity="1" stroke-linejoin="bevel" stroke-miterlimit="10" stroke-dasharray=""/><path fill="none" stroke="rgb(229,229,229)" paint-order="fill" d="M 109.5 169.5 L 109.5 5.5 M 220.5 169.5 L 220.5 5.5" stroke-opacity="1" stroke-linejoin="bevel" stroke-miterlimit="10" stroke-dasharray="" clip-path="url(#dQERnVUhMzGD)"/><path fill="none" stroke="rgb(229,229,229)" paint-order="fill" d="M 54.5 162.5 L 275.5 162.5 M 54.5 139.5 L 275.5 139.5 M 54.5 117.5 L 275.5 117.5 M 54.5 95.5 L 275.5 95.5 M 54.5 72.5 L 275.5 72.5 M 54.5 50.5 L 275.5 50.5 M 54.5 28.5 L 275.5 28.5 M 54.5 5.5 L 275.5 5.5" stroke-opacity="1" stroke-linejoin="bevel" stroke-miterlimit="10" stroke-dasharray="" clip-path="url(#gaDdTDIvsTns)"/><path fill="none" stroke="none"/><path fill="none" stroke="rgb(0,0,0)" paint-order="fill" d="M 109.75 136.5454864501953 L 109.75 106.24752044677734" stroke-opacity="1" stroke-linejoin="bevel" stroke-miterlimit="10" stroke-dasharray="" clip-path="url(#STXTTTALKrgz)"/><path fill="none" stroke="rgb(0,0,0)" paint-order="fill" d="M 220.25 108.34397888183594 L 220.25 44.22710037231445" stroke-opacity="1" stroke-linejoin="bevel" stroke-miterlimit="10" stroke-dasharray="" clip-path="url(#STXTTTALKrgz)"/><path fill="none" stroke="none"/><path fill="none" stroke="rgb(0,0,0)" paint-order="fill" d="M 109.75 162.03988647460938 L 109.75 156.744140625" stroke-opacity="1" stroke-linejoin="bevel" stroke-miterlimit="10" stroke-dasharray="" clip-path="url(#vdLfLDCRcHIF)"/><path fill="none" stroke="rgb(0,0,0)" paint-order="fill" d="M 220.25 162.03988647460938 L 220.25 151.08856201171875" stroke-opacity="1" stroke-linejoin="bevel" stroke-miterlimit="10" stroke-dasharray="" clip-path="url(#vdLfLDCRcHIF)"/><path fill="none" stroke="none"/><path fill="rgb(224,142,121)" stroke="none" paint-order="stroke" d="M 93.17500305175781 141.5216827392578 L 126.32499694824219 141.5216827392578 L 126.32499694824219 136.5454864501953 L 93.17500305175781 136.5454864501953 L 93.17500305175781 141.5216827392578" fill-opacity="1" clip-path="url(#qZfcVOvCsTJv)"/><path fill="none" stroke="rgb(0,0,0)" paint-order="fill" d="M 93.17500305175781 141.5216827392578 L 126.32499694824219 141.5216827392578 L 126.32499694824219 136.5454864501953 L 93.17500305175781 136.5454864501953 L 93.17500305175781 141.5216827392578" stroke-opacity="1" stroke-linejoin="bevel" stroke-miterlimit="10" stroke-dasharray="" clip-path="url(#qZfcVOvCsTJv)"/><path fill="rgb(224,142,121)" stroke="none" paint-order="stroke" d="M 203.6750030517578 116.5035400390625 L 236.8249969482422 116.5035400390625 L 236.8249969482422 108.34397888183594 L 203.6750030517578 108.34397888183594 L 203.6750030517578 116.5035400390625" fill-opacity="1" clip-path="url(#qZfcVOvCsTJv)"/><path fill="none" stroke="rgb(0,0,0)" paint-order="fill" d="M 203.6750030517578 116.5035400390625 L 236.8249969482422 116.5035400390625 L 236.8249969482422 108.34397888183594 L 203.6750030517578 108.34397888183594 L 203.6750030517578 116.5035400390625" stroke-opacity="1" stroke-linejoin="bevel" stroke-miterlimit="10" stroke-dasharray="" clip-path="url(#qZfcVOvCsTJv)"/><path fill="none" stroke="none"/><path fill="rgb(59,134,134)" stroke="none" paint-order="stroke" d="M 93.17500305175781 156.744140625 L 126.32499694824219 156.744140625 L 126.32499694824219 141.5216827392578 L 93.17500305175781 141.5216827392578 L 93.17500305175781 156.744140625" fill-opacity="1" clip-path="url(#MHHPtfyRTJHs)"/><path fill="none" stroke="rgb(0,0,0)" paint-order="fill" d="M 93.17500305175781 156.744140625 L 126.32499694824219 156.744140625 L 126.32499694824219 141.5216827392578 L 93.17500305175781 141.5216827392578 L 93.17500305175781 156.744140625" stroke-opacity="1" stroke-linejoin="bevel" stroke-miterlimit="10" stroke-dasharray="" clip-path="url(#MHHPtfyRTJHs)"/><path fill="rgb(59,134,134)" stroke="none" paint-order="stroke" d="M 203.6750030517578 151.08856201171875 L 236.8249969482422 151.08856201171875 L 236.8249969482422 116.5035400390625 L 203.6750030517578 116.5035400390625 L 203.6750030517578 151.08856201171875" fill-opacity="1" clip-path="url(#MHHPtfyRTJHs)"/><path fill="none" stroke="rgb(0,0,0)" paint-order="fill" d="M 203.6750030517578 151.08856201171875 L 236.8249969482422 151.08856201171875 L 236.8249969482422 116.5035400390625 L 203.6750030517578 116.5035400390625 L 203.6750030517578 151.08856201171875" stroke-opacity="1" stroke-linejoin="bevel" stroke-miterlimit="10" stroke-dasharray="" clip-path="url(#MHHPtfyRTJHs)"/><path fill="none" stroke="none"/><path fill="rgb(31,119,180)" stroke="rgb(0,0,0)" paint-order="fill" d="M 98.69999694824219 162.0343017578125 L 120.79999732971191 162.0343017578125 L 120.79999732971191 162.04544826690108 L 98.69999694824219 162.04544826690108 L 98.69999694824219 162.0343017578125" fill-opacity="1" clip-path="url(#fMrxlCLxcVrw)" stroke-opacity="1" stroke-linejoin="bevel" stroke-miterlimit="10" stroke-dasharray=""/><path fill="rgb(31,119,180)" stroke="rgb(0,0,0)" paint-order="fill" d="M 209.1999969482422 162.0343017578125 L 231.2999973297119 162.0343017578125 L 231.2999973297119 162.04544826690108 L 209.1999969482422 162.04544826690108 L 209.1999969482422 162.0343017578125" fill-opacity="1" clip-path="url(#fMrxlCLxcVrw)" stroke-opacity="1" stroke-linejoin="bevel" stroke-miterlimit="10" stroke-dasharray=""/><path fill="none" stroke="none"/><path fill="rgb(31,119,180)" stroke="rgb(0,0,0)" paint-order="fill" d="M 98.69999694824219 106.24195098876953 L 120.79999732971191 106.24195098876953 L 120.79999732971191 106.2530974978581 L 98.69999694824219 106.2530974978581 L 98.69999694824219 106.24195098876953" fill-opacity="1" clip-path="url(#BqoMVgTZKGgS)" stroke-opacity="1" stroke-linejoin="bevel" stroke-miterlimit="10" stroke-dasharray=""/><path fill="rgb(31,119,180)" stroke="rgb(0,0,0)" paint-order="fill" d="M 209.1999969482422 44.221527099609375 L 231.2999973297119 44.221527099609375 L 231.2999973297119 44.23267360869795 L 209.1999969482422 44.23267360869795 L 209.1999969482422 44.221527099609375" fill-opacity="1" clip-path="url(#BqoMVgTZKGgS)" stroke-opacity="1" stroke-linejoin="bevel" stroke-miterlimit="10" stroke-dasharray=""/><path fill="none" stroke="none"/><path fill="rgb(243,134,48)" stroke="rgb(243,134,48)" paint-order="fill" d="M 112.75 105.3843994140625 A 3 3 0 1 1 112.74999850000013 105.3813994145625" fill-opacity="0.6" clip-path="url(#TkNEGnlOPUgu)" stroke-opacity="1" stroke-linejoin="bevel" stroke-miterlimit="10" stroke-dasharray=""/><path fill="none" stroke="none"/><path fill="rgb(243,134,48)" stroke="rgb(243,134,48)" paint-order="fill" d="M 223.25 14.332337379455566 A 3 3 0 1 1 223.24999850000012 14.329337379955565" fill-opacity="0.6" clip-path="url(#NVlNwkPBIcAn)" stroke-opacity="1" stroke-linejoin="bevel" stroke-miterlimit="10" stroke-dasharray=""/><path fill="rgb(243,134,48)" stroke="rgb(243,134,48)" paint-order="fill" d="M 223.25 12.954545021057129 A 3 3 0 1 1 223.24999850000012 12.951545021557127" fill-opacity="0.6" clip-path="url(#NVlNwkPBIcAn)" stroke-opacity="1" stroke-linejoin="bevel" stroke-miterlimit="10" stroke-dasharray=""/><path fill="none" stroke="rgb(0,0,0)" paint-order="fill" d="M 54.5 169.5 L 275.5 169.5" stroke-opacity="1" stroke-linejoin="bevel" stroke-miterlimit="10" stroke-dasharray=""/><path fill="none" stroke="rgb(0,0,0)" paint-order="fill" d="M 109.5 175.5 L 109.5 167.5 M 220.5 175.5 L 220.5 167.5" stroke-opacity="1" stroke-linejoin="bevel" stroke-miterlimit="10" stroke-dasharray=""/><path fill="none" stroke="rgb(0,0,0)" paint-order="fill" d="" stroke-opacity="1" stroke-linejoin="bevel" stroke-miterlimit="10" stroke-dasharray=""/><text fill="rgb(68,68,68)" stroke="none" font-family="helvetica" font-size="14px" font-style="normal" font-weight="normal" text-decoration="normal" x="54.67499923706055" y="194" text-anchor="start" dominant-baseline="alphabetic" transform="matrix(1, 0, 0, 1, 0.5, 0.5)" fill-opacity="1">Reference Genes</text><text fill="rgb(68,68,68)" stroke="none" font-family="helvetica" font-size="14px" font-style="normal" font-weight="normal" text-decoration="normal" x="161.09166717529297" y="194" text-anchor="start" dominant-baseline="alphabetic" transform="matrix(1, 0, 0, 1, 0.5, 0.5)" fill-opacity="1">Unclassified genes</text><path fill="none" stroke="rgb(0,0,0)" paint-order="fill" d="M 54.5 169.5 L 54.5 5.5" stroke-opacity="1" stroke-linejoin="bevel" stroke-miterlimit="10" stroke-dasharray=""/><path fill="none" stroke="rgb(0,0,0)" paint-order="fill" d="M 48.5 162.5 L 56.5 162.5 M 48.5 139.5 L 56.5 139.5 M 48.5 117.5 L 56.5 117.5 M 48.5 95.5 L 56.5 95.5 M 48.5 72.5 L 56.5 72.5 M 48.5 50.5 L 56.5 50.5 M 48.5 28.5 L 56.5 28.5 M 48.5 5.5 L 56.5 5.5" stroke-opacity="1" stroke-linejoin="bevel" stroke-miterlimit="10" stroke-dasharray=""/><path fill="none" stroke="rgb(0,0,0)" paint-order="fill" d="M 50.5 166.5 L 54.5 166.5 M 50.5 162.5 L 54.5 162.5 M 50.5 157.5 L 54.5 157.5 M 50.5 153.5 L 54.5 153.5 M 50.5 148.5 L 54.5 148.5 M 50.5 144.5 L 54.5 144.5 M 50.5 139.5 L 54.5 139.5 M 50.5 135.5 L 54.5 135.5 M 50.5 130.5 L 54.5 130.5 M 50.5 126.5 L 54.5 126.5 M 50.5 121.5 L 54.5 121.5 M 50.5 117.5 L 54.5 117.5 M 50.5 112.5 L 54.5 112.5 M 50.5 108.5 L 54.5 108.5 M 50.5 104.5 L 54.5 104.5 M 50.5 99.5 L 54.5 99.5 M 50.5 95.5 L 54.5 95.5 M 50.5 90.5 L 54.5 90.5 M 50.5 86.5 L 54.5 86.5 M 50.5 81.5 L 54.5 81.5 M 50.5 77.5 L 54.5 77.5 M 50.5 72.5 L 54.5 72.5 M 50.5 68.5 L 54.5 68.5 M 50.5 63.5 L 54.5 63.5 M 50.5 59.5 L 54.5 59.5 M 50.5 55.5 L 54.5 55.5 M 50.5 50.5 L 54.5 50.5 M 50.5 46.5 L 54.5 46.5 M 50.5 41.5 L 54.5 41.5 M 50.5 37.5 L 54.5 37.5 M 50.5 32.5 L 54.5 32.5 M 50.5 28.5 L 54.5 28.5 M 50.5 23.5 L 54.5 23.5 M 50.5 19.5 L 54.5 19.5 M 50.5 14.5 L 54.5 14.5 M 50.5 10.5 L 54.5 10.5 M 50.5 5.5 L 54.5 5.5" stroke-opacity="1" stroke-linejoin="bevel" stroke-miterlimit="10" stroke-dasharray=""/><text fill="rgb(68,68,68)" stroke="none" font-family="helvetica" font-size="11px" font-style="normal" font-weight="normal" text-decoration="normal" x="36.88333320617676" y="165.53988647460938" text-anchor="start" dominant-baseline="alphabetic" transform="matrix(1, 0, 0, 1, 0.5, 0.5)" fill-opacity="1">0</text><text fill="rgb(68,68,68)" stroke="none" font-family="helvetica" font-size="11px" font-style="normal" font-weight="normal" text-decoration="normal" x="27.716666221618652" y="143.24685668945312" text-anchor="start" dominant-baseline="alphabetic" transform="matrix(1, 0, 0, 1, 0.5, 0.5)" fill-opacity="1">0.2</text><text fill="rgb(68,68,68)" stroke="none" font-family="helvetica" font-size="11px" font-style="normal" font-weight="normal" text-decoration="normal" x="27.716666221618652" y="120.95384216308594" text-anchor="start" dominant-baseline="alphabetic" transform="matrix(1, 0, 0, 1, 0.5, 0.5)" fill-opacity="1">0.4</text><text fill="rgb(68,68,68)" stroke="none" font-family="helvetica" font-size="11px" font-style="normal" font-weight="normal" text-decoration="normal" x="27.716666221618652" y="98.66082763671875" text-anchor="start" dominant-baseline="alphabetic" transform="matrix(1, 0, 0, 1, 0.5, 0.5)" fill-opacity="1">0.6</text><text fill="rgb(68,68,68)" stroke="none" font-family="helvetica" font-size="11px" font-style="normal" font-weight="normal" text-decoration="normal" x="27.716666221618652" y="76.36780548095703" text-anchor="start" dominant-baseline="alphabetic" transform="matrix(1, 0, 0, 1, 0.5, 0.5)" fill-opacity="1">0.8</text><text fill="rgb(68,68,68)" stroke="none" font-family="helvetica" font-size="11px" font-style="normal" font-weight="normal" text-decoration="normal" x="36.88333320617676" y="54.074790954589844" text-anchor="start" dominant-baseline="alphabetic" transform="matrix(1, 0, 0, 1, 0.5, 0.5)" fill-opacity="1">1</text><text fill="rgb(68,68,68)" stroke="none" font-family="helvetica" font-size="11px" font-style="normal" font-weight="normal" text-decoration="normal" x="27.716666221618652" y="31.78177261352539" text-anchor="start" dominant-baseline="alphabetic" transform="matrix(1, 0, 0, 1, 0.5, 0.5)" fill-opacity="1">1.2</text><text fill="rgb(68,68,68)" stroke="none" font-family="helvetica" font-size="11px" font-style="normal" font-weight="normal" text-decoration="normal" x="27.716666221618652" y="9.488754749298096" text-anchor="start" dominant-baseline="alphabetic" transform="matrix(1, 0, 0, 1, 0.5, 0.5)" fill-opacity="1">1.4</text><text fill="rgb(68,68,68)" stroke="none" font-family="helvetica" font-size="14px" font-style="italic" font-weight="normal" text-decoration="normal" x="10.333333015441895" y="84" text-anchor="start" dominant-baseline="alphabetic" transform="matrix(6.123233995736766e-17, -1, 1, 6.123233995736766e-17, -66.78333377838135, 107.21666622161865)" fill-opacity="1">CV</text><path fill="rgb(255,255,255)" stroke="rgb(229,229,229)" paint-order="fill" d="M 64.5 15.5 L 151.48333358764648 15.5 L 151.48333358764648 55.5 L 64.5 55.5 L 64.5 15.5" fill-opacity="0.9490196078431372" clip-path="url(#ZXiLnRFqdhHM)" stroke-opacity="0.5019607843137255" stroke-linejoin="bevel" stroke-miterlimit="10" stroke-dasharray=""/><text fill="rgb(68,68,68)" stroke="none" font-family="helvetica" font-size="13px" font-style="normal" font-weight="normal" text-decoration="normal" x="99" y="35" text-anchor="start" dominant-baseline="central" transform="matrix(1, 0, 0, 1, 0.5, 0.5)" fill-opacity="1">outliers</text><path fill="rgb(243,134,48)" stroke="rgb(243,134,48)" paint-order="fill" d="M 88.5 35.5 A 4 4 0 1 1 88.49999800000016 35.49600000066666" fill-opacity="0.6" clip-path="url(#ZXiLnRFqdhHM)" stroke-opacity="1" stroke-linejoin="bevel" stroke-miterlimit="10" stroke-dasharray=""/></svg>