<?xml version="1.0" encoding="utf-8" standalone="no"?>
<!DOCTYPE svg PUBLIC "-//W3C//DTD SVG 1.1//EN"
  "http://www.w3.org/Graphics/SVG/1.1/DTD/svg11.dtd">
<svg height="288pt" version="1.1" viewBox="0 0 576 288" width="576pt" xmlns="http://www.w3.org/2000/svg" xmlns:xlink="http://www.w3.org/1999/xlink">
 <metadata>
  <rdf:RDF xmlns:cc="http://creativecommons.org/ns#" xmlns:dc="http://purl.org/dc/elements/1.1/" xmlns:rdf="http://www.w3.org/1999/02/22-rdf-syntax-ns#">
   <cc:Work>
    <dc:type rdf:resource="http://purl.org/dc/dcmitype/StillImage"/>
    <dc:date>2021-04-09T14:34:28.903013</dc:date>
    <dc:format>image/svg+xml</dc:format>
    <dc:creator>
     <cc:Agent>
      <dc:title>Matplotlib v3.4.1, https://matplotlib.org/</dc:title>
     </cc:Agent>
    </dc:creator>
   </cc:Work>
  </rdf:RDF>
 </metadata>
 <defs>
  <style type="text/css">*{stroke-linecap:butt;stroke-linejoin:round;}</style>
 </defs>
 <g id="figure_1">
  <g id="patch_1">
   <path d="M 0 288 
L 576 288 
L 576 0 
L 0 0 
z
" style="fill:none;"/>
  </g>
  <g id="axes_1">
   <g id="patch_2">
    <path d="M 72 252 
L 518.4 252 
L 518.4 34.56 
L 72 34.56 
z
" style="fill:#ffffff;"/>
   </g>
   <g id="matplotlib.axis_1">
    <g id="xtick_1">
     <g id="line2d_1">
      <defs>
       <path d="M 0 0 
L 0 3.5 
" id="m15c458d845" style="stroke:#000000;stroke-width:0.8;"/>
      </defs>
      <g>
       <use style="stroke:#000000;stroke-width:0.8;" x="92.290909" xlink:href="#m15c458d845" y="252"/>
      </g>
     </g>
     <g id="text_1">
      <!-- 0 -->
      <g transform="translate(89.109659 266.598437)scale(0.1 -0.1)">
       <defs>
        <path d="M 2034 4250 
Q 1547 4250 1301 3770 
Q 1056 3291 1056 2328 
Q 1056 1369 1301 889 
Q 1547 409 2034 409 
Q 2525 409 2770 889 
Q 3016 1369 3016 2328 
Q 3016 3291 2770 3770 
Q 2525 4250 2034 4250 
z
M 2034 4750 
Q 2819 4750 3233 4129 
Q 3647 3509 3647 2328 
Q 3647 1150 3233 529 
Q 2819 -91 2034 -91 
Q 1250 -91 836 529 
Q 422 1150 422 2328 
Q 422 3509 836 4129 
Q 1250 4750 2034 4750 
z
" id="DejaVuSans-30" transform="scale(0.015625)"/>
       </defs>
       <use xlink:href="#DejaVuSans-30"/>
      </g>
     </g>
    </g>
    <g id="xtick_2">
     <g id="line2d_2">
      <g>
       <use style="stroke:#000000;stroke-width:0.8;" x="152.00518" xlink:href="#m15c458d845" y="252"/>
      </g>
     </g>
     <g id="text_2">
      <!-- 250 -->
      <g transform="translate(142.46143 266.598437)scale(0.1 -0.1)">
       <defs>
        <path d="M 1228 531 
L 3431 531 
L 3431 0 
L 469 0 
L 469 531 
Q 828 903 1448 1529 
Q 2069 2156 2228 2338 
Q 2531 2678 2651 2914 
Q 2772 3150 2772 3378 
Q 2772 3750 2511 3984 
Q 2250 4219 1831 4219 
Q 1534 4219 1204 4116 
Q 875 4013 500 3803 
L 500 4441 
Q 881 4594 1212 4672 
Q 1544 4750 1819 4750 
Q 2544 4750 2975 4387 
Q 3406 4025 3406 3419 
Q 3406 3131 3298 2873 
Q 3191 2616 2906 2266 
Q 2828 2175 2409 1742 
Q 1991 1309 1228 531 
z
" id="DejaVuSans-32" transform="scale(0.015625)"/>
        <path d="M 691 4666 
L 3169 4666 
L 3169 4134 
L 1269 4134 
L 1269 2991 
Q 1406 3038 1543 3061 
Q 1681 3084 1819 3084 
Q 2600 3084 3056 2656 
Q 3513 2228 3513 1497 
Q 3513 744 3044 326 
Q 2575 -91 1722 -91 
Q 1428 -91 1123 -41 
Q 819 9 494 109 
L 494 744 
Q 775 591 1075 516 
Q 1375 441 1709 441 
Q 2250 441 2565 725 
Q 2881 1009 2881 1497 
Q 2881 1984 2565 2268 
Q 2250 2553 1709 2553 
Q 1456 2553 1204 2497 
Q 953 2441 691 2322 
L 691 4666 
z
" id="DejaVuSans-35" transform="scale(0.015625)"/>
       </defs>
       <use xlink:href="#DejaVuSans-32"/>
       <use x="63.623047" xlink:href="#DejaVuSans-35"/>
       <use x="127.246094" xlink:href="#DejaVuSans-30"/>
      </g>
     </g>
    </g>
    <g id="xtick_3">
     <g id="line2d_3">
      <g>
       <use style="stroke:#000000;stroke-width:0.8;" x="211.71945" xlink:href="#m15c458d845" y="252"/>
      </g>
     </g>
     <g id="text_3">
      <!-- 500 -->
      <g transform="translate(202.1757 266.598437)scale(0.1 -0.1)">
       <use xlink:href="#DejaVuSans-35"/>
       <use x="63.623047" xlink:href="#DejaVuSans-30"/>
       <use x="127.246094" xlink:href="#DejaVuSans-30"/>
      </g>
     </g>
    </g>
    <g id="xtick_4">
     <g id="line2d_4">
      <g>
       <use style="stroke:#000000;stroke-width:0.8;" x="271.43372" xlink:href="#m15c458d845" y="252"/>
      </g>
     </g>
     <g id="text_4">
      <!-- 750 -->
      <g transform="translate(261.88997 266.598437)scale(0.1 -0.1)">
       <defs>
        <path d="M 525 4666 
L 3525 4666 
L 3525 4397 
L 1831 0 
L 1172 0 
L 2766 4134 
L 525 4134 
L 525 4666 
z
" id="DejaVuSans-37" transform="scale(0.015625)"/>
       </defs>
       <use xlink:href="#DejaVuSans-37"/>
       <use x="63.623047" xlink:href="#DejaVuSans-35"/>
       <use x="127.246094" xlink:href="#DejaVuSans-30"/>
      </g>
     </g>
    </g>
    <g id="xtick_5">
     <g id="line2d_5">
      <g>
       <use style="stroke:#000000;stroke-width:0.8;" x="331.147991" xlink:href="#m15c458d845" y="252"/>
      </g>
     </g>
     <g id="text_5">
      <!-- 1000 -->
      <g transform="translate(318.422991 266.598437)scale(0.1 -0.1)">
       <defs>
        <path d="M 794 531 
L 1825 531 
L 1825 4091 
L 703 3866 
L 703 4441 
L 1819 4666 
L 2450 4666 
L 2450 531 
L 3481 531 
L 3481 0 
L 794 0 
L 794 531 
z
" id="DejaVuSans-31" transform="scale(0.015625)"/>
       </defs>
       <use xlink:href="#DejaVuSans-31"/>
       <use x="63.623047" xlink:href="#DejaVuSans-30"/>
       <use x="127.246094" xlink:href="#DejaVuSans-30"/>
       <use x="190.869141" xlink:href="#DejaVuSans-30"/>
      </g>
     </g>
    </g>
    <g id="xtick_6">
     <g id="line2d_6">
      <g>
       <use style="stroke:#000000;stroke-width:0.8;" x="390.862261" xlink:href="#m15c458d845" y="252"/>
      </g>
     </g>
     <g id="text_6">
      <!-- 1250 -->
      <g transform="translate(378.137261 266.598437)scale(0.1 -0.1)">
       <use xlink:href="#DejaVuSans-31"/>
       <use x="63.623047" xlink:href="#DejaVuSans-32"/>
       <use x="127.246094" xlink:href="#DejaVuSans-35"/>
       <use x="190.869141" xlink:href="#DejaVuSans-30"/>
      </g>
     </g>
    </g>
    <g id="xtick_7">
     <g id="line2d_7">
      <g>
       <use style="stroke:#000000;stroke-width:0.8;" x="450.576532" xlink:href="#m15c458d845" y="252"/>
      </g>
     </g>
     <g id="text_7">
      <!-- 1500 -->
      <g transform="translate(437.851532 266.598437)scale(0.1 -0.1)">
       <use xlink:href="#DejaVuSans-31"/>
       <use x="63.623047" xlink:href="#DejaVuSans-35"/>
       <use x="127.246094" xlink:href="#DejaVuSans-30"/>
       <use x="190.869141" xlink:href="#DejaVuSans-30"/>
      </g>
     </g>
    </g>
    <g id="xtick_8">
     <g id="line2d_8">
      <g>
       <use style="stroke:#000000;stroke-width:0.8;" x="510.290802" xlink:href="#m15c458d845" y="252"/>
      </g>
     </g>
     <g id="text_8">
      <!-- 1750 -->
      <g transform="translate(497.565802 266.598437)scale(0.1 -0.1)">
       <use xlink:href="#DejaVuSans-31"/>
       <use x="63.623047" xlink:href="#DejaVuSans-37"/>
       <use x="127.246094" xlink:href="#DejaVuSans-35"/>
       <use x="190.869141" xlink:href="#DejaVuSans-30"/>
      </g>
     </g>
    </g>
    <g id="text_9">
     <!-- Epochs -->
     <g transform="translate(271.909687 282.556094)scale(0.13 -0.13)">
      <defs>
       <path d="M 628 4666 
L 3578 4666 
L 3578 4134 
L 1259 4134 
L 1259 2753 
L 3481 2753 
L 3481 2222 
L 1259 2222 
L 1259 531 
L 3634 531 
L 3634 0 
L 628 0 
L 628 4666 
z
" id="DejaVuSans-45" transform="scale(0.015625)"/>
       <path d="M 1159 525 
L 1159 -1331 
L 581 -1331 
L 581 3500 
L 1159 3500 
L 1159 2969 
Q 1341 3281 1617 3432 
Q 1894 3584 2278 3584 
Q 2916 3584 3314 3078 
Q 3713 2572 3713 1747 
Q 3713 922 3314 415 
Q 2916 -91 2278 -91 
Q 1894 -91 1617 61 
Q 1341 213 1159 525 
z
M 3116 1747 
Q 3116 2381 2855 2742 
Q 2594 3103 2138 3103 
Q 1681 3103 1420 2742 
Q 1159 2381 1159 1747 
Q 1159 1113 1420 752 
Q 1681 391 2138 391 
Q 2594 391 2855 752 
Q 3116 1113 3116 1747 
z
" id="DejaVuSans-70" transform="scale(0.015625)"/>
       <path d="M 1959 3097 
Q 1497 3097 1228 2736 
Q 959 2375 959 1747 
Q 959 1119 1226 758 
Q 1494 397 1959 397 
Q 2419 397 2687 759 
Q 2956 1122 2956 1747 
Q 2956 2369 2687 2733 
Q 2419 3097 1959 3097 
z
M 1959 3584 
Q 2709 3584 3137 3096 
Q 3566 2609 3566 1747 
Q 3566 888 3137 398 
Q 2709 -91 1959 -91 
Q 1206 -91 779 398 
Q 353 888 353 1747 
Q 353 2609 779 3096 
Q 1206 3584 1959 3584 
z
" id="DejaVuSans-6f" transform="scale(0.015625)"/>
       <path d="M 3122 3366 
L 3122 2828 
Q 2878 2963 2633 3030 
Q 2388 3097 2138 3097 
Q 1578 3097 1268 2742 
Q 959 2388 959 1747 
Q 959 1106 1268 751 
Q 1578 397 2138 397 
Q 2388 397 2633 464 
Q 2878 531 3122 666 
L 3122 134 
Q 2881 22 2623 -34 
Q 2366 -91 2075 -91 
Q 1284 -91 818 406 
Q 353 903 353 1747 
Q 353 2603 823 3093 
Q 1294 3584 2113 3584 
Q 2378 3584 2631 3529 
Q 2884 3475 3122 3366 
z
" id="DejaVuSans-63" transform="scale(0.015625)"/>
       <path d="M 3513 2113 
L 3513 0 
L 2938 0 
L 2938 2094 
Q 2938 2591 2744 2837 
Q 2550 3084 2163 3084 
Q 1697 3084 1428 2787 
Q 1159 2491 1159 1978 
L 1159 0 
L 581 0 
L 581 4863 
L 1159 4863 
L 1159 2956 
Q 1366 3272 1645 3428 
Q 1925 3584 2291 3584 
Q 2894 3584 3203 3211 
Q 3513 2838 3513 2113 
z
" id="DejaVuSans-68" transform="scale(0.015625)"/>
       <path d="M 2834 3397 
L 2834 2853 
Q 2591 2978 2328 3040 
Q 2066 3103 1784 3103 
Q 1356 3103 1142 2972 
Q 928 2841 928 2578 
Q 928 2378 1081 2264 
Q 1234 2150 1697 2047 
L 1894 2003 
Q 2506 1872 2764 1633 
Q 3022 1394 3022 966 
Q 3022 478 2636 193 
Q 2250 -91 1575 -91 
Q 1294 -91 989 -36 
Q 684 19 347 128 
L 347 722 
Q 666 556 975 473 
Q 1284 391 1588 391 
Q 1994 391 2212 530 
Q 2431 669 2431 922 
Q 2431 1156 2273 1281 
Q 2116 1406 1581 1522 
L 1381 1569 
Q 847 1681 609 1914 
Q 372 2147 372 2553 
Q 372 3047 722 3315 
Q 1072 3584 1716 3584 
Q 2034 3584 2315 3537 
Q 2597 3491 2834 3397 
z
" id="DejaVuSans-73" transform="scale(0.015625)"/>
      </defs>
      <use xlink:href="#DejaVuSans-45"/>
      <use x="63.183594" xlink:href="#DejaVuSans-70"/>
      <use x="126.660156" xlink:href="#DejaVuSans-6f"/>
      <use x="187.841797" xlink:href="#DejaVuSans-63"/>
      <use x="242.822266" xlink:href="#DejaVuSans-68"/>
      <use x="306.201172" xlink:href="#DejaVuSans-73"/>
     </g>
    </g>
   </g>
   <g id="matplotlib.axis_2">
    <g id="ytick_1">
     <g id="line2d_9">
      <path clip-path="url(#p93861abe68)" d="M 72 244.184526 
L 518.4 244.184526 
" style="fill:none;stroke:#b0b0b0;stroke-linecap:square;stroke-width:0.8;"/>
     </g>
     <g id="line2d_10">
      <defs>
       <path d="M 0 0 
L -3.5 0 
" id="md08f17c0a3" style="stroke:#000000;stroke-width:0.8;"/>
      </defs>
      <g>
       <use style="stroke:#000000;stroke-width:0.8;" x="72" xlink:href="#md08f17c0a3" y="244.184526"/>
      </g>
     </g>
     <g id="text_10">
      <!-- −0.05 -->
      <g transform="translate(34.354687 247.983744)scale(0.1 -0.1)">
       <defs>
        <path d="M 678 2272 
L 4684 2272 
L 4684 1741 
L 678 1741 
L 678 2272 
z
" id="DejaVuSans-2212" transform="scale(0.015625)"/>
        <path d="M 684 794 
L 1344 794 
L 1344 0 
L 684 0 
L 684 794 
z
" id="DejaVuSans-2e" transform="scale(0.015625)"/>
       </defs>
       <use xlink:href="#DejaVuSans-2212"/>
       <use x="83.789062" xlink:href="#DejaVuSans-30"/>
       <use x="147.412109" xlink:href="#DejaVuSans-2e"/>
       <use x="179.199219" xlink:href="#DejaVuSans-30"/>
       <use x="242.822266" xlink:href="#DejaVuSans-35"/>
      </g>
     </g>
    </g>
    <g id="ytick_2">
     <g id="line2d_11">
      <path clip-path="url(#p93861abe68)" d="M 72 215.028509 
L 518.4 215.028509 
" style="fill:none;stroke:#b0b0b0;stroke-linecap:square;stroke-width:0.8;"/>
     </g>
     <g id="line2d_12">
      <g>
       <use style="stroke:#000000;stroke-width:0.8;" x="72" xlink:href="#md08f17c0a3" y="215.028509"/>
      </g>
     </g>
     <g id="text_11">
      <!-- 0.00 -->
      <g transform="translate(42.734375 218.827728)scale(0.1 -0.1)">
       <use xlink:href="#DejaVuSans-30"/>
       <use x="63.623047" xlink:href="#DejaVuSans-2e"/>
       <use x="95.410156" xlink:href="#DejaVuSans-30"/>
       <use x="159.033203" xlink:href="#DejaVuSans-30"/>
      </g>
     </g>
    </g>
    <g id="ytick_3">
     <g id="line2d_13">
      <path clip-path="url(#p93861abe68)" d="M 72 185.872492 
L 518.4 185.872492 
" style="fill:none;stroke:#b0b0b0;stroke-linecap:square;stroke-width:0.8;"/>
     </g>
     <g id="line2d_14">
      <g>
       <use style="stroke:#000000;stroke-width:0.8;" x="72" xlink:href="#md08f17c0a3" y="185.872492"/>
      </g>
     </g>
     <g id="text_12">
      <!-- 0.05 -->
      <g transform="translate(42.734375 189.671711)scale(0.1 -0.1)">
       <use xlink:href="#DejaVuSans-30"/>
       <use x="63.623047" xlink:href="#DejaVuSans-2e"/>
       <use x="95.410156" xlink:href="#DejaVuSans-30"/>
       <use x="159.033203" xlink:href="#DejaVuSans-35"/>
      </g>
     </g>
    </g>
    <g id="ytick_4">
     <g id="line2d_15">
      <path clip-path="url(#p93861abe68)" d="M 72 156.716475 
L 518.4 156.716475 
" style="fill:none;stroke:#b0b0b0;stroke-linecap:square;stroke-width:0.8;"/>
     </g>
     <g id="line2d_16">
      <g>
       <use style="stroke:#000000;stroke-width:0.8;" x="72" xlink:href="#md08f17c0a3" y="156.716475"/>
      </g>
     </g>
     <g id="text_13">
      <!-- 0.10 -->
      <g transform="translate(42.734375 160.515694)scale(0.1 -0.1)">
       <use xlink:href="#DejaVuSans-30"/>
       <use x="63.623047" xlink:href="#DejaVuSans-2e"/>
       <use x="95.410156" xlink:href="#DejaVuSans-31"/>
       <use x="159.033203" xlink:href="#DejaVuSans-30"/>
      </g>
     </g>
    </g>
    <g id="ytick_5">
     <g id="line2d_17">
      <path clip-path="url(#p93861abe68)" d="M 72 127.560459 
L 518.4 127.560459 
" style="fill:none;stroke:#b0b0b0;stroke-linecap:square;stroke-width:0.8;"/>
     </g>
     <g id="line2d_18">
      <g>
       <use style="stroke:#000000;stroke-width:0.8;" x="72" xlink:href="#md08f17c0a3" y="127.560459"/>
      </g>
     </g>
     <g id="text_14">
      <!-- 0.15 -->
      <g transform="translate(42.734375 131.359677)scale(0.1 -0.1)">
       <use xlink:href="#DejaVuSans-30"/>
       <use x="63.623047" xlink:href="#DejaVuSans-2e"/>
       <use x="95.410156" xlink:href="#DejaVuSans-31"/>
       <use x="159.033203" xlink:href="#DejaVuSans-35"/>
      </g>
     </g>
    </g>
    <g id="ytick_6">
     <g id="line2d_19">
      <path clip-path="url(#p93861abe68)" d="M 72 98.404442 
L 518.4 98.404442 
" style="fill:none;stroke:#b0b0b0;stroke-linecap:square;stroke-width:0.8;"/>
     </g>
     <g id="line2d_20">
      <g>
       <use style="stroke:#000000;stroke-width:0.8;" x="72" xlink:href="#md08f17c0a3" y="98.404442"/>
      </g>
     </g>
     <g id="text_15">
      <!-- 0.20 -->
      <g transform="translate(42.734375 102.203661)scale(0.1 -0.1)">
       <use xlink:href="#DejaVuSans-30"/>
       <use x="63.623047" xlink:href="#DejaVuSans-2e"/>
       <use x="95.410156" xlink:href="#DejaVuSans-32"/>
       <use x="159.033203" xlink:href="#DejaVuSans-30"/>
      </g>
     </g>
    </g>
    <g id="ytick_7">
     <g id="line2d_21">
      <path clip-path="url(#p93861abe68)" d="M 72 69.248425 
L 518.4 69.248425 
" style="fill:none;stroke:#b0b0b0;stroke-linecap:square;stroke-width:0.8;"/>
     </g>
     <g id="line2d_22">
      <g>
       <use style="stroke:#000000;stroke-width:0.8;" x="72" xlink:href="#md08f17c0a3" y="69.248425"/>
      </g>
     </g>
     <g id="text_16">
      <!-- 0.25 -->
      <g transform="translate(42.734375 73.047644)scale(0.1 -0.1)">
       <use xlink:href="#DejaVuSans-30"/>
       <use x="63.623047" xlink:href="#DejaVuSans-2e"/>
       <use x="95.410156" xlink:href="#DejaVuSans-32"/>
       <use x="159.033203" xlink:href="#DejaVuSans-35"/>
      </g>
     </g>
    </g>
    <g id="ytick_8">
     <g id="line2d_23">
      <path clip-path="url(#p93861abe68)" d="M 72 40.092409 
L 518.4 40.092409 
" style="fill:none;stroke:#b0b0b0;stroke-linecap:square;stroke-width:0.8;"/>
     </g>
     <g id="line2d_24">
      <g>
       <use style="stroke:#000000;stroke-width:0.8;" x="72" xlink:href="#md08f17c0a3" y="40.092409"/>
      </g>
     </g>
     <g id="text_17">
      <!-- 0.30 -->
      <g transform="translate(42.734375 43.891627)scale(0.1 -0.1)">
       <defs>
        <path d="M 2597 2516 
Q 3050 2419 3304 2112 
Q 3559 1806 3559 1356 
Q 3559 666 3084 287 
Q 2609 -91 1734 -91 
Q 1441 -91 1130 -33 
Q 819 25 488 141 
L 488 750 
Q 750 597 1062 519 
Q 1375 441 1716 441 
Q 2309 441 2620 675 
Q 2931 909 2931 1356 
Q 2931 1769 2642 2001 
Q 2353 2234 1838 2234 
L 1294 2234 
L 1294 2753 
L 1863 2753 
Q 2328 2753 2575 2939 
Q 2822 3125 2822 3475 
Q 2822 3834 2567 4026 
Q 2313 4219 1838 4219 
Q 1578 4219 1281 4162 
Q 984 4106 628 3988 
L 628 4550 
Q 988 4650 1302 4700 
Q 1616 4750 1894 4750 
Q 2613 4750 3031 4423 
Q 3450 4097 3450 3541 
Q 3450 3153 3228 2886 
Q 3006 2619 2597 2516 
z
" id="DejaVuSans-33" transform="scale(0.015625)"/>
       </defs>
       <use xlink:href="#DejaVuSans-30"/>
       <use x="63.623047" xlink:href="#DejaVuSans-2e"/>
       <use x="95.410156" xlink:href="#DejaVuSans-33"/>
       <use x="159.033203" xlink:href="#DejaVuSans-30"/>
      </g>
     </g>
    </g>
    <g id="text_18">
     <!-- D_KL Divergence -->
     <g transform="translate(27.289531 198.519844)rotate(-90)scale(0.13 -0.13)">
      <defs>
       <path d="M 1259 4147 
L 1259 519 
L 2022 519 
Q 2988 519 3436 956 
Q 3884 1394 3884 2338 
Q 3884 3275 3436 3711 
Q 2988 4147 2022 4147 
L 1259 4147 
z
M 628 4666 
L 1925 4666 
Q 3281 4666 3915 4102 
Q 4550 3538 4550 2338 
Q 4550 1131 3912 565 
Q 3275 0 1925 0 
L 628 0 
L 628 4666 
z
" id="DejaVuSans-44" transform="scale(0.015625)"/>
       <path d="M 3263 -1063 
L 3263 -1509 
L -63 -1509 
L -63 -1063 
L 3263 -1063 
z
" id="DejaVuSans-5f" transform="scale(0.015625)"/>
       <path d="M 628 4666 
L 1259 4666 
L 1259 2694 
L 3353 4666 
L 4166 4666 
L 1850 2491 
L 4331 0 
L 3500 0 
L 1259 2247 
L 1259 0 
L 628 0 
L 628 4666 
z
" id="DejaVuSans-4b" transform="scale(0.015625)"/>
       <path d="M 628 4666 
L 1259 4666 
L 1259 531 
L 3531 531 
L 3531 0 
L 628 0 
L 628 4666 
z
" id="DejaVuSans-4c" transform="scale(0.015625)"/>
       <path id="DejaVuSans-20" transform="scale(0.015625)"/>
       <path d="M 603 3500 
L 1178 3500 
L 1178 0 
L 603 0 
L 603 3500 
z
M 603 4863 
L 1178 4863 
L 1178 4134 
L 603 4134 
L 603 4863 
z
" id="DejaVuSans-69" transform="scale(0.015625)"/>
       <path d="M 191 3500 
L 800 3500 
L 1894 563 
L 2988 3500 
L 3597 3500 
L 2284 0 
L 1503 0 
L 191 3500 
z
" id="DejaVuSans-76" transform="scale(0.015625)"/>
       <path d="M 3597 1894 
L 3597 1613 
L 953 1613 
Q 991 1019 1311 708 
Q 1631 397 2203 397 
Q 2534 397 2845 478 
Q 3156 559 3463 722 
L 3463 178 
Q 3153 47 2828 -22 
Q 2503 -91 2169 -91 
Q 1331 -91 842 396 
Q 353 884 353 1716 
Q 353 2575 817 3079 
Q 1281 3584 2069 3584 
Q 2775 3584 3186 3129 
Q 3597 2675 3597 1894 
z
M 3022 2063 
Q 3016 2534 2758 2815 
Q 2500 3097 2075 3097 
Q 1594 3097 1305 2825 
Q 1016 2553 972 2059 
L 3022 2063 
z
" id="DejaVuSans-65" transform="scale(0.015625)"/>
       <path d="M 2631 2963 
Q 2534 3019 2420 3045 
Q 2306 3072 2169 3072 
Q 1681 3072 1420 2755 
Q 1159 2438 1159 1844 
L 1159 0 
L 581 0 
L 581 3500 
L 1159 3500 
L 1159 2956 
Q 1341 3275 1631 3429 
Q 1922 3584 2338 3584 
Q 2397 3584 2469 3576 
Q 2541 3569 2628 3553 
L 2631 2963 
z
" id="DejaVuSans-72" transform="scale(0.015625)"/>
       <path d="M 2906 1791 
Q 2906 2416 2648 2759 
Q 2391 3103 1925 3103 
Q 1463 3103 1205 2759 
Q 947 2416 947 1791 
Q 947 1169 1205 825 
Q 1463 481 1925 481 
Q 2391 481 2648 825 
Q 2906 1169 2906 1791 
z
M 3481 434 
Q 3481 -459 3084 -895 
Q 2688 -1331 1869 -1331 
Q 1566 -1331 1297 -1286 
Q 1028 -1241 775 -1147 
L 775 -588 
Q 1028 -725 1275 -790 
Q 1522 -856 1778 -856 
Q 2344 -856 2625 -561 
Q 2906 -266 2906 331 
L 2906 616 
Q 2728 306 2450 153 
Q 2172 0 1784 0 
Q 1141 0 747 490 
Q 353 981 353 1791 
Q 353 2603 747 3093 
Q 1141 3584 1784 3584 
Q 2172 3584 2450 3431 
Q 2728 3278 2906 2969 
L 2906 3500 
L 3481 3500 
L 3481 434 
z
" id="DejaVuSans-67" transform="scale(0.015625)"/>
       <path d="M 3513 2113 
L 3513 0 
L 2938 0 
L 2938 2094 
Q 2938 2591 2744 2837 
Q 2550 3084 2163 3084 
Q 1697 3084 1428 2787 
Q 1159 2491 1159 1978 
L 1159 0 
L 581 0 
L 581 3500 
L 1159 3500 
L 1159 2956 
Q 1366 3272 1645 3428 
Q 1925 3584 2291 3584 
Q 2894 3584 3203 3211 
Q 3513 2838 3513 2113 
z
" id="DejaVuSans-6e" transform="scale(0.015625)"/>
      </defs>
      <use xlink:href="#DejaVuSans-44"/>
      <use x="77.001953" xlink:href="#DejaVuSans-5f"/>
      <use x="127.001953" xlink:href="#DejaVuSans-4b"/>
      <use x="192.578125" xlink:href="#DejaVuSans-4c"/>
      <use x="248.291016" xlink:href="#DejaVuSans-20"/>
      <use x="280.078125" xlink:href="#DejaVuSans-44"/>
      <use x="357.080078" xlink:href="#DejaVuSans-69"/>
      <use x="384.863281" xlink:href="#DejaVuSans-76"/>
      <use x="444.042969" xlink:href="#DejaVuSans-65"/>
      <use x="505.566406" xlink:href="#DejaVuSans-72"/>
      <use x="544.929688" xlink:href="#DejaVuSans-67"/>
      <use x="608.40625" xlink:href="#DejaVuSans-65"/>
      <use x="669.929688" xlink:href="#DejaVuSans-6e"/>
      <use x="733.308594" xlink:href="#DejaVuSans-63"/>
      <use x="788.289062" xlink:href="#DejaVuSans-65"/>
     </g>
    </g>
   </g>
   <g id="line2d_25">
    <path clip-path="url(#p93861abe68)" d="M 92.290909 84.498474 
L 93.00748 75.15575 
L 93.724052 68.65303 
L 94.440623 75.352693 
L 95.157194 121.272362 
L 95.873765 94.891703 
L 96.590337 103.538664 
L 97.306908 100.901433 
L 98.023479 83.892619 
L 98.74005 89.158758 
L 99.456622 109.855627 
L 100.173193 89.474087 
L 100.889764 108.205847 
L 101.606335 89.392136 
L 102.322907 104.629887 
L 103.039478 95.413588 
L 103.756049 93.116772 
L 104.47262 101.660441 
L 105.189192 118.622506 
L 105.905763 96.017682 
L 106.622334 115.465697 
L 107.338905 113.196455 
L 108.055476 109.454752 
L 108.772048 133.152746 
L 109.488619 110.929072 
L 110.20519 96.787803 
L 110.921761 92.702355 
L 111.638333 127.268455 
L 112.354904 134.265684 
L 113.071475 107.665412 
L 113.788046 111.930471 
L 114.504618 127.655238 
L 115.221189 93.087621 
L 115.93776 105.765165 
L 116.654331 125.473507 
L 117.370903 121.762001 
L 118.087474 117.233445 
L 118.804045 111.885073 
L 119.520616 119.540144 
L 120.237188 121.397365 
L 120.953759 110.850992 
L 121.67033 125.483483 
L 122.386901 106.138528 
L 123.103473 119.083536 
L 124.536615 100.119436 
L 125.253186 104.155713 
L 125.969758 122.221902 
L 126.686329 110.908334 
L 127.4029 94.011779 
L 128.119471 103.763677 
L 128.836043 108.714188 
L 129.552614 98.578267 
L 130.269185 106.776462 
L 130.985756 99.779196 
L 131.702328 109.14195 
L 132.418899 99.380814 
L 133.13547 97.839005 
L 133.852041 97.435052 
L 134.568613 72.09882 
L 135.285184 97.533347 
L 136.001755 113.079125 
L 136.718326 97.294422 
L 137.434898 96.322273 
L 138.151469 80.944908 
L 138.86804 104.098748 
L 139.584611 75.936116 
L 140.301183 93.660582 
L 141.017754 92.571929 
L 141.734325 97.97361 
L 142.450896 95.839196 
L 143.167467 100.204327 
L 143.884039 91.965632 
L 144.60061 94.331366 
L 145.317181 89.488631 
L 146.033752 109.640005 
L 146.750324 83.971549 
L 147.466895 110.936838 
L 148.183466 85.067485 
L 148.900037 102.680578 
L 149.616609 84.778135 
L 150.33318 86.010801 
L 151.049751 92.212168 
L 151.766322 89.991173 
L 152.482894 85.145537 
L 153.199465 83.294878 
L 153.916036 72.265893 
L 154.632607 87.327455 
L 155.349179 90.893481 
L 156.06575 71.901053 
L 156.782321 78.310675 
L 157.498892 93.48119 
L 158.215464 83.523307 
L 158.932035 105.719957 
L 159.648606 84.411978 
L 160.365177 94.246093 
L 161.081749 86.842738 
L 161.79832 83.934486 
L 162.514891 109.755553 
L 163.231462 80.358722 
L 163.948034 71.449218 
L 164.664605 89.639752 
L 166.097747 113.686929 
L 166.814319 104.253624 
L 167.53089 77.961034 
L 168.247461 85.769903 
L 168.964032 102.79326 
L 169.680604 97.27979 
L 170.397175 75.63323 
L 171.113746 82.89417 
L 171.830317 65.937461 
L 172.546889 58.640645 
L 173.26346 73.362274 
L 173.980031 98.152719 
L 174.696602 69.349342 
L 175.413174 98.871375 
L 176.129745 91.092788 
L 176.846316 72.107485 
L 177.562887 85.016358 
L 178.279459 84.032438 
L 178.99603 49.88708 
L 179.712601 95.472587 
L 180.429172 93.296327 
L 181.145743 81.785934 
L 181.862315 77.205325 
L 182.578886 55.58335 
L 183.295457 99.938181 
L 184.012028 80.363972 
L 184.7286 88.47353 
L 185.445171 92.622026 
L 186.161742 60.139176 
L 186.878313 91.059136 
L 187.594885 92.670763 
L 188.311456 85.089243 
L 189.028027 100.290446 
L 189.744598 103.357876 
L 190.46117 48.02873 
L 191.177741 95.12266 
L 191.894312 78.028562 
L 192.610883 111.503472 
L 193.327455 107.370087 
L 194.044026 76.612644 
L 194.760597 97.279593 
L 195.477168 69.284431 
L 196.19374 61.683334 
L 196.910311 118.825707 
L 197.626882 77.571598 
L 198.343453 93.939992 
L 199.060025 50.033237 
L 199.776596 106.936694 
L 200.493167 107.934924 
L 201.209738 101.189924 
L 201.92631 87.795502 
L 202.642881 98.488701 
L 203.359452 85.266765 
L 204.076023 107.059861 
L 204.792595 85.532342 
L 205.509166 106.195314 
L 206.225737 104.741975 
L 206.942308 75.275692 
L 207.65888 105.160191 
L 208.375451 87.458234 
L 209.092022 135.469098 
L 209.808593 92.600769 
L 210.525165 101.832356 
L 211.241736 92.281391 
L 211.958307 93.98279 
L 212.674878 97.701956 
L 213.39145 97.360966 
L 214.108021 78.95338 
L 214.824592 105.866842 
L 215.541163 53.48366 
L 216.257734 105.229996 
L 216.974306 104.666799 
L 217.690877 78.311404 
L 218.407448 47.572979 
L 219.124019 44.443636 
L 219.840591 75.06279 
L 220.557162 91.145089 
L 221.273733 86.712933 
L 221.990304 115.018387 
L 222.706876 79.576398 
L 223.423447 118.516085 
L 224.140018 101.065937 
L 224.856589 98.849198 
L 225.573161 133.834045 
L 226.289732 136.031211 
L 227.006303 130.215799 
L 227.722874 95.66723 
L 228.439446 99.289332 
L 229.156017 151.116087 
L 229.872588 134.127979 
L 230.589159 145.122265 
L 231.305731 79.154804 
L 232.022302 155.715604 
L 232.738873 102.260149 
L 233.455444 110.367555 
L 234.172016 120.971606 
L 234.888587 134.614595 
L 235.605158 104.221874 
L 236.321729 103.072928 
L 237.038301 165.246522 
L 237.754872 116.904727 
L 238.471443 172.74593 
L 239.188014 107.822634 
L 239.904586 111.434437 
L 240.621157 105.909043 
L 241.337728 102.964645 
L 242.054299 139.442629 
L 242.770871 85.66755 
L 243.487442 131.646436 
L 244.204013 141.337488 
L 244.920584 159.494502 
L 245.637156 109.121455 
L 246.353727 93.586513 
L 247.070298 125.096851 
L 247.786869 130.204333 
L 248.503441 136.367408 
L 249.220012 115.812099 
L 249.936583 150.110734 
L 250.653154 102.480345 
L 251.369726 168.641153 
L 252.086297 125.512658 
L 252.802868 114.300816 
L 253.519439 96.18484 
L 254.23601 156.77527 
L 254.952582 134.282894 
L 255.669153 163.535372 
L 256.385724 140.471875 
L 257.102295 170.241882 
L 257.818867 117.972874 
L 258.535438 131.809179 
L 259.252009 153.578751 
L 259.96858 161.463131 
L 260.685152 150.405482 
L 261.401723 123.842763 
L 262.118294 132.860498 
L 262.834865 137.826469 
L 263.551437 82.912934 
L 264.268008 120.455675 
L 264.984579 128.712513 
L 265.70115 130.349419 
L 266.417722 161.461915 
L 267.134293 149.522004 
L 267.850864 110.208201 
L 268.567435 130.844679 
L 269.284007 127.032415 
L 270.000578 131.068849 
L 270.717149 107.557968 
L 271.43372 130.18778 
L 272.150292 145.90078 
L 272.866863 152.075701 
L 273.583434 155.349339 
L 274.300005 126.279591 
L 275.016577 162.944464 
L 275.733148 142.666128 
L 276.449719 129.192071 
L 277.16629 159.795361 
L 277.882862 171.954719 
L 278.599433 162.268718 
L 279.316004 146.812955 
L 280.032575 82.270462 
L 280.749147 158.509346 
L 281.465718 161.995107 
L 282.182289 163.503172 
L 282.89886 178.918845 
L 283.615432 133.939912 
L 284.332003 175.026962 
L 285.048574 128.034003 
L 285.765145 151.975021 
L 286.481717 165.722302 
L 287.198288 133.372254 
L 287.914859 201.147626 
L 288.63143 193.71556 
L 290.064573 107.962548 
L 290.781144 147.929149 
L 291.497715 146.176382 
L 292.214286 124.094613 
L 292.930858 147.097607 
L 293.647429 191.88494 
L 294.364 137.02984 
L 295.797143 167.196903 
L 296.513714 169.839813 
L 297.230285 166.017048 
L 297.946856 142.404306 
L 298.663428 154.55157 
L 299.379999 156.478389 
L 300.09657 151.560423 
L 300.813141 178.743147 
L 301.529713 190.69888 
L 302.246284 116.322423 
L 302.962855 148.561982 
L 303.679426 142.262309 
L 304.395998 143.568814 
L 305.112569 122.126416 
L 305.82914 151.48141 
L 306.545711 136.95525 
L 307.262283 199.065608 
L 307.978854 150.230735 
L 308.695425 187.649726 
L 309.411996 178.809738 
L 310.128568 191.156653 
L 310.845139 196.736062 
L 311.56171 205.117175 
L 312.278281 184.329134 
L 312.994853 183.854088 
L 313.711424 127.065162 
L 314.427995 169.514287 
L 315.144566 183.546346 
L 315.861138 156.70061 
L 316.577709 169.957593 
L 317.29428 190.007969 
L 318.010851 193.596861 
L 318.727423 192.543091 
L 319.443994 179.788717 
L 320.160565 153.879414 
L 320.877136 189.153451 
L 321.593708 191.103999 
L 322.310279 184.072792 
L 323.02685 169.335413 
L 323.743421 163.091109 
L 324.459993 120.9991 
L 325.176564 190.202481 
L 325.893135 172.086706 
L 326.609706 182.230732 
L 327.326277 178.125016 
L 328.042849 196.546269 
L 328.75942 141.969401 
L 329.475991 168.249465 
L 330.192562 182.607664 
L 330.909134 155.774453 
L 331.625705 176.715724 
L 332.342276 163.320501 
L 333.058847 222.199931 
L 333.775419 187.834331 
L 334.49199 196.47204 
L 335.208561 211.590746 
L 335.925132 179.415749 
L 336.641704 194.363809 
L 337.358275 206.237741 
L 338.074846 183.673177 
L 338.791417 222.45238 
L 339.507989 184.900697 
L 340.22456 180.369848 
L 340.941131 197.759002 
L 341.657702 209.779109 
L 342.374274 161.840019 
L 343.807416 216.321426 
L 344.523987 187.319994 
L 345.240559 192.885842 
L 345.95713 175.56299 
L 346.673701 180.705743 
L 347.390272 183.179272 
L 348.106844 202.819571 
L 348.823415 177.670107 
L 349.539986 200.914701 
L 350.256557 192.620712 
L 350.973129 198.931033 
L 352.406271 166.272303 
L 353.122842 206.745537 
L 353.839414 183.194897 
L 354.555985 191.149719 
L 355.272556 207.687661 
L 355.989127 182.524055 
L 356.705699 203.319772 
L 357.42227 176.392424 
L 358.138841 182.096881 
L 358.855412 183.389058 
L 359.571984 181.930662 
L 360.288555 231.528045 
L 361.005126 220.032032 
L 361.721697 205.563449 
L 362.438269 207.513802 
L 363.15484 197.442369 
L 363.871411 220.6435 
L 364.587982 215.859649 
L 365.304553 197.598148 
L 366.021125 205.550791 
L 366.737696 197.795317 
L 367.454267 215.440859 
L 368.170838 183.528779 
L 368.88741 205.03458 
L 369.603981 181.821984 
L 370.320552 213.146042 
L 371.037123 189.529276 
L 371.753695 221.549029 
L 372.470266 197.296895 
L 373.186837 201.348359 
L 373.903408 208.539754 
L 374.61998 195.447618 
L 375.336551 196.560267 
L 376.053122 198.02412 
L 376.769693 204.794703 
L 377.486265 197.470604 
L 378.202836 175.761145 
L 378.919407 216.143003 
L 379.635978 219.289432 
L 380.35255 242.116364 
L 381.069121 212.412347 
L 381.785692 214.275483 
L 382.502263 230.825278 
L 383.218835 215.711507 
L 383.935406 197.276856 
L 384.651977 219.718484 
L 385.368548 192.398011 
L 386.08512 215.753878 
L 386.801691 210.629275 
L 387.518262 202.356933 
L 388.234833 220.019912 
L 388.951405 219.723875 
L 389.667976 209.789663 
L 390.384547 201.958805 
L 391.101118 202.019827 
L 391.81769 208.013415 
L 392.534261 209.535989 
L 393.250832 198.737639 
L 393.967403 209.793608 
L 394.683975 208.115497 
L 395.400546 221.038922 
L 396.117117 207.05454 
L 396.833688 212.221211 
L 397.55026 213.300308 
L 398.266831 211.801877 
L 398.983402 201.274861 
L 399.699973 209.627387 
L 400.416544 185.506341 
L 401.133116 208.467 
L 401.849687 199.340942 
L 402.566258 213.118107 
L 403.282829 210.232658 
L 403.999401 219.074745 
L 404.715972 207.458484 
L 405.432543 215.029085 
L 406.149114 221.298543 
L 406.865686 205.537422 
L 407.582257 218.770017 
L 408.298828 215.644434 
L 409.015399 204.78201 
L 409.731971 236.90076 
L 410.448542 233.537649 
L 411.165113 226.981143 
L 411.881684 214.876092 
L 412.598256 210.410316 
L 413.314827 215.09809 
L 414.031398 210.828133 
L 414.747969 227.102735 
L 415.464541 218.05989 
L 416.181112 217.057085 
L 416.897683 233.932466 
L 417.614254 207.466562 
L 418.330826 203.705452 
L 419.047397 229.478907 
L 419.763968 204.964104 
L 420.480539 226.783177 
L 421.197111 225.416208 
L 421.913682 210.507753 
L 422.630253 212.614693 
L 423.346824 220.372337 
L 424.063396 216.222344 
L 424.779967 218.87274 
L 425.496538 216.036121 
L 426.213109 230.695683 
L 426.929681 235.61997 
L 427.646252 221.564553 
L 428.362823 241.516654 
L 429.079394 219.792183 
L 429.795966 210.836384 
L 430.512537 230.611995 
L 431.229108 223.78695 
L 431.945679 213.741843 
L 432.662251 222.274555 
L 433.378822 228.56448 
L 434.095393 211.217373 
L 434.811964 230.024753 
L 435.528536 223.646783 
L 436.245107 222.422952 
L 436.961678 227.275054 
L 437.678249 223.939499 
L 438.39482 235.743333 
L 439.111392 224.279693 
L 439.827963 224.847256 
L 440.544534 206.594588 
L 441.261105 215.888221 
L 441.977677 219.651803 
L 442.694248 235.319915 
L 443.410819 220.180296 
L 444.12739 234.807391 
L 444.843962 224.259103 
L 445.560533 232.52034 
L 446.277104 233.13984 
L 446.993675 236.355235 
L 447.710247 221.567356 
L 449.143389 226.288138 
L 449.85996 227.61379 
L 450.576532 227.33375 
L 451.293103 218.772718 
L 452.009674 225.868588 
L 452.726245 231.78521 
L 453.442817 224.134239 
L 454.159388 222.461708 
L 454.875959 232.63583 
L 455.59253 227.331067 
L 456.309102 225.824009 
L 457.025673 229.581169 
L 457.742244 216.398848 
L 458.458815 215.98683 
L 459.175387 215.898888 
L 459.891958 228.755415 
L 460.608529 220.678662 
L 461.3251 214.248173 
L 462.041672 217.533889 
L 462.758243 219.927097 
L 463.474814 225.987962 
L 464.191385 214.089571 
L 464.907957 212.839857 
L 465.624528 214.216686 
L 466.341099 216.126354 
L 467.05767 220.293224 
L 467.774242 222.379536 
L 468.490813 226.557079 
L 469.207384 229.735165 
L 469.923955 222.161109 
L 470.640527 226.904041 
L 471.357098 232.462376 
L 472.073669 228.508636 
L 472.79024 231.276409 
L 473.506811 225.645425 
L 474.223383 225.392572 
L 474.939954 219.747838 
L 475.656525 230.823182 
L 476.373096 222.570731 
L 477.089668 225.784068 
L 477.806239 221.063402 
L 478.52281 214.398131 
L 479.239381 219.775235 
L 479.955953 214.431477 
L 480.672524 220.485902 
L 481.389095 214.295011 
L 482.822238 224.805848 
L 484.25538 217.510201 
L 484.971951 213.823398 
L 485.688523 224.771775 
L 486.405094 218.873714 
L 487.121665 216.043751 
L 487.838236 227.077685 
L 488.554808 220.420539 
L 489.98795 213.964127 
L 490.704521 219.863125 
L 492.137664 225.985547 
L 492.854235 224.468724 
L 493.570806 231.309482 
L 494.287378 220.704914 
L 495.003949 229.844286 
L 495.72052 214.287093 
L 497.153663 230.721474 
L 497.870234 231.18143 
L 497.870234 231.18143 
" style="fill:none;stroke:#ff7166;stroke-linecap:square;stroke-width:1.5;"/>
   </g>
   <g id="line2d_26">
    <path clip-path="url(#p93861abe68)" d="M 92.290909 215.028509 
L 498.109091 215.028509 
L 498.109091 215.028509 
" style="fill:none;stroke:#000000;stroke-linecap:square;stroke-width:1.5;"/>
   </g>
   <g id="patch_3">
    <path d="M 72 252 
L 72 34.56 
" style="fill:none;stroke:#000000;stroke-linecap:square;stroke-linejoin:miter;stroke-width:0.8;"/>
   </g>
   <g id="patch_4">
    <path d="M 72 252 
L 518.4 252 
" style="fill:none;stroke:#000000;stroke-linecap:square;stroke-linejoin:miter;stroke-width:0.8;"/>
   </g>
   <g id="legend_1">
    <g id="patch_5">
     <path d="M 431.979687 72.194375 
L 511.4 72.194375 
Q 513.4 72.194375 513.4 70.194375 
L 513.4 41.56 
Q 513.4 39.56 511.4 39.56 
L 431.979687 39.56 
Q 429.979687 39.56 429.979687 41.56 
L 429.979687 70.194375 
Q 429.979687 72.194375 431.979687 72.194375 
z
" style="fill:#ffffff;opacity:0.8;stroke:#cccccc;stroke-linejoin:miter;"/>
    </g>
    <g id="line2d_27">
     <path d="M 433.979687 47.658437 
L 453.979687 47.658437 
" style="fill:none;stroke:#ff7166;stroke-linecap:square;stroke-width:1.5;"/>
    </g>
    <g id="line2d_28"/>
    <g id="text_19">
     <!-- D_KL -->
     <g transform="translate(461.979687 51.158437)scale(0.1 -0.1)">
      <use xlink:href="#DejaVuSans-44"/>
      <use x="77.001953" xlink:href="#DejaVuSans-5f"/>
      <use x="127.001953" xlink:href="#DejaVuSans-4b"/>
      <use x="192.578125" xlink:href="#DejaVuSans-4c"/>
     </g>
    </g>
    <g id="line2d_29">
     <path d="M 433.979687 62.614688 
L 453.979687 62.614688 
" style="fill:none;stroke:#000000;stroke-linecap:square;stroke-width:1.5;"/>
    </g>
    <g id="line2d_30"/>
    <g id="text_20">
     <!-- Objective -->
     <g transform="translate(461.979687 66.114688)scale(0.1 -0.1)">
      <defs>
       <path d="M 2522 4238 
Q 1834 4238 1429 3725 
Q 1025 3213 1025 2328 
Q 1025 1447 1429 934 
Q 1834 422 2522 422 
Q 3209 422 3611 934 
Q 4013 1447 4013 2328 
Q 4013 3213 3611 3725 
Q 3209 4238 2522 4238 
z
M 2522 4750 
Q 3503 4750 4090 4092 
Q 4678 3434 4678 2328 
Q 4678 1225 4090 567 
Q 3503 -91 2522 -91 
Q 1538 -91 948 565 
Q 359 1222 359 2328 
Q 359 3434 948 4092 
Q 1538 4750 2522 4750 
z
" id="DejaVuSans-4f" transform="scale(0.015625)"/>
       <path d="M 3116 1747 
Q 3116 2381 2855 2742 
Q 2594 3103 2138 3103 
Q 1681 3103 1420 2742 
Q 1159 2381 1159 1747 
Q 1159 1113 1420 752 
Q 1681 391 2138 391 
Q 2594 391 2855 752 
Q 3116 1113 3116 1747 
z
M 1159 2969 
Q 1341 3281 1617 3432 
Q 1894 3584 2278 3584 
Q 2916 3584 3314 3078 
Q 3713 2572 3713 1747 
Q 3713 922 3314 415 
Q 2916 -91 2278 -91 
Q 1894 -91 1617 61 
Q 1341 213 1159 525 
L 1159 0 
L 581 0 
L 581 4863 
L 1159 4863 
L 1159 2969 
z
" id="DejaVuSans-62" transform="scale(0.015625)"/>
       <path d="M 603 3500 
L 1178 3500 
L 1178 -63 
Q 1178 -731 923 -1031 
Q 669 -1331 103 -1331 
L -116 -1331 
L -116 -844 
L 38 -844 
Q 366 -844 484 -692 
Q 603 -541 603 -63 
L 603 3500 
z
M 603 4863 
L 1178 4863 
L 1178 4134 
L 603 4134 
L 603 4863 
z
" id="DejaVuSans-6a" transform="scale(0.015625)"/>
       <path d="M 1172 4494 
L 1172 3500 
L 2356 3500 
L 2356 3053 
L 1172 3053 
L 1172 1153 
Q 1172 725 1289 603 
Q 1406 481 1766 481 
L 2356 481 
L 2356 0 
L 1766 0 
Q 1100 0 847 248 
Q 594 497 594 1153 
L 594 3053 
L 172 3053 
L 172 3500 
L 594 3500 
L 594 4494 
L 1172 4494 
z
" id="DejaVuSans-74" transform="scale(0.015625)"/>
      </defs>
      <use xlink:href="#DejaVuSans-4f"/>
      <use x="78.710938" xlink:href="#DejaVuSans-62"/>
      <use x="142.1875" xlink:href="#DejaVuSans-6a"/>
      <use x="169.970703" xlink:href="#DejaVuSans-65"/>
      <use x="231.494141" xlink:href="#DejaVuSans-63"/>
      <use x="286.474609" xlink:href="#DejaVuSans-74"/>
      <use x="325.683594" xlink:href="#DejaVuSans-69"/>
      <use x="353.466797" xlink:href="#DejaVuSans-76"/>
      <use x="412.646484" xlink:href="#DejaVuSans-65"/>
     </g>
    </g>
   </g>
  </g>
 </g>
 <defs>
  <clipPath id="p93861abe68">
   <rect height="217.44" width="446.4" x="72" y="34.56"/>
  </clipPath>
 </defs>
</svg>
