<?xml version="1.0" encoding="utf-8" standalone="no"?>
<!DOCTYPE svg PUBLIC "-//W3C//DTD SVG 1.1//EN"
  "http://www.w3.org/Graphics/SVG/1.1/DTD/svg11.dtd">
<svg height="288pt" version="1.1" viewBox="0 0 576 288" width="576pt" xmlns="http://www.w3.org/2000/svg" xmlns:xlink="http://www.w3.org/1999/xlink">
 <metadata>
  <rdf:RDF xmlns:cc="http://creativecommons.org/ns#" xmlns:dc="http://purl.org/dc/elements/1.1/" xmlns:rdf="http://www.w3.org/1999/02/22-rdf-syntax-ns#">
   <cc:Work>
    <dc:type rdf:resource="http://purl.org/dc/dcmitype/StillImage"/>
    <dc:date>2021-04-12T14:17:15.975634</dc:date>
    <dc:format>image/svg+xml</dc:format>
    <dc:creator>
     <cc:Agent>
      <dc:title>Matplotlib v3.4.1, https://matplotlib.org/</dc:title>
     </cc:Agent>
    </dc:creator>
   </cc:Work>
  </rdf:RDF>
 </metadata>
 <defs>
  <style type="text/css">*{stroke-linecap:butt;stroke-linejoin:round;}</style>
 </defs>
 <g id="figure_1">
  <g id="patch_1">
   <path d="M 0 288 
L 576 288 
L 576 0 
L 0 0 
z
" style="fill:none;"/>
  </g>
  <g id="axes_1">
   <g id="patch_2">
    <path d="M 72 252 
L 518.4 252 
L 518.4 34.56 
L 72 34.56 
z
" style="fill:#ffffff;"/>
   </g>
   <g id="matplotlib.axis_1">
    <g id="xtick_1">
     <g id="line2d_1">
      <defs>
       <path d="M 0 0 
L 0 3.5 
" id="m4b69ff422e" style="stroke:#000000;stroke-width:0.8;"/>
      </defs>
      <g>
       <use style="stroke:#000000;stroke-width:0.8;" x="92.290909" xlink:href="#m4b69ff422e" y="252"/>
      </g>
     </g>
     <g id="text_1">
      <!-- 0 -->
      <g transform="translate(89.109659 266.598437)scale(0.1 -0.1)">
       <defs>
        <path d="M 2034 4250 
Q 1547 4250 1301 3770 
Q 1056 3291 1056 2328 
Q 1056 1369 1301 889 
Q 1547 409 2034 409 
Q 2525 409 2770 889 
Q 3016 1369 3016 2328 
Q 3016 3291 2770 3770 
Q 2525 4250 2034 4250 
z
M 2034 4750 
Q 2819 4750 3233 4129 
Q 3647 3509 3647 2328 
Q 3647 1150 3233 529 
Q 2819 -91 2034 -91 
Q 1250 -91 836 529 
Q 422 1150 422 2328 
Q 422 3509 836 4129 
Q 1250 4750 2034 4750 
z
" id="DejaVuSans-30" transform="scale(0.015625)"/>
       </defs>
       <use xlink:href="#DejaVuSans-30"/>
      </g>
     </g>
    </g>
    <g id="xtick_2">
     <g id="line2d_2">
      <g>
       <use style="stroke:#000000;stroke-width:0.8;" x="152.040347" xlink:href="#m4b69ff422e" y="252"/>
      </g>
     </g>
     <g id="text_2">
      <!-- 250 -->
      <g transform="translate(142.496597 266.598437)scale(0.1 -0.1)">
       <defs>
        <path d="M 1228 531 
L 3431 531 
L 3431 0 
L 469 0 
L 469 531 
Q 828 903 1448 1529 
Q 2069 2156 2228 2338 
Q 2531 2678 2651 2914 
Q 2772 3150 2772 3378 
Q 2772 3750 2511 3984 
Q 2250 4219 1831 4219 
Q 1534 4219 1204 4116 
Q 875 4013 500 3803 
L 500 4441 
Q 881 4594 1212 4672 
Q 1544 4750 1819 4750 
Q 2544 4750 2975 4387 
Q 3406 4025 3406 3419 
Q 3406 3131 3298 2873 
Q 3191 2616 2906 2266 
Q 2828 2175 2409 1742 
Q 1991 1309 1228 531 
z
" id="DejaVuSans-32" transform="scale(0.015625)"/>
        <path d="M 691 4666 
L 3169 4666 
L 3169 4134 
L 1269 4134 
L 1269 2991 
Q 1406 3038 1543 3061 
Q 1681 3084 1819 3084 
Q 2600 3084 3056 2656 
Q 3513 2228 3513 1497 
Q 3513 744 3044 326 
Q 2575 -91 1722 -91 
Q 1428 -91 1123 -41 
Q 819 9 494 109 
L 494 744 
Q 775 591 1075 516 
Q 1375 441 1709 441 
Q 2250 441 2565 725 
Q 2881 1009 2881 1497 
Q 2881 1984 2565 2268 
Q 2250 2553 1709 2553 
Q 1456 2553 1204 2497 
Q 953 2441 691 2322 
L 691 4666 
z
" id="DejaVuSans-35" transform="scale(0.015625)"/>
       </defs>
       <use xlink:href="#DejaVuSans-32"/>
       <use x="63.623047" xlink:href="#DejaVuSans-35"/>
       <use x="127.246094" xlink:href="#DejaVuSans-30"/>
      </g>
     </g>
    </g>
    <g id="xtick_3">
     <g id="line2d_3">
      <g>
       <use style="stroke:#000000;stroke-width:0.8;" x="211.789785" xlink:href="#m4b69ff422e" y="252"/>
      </g>
     </g>
     <g id="text_3">
      <!-- 500 -->
      <g transform="translate(202.246035 266.598437)scale(0.1 -0.1)">
       <use xlink:href="#DejaVuSans-35"/>
       <use x="63.623047" xlink:href="#DejaVuSans-30"/>
       <use x="127.246094" xlink:href="#DejaVuSans-30"/>
      </g>
     </g>
    </g>
    <g id="xtick_4">
     <g id="line2d_4">
      <g>
       <use style="stroke:#000000;stroke-width:0.8;" x="271.539223" xlink:href="#m4b69ff422e" y="252"/>
      </g>
     </g>
     <g id="text_4">
      <!-- 750 -->
      <g transform="translate(261.995473 266.598437)scale(0.1 -0.1)">
       <defs>
        <path d="M 525 4666 
L 3525 4666 
L 3525 4397 
L 1831 0 
L 1172 0 
L 2766 4134 
L 525 4134 
L 525 4666 
z
" id="DejaVuSans-37" transform="scale(0.015625)"/>
       </defs>
       <use xlink:href="#DejaVuSans-37"/>
       <use x="63.623047" xlink:href="#DejaVuSans-35"/>
       <use x="127.246094" xlink:href="#DejaVuSans-30"/>
      </g>
     </g>
    </g>
    <g id="xtick_5">
     <g id="line2d_5">
      <g>
       <use style="stroke:#000000;stroke-width:0.8;" x="331.28866" xlink:href="#m4b69ff422e" y="252"/>
      </g>
     </g>
     <g id="text_5">
      <!-- 1000 -->
      <g transform="translate(318.56366 266.598437)scale(0.1 -0.1)">
       <defs>
        <path d="M 794 531 
L 1825 531 
L 1825 4091 
L 703 3866 
L 703 4441 
L 1819 4666 
L 2450 4666 
L 2450 531 
L 3481 531 
L 3481 0 
L 794 0 
L 794 531 
z
" id="DejaVuSans-31" transform="scale(0.015625)"/>
       </defs>
       <use xlink:href="#DejaVuSans-31"/>
       <use x="63.623047" xlink:href="#DejaVuSans-30"/>
       <use x="127.246094" xlink:href="#DejaVuSans-30"/>
       <use x="190.869141" xlink:href="#DejaVuSans-30"/>
      </g>
     </g>
    </g>
    <g id="xtick_6">
     <g id="line2d_6">
      <g>
       <use style="stroke:#000000;stroke-width:0.8;" x="391.038098" xlink:href="#m4b69ff422e" y="252"/>
      </g>
     </g>
     <g id="text_6">
      <!-- 1250 -->
      <g transform="translate(378.313098 266.598437)scale(0.1 -0.1)">
       <use xlink:href="#DejaVuSans-31"/>
       <use x="63.623047" xlink:href="#DejaVuSans-32"/>
       <use x="127.246094" xlink:href="#DejaVuSans-35"/>
       <use x="190.869141" xlink:href="#DejaVuSans-30"/>
      </g>
     </g>
    </g>
    <g id="xtick_7">
     <g id="line2d_7">
      <g>
       <use style="stroke:#000000;stroke-width:0.8;" x="450.787536" xlink:href="#m4b69ff422e" y="252"/>
      </g>
     </g>
     <g id="text_7">
      <!-- 1500 -->
      <g transform="translate(438.062536 266.598437)scale(0.1 -0.1)">
       <use xlink:href="#DejaVuSans-31"/>
       <use x="63.623047" xlink:href="#DejaVuSans-35"/>
       <use x="127.246094" xlink:href="#DejaVuSans-30"/>
       <use x="190.869141" xlink:href="#DejaVuSans-30"/>
      </g>
     </g>
    </g>
    <g id="xtick_8">
     <g id="line2d_8">
      <g>
       <use style="stroke:#000000;stroke-width:0.8;" x="510.536974" xlink:href="#m4b69ff422e" y="252"/>
      </g>
     </g>
     <g id="text_8">
      <!-- 1750 -->
      <g transform="translate(497.811974 266.598437)scale(0.1 -0.1)">
       <use xlink:href="#DejaVuSans-31"/>
       <use x="63.623047" xlink:href="#DejaVuSans-37"/>
       <use x="127.246094" xlink:href="#DejaVuSans-35"/>
       <use x="190.869141" xlink:href="#DejaVuSans-30"/>
      </g>
     </g>
    </g>
    <g id="text_9">
     <!-- Epochs -->
     <g transform="translate(271.909687 282.556094)scale(0.13 -0.13)">
      <defs>
       <path d="M 628 4666 
L 3578 4666 
L 3578 4134 
L 1259 4134 
L 1259 2753 
L 3481 2753 
L 3481 2222 
L 1259 2222 
L 1259 531 
L 3634 531 
L 3634 0 
L 628 0 
L 628 4666 
z
" id="DejaVuSans-45" transform="scale(0.015625)"/>
       <path d="M 1159 525 
L 1159 -1331 
L 581 -1331 
L 581 3500 
L 1159 3500 
L 1159 2969 
Q 1341 3281 1617 3432 
Q 1894 3584 2278 3584 
Q 2916 3584 3314 3078 
Q 3713 2572 3713 1747 
Q 3713 922 3314 415 
Q 2916 -91 2278 -91 
Q 1894 -91 1617 61 
Q 1341 213 1159 525 
z
M 3116 1747 
Q 3116 2381 2855 2742 
Q 2594 3103 2138 3103 
Q 1681 3103 1420 2742 
Q 1159 2381 1159 1747 
Q 1159 1113 1420 752 
Q 1681 391 2138 391 
Q 2594 391 2855 752 
Q 3116 1113 3116 1747 
z
" id="DejaVuSans-70" transform="scale(0.015625)"/>
       <path d="M 1959 3097 
Q 1497 3097 1228 2736 
Q 959 2375 959 1747 
Q 959 1119 1226 758 
Q 1494 397 1959 397 
Q 2419 397 2687 759 
Q 2956 1122 2956 1747 
Q 2956 2369 2687 2733 
Q 2419 3097 1959 3097 
z
M 1959 3584 
Q 2709 3584 3137 3096 
Q 3566 2609 3566 1747 
Q 3566 888 3137 398 
Q 2709 -91 1959 -91 
Q 1206 -91 779 398 
Q 353 888 353 1747 
Q 353 2609 779 3096 
Q 1206 3584 1959 3584 
z
" id="DejaVuSans-6f" transform="scale(0.015625)"/>
       <path d="M 3122 3366 
L 3122 2828 
Q 2878 2963 2633 3030 
Q 2388 3097 2138 3097 
Q 1578 3097 1268 2742 
Q 959 2388 959 1747 
Q 959 1106 1268 751 
Q 1578 397 2138 397 
Q 2388 397 2633 464 
Q 2878 531 3122 666 
L 3122 134 
Q 2881 22 2623 -34 
Q 2366 -91 2075 -91 
Q 1284 -91 818 406 
Q 353 903 353 1747 
Q 353 2603 823 3093 
Q 1294 3584 2113 3584 
Q 2378 3584 2631 3529 
Q 2884 3475 3122 3366 
z
" id="DejaVuSans-63" transform="scale(0.015625)"/>
       <path d="M 3513 2113 
L 3513 0 
L 2938 0 
L 2938 2094 
Q 2938 2591 2744 2837 
Q 2550 3084 2163 3084 
Q 1697 3084 1428 2787 
Q 1159 2491 1159 1978 
L 1159 0 
L 581 0 
L 581 4863 
L 1159 4863 
L 1159 2956 
Q 1366 3272 1645 3428 
Q 1925 3584 2291 3584 
Q 2894 3584 3203 3211 
Q 3513 2838 3513 2113 
z
" id="DejaVuSans-68" transform="scale(0.015625)"/>
       <path d="M 2834 3397 
L 2834 2853 
Q 2591 2978 2328 3040 
Q 2066 3103 1784 3103 
Q 1356 3103 1142 2972 
Q 928 2841 928 2578 
Q 928 2378 1081 2264 
Q 1234 2150 1697 2047 
L 1894 2003 
Q 2506 1872 2764 1633 
Q 3022 1394 3022 966 
Q 3022 478 2636 193 
Q 2250 -91 1575 -91 
Q 1294 -91 989 -36 
Q 684 19 347 128 
L 347 722 
Q 666 556 975 473 
Q 1284 391 1588 391 
Q 1994 391 2212 530 
Q 2431 669 2431 922 
Q 2431 1156 2273 1281 
Q 2116 1406 1581 1522 
L 1381 1569 
Q 847 1681 609 1914 
Q 372 2147 372 2553 
Q 372 3047 722 3315 
Q 1072 3584 1716 3584 
Q 2034 3584 2315 3537 
Q 2597 3491 2834 3397 
z
" id="DejaVuSans-73" transform="scale(0.015625)"/>
      </defs>
      <use xlink:href="#DejaVuSans-45"/>
      <use x="63.183594" xlink:href="#DejaVuSans-70"/>
      <use x="126.660156" xlink:href="#DejaVuSans-6f"/>
      <use x="187.841797" xlink:href="#DejaVuSans-63"/>
      <use x="242.822266" xlink:href="#DejaVuSans-68"/>
      <use x="306.201172" xlink:href="#DejaVuSans-73"/>
     </g>
    </g>
   </g>
   <g id="matplotlib.axis_2">
    <g id="ytick_1">
     <g id="line2d_9">
      <path clip-path="url(#pb2e18d77e3)" d="M 72 227.019977 
L 518.4 227.019977 
" style="fill:none;stroke:#b0b0b0;stroke-linecap:square;stroke-width:0.8;"/>
     </g>
     <g id="line2d_10">
      <defs>
       <path d="M 0 0 
L -3.5 0 
" id="me7d81d3e17" style="stroke:#000000;stroke-width:0.8;"/>
      </defs>
      <g>
       <use style="stroke:#000000;stroke-width:0.8;" x="72" xlink:href="#me7d81d3e17" y="227.019977"/>
      </g>
     </g>
     <g id="text_10">
      <!-- 0.5 -->
      <g transform="translate(49.096875 230.819196)scale(0.1 -0.1)">
       <defs>
        <path d="M 684 794 
L 1344 794 
L 1344 0 
L 684 0 
L 684 794 
z
" id="DejaVuSans-2e" transform="scale(0.015625)"/>
       </defs>
       <use xlink:href="#DejaVuSans-30"/>
       <use x="63.623047" xlink:href="#DejaVuSans-2e"/>
       <use x="95.410156" xlink:href="#DejaVuSans-35"/>
      </g>
     </g>
    </g>
    <g id="ytick_2">
     <g id="line2d_11">
      <path clip-path="url(#pb2e18d77e3)" d="M 72 200.281057 
L 518.4 200.281057 
" style="fill:none;stroke:#b0b0b0;stroke-linecap:square;stroke-width:0.8;"/>
     </g>
     <g id="line2d_12">
      <g>
       <use style="stroke:#000000;stroke-width:0.8;" x="72" xlink:href="#me7d81d3e17" y="200.281057"/>
      </g>
     </g>
     <g id="text_11">
      <!-- 0.6 -->
      <g transform="translate(49.096875 204.080276)scale(0.1 -0.1)">
       <defs>
        <path d="M 2113 2584 
Q 1688 2584 1439 2293 
Q 1191 2003 1191 1497 
Q 1191 994 1439 701 
Q 1688 409 2113 409 
Q 2538 409 2786 701 
Q 3034 994 3034 1497 
Q 3034 2003 2786 2293 
Q 2538 2584 2113 2584 
z
M 3366 4563 
L 3366 3988 
Q 3128 4100 2886 4159 
Q 2644 4219 2406 4219 
Q 1781 4219 1451 3797 
Q 1122 3375 1075 2522 
Q 1259 2794 1537 2939 
Q 1816 3084 2150 3084 
Q 2853 3084 3261 2657 
Q 3669 2231 3669 1497 
Q 3669 778 3244 343 
Q 2819 -91 2113 -91 
Q 1303 -91 875 529 
Q 447 1150 447 2328 
Q 447 3434 972 4092 
Q 1497 4750 2381 4750 
Q 2619 4750 2861 4703 
Q 3103 4656 3366 4563 
z
" id="DejaVuSans-36" transform="scale(0.015625)"/>
       </defs>
       <use xlink:href="#DejaVuSans-30"/>
       <use x="63.623047" xlink:href="#DejaVuSans-2e"/>
       <use x="95.410156" xlink:href="#DejaVuSans-36"/>
      </g>
     </g>
    </g>
    <g id="ytick_3">
     <g id="line2d_13">
      <path clip-path="url(#pb2e18d77e3)" d="M 72 173.542137 
L 518.4 173.542137 
" style="fill:none;stroke:#b0b0b0;stroke-linecap:square;stroke-width:0.8;"/>
     </g>
     <g id="line2d_14">
      <g>
       <use style="stroke:#000000;stroke-width:0.8;" x="72" xlink:href="#me7d81d3e17" y="173.542137"/>
      </g>
     </g>
     <g id="text_12">
      <!-- 0.7 -->
      <g transform="translate(49.096875 177.341356)scale(0.1 -0.1)">
       <use xlink:href="#DejaVuSans-30"/>
       <use x="63.623047" xlink:href="#DejaVuSans-2e"/>
       <use x="95.410156" xlink:href="#DejaVuSans-37"/>
      </g>
     </g>
    </g>
    <g id="ytick_4">
     <g id="line2d_15">
      <path clip-path="url(#pb2e18d77e3)" d="M 72 146.803217 
L 518.4 146.803217 
" style="fill:none;stroke:#b0b0b0;stroke-linecap:square;stroke-width:0.8;"/>
     </g>
     <g id="line2d_16">
      <g>
       <use style="stroke:#000000;stroke-width:0.8;" x="72" xlink:href="#me7d81d3e17" y="146.803217"/>
      </g>
     </g>
     <g id="text_13">
      <!-- 0.8 -->
      <g transform="translate(49.096875 150.602436)scale(0.1 -0.1)">
       <defs>
        <path d="M 2034 2216 
Q 1584 2216 1326 1975 
Q 1069 1734 1069 1313 
Q 1069 891 1326 650 
Q 1584 409 2034 409 
Q 2484 409 2743 651 
Q 3003 894 3003 1313 
Q 3003 1734 2745 1975 
Q 2488 2216 2034 2216 
z
M 1403 2484 
Q 997 2584 770 2862 
Q 544 3141 544 3541 
Q 544 4100 942 4425 
Q 1341 4750 2034 4750 
Q 2731 4750 3128 4425 
Q 3525 4100 3525 3541 
Q 3525 3141 3298 2862 
Q 3072 2584 2669 2484 
Q 3125 2378 3379 2068 
Q 3634 1759 3634 1313 
Q 3634 634 3220 271 
Q 2806 -91 2034 -91 
Q 1263 -91 848 271 
Q 434 634 434 1313 
Q 434 1759 690 2068 
Q 947 2378 1403 2484 
z
M 1172 3481 
Q 1172 3119 1398 2916 
Q 1625 2713 2034 2713 
Q 2441 2713 2670 2916 
Q 2900 3119 2900 3481 
Q 2900 3844 2670 4047 
Q 2441 4250 2034 4250 
Q 1625 4250 1398 4047 
Q 1172 3844 1172 3481 
z
" id="DejaVuSans-38" transform="scale(0.015625)"/>
       </defs>
       <use xlink:href="#DejaVuSans-30"/>
       <use x="63.623047" xlink:href="#DejaVuSans-2e"/>
       <use x="95.410156" xlink:href="#DejaVuSans-38"/>
      </g>
     </g>
    </g>
    <g id="ytick_5">
     <g id="line2d_17">
      <path clip-path="url(#pb2e18d77e3)" d="M 72 120.064297 
L 518.4 120.064297 
" style="fill:none;stroke:#b0b0b0;stroke-linecap:square;stroke-width:0.8;"/>
     </g>
     <g id="line2d_18">
      <g>
       <use style="stroke:#000000;stroke-width:0.8;" x="72" xlink:href="#me7d81d3e17" y="120.064297"/>
      </g>
     </g>
     <g id="text_14">
      <!-- 0.9 -->
      <g transform="translate(49.096875 123.863516)scale(0.1 -0.1)">
       <defs>
        <path d="M 703 97 
L 703 672 
Q 941 559 1184 500 
Q 1428 441 1663 441 
Q 2288 441 2617 861 
Q 2947 1281 2994 2138 
Q 2813 1869 2534 1725 
Q 2256 1581 1919 1581 
Q 1219 1581 811 2004 
Q 403 2428 403 3163 
Q 403 3881 828 4315 
Q 1253 4750 1959 4750 
Q 2769 4750 3195 4129 
Q 3622 3509 3622 2328 
Q 3622 1225 3098 567 
Q 2575 -91 1691 -91 
Q 1453 -91 1209 -44 
Q 966 3 703 97 
z
M 1959 2075 
Q 2384 2075 2632 2365 
Q 2881 2656 2881 3163 
Q 2881 3666 2632 3958 
Q 2384 4250 1959 4250 
Q 1534 4250 1286 3958 
Q 1038 3666 1038 3163 
Q 1038 2656 1286 2365 
Q 1534 2075 1959 2075 
z
" id="DejaVuSans-39" transform="scale(0.015625)"/>
       </defs>
       <use xlink:href="#DejaVuSans-30"/>
       <use x="63.623047" xlink:href="#DejaVuSans-2e"/>
       <use x="95.410156" xlink:href="#DejaVuSans-39"/>
      </g>
     </g>
    </g>
    <g id="ytick_6">
     <g id="line2d_19">
      <path clip-path="url(#pb2e18d77e3)" d="M 72 93.325377 
L 518.4 93.325377 
" style="fill:none;stroke:#b0b0b0;stroke-linecap:square;stroke-width:0.8;"/>
     </g>
     <g id="line2d_20">
      <g>
       <use style="stroke:#000000;stroke-width:0.8;" x="72" xlink:href="#me7d81d3e17" y="93.325377"/>
      </g>
     </g>
     <g id="text_15">
      <!-- 1.0 -->
      <g transform="translate(49.096875 97.124596)scale(0.1 -0.1)">
       <use xlink:href="#DejaVuSans-31"/>
       <use x="63.623047" xlink:href="#DejaVuSans-2e"/>
       <use x="95.410156" xlink:href="#DejaVuSans-30"/>
      </g>
     </g>
    </g>
    <g id="ytick_7">
     <g id="line2d_21">
      <path clip-path="url(#pb2e18d77e3)" d="M 72 66.586457 
L 518.4 66.586457 
" style="fill:none;stroke:#b0b0b0;stroke-linecap:square;stroke-width:0.8;"/>
     </g>
     <g id="line2d_22">
      <g>
       <use style="stroke:#000000;stroke-width:0.8;" x="72" xlink:href="#me7d81d3e17" y="66.586457"/>
      </g>
     </g>
     <g id="text_16">
      <!-- 1.1 -->
      <g transform="translate(49.096875 70.385676)scale(0.1 -0.1)">
       <use xlink:href="#DejaVuSans-31"/>
       <use x="63.623047" xlink:href="#DejaVuSans-2e"/>
       <use x="95.410156" xlink:href="#DejaVuSans-31"/>
      </g>
     </g>
    </g>
    <g id="ytick_8">
     <g id="line2d_23">
      <path clip-path="url(#pb2e18d77e3)" d="M 72 39.847537 
L 518.4 39.847537 
" style="fill:none;stroke:#b0b0b0;stroke-linecap:square;stroke-width:0.8;"/>
     </g>
     <g id="line2d_24">
      <g>
       <use style="stroke:#000000;stroke-width:0.8;" x="72" xlink:href="#me7d81d3e17" y="39.847537"/>
      </g>
     </g>
     <g id="text_17">
      <!-- 1.2 -->
      <g transform="translate(49.096875 43.646756)scale(0.1 -0.1)">
       <use xlink:href="#DejaVuSans-31"/>
       <use x="63.623047" xlink:href="#DejaVuSans-2e"/>
       <use x="95.410156" xlink:href="#DejaVuSans-32"/>
      </g>
     </g>
    </g>
    <g id="text_18">
     <!-- Loss (binary cross-entropy) -->
     <g transform="translate(42.393281 231.633281)rotate(-90)scale(0.13 -0.13)">
      <defs>
       <path d="M 628 4666 
L 1259 4666 
L 1259 531 
L 3531 531 
L 3531 0 
L 628 0 
L 628 4666 
z
" id="DejaVuSans-4c" transform="scale(0.015625)"/>
       <path id="DejaVuSans-20" transform="scale(0.015625)"/>
       <path d="M 1984 4856 
Q 1566 4138 1362 3434 
Q 1159 2731 1159 2009 
Q 1159 1288 1364 580 
Q 1569 -128 1984 -844 
L 1484 -844 
Q 1016 -109 783 600 
Q 550 1309 550 2009 
Q 550 2706 781 3412 
Q 1013 4119 1484 4856 
L 1984 4856 
z
" id="DejaVuSans-28" transform="scale(0.015625)"/>
       <path d="M 3116 1747 
Q 3116 2381 2855 2742 
Q 2594 3103 2138 3103 
Q 1681 3103 1420 2742 
Q 1159 2381 1159 1747 
Q 1159 1113 1420 752 
Q 1681 391 2138 391 
Q 2594 391 2855 752 
Q 3116 1113 3116 1747 
z
M 1159 2969 
Q 1341 3281 1617 3432 
Q 1894 3584 2278 3584 
Q 2916 3584 3314 3078 
Q 3713 2572 3713 1747 
Q 3713 922 3314 415 
Q 2916 -91 2278 -91 
Q 1894 -91 1617 61 
Q 1341 213 1159 525 
L 1159 0 
L 581 0 
L 581 4863 
L 1159 4863 
L 1159 2969 
z
" id="DejaVuSans-62" transform="scale(0.015625)"/>
       <path d="M 603 3500 
L 1178 3500 
L 1178 0 
L 603 0 
L 603 3500 
z
M 603 4863 
L 1178 4863 
L 1178 4134 
L 603 4134 
L 603 4863 
z
" id="DejaVuSans-69" transform="scale(0.015625)"/>
       <path d="M 3513 2113 
L 3513 0 
L 2938 0 
L 2938 2094 
Q 2938 2591 2744 2837 
Q 2550 3084 2163 3084 
Q 1697 3084 1428 2787 
Q 1159 2491 1159 1978 
L 1159 0 
L 581 0 
L 581 3500 
L 1159 3500 
L 1159 2956 
Q 1366 3272 1645 3428 
Q 1925 3584 2291 3584 
Q 2894 3584 3203 3211 
Q 3513 2838 3513 2113 
z
" id="DejaVuSans-6e" transform="scale(0.015625)"/>
       <path d="M 2194 1759 
Q 1497 1759 1228 1600 
Q 959 1441 959 1056 
Q 959 750 1161 570 
Q 1363 391 1709 391 
Q 2188 391 2477 730 
Q 2766 1069 2766 1631 
L 2766 1759 
L 2194 1759 
z
M 3341 1997 
L 3341 0 
L 2766 0 
L 2766 531 
Q 2569 213 2275 61 
Q 1981 -91 1556 -91 
Q 1019 -91 701 211 
Q 384 513 384 1019 
Q 384 1609 779 1909 
Q 1175 2209 1959 2209 
L 2766 2209 
L 2766 2266 
Q 2766 2663 2505 2880 
Q 2244 3097 1772 3097 
Q 1472 3097 1187 3025 
Q 903 2953 641 2809 
L 641 3341 
Q 956 3463 1253 3523 
Q 1550 3584 1831 3584 
Q 2591 3584 2966 3190 
Q 3341 2797 3341 1997 
z
" id="DejaVuSans-61" transform="scale(0.015625)"/>
       <path d="M 2631 2963 
Q 2534 3019 2420 3045 
Q 2306 3072 2169 3072 
Q 1681 3072 1420 2755 
Q 1159 2438 1159 1844 
L 1159 0 
L 581 0 
L 581 3500 
L 1159 3500 
L 1159 2956 
Q 1341 3275 1631 3429 
Q 1922 3584 2338 3584 
Q 2397 3584 2469 3576 
Q 2541 3569 2628 3553 
L 2631 2963 
z
" id="DejaVuSans-72" transform="scale(0.015625)"/>
       <path d="M 2059 -325 
Q 1816 -950 1584 -1140 
Q 1353 -1331 966 -1331 
L 506 -1331 
L 506 -850 
L 844 -850 
Q 1081 -850 1212 -737 
Q 1344 -625 1503 -206 
L 1606 56 
L 191 3500 
L 800 3500 
L 1894 763 
L 2988 3500 
L 3597 3500 
L 2059 -325 
z
" id="DejaVuSans-79" transform="scale(0.015625)"/>
       <path d="M 313 2009 
L 1997 2009 
L 1997 1497 
L 313 1497 
L 313 2009 
z
" id="DejaVuSans-2d" transform="scale(0.015625)"/>
       <path d="M 3597 1894 
L 3597 1613 
L 953 1613 
Q 991 1019 1311 708 
Q 1631 397 2203 397 
Q 2534 397 2845 478 
Q 3156 559 3463 722 
L 3463 178 
Q 3153 47 2828 -22 
Q 2503 -91 2169 -91 
Q 1331 -91 842 396 
Q 353 884 353 1716 
Q 353 2575 817 3079 
Q 1281 3584 2069 3584 
Q 2775 3584 3186 3129 
Q 3597 2675 3597 1894 
z
M 3022 2063 
Q 3016 2534 2758 2815 
Q 2500 3097 2075 3097 
Q 1594 3097 1305 2825 
Q 1016 2553 972 2059 
L 3022 2063 
z
" id="DejaVuSans-65" transform="scale(0.015625)"/>
       <path d="M 1172 4494 
L 1172 3500 
L 2356 3500 
L 2356 3053 
L 1172 3053 
L 1172 1153 
Q 1172 725 1289 603 
Q 1406 481 1766 481 
L 2356 481 
L 2356 0 
L 1766 0 
Q 1100 0 847 248 
Q 594 497 594 1153 
L 594 3053 
L 172 3053 
L 172 3500 
L 594 3500 
L 594 4494 
L 1172 4494 
z
" id="DejaVuSans-74" transform="scale(0.015625)"/>
       <path d="M 513 4856 
L 1013 4856 
Q 1481 4119 1714 3412 
Q 1947 2706 1947 2009 
Q 1947 1309 1714 600 
Q 1481 -109 1013 -844 
L 513 -844 
Q 928 -128 1133 580 
Q 1338 1288 1338 2009 
Q 1338 2731 1133 3434 
Q 928 4138 513 4856 
z
" id="DejaVuSans-29" transform="scale(0.015625)"/>
      </defs>
      <use xlink:href="#DejaVuSans-4c"/>
      <use x="53.962891" xlink:href="#DejaVuSans-6f"/>
      <use x="115.144531" xlink:href="#DejaVuSans-73"/>
      <use x="167.244141" xlink:href="#DejaVuSans-73"/>
      <use x="219.34375" xlink:href="#DejaVuSans-20"/>
      <use x="251.130859" xlink:href="#DejaVuSans-28"/>
      <use x="290.144531" xlink:href="#DejaVuSans-62"/>
      <use x="353.621094" xlink:href="#DejaVuSans-69"/>
      <use x="381.404297" xlink:href="#DejaVuSans-6e"/>
      <use x="444.783203" xlink:href="#DejaVuSans-61"/>
      <use x="506.0625" xlink:href="#DejaVuSans-72"/>
      <use x="547.175781" xlink:href="#DejaVuSans-79"/>
      <use x="606.355469" xlink:href="#DejaVuSans-20"/>
      <use x="638.142578" xlink:href="#DejaVuSans-63"/>
      <use x="693.123047" xlink:href="#DejaVuSans-72"/>
      <use x="731.986328" xlink:href="#DejaVuSans-6f"/>
      <use x="793.167969" xlink:href="#DejaVuSans-73"/>
      <use x="845.267578" xlink:href="#DejaVuSans-73"/>
      <use x="897.367188" xlink:href="#DejaVuSans-2d"/>
      <use x="933.451172" xlink:href="#DejaVuSans-65"/>
      <use x="994.974609" xlink:href="#DejaVuSans-6e"/>
      <use x="1058.353516" xlink:href="#DejaVuSans-74"/>
      <use x="1097.5625" xlink:href="#DejaVuSans-72"/>
      <use x="1136.425781" xlink:href="#DejaVuSans-6f"/>
      <use x="1197.607422" xlink:href="#DejaVuSans-70"/>
      <use x="1261.083984" xlink:href="#DejaVuSans-79"/>
      <use x="1320.263672" xlink:href="#DejaVuSans-29"/>
     </g>
    </g>
   </g>
   <g id="line2d_25">
    <path clip-path="url(#pb2e18d77e3)" d="M 92.290909 184.468276 
L 93.007902 185.999492 
L 93.724896 173.935027 
L 94.441889 181.358918 
L 95.158882 184.013805 
L 95.875875 160.542784 
L 96.592869 164.390349 
L 97.309862 172.328458 
L 98.026855 173.571979 
L 98.743848 194.969192 
L 99.460842 157.821306 
L 100.177835 137.547715 
L 100.894828 160.769502 
L 101.611821 178.508869 
L 102.328815 149.257373 
L 103.045808 188.542392 
L 103.762801 160.101905 
L 104.479794 148.865819 
L 105.196788 145.662083 
L 105.913781 148.027599 
L 106.630774 152.824043 
L 107.347767 172.388108 
L 108.064761 152.790087 
L 108.781754 154.908699 
L 109.498747 155.92642 
L 110.21574 163.788158 
L 110.932734 151.22856 
L 111.649727 149.77057 
L 112.36672 154.41263 
L 113.083713 176.757506 
L 113.800707 120.285752 
L 114.5177 151.137836 
L 115.234693 147.796487 
L 115.951686 128.870827 
L 116.66868 138.119863 
L 117.385673 167.310507 
L 118.102666 163.055197 
L 118.819659 136.206461 
L 119.536653 132.33652 
L 120.253646 137.14325 
L 120.970639 139.76578 
L 121.687633 169.665576 
L 122.404626 106.605698 
L 123.121619 149.948414 
L 123.838612 163.699177 
L 124.555606 150.927978 
L 125.272599 158.54653 
L 125.989592 149.632185 
L 126.706585 163.114205 
L 127.423579 142.339568 
L 128.140572 147.280997 
L 128.857565 157.196393 
L 129.574558 156.000331 
L 130.291552 123.966414 
L 131.008545 131.41987 
L 131.725538 151.046024 
L 132.442531 130.010909 
L 133.159525 164.356579 
L 133.876518 125.780993 
L 134.593511 117.864115 
L 135.310504 153.721591 
L 136.744491 150.860104 
L 137.461484 143.315789 
L 138.178477 119.349224 
L 138.895471 133.598772 
L 139.612464 133.259175 
L 140.329457 124.231631 
L 141.04645 120.655355 
L 141.763444 161.571789 
L 142.480437 144.789338 
L 143.19743 140.568243 
L 143.914423 130.453886 
L 144.631417 140.305686 
L 145.34841 132.779519 
L 146.065403 128.629754 
L 146.782396 113.191281 
L 147.49939 152.142757 
L 148.216383 132.781651 
L 148.933376 142.878497 
L 149.650369 117.912277 
L 150.367363 121.153486 
L 151.084356 108.742482 
L 151.801349 124.225182 
L 152.518342 143.986523 
L 153.235336 144.131233 
L 153.952329 167.435595 
L 154.669322 137.254916 
L 155.386315 127.179563 
L 156.103309 136.267178 
L 156.820302 133.201328 
L 157.537295 142.100748 
L 158.254288 129.724097 
L 158.971282 98.053215 
L 159.688275 123.36924 
L 160.405268 134.593321 
L 161.122261 128.937292 
L 161.839255 147.066238 
L 162.556248 142.150883 
L 163.273241 157.450781 
L 163.990235 120.792465 
L 164.707228 134.70147 
L 166.141214 126.675746 
L 167.575201 136.929955 
L 168.292194 124.704004 
L 169.009187 124.058498 
L 169.726181 129.524226 
L 170.443174 122.318623 
L 171.160167 106.190195 
L 171.87716 172.894203 
L 172.594154 123.109267 
L 174.02814 140.760863 
L 174.745133 118.090111 
L 175.462127 134.596453 
L 176.17912 129.2816 
L 176.896113 125.498002 
L 177.613106 115.089025 
L 178.3301 137.351946 
L 179.764086 89.282838 
L 180.481079 123.287488 
L 181.198073 105.8667 
L 181.915066 98.010861 
L 182.632059 130.941368 
L 183.349052 116.903036 
L 184.066046 142.032466 
L 184.783039 102.579341 
L 185.500032 104.98391 
L 186.217025 103.455204 
L 186.934019 119.703202 
L 187.651012 81.301416 
L 188.368005 121.494968 
L 189.084998 140.177647 
L 189.801992 91.927734 
L 190.518985 124.537625 
L 191.235978 107.692481 
L 191.952971 120.747451 
L 192.669965 89.945169 
L 193.386958 124.995624 
L 194.103951 101.255902 
L 194.820944 94.033986 
L 195.537938 83.837666 
L 196.254931 110.319096 
L 196.971924 118.800854 
L 197.688917 96.393039 
L 198.405911 119.907848 
L 199.122904 119.016732 
L 199.839897 122.869245 
L 200.55689 123.148318 
L 201.273884 101.776717 
L 201.990877 93.236829 
L 202.70787 122.063151 
L 203.424863 80.857942 
L 204.141857 127.918887 
L 204.85885 109.909174 
L 205.575843 97.233305 
L 206.292836 99.665582 
L 207.00983 99.657279 
L 207.726823 86.002104 
L 208.443816 109.994034 
L 209.16081 80.136245 
L 209.877803 94.449184 
L 210.594796 103.460713 
L 211.311789 119.606121 
L 212.028783 86.822426 
L 212.745776 127.906263 
L 213.462769 135.796844 
L 214.179762 111.300287 
L 214.896756 112.09125 
L 215.613749 90.574475 
L 216.330742 101.469778 
L 217.047735 93.653608 
L 217.764729 121.922352 
L 218.481722 105.260643 
L 219.198715 44.443636 
L 219.915708 85.956599 
L 220.632702 112.798654 
L 221.349695 114.193154 
L 222.066688 115.073734 
L 222.783681 111.192439 
L 223.500675 74.90901 
L 224.217668 113.970702 
L 224.934661 81.425089 
L 225.651654 115.816018 
L 226.368648 121.462347 
L 227.085641 94.591362 
L 227.802634 105.566781 
L 228.519627 108.223295 
L 229.236621 102.484181 
L 229.953614 122.576788 
L 230.670607 89.21067 
L 231.3876 93.57429 
L 232.104594 115.927855 
L 232.821587 99.010592 
L 233.53858 69.864721 
L 234.255573 99.998234 
L 234.972567 101.999583 
L 235.68956 87.749357 
L 236.406553 112.035887 
L 237.123546 77.468549 
L 238.557533 143.354439 
L 239.274526 132.87761 
L 239.991519 87.754951 
L 240.708513 105.958508 
L 241.425506 99.90316 
L 242.142499 76.060775 
L 243.576486 90.683084 
L 244.293479 80.72119 
L 245.010472 103.501584 
L 245.727465 142.204352 
L 246.444459 130.463685 
L 247.161452 109.878604 
L 247.878445 79.45645 
L 248.595438 137.516838 
L 249.312432 84.591905 
L 250.029425 66.715951 
L 250.746418 146.868135 
L 251.463412 100.72705 
L 252.897398 112.281625 
L 253.614391 104.981142 
L 254.331385 125.696355 
L 255.048378 100.355858 
L 255.765371 100.090048 
L 256.482364 122.781543 
L 257.199358 117.611309 
L 257.916351 136.350693 
L 258.633344 102.725326 
L 259.350337 86.358408 
L 260.067331 94.848407 
L 260.784324 92.712766 
L 261.501317 88.198887 
L 262.21831 115.34506 
L 262.935304 93.408188 
L 263.652297 130.469482 
L 264.36929 82.041253 
L 265.086283 177.34883 
L 265.803277 91.29096 
L 266.52027 88.846546 
L 267.237263 105.59073 
L 267.954256 65.191107 
L 268.67125 103.021888 
L 269.388243 105.74188 
L 270.105236 99.494639 
L 270.822229 95.357543 
L 271.539223 67.905159 
L 272.256216 142.82146 
L 272.973209 127.982191 
L 273.690202 91.420208 
L 274.407196 123.682326 
L 275.124189 91.788974 
L 275.841182 83.305041 
L 276.558175 127.565892 
L 277.275169 146.73561 
L 277.992162 105.450133 
L 278.709155 125.963659 
L 279.426148 113.125049 
L 280.143142 112.091838 
L 280.860135 100.265643 
L 281.577128 76.843469 
L 282.294121 110.639487 
L 283.011115 97.52778 
L 283.728108 104.369907 
L 284.445101 143.638029 
L 285.162094 79.625972 
L 285.879088 141.137311 
L 286.596081 97.035909 
L 287.313074 106.802728 
L 288.030067 103.058357 
L 288.747061 104.021038 
L 289.464054 142.72608 
L 290.181047 127.46406 
L 290.89804 93.399683 
L 291.615034 143.123337 
L 292.332027 93.12847 
L 293.04902 120.422473 
L 293.766013 85.414125 
L 294.483007 121.5015 
L 295.2 109.902441 
L 295.916993 83.877015 
L 296.633987 144.361229 
L 297.35098 88.395833 
L 298.067973 79.785663 
L 298.784966 78.537608 
L 299.50196 112.868387 
L 300.218953 135.058051 
L 300.935946 136.347907 
L 301.652939 114.948294 
L 302.369933 152.613943 
L 303.086926 155.268027 
L 303.803919 112.1031 
L 304.520912 88.048624 
L 305.237906 118.11488 
L 305.954899 125.414465 
L 306.671892 180.320697 
L 307.388885 102.776934 
L 308.105879 128.887952 
L 308.822872 122.087032 
L 309.539865 138.989249 
L 310.256858 112.911434 
L 310.973852 132.869717 
L 311.690845 114.949331 
L 312.407838 105.314463 
L 313.124831 148.187671 
L 313.841825 72.301315 
L 314.558818 107.346046 
L 315.275811 132.795153 
L 315.992804 95.494909 
L 316.709798 103.843927 
L 317.426791 92.387789 
L 318.143784 156.272235 
L 318.860777 161.176814 
L 319.577771 112.426406 
L 320.294764 95.590394 
L 321.011757 157.383641 
L 321.72875 149.682136 
L 323.162737 78.576878 
L 323.87973 124.032644 
L 324.596723 136.186138 
L 325.313717 178.84793 
L 326.03071 110.188195 
L 326.747703 128.362698 
L 327.464696 128.594402 
L 328.18169 132.289057 
L 328.898683 112.222988 
L 329.615676 121.688275 
L 330.332669 119.798091 
L 331.049663 121.109252 
L 331.766656 107.423648 
L 332.483649 126.028577 
L 333.200642 124.165213 
L 333.917636 97.855762 
L 335.351622 165.069716 
L 336.068615 164.680182 
L 336.785609 108.405592 
L 337.502602 82.189757 
L 338.219595 89.990581 
L 338.936588 134.688382 
L 340.370575 136.343882 
L 341.087568 104.454633 
L 341.804562 144.880699 
L 342.521555 71.79618 
L 343.238548 114.20989 
L 343.955541 170.647263 
L 344.672535 86.35111 
L 345.389528 132.518616 
L 346.106521 141.853582 
L 346.823514 131.319956 
L 347.540508 126.256831 
L 348.257501 101.096277 
L 348.974494 108.237178 
L 349.691487 158.437247 
L 350.408481 174.67762 
L 351.125474 196.377623 
L 351.842467 116.427168 
L 352.55946 90.397077 
L 353.276454 156.62048 
L 353.993447 161.664482 
L 354.71044 151.368892 
L 355.427433 136.155702 
L 356.144427 114.059889 
L 356.86142 124.238903 
L 357.578413 131.596927 
L 358.295406 121.911767 
L 359.0124 77.613829 
L 359.729393 127.362337 
L 360.446386 116.094688 
L 361.163379 141.511238 
L 361.880373 155.575402 
L 362.597366 143.029257 
L 363.314359 141.281993 
L 364.031352 179.788375 
L 364.748346 139.185086 
L 365.465339 128.649496 
L 366.182332 131.268277 
L 366.899325 117.946079 
L 367.616319 144.321121 
L 368.333312 149.86239 
L 369.050305 91.803194 
L 369.767298 130.542795 
L 370.484292 136.116291 
L 371.201285 172.890223 
L 371.918278 111.600228 
L 373.352265 150.056642 
L 374.069258 132.595153 
L 374.786251 146.064017 
L 375.503244 125.415463 
L 376.220238 135.847487 
L 376.937231 149.818801 
L 377.654224 118.655154 
L 378.371217 162.282863 
L 379.088211 99.702931 
L 379.805204 163.264323 
L 380.522197 134.508633 
L 381.23919 127.962192 
L 381.956184 162.246319 
L 382.673177 166.424497 
L 383.39017 113.645063 
L 384.107164 123.983108 
L 385.54115 149.243559 
L 386.258143 153.081428 
L 386.975137 142.566614 
L 388.409123 157.644949 
L 389.126116 150.143429 
L 389.84311 163.84637 
L 390.560103 128.783739 
L 391.277096 134.104239 
L 391.994089 177.77561 
L 393.428076 131.835663 
L 394.145069 166.421557 
L 394.862062 160.515307 
L 395.579056 130.471833 
L 396.296049 134.080897 
L 397.013042 142.056842 
L 397.730035 154.018874 
L 398.447029 171.937584 
L 399.164022 134.105524 
L 399.881015 156.175563 
L 400.598008 129.292714 
L 401.315002 138.549607 
L 402.031995 138.913992 
L 402.748988 139.140214 
L 403.465981 120.516519 
L 404.182975 160.196193 
L 404.899968 136.426534 
L 405.616961 156.724887 
L 406.333954 126.586496 
L 407.767941 165.5765 
L 408.484934 142.530066 
L 409.201927 139.657727 
L 409.918921 158.195178 
L 410.635914 154.089165 
L 411.352907 130.037381 
L 412.0699 157.315131 
L 412.786894 163.312028 
L 413.503887 111.611017 
L 414.22088 152.549388 
L 414.937873 168.97832 
L 415.654867 155.298101 
L 416.37186 116.893889 
L 417.805846 175.276767 
L 418.52284 165.117065 
L 419.239833 163.288005 
L 419.956826 141.897082 
L 420.673819 157.816626 
L 421.390813 161.095411 
L 422.107806 137.569083 
L 422.824799 161.621096 
L 423.541792 152.704243 
L 424.258786 134.746942 
L 424.975779 158.226622 
L 425.692772 161.082123 
L 426.409765 159.910428 
L 427.843752 111.845604 
L 428.560745 149.904068 
L 429.277739 147.318372 
L 429.994732 136.493111 
L 430.711725 144.064249 
L 431.428718 149.65039 
L 432.145712 164.692558 
L 432.862705 139.054966 
L 433.579698 148.200084 
L 434.296691 173.827278 
L 435.013685 133.467273 
L 435.730678 150.972129 
L 436.447671 156.249467 
L 437.164664 151.128128 
L 437.881658 148.987498 
L 438.598651 149.798577 
L 439.315644 163.895496 
L 440.032637 153.471105 
L 440.749631 161.000079 
L 441.466624 135.041865 
L 442.183617 146.46 
L 442.90061 170.318662 
L 443.617604 130.968233 
L 444.334597 138.037245 
L 445.05159 149.446987 
L 445.768583 157.55842 
L 446.485577 155.287058 
L 447.20257 147.596432 
L 447.919563 115.668529 
L 448.636556 158.955863 
L 449.35355 142.191459 
L 450.070543 173.186864 
L 450.787536 159.835249 
L 451.504529 149.426313 
L 452.221523 147.454316 
L 452.938516 167.696284 
L 453.655509 150.405954 
L 454.372502 161.383962 
L 455.089496 150.274153 
L 455.806489 151.86849 
L 456.523482 158.798607 
L 457.240475 141.498739 
L 457.957469 172.070922 
L 458.674462 162.248655 
L 459.391455 132.747362 
L 460.108448 153.047884 
L 460.825442 135.740927 
L 461.542435 155.491097 
L 462.259428 151.623386 
L 462.976421 162.887829 
L 463.693415 156.219985 
L 464.410408 146.805723 
L 465.127401 175.096937 
L 465.844394 145.739547 
L 466.561388 145.782884 
L 467.278381 147.007777 
L 467.995374 160.037189 
L 468.712367 144.378925 
L 469.429361 152.467069 
L 470.146354 151.996637 
L 470.863347 154.926473 
L 471.580341 146.703664 
L 473.014327 163.187584 
L 474.448314 141.888353 
L 475.165307 149.591402 
L 475.8823 132.494305 
L 476.599293 135.487874 
L 477.316287 139.406127 
L 478.03328 129.354533 
L 478.750273 156.651243 
L 479.467266 155.084685 
L 480.18426 135.910284 
L 480.901253 149.527288 
L 481.618246 154.240756 
L 482.335239 134.459099 
L 483.052233 125.957188 
L 483.769226 158.069941 
L 484.486219 161.207164 
L 485.203212 152.864449 
L 485.920206 154.765035 
L 486.637199 161.941658 
L 487.354192 156.672393 
L 488.071185 155.59406 
L 488.788179 161.429487 
L 489.505172 153.462026 
L 490.222165 156.456421 
L 490.939158 156.444719 
L 491.656152 148.674154 
L 492.373145 144.003351 
L 493.090138 156.770224 
L 493.807131 156.294967 
L 494.524125 155.677106 
L 495.241118 149.133592 
L 495.958111 153.868525 
L 496.675104 171.212759 
L 497.392098 165.214939 
L 498.109091 151.243897 
L 498.109091 151.243897 
" style="fill:none;stroke:#ffb248;stroke-linecap:square;stroke-width:1.5;"/>
   </g>
   <g id="line2d_26">
    <path clip-path="url(#pb2e18d77e3)" d="M 92.290909 176.325407 
L 93.007902 175.217669 
L 93.724896 182.477543 
L 95.158882 174.073488 
L 95.875875 187.617859 
L 96.592869 187.818152 
L 97.309862 182.100164 
L 98.026855 182.833697 
L 98.743848 170.365111 
L 99.460842 189.144825 
L 100.177835 195.967548 
L 100.894828 185.809034 
L 101.611821 180.652707 
L 102.328815 196.583835 
L 103.045808 174.497816 
L 103.762801 191.116951 
L 104.479794 196.49529 
L 105.196788 198.253002 
L 105.913781 196.334952 
L 106.630774 192.771511 
L 107.347767 184.515894 
L 108.064761 193.929571 
L 108.781754 193.751722 
L 109.498747 194.746085 
L 110.21574 193.911799 
L 110.932734 198.384425 
L 111.649727 196.101356 
L 112.36672 195.337588 
L 113.083713 186.085285 
L 113.800707 212.209995 
L 114.5177 197.814803 
L 115.234693 198.62669 
L 115.951686 205.097773 
L 116.66868 201.880746 
L 117.385673 192.68287 
L 118.102666 189.726615 
L 118.819659 204.74895 
L 119.536653 206.644311 
L 120.253646 205.78828 
L 120.970639 204.535652 
L 121.687633 187.53191 
L 122.404626 217.06468 
L 123.121619 196.499504 
L 123.838612 192.127718 
L 124.555606 198.816271 
L 125.272599 197.577102 
L 125.989592 198.106259 
L 126.706585 197.195287 
L 127.423579 205.601882 
L 128.140572 199.269801 
L 128.857565 197.933954 
L 129.574558 194.794228 
L 130.291552 209.435283 
L 131.008545 208.572654 
L 131.725538 198.558695 
L 132.442531 210.30951 
L 133.159525 193.529767 
L 133.876518 210.82684 
L 134.593511 210.680683 
L 135.310504 200.090084 
L 136.027498 202.952985 
L 136.744491 198.728364 
L 137.461484 203.088259 
L 138.178477 212.562891 
L 138.895471 209.08837 
L 139.612464 209.927181 
L 140.329457 212.982759 
L 141.04645 213.39293 
L 141.763444 196.680804 
L 142.480437 205.341543 
L 143.19743 208.174701 
L 143.914423 209.293448 
L 144.631417 207.305692 
L 145.34841 208.986928 
L 146.065403 208.674445 
L 146.782396 217.724476 
L 147.49939 200.92333 
L 148.216383 209.709028 
L 148.933376 206.217789 
L 149.650369 216.698047 
L 150.367363 214.411967 
L 151.084356 220.212014 
L 152.518342 207.771287 
L 153.235336 206.204803 
L 153.952329 197.717718 
L 154.669322 210.760286 
L 155.386315 211.163937 
L 156.103309 211.772713 
L 156.820302 210.496682 
L 157.537295 205.513478 
L 158.254288 212.78865 
L 158.971282 225.712757 
L 159.688275 213.422845 
L 160.405268 211.922415 
L 161.122261 211.202138 
L 162.556248 205.926308 
L 163.273241 203.109987 
L 163.990235 218.341036 
L 164.707228 214.50227 
L 165.424221 212.800872 
L 166.141214 215.693598 
L 166.858208 209.104497 
L 167.575201 212.448946 
L 168.292194 217.025156 
L 169.009187 215.83947 
L 169.726181 214.9666 
L 170.443174 216.864588 
L 171.160167 224.457855 
L 171.87716 192.280565 
L 172.594154 217.127813 
L 173.311147 213.002573 
L 174.02814 212.990713 
L 174.745133 216.962243 
L 175.462127 213.240925 
L 176.17912 213.456569 
L 176.896113 216.474288 
L 177.613106 220.105371 
L 178.3301 213.270604 
L 179.047093 222.544255 
L 179.764086 228.980723 
L 180.481079 218.942964 
L 181.198073 225.649663 
L 181.915066 228.445598 
L 182.632059 215.470442 
L 183.349052 222.22462 
L 184.066046 210.870865 
L 184.783039 223.698259 
L 185.500032 224.514997 
L 186.217025 224.775357 
L 186.934019 219.875159 
L 187.651012 232.249742 
L 188.368005 219.582905 
L 189.084998 210.744993 
L 189.801992 230.321583 
L 190.518985 220.630703 
L 191.235978 226.642742 
L 191.952971 221.180596 
L 192.669965 231.767968 
L 193.386958 218.827939 
L 194.103951 224.981318 
L 194.820944 228.988427 
L 195.537938 234.199387 
L 196.254931 223.117206 
L 196.971924 221.023044 
L 197.688917 228.228112 
L 198.405911 216.633122 
L 199.122904 219.454876 
L 199.839897 219.639531 
L 200.55689 219.232592 
L 201.273884 226.535078 
L 201.990877 229.516118 
L 202.70787 221.469899 
L 203.424863 235.015239 
L 204.141857 216.144614 
L 205.575843 229.618092 
L 206.292836 225.699122 
L 207.00983 227.519574 
L 207.726823 233.981354 
L 208.443816 220.156726 
L 209.16081 233.464179 
L 210.594796 226.956434 
L 211.311789 216.686309 
L 212.028783 233.09425 
L 212.745776 210.214618 
L 213.462769 213.025164 
L 214.179762 223.395232 
L 214.896756 224.62746 
L 215.613749 229.222124 
L 216.330742 223.694683 
L 217.047735 231.030219 
L 217.764729 220.740539 
L 218.481722 221.775938 
L 219.198715 242.116364 
L 219.915708 228.262891 
L 220.632702 223.388096 
L 221.349695 222.372288 
L 222.066688 222.245876 
L 222.783681 219.946944 
L 223.500675 231.578355 
L 224.217668 221.462978 
L 224.934661 232.693481 
L 225.651654 223.21953 
L 226.368648 219.107507 
L 227.085641 223.357264 
L 227.802634 220.942424 
L 228.519627 224.020669 
L 229.236621 220.971049 
L 229.953614 217.304425 
L 230.670607 228.615563 
L 231.3876 228.307013 
L 232.104594 215.150337 
L 232.821587 219.18633 
L 233.53858 232.319221 
L 234.255573 224.36808 
L 234.972567 218.543257 
L 235.68956 224.602758 
L 236.406553 222.821317 
L 237.123546 231.455694 
L 237.84054 215.678728 
L 238.557533 210.546482 
L 239.274526 212.42313 
L 239.991519 222.322185 
L 240.708513 221.25162 
L 241.425506 224.826488 
L 242.142499 230.804548 
L 242.859492 223.967629 
L 243.576486 224.846663 
L 244.293479 227.700099 
L 245.010472 221.870071 
L 245.727465 207.234202 
L 246.444459 205.993059 
L 247.878445 225.336335 
L 248.595438 204.650671 
L 249.312432 226.795965 
L 250.029425 232.600616 
L 250.746418 202.265154 
L 251.463412 221.625273 
L 252.180405 214.975244 
L 252.897398 216.394393 
L 253.614391 213.264555 
L 254.331385 208.443065 
L 255.048378 219.257938 
L 255.765371 220.522746 
L 256.482364 205.121634 
L 257.199358 215.429843 
L 257.916351 204.118013 
L 258.633344 219.847709 
L 259.350337 222.26722 
L 260.067331 220.976747 
L 260.784324 220.133949 
L 261.501317 222.769698 
L 262.21831 209.623228 
L 262.935304 219.848096 
L 263.652297 203.958651 
L 264.36929 221.764304 
L 265.086283 186.393049 
L 265.803277 214.294165 
L 266.52027 216.614425 
L 267.237263 203.34428 
L 267.954256 230.133951 
L 268.67125 216.459029 
L 269.388243 214.882683 
L 270.105236 218.43175 
L 270.822229 212.701193 
L 271.539223 226.630187 
L 272.256216 202.847192 
L 272.973209 199.485168 
L 273.690202 218.873859 
L 274.407196 206.119381 
L 275.124189 218.288101 
L 275.841182 219.267295 
L 276.558175 201.501223 
L 277.275169 197.643321 
L 277.992162 208.951897 
L 278.709155 194.402006 
L 280.143142 209.955149 
L 280.860135 214.033231 
L 281.577128 221.071538 
L 282.294121 207.065831 
L 283.011115 209.960408 
L 283.728108 211.11323 
L 284.445101 196.336732 
L 285.162094 218.085216 
L 285.879088 195.2667 
L 286.596081 208.302769 
L 287.313074 199.842382 
L 288.030067 208.878633 
L 288.747061 209.904247 
L 289.464054 192.018989 
L 290.181047 194.399443 
L 290.89804 207.147833 
L 291.615034 188.299898 
L 292.332027 209.738904 
L 293.04902 193.335512 
L 293.766013 218.552212 
L 294.483007 202.871529 
L 295.2 201.126154 
L 295.916993 210.271387 
L 296.633987 186.98331 
L 298.067973 217.282897 
L 298.784966 204.414025 
L 299.50196 200.648533 
L 300.218953 182.200412 
L 300.935946 194.51773 
L 301.652939 197.913558 
L 302.369933 171.198501 
L 303.086926 174.083106 
L 303.803919 199.062757 
L 304.520912 207.506621 
L 305.237906 193.485484 
L 305.954899 185.877908 
L 306.671892 157.404282 
L 307.388885 199.071786 
L 308.105879 186.001945 
L 308.822872 192.346197 
L 309.539865 173.068755 
L 310.256858 199.087385 
L 310.973852 187.714197 
L 311.690845 195.107158 
L 312.407838 199.554783 
L 313.124831 175.030082 
L 313.841825 214.503049 
L 314.558818 197.822555 
L 315.275811 177.824745 
L 315.992804 199.584969 
L 316.709798 199.170794 
L 317.426791 196.014431 
L 318.143784 180.071081 
L 318.860777 176.696195 
L 320.294764 206.428515 
L 321.011757 167.116863 
L 322.445744 192.743946 
L 323.162737 208.577653 
L 323.87973 186.045767 
L 324.596723 182.529556 
L 325.313717 162.407124 
L 326.03071 196.821958 
L 326.747703 183.832887 
L 327.464696 185.601467 
L 328.18169 183.721586 
L 328.898683 194.361959 
L 329.615676 188.42024 
L 330.332669 187.431074 
L 331.049663 181.768158 
L 331.766656 191.714586 
L 332.483649 171.319694 
L 333.200642 185.183945 
L 333.917636 194.839396 
L 334.634629 169.991879 
L 335.351622 164.03503 
L 336.068615 166.949048 
L 336.785609 191.010999 
L 337.502602 199.60635 
L 338.219595 196.468605 
L 338.936588 181.422956 
L 339.653582 179.788559 
L 340.370575 179.220648 
L 341.087568 186.391084 
L 341.804562 162.443193 
L 342.521555 204.263742 
L 343.238548 187.197308 
L 343.955541 160.232413 
L 344.672535 192.192082 
L 345.389528 177.29621 
L 346.106521 177.723973 
L 346.823514 183.292983 
L 347.540508 183.882389 
L 348.257501 196.313257 
L 348.974494 188.695593 
L 349.691487 170.383822 
L 350.408481 159.915418 
L 351.125474 144.865081 
L 351.842467 181.775562 
L 352.55946 198.019655 
L 353.276454 167.830369 
L 353.993447 170.242376 
L 354.71044 171.914445 
L 355.427433 172.675511 
L 356.144427 184.500135 
L 356.86142 180.342488 
L 357.578413 178.897244 
L 358.295406 181.534344 
L 359.0124 196.174918 
L 359.729393 177.748052 
L 360.446386 180.918324 
L 361.163379 172.580688 
L 361.880373 166.706613 
L 362.597366 173.632228 
L 363.314359 174.182981 
L 364.031352 157.483148 
L 364.748346 174.008876 
L 365.465339 181.766589 
L 366.182332 178.369571 
L 366.899325 180.070565 
L 367.616319 177.50191 
L 368.333312 170.378376 
L 369.050305 197.264135 
L 369.767298 182.316354 
L 370.484292 175.048553 
L 371.201285 158.140889 
L 371.918278 186.721323 
L 372.635271 178.789178 
L 373.352265 172.570418 
L 374.069258 182.38173 
L 374.786251 173.572265 
L 375.503244 183.204451 
L 376.220238 179.886542 
L 376.937231 172.640975 
L 377.654224 188.412298 
L 378.371217 169.846418 
L 379.088211 191.501356 
L 379.805204 168.122897 
L 380.522197 179.177594 
L 381.23919 184.513955 
L 381.956184 164.05613 
L 382.673177 166.151861 
L 383.39017 189.242239 
L 384.107164 182.932555 
L 384.824157 173.258388 
L 385.54115 172.831021 
L 386.258143 175.14571 
L 386.975137 176.774599 
L 387.69213 170.349397 
L 389.126116 177.412071 
L 389.84311 166.679221 
L 390.560103 181.501569 
L 391.277096 176.968678 
L 391.994089 158.225353 
L 392.711083 174.028979 
L 393.428076 175.882799 
L 394.145069 164.976726 
L 395.579056 181.339341 
L 396.296049 182.903202 
L 397.013042 174.56825 
L 397.730035 171.187122 
L 398.447029 165.086166 
L 399.164022 180.389177 
L 399.881015 170.414616 
L 400.598008 178.923702 
L 401.315002 179.313665 
L 402.031995 177.959472 
L 402.748988 179.610499 
L 403.465981 184.866456 
L 404.182975 171.03689 
L 404.899968 180.824821 
L 405.616961 174.071804 
L 406.333954 183.737911 
L 407.050948 179.019154 
L 407.767941 171.370257 
L 408.484934 181.126246 
L 409.918921 174.014391 
L 410.635914 174.545417 
L 411.352907 184.778282 
L 412.0699 173.303615 
L 412.786894 171.52651 
L 413.503887 189.90965 
L 414.22088 175.446839 
L 414.937873 168.996871 
L 415.654867 176.476449 
L 416.37186 189.336241 
L 417.088853 178.454967 
L 417.805846 165.867955 
L 418.52284 172.301977 
L 419.239833 171.451629 
L 419.956826 177.901472 
L 420.673819 171.037635 
L 421.390813 171.858055 
L 422.107806 178.942667 
L 422.824799 170.879801 
L 424.258786 181.198235 
L 424.975779 173.108323 
L 425.692772 171.37726 
L 426.409765 174.064239 
L 427.843752 191.113558 
L 428.560745 177.024488 
L 429.277739 178.05728 
L 429.994732 182.046281 
L 430.711725 180.073265 
L 431.428718 175.832466 
L 432.145712 172.599016 
L 432.862705 182.916291 
L 433.579698 177.788607 
L 434.296691 167.975424 
L 435.013685 184.664263 
L 435.730678 176.683576 
L 436.447671 176.794033 
L 437.164664 179.043339 
L 437.881658 178.358224 
L 438.598651 179.818666 
L 439.315644 172.663068 
L 440.032637 177.248289 
L 440.749631 173.561142 
L 441.466624 184.47159 
L 442.183617 179.789889 
L 442.90061 171.519025 
L 443.617604 187.184387 
L 445.768583 177.47582 
L 446.485577 177.619962 
L 447.20257 181.239716 
L 447.919563 192.345271 
L 448.636556 176.265644 
L 449.35355 184.20058 
L 450.070543 170.693232 
L 451.504529 180.388832 
L 452.221523 181.035004 
L 452.938516 172.678728 
L 453.655509 179.980937 
L 454.372502 175.645005 
L 455.089496 179.586156 
L 455.806489 180.280142 
L 456.523482 177.265803 
L 457.240475 185.519934 
L 457.957469 171.537045 
L 458.674462 176.630883 
L 459.391455 187.009991 
L 460.108448 178.888179 
L 460.825442 187.525389 
L 461.542435 178.697286 
L 462.259428 179.436733 
L 462.976421 175.810568 
L 463.693415 179.4332 
L 464.410408 182.108173 
L 465.127401 170.0308 
L 465.844394 180.544336 
L 466.561388 182.46481 
L 467.278381 182.658511 
L 467.995374 177.732273 
L 468.712367 184.126039 
L 469.429361 181.236164 
L 470.146354 182.148262 
L 470.863347 179.844152 
L 471.580341 185.305014 
L 472.297334 180.45876 
L 473.014327 177.46602 
L 474.448314 185.486062 
L 475.165307 182.771642 
L 475.8823 187.538205 
L 476.599293 187.533992 
L 477.316287 187.342561 
L 478.03328 190.654389 
L 478.750273 181.092994 
L 479.467266 179.497652 
L 480.18426 190.146028 
L 480.901253 183.951581 
L 481.618246 181.786522 
L 482.335239 189.256453 
L 483.052233 191.463914 
L 483.769226 179.753495 
L 484.486219 178.088108 
L 485.203212 183.272028 
L 486.637199 178.855229 
L 487.354192 180.958663 
L 488.071185 182.278328 
L 488.788179 178.739212 
L 489.505172 183.641791 
L 490.222165 181.096791 
L 490.939158 182.109421 
L 491.656152 185.639357 
L 492.373145 187.022418 
L 493.090138 181.624859 
L 493.807131 182.805311 
L 494.524125 181.411113 
L 495.241118 185.134259 
L 495.958111 183.10438 
L 496.675104 176.112321 
L 497.392098 178.067829 
L 498.109091 185.047122 
L 498.109091 185.047122 
" style="fill:none;stroke:#5f84b4;stroke-linecap:square;stroke-width:1.5;"/>
   </g>
   <g id="patch_3">
    <path d="M 72 252 
L 72 34.56 
" style="fill:none;stroke:#000000;stroke-linecap:square;stroke-linejoin:miter;stroke-width:0.8;"/>
   </g>
   <g id="patch_4">
    <path d="M 72 252 
L 518.4 252 
" style="fill:none;stroke:#000000;stroke-linecap:square;stroke-linejoin:miter;stroke-width:0.8;"/>
   </g>
   <g id="legend_1">
    <g id="patch_5">
     <path d="M 412.190625 71.91625 
L 511.4 71.91625 
Q 513.4 71.91625 513.4 69.91625 
L 513.4 41.56 
Q 513.4 39.56 511.4 39.56 
L 412.190625 39.56 
Q 410.190625 39.56 410.190625 41.56 
L 410.190625 69.91625 
Q 410.190625 71.91625 412.190625 71.91625 
z
" style="fill:#ffffff;opacity:0.8;stroke:#cccccc;stroke-linejoin:miter;"/>
    </g>
    <g id="line2d_27">
     <path d="M 414.190625 47.658437 
L 434.190625 47.658437 
" style="fill:none;stroke:#ffb248;stroke-linecap:square;stroke-width:1.5;"/>
    </g>
    <g id="line2d_28"/>
    <g id="text_19">
     <!-- Generator -->
     <g transform="translate(442.190625 51.158437)scale(0.1 -0.1)">
      <defs>
       <path d="M 3809 666 
L 3809 1919 
L 2778 1919 
L 2778 2438 
L 4434 2438 
L 4434 434 
Q 4069 175 3628 42 
Q 3188 -91 2688 -91 
Q 1594 -91 976 548 
Q 359 1188 359 2328 
Q 359 3472 976 4111 
Q 1594 4750 2688 4750 
Q 3144 4750 3555 4637 
Q 3966 4525 4313 4306 
L 4313 3634 
Q 3963 3931 3569 4081 
Q 3175 4231 2741 4231 
Q 1884 4231 1454 3753 
Q 1025 3275 1025 2328 
Q 1025 1384 1454 906 
Q 1884 428 2741 428 
Q 3075 428 3337 486 
Q 3600 544 3809 666 
z
" id="DejaVuSans-47" transform="scale(0.015625)"/>
      </defs>
      <use xlink:href="#DejaVuSans-47"/>
      <use x="77.490234" xlink:href="#DejaVuSans-65"/>
      <use x="139.013672" xlink:href="#DejaVuSans-6e"/>
      <use x="202.392578" xlink:href="#DejaVuSans-65"/>
      <use x="263.916016" xlink:href="#DejaVuSans-72"/>
      <use x="305.029297" xlink:href="#DejaVuSans-61"/>
      <use x="366.308594" xlink:href="#DejaVuSans-74"/>
      <use x="405.517578" xlink:href="#DejaVuSans-6f"/>
      <use x="466.699219" xlink:href="#DejaVuSans-72"/>
     </g>
    </g>
    <g id="line2d_29">
     <path d="M 414.190625 62.336562 
L 434.190625 62.336562 
" style="fill:none;stroke:#5f84b4;stroke-linecap:square;stroke-width:1.5;"/>
    </g>
    <g id="line2d_30"/>
    <g id="text_20">
     <!-- Discriminator -->
     <g transform="translate(442.190625 65.836562)scale(0.1 -0.1)">
      <defs>
       <path d="M 1259 4147 
L 1259 519 
L 2022 519 
Q 2988 519 3436 956 
Q 3884 1394 3884 2338 
Q 3884 3275 3436 3711 
Q 2988 4147 2022 4147 
L 1259 4147 
z
M 628 4666 
L 1925 4666 
Q 3281 4666 3915 4102 
Q 4550 3538 4550 2338 
Q 4550 1131 3912 565 
Q 3275 0 1925 0 
L 628 0 
L 628 4666 
z
" id="DejaVuSans-44" transform="scale(0.015625)"/>
       <path d="M 3328 2828 
Q 3544 3216 3844 3400 
Q 4144 3584 4550 3584 
Q 5097 3584 5394 3201 
Q 5691 2819 5691 2113 
L 5691 0 
L 5113 0 
L 5113 2094 
Q 5113 2597 4934 2840 
Q 4756 3084 4391 3084 
Q 3944 3084 3684 2787 
Q 3425 2491 3425 1978 
L 3425 0 
L 2847 0 
L 2847 2094 
Q 2847 2600 2669 2842 
Q 2491 3084 2119 3084 
Q 1678 3084 1418 2786 
Q 1159 2488 1159 1978 
L 1159 0 
L 581 0 
L 581 3500 
L 1159 3500 
L 1159 2956 
Q 1356 3278 1631 3431 
Q 1906 3584 2284 3584 
Q 2666 3584 2933 3390 
Q 3200 3197 3328 2828 
z
" id="DejaVuSans-6d" transform="scale(0.015625)"/>
      </defs>
      <use xlink:href="#DejaVuSans-44"/>
      <use x="77.001953" xlink:href="#DejaVuSans-69"/>
      <use x="104.785156" xlink:href="#DejaVuSans-73"/>
      <use x="156.884766" xlink:href="#DejaVuSans-63"/>
      <use x="211.865234" xlink:href="#DejaVuSans-72"/>
      <use x="252.978516" xlink:href="#DejaVuSans-69"/>
      <use x="280.761719" xlink:href="#DejaVuSans-6d"/>
      <use x="378.173828" xlink:href="#DejaVuSans-69"/>
      <use x="405.957031" xlink:href="#DejaVuSans-6e"/>
      <use x="469.335938" xlink:href="#DejaVuSans-61"/>
      <use x="530.615234" xlink:href="#DejaVuSans-74"/>
      <use x="569.824219" xlink:href="#DejaVuSans-6f"/>
      <use x="631.005859" xlink:href="#DejaVuSans-72"/>
     </g>
    </g>
   </g>
  </g>
 </g>
 <defs>
  <clipPath id="pb2e18d77e3">
   <rect height="217.44" width="446.4" x="72" y="34.56"/>
  </clipPath>
 </defs>
</svg>
