<svg version="1.1" xmlns="http://www.w3.org/2000/svg" xmlns:xlink="http://www.w3.org/1999/xlink" width="780" height="200" style="width: 780px; height: 200px;"><defs><clipPath id="DkGmJzDihTll"><path fill="none" stroke="none" d=" M 30 5 L 750 5 L 750 152 L 30 152 L 30 5 Z"/></clipPath><clipPath id="UbMPpQZoltQy"><path fill="none" stroke="none" d=" M 30 5 L 750 5 L 750 152 L 30 152 L 30 5 Z"/></clipPath><clipPath id="uwVCwlUelADT"><path fill="none" stroke="none" d=" M 30 5 L 750 5 L 750 152 L 30 152 L 30 5 Z"/></clipPath><clipPath id="DxuAZIBeZQdy"><path fill="none" stroke="none" d=" M 30 5 L 750 5 L 750 152 L 30 152 L 30 5 Z"/></clipPath><clipPath id="yIVICBBGVMXW"><path fill="none" stroke="none" d=" M 30 5 L 750 5 L 750 152 L 30 152 L 30 5 Z"/></clipPath><clipPath id="QOmuDXcgzUwI"><path fill="none" stroke="none" d=" M 30 5 L 750 5 L 750 152 L 30 152 L 30 5 Z"/></clipPath><clipPath id="DPfezPgKSrXr"><path fill="none" stroke="none" d=" M 30 5 L 750 5 L 750 152 L 30 152 L 30 5 Z"/></clipPath><clipPath id="iFJwfSxUhtlR"><path fill="none" stroke="none" d=" M 30 5 L 750 5 L 750 152 L 30 152 L 30 5 Z"/></clipPath><clipPath id="FqzgDJOByVzr"><path fill="none" stroke="none" d=" M 30 5 L 750 5 L 750 152 L 30 152 L 30 5 Z"/></clipPath></defs><g><g transform="scale(1,1) translate(0.5,0.5)"><rect fill="#FFFFFF" stroke="none" x="0" y="0" width="780" height="200"/><rect fill="#ffffff" stroke="none" x="0" y="0" width="780" height="200"/><rect fill="#FFFFFF" stroke="none" x="30" y="5" width="720" height="147"/><rect fill="#ffffff" stroke="none" x="30" y="5" width="720" height="147"/><g><rect fill="none" stroke="#e5e5e5" x="30" y="5" width="720" height="147" stroke-linejoin="bevel" stroke-miterlimit="10"/></g><g clip-path="url(#DkGmJzDihTll)"><g><g><path fill="none" stroke="#e5e5e5" paint-order="fill stroke markers" d=" M 50 152 L 50 5" stroke-linejoin="bevel" stroke-miterlimit="10"/><path fill="none" stroke="#e5e5e5" paint-order="fill stroke markers" d=" M 91 152 L 91 5" stroke-linejoin="bevel" stroke-miterlimit="10"/><path fill="none" stroke="#e5e5e5" paint-order="fill stroke markers" d=" M 131 152 L 131 5" stroke-linejoin="bevel" stroke-miterlimit="10"/><path fill="none" stroke="#e5e5e5" paint-order="fill stroke markers" d=" M 172 152 L 172 5" stroke-linejoin="bevel" stroke-miterlimit="10"/><path fill="none" stroke="#e5e5e5" paint-order="fill stroke markers" d=" M 212 152 L 212 5" stroke-linejoin="bevel" stroke-miterlimit="10"/><path fill="none" stroke="#e5e5e5" paint-order="fill stroke markers" d=" M 309 152 L 309 5" stroke-linejoin="bevel" stroke-miterlimit="10"/><path fill="none" stroke="#e5e5e5" paint-order="fill stroke markers" d=" M 350 152 L 350 5" stroke-linejoin="bevel" stroke-miterlimit="10"/><path fill="none" stroke="#e5e5e5" paint-order="fill stroke markers" d=" M 390 152 L 390 5" stroke-linejoin="bevel" stroke-miterlimit="10"/><path fill="none" stroke="#e5e5e5" paint-order="fill stroke markers" d=" M 430 152 L 430 5" stroke-linejoin="bevel" stroke-miterlimit="10"/><path fill="none" stroke="#e5e5e5" paint-order="fill stroke markers" d=" M 471 152 L 471 5" stroke-linejoin="bevel" stroke-miterlimit="10"/><path fill="none" stroke="#e5e5e5" paint-order="fill stroke markers" d=" M 568 152 L 568 5" stroke-linejoin="bevel" stroke-miterlimit="10"/><path fill="none" stroke="#e5e5e5" paint-order="fill stroke markers" d=" M 608 152 L 608 5" stroke-linejoin="bevel" stroke-miterlimit="10"/><path fill="none" stroke="#e5e5e5" paint-order="fill stroke markers" d=" M 649 152 L 649 5" stroke-linejoin="bevel" stroke-miterlimit="10"/><path fill="none" stroke="#e5e5e5" paint-order="fill stroke markers" d=" M 689 152 L 689 5" stroke-linejoin="bevel" stroke-miterlimit="10"/><path fill="none" stroke="#e5e5e5" paint-order="fill stroke markers" d=" M 730 152 L 730 5" stroke-linejoin="bevel" stroke-miterlimit="10"/></g></g></g><g clip-path="url(#UbMPpQZoltQy)"><g><g><path fill="none" stroke="#e5e5e5" paint-order="fill stroke markers" d=" M 30 142 L 750 142" stroke-linejoin="bevel" stroke-miterlimit="10"/><path fill="none" stroke="#e5e5e5" paint-order="fill stroke markers" d=" M 30 111 L 750 111" stroke-linejoin="bevel" stroke-miterlimit="10"/><path fill="none" stroke="#e5e5e5" paint-order="fill stroke markers" d=" M 30 79 L 750 79" stroke-linejoin="bevel" stroke-miterlimit="10"/><path fill="none" stroke="#e5e5e5" paint-order="fill stroke markers" d=" M 30 48 L 750 48" stroke-linejoin="bevel" stroke-miterlimit="10"/><path fill="none" stroke="#e5e5e5" paint-order="fill stroke markers" d=" M 30 17 L 750 17" stroke-linejoin="bevel" stroke-miterlimit="10"/></g></g></g><g clip-path="url(#uwVCwlUelADT)"><g><g><path fill="none" stroke="none"/><rect fill="#1f77b4" stroke="none" x="46.17977528089888" y="80.06343596916264" width="8.089887640449433" height="0.15565694778717898"/><rect fill="#1f77b4" stroke="none" x="86.62921348314606" y="145.0567920494173" width="8.089887640449433" height="0.15565694778717898"/><rect fill="#1f77b4" stroke="none" x="127.07865168539324" y="40.825018306473424" width="8.089887640449447" height="0.15565694778716477"/><rect fill="#1f77b4" stroke="none" x="167.52808988764042" y="38.516144490969026" width="8.089887640449462" height="0.15565694778717898"/><rect fill="#1f77b4" stroke="none" x="207.97752808988764" y="34.49441005104396" width="8.089887640449433" height="0.15565694778717898"/><rect fill="#1f77b4" stroke="none" x="305.0561797752809" y="79.48096718922959" width="8.089887640449433" height="0.15565694778716477"/><rect fill="#1f77b4" stroke="none" x="345.50561797752806" y="145.16252487039463" width="8.089887640449433" height="0.15565694778717898"/><rect fill="#1f77b4" stroke="none" x="385.9550561797753" y="50.94490543778802" width="8.089887640449376" height="0.15565694778716477"/><rect fill="#1f77b4" stroke="none" x="426.40449438202245" y="47.36217234857054" width="8.089887640449433" height="0.15565694778717898"/><rect fill="#1f77b4" stroke="none" x="466.85393258426967" y="35.96565519534251" width="8.089887640449376" height="0.15565694778716477"/><rect fill="#1f77b4" stroke="none" x="563.9325842696629" y="66.86754242936532" width="8.089887640449433" height="0.15565694778716477"/><rect fill="#1f77b4" stroke="none" x="604.3820224719101" y="139.42234671922517" width="8.089887640449433" height="0.15565694778717898"/><rect fill="#1f77b4" stroke="none" x="644.8314606741573" y="50.70642911706767" width="8.089887640449433" height="0.15565694778717898"/><rect fill="#1f77b4" stroke="none" x="685.2808988764044" y="51.15027730221328" width="8.089887640449433" height="0.15565694778716477"/><rect fill="#1f77b4" stroke="none" x="725.7303370786516" y="40.419166907284776" width="8.089887640449433" height="0.15565694778717898"/><path fill="none" stroke="black" paint-order="fill stroke markers" d=" M 46.17977528089888 80.06343596916264 L 54.26966292134831 80.06343596916264 L 54.26966292134831 80.21909291694982 L 46.17977528089888 80.21909291694982 L 46.17977528089888 80.06343596916264 Z" stroke-linejoin="bevel" stroke-miterlimit="10"/><path fill="none" stroke="black" paint-order="fill stroke markers" d=" M 86.62921348314606 145.0567920494173 L 94.7191011235955 145.0567920494173 L 94.7191011235955 145.2124489972045 L 86.62921348314606 145.2124489972045 L 86.62921348314606 145.0567920494173 Z" stroke-linejoin="bevel" stroke-miterlimit="10"/><path fill="none" stroke="black" paint-order="fill stroke markers" d=" M 127.07865168539324 40.825018306473424 L 135.1685393258427 40.825018306473424 L 135.1685393258427 40.98067525426059 L 127.07865168539324 40.98067525426059 L 127.07865168539324 40.825018306473424 Z" stroke-linejoin="bevel" stroke-miterlimit="10"/><path fill="none" stroke="black" paint-order="fill stroke markers" d=" M 167.52808988764042 38.516144490969026 L 175.61797752808988 38.516144490969026 L 175.61797752808988 38.671801438756205 L 167.52808988764042 38.671801438756205 L 167.52808988764042 38.516144490969026 Z" stroke-linejoin="bevel" stroke-miterlimit="10"/><path fill="none" stroke="black" paint-order="fill stroke markers" d=" M 207.97752808988764 34.49441005104396 L 216.06741573033707 34.49441005104396 L 216.06741573033707 34.650066998831136 L 207.97752808988764 34.650066998831136 L 207.97752808988764 34.49441005104396 Z" stroke-linejoin="bevel" stroke-miterlimit="10"/><path fill="none" stroke="black" paint-order="fill stroke markers" d=" M 305.0561797752809 79.48096718922959 L 313.14606741573033 79.48096718922959 L 313.14606741573033 79.63662413701675 L 305.0561797752809 79.63662413701675 L 305.0561797752809 79.48096718922959 Z" stroke-linejoin="bevel" stroke-miterlimit="10"/><path fill="none" stroke="black" paint-order="fill stroke markers" d=" M 345.50561797752806 145.16252487039463 L 353.5955056179775 145.16252487039463 L 353.5955056179775 145.3181818181818 L 345.50561797752806 145.3181818181818 L 345.50561797752806 145.16252487039463 Z" stroke-linejoin="bevel" stroke-miterlimit="10"/><path fill="none" stroke="black" paint-order="fill stroke markers" d=" M 385.9550561797753 50.94490543778802 L 394.04494382022466 50.94490543778802 L 394.04494382022466 51.10056238557519 L 385.9550561797753 51.10056238557519 L 385.9550561797753 50.94490543778802 Z" stroke-linejoin="bevel" stroke-miterlimit="10"/><path fill="none" stroke="black" paint-order="fill stroke markers" d=" M 426.40449438202245 47.36217234857054 L 434.4943820224719 47.36217234857054 L 434.4943820224719 47.51782929635772 L 426.40449438202245 47.51782929635772 L 426.40449438202245 47.36217234857054 Z" stroke-linejoin="bevel" stroke-miterlimit="10"/><path fill="none" stroke="black" paint-order="fill stroke markers" d=" M 466.85393258426967 35.96565519534251 L 474.94382022471905 35.96565519534251 L 474.94382022471905 36.12131214312967 L 466.85393258426967 36.12131214312967 L 466.85393258426967 35.96565519534251 Z" stroke-linejoin="bevel" stroke-miterlimit="10"/><path fill="none" stroke="black" paint-order="fill stroke markers" d=" M 563.9325842696629 66.86754242936532 L 572.0224719101124 66.86754242936532 L 572.0224719101124 67.02319937715248 L 563.9325842696629 67.02319937715248 L 563.9325842696629 66.86754242936532 Z" stroke-linejoin="bevel" stroke-miterlimit="10"/><path fill="none" stroke="black" paint-order="fill stroke markers" d=" M 604.3820224719101 139.42234671922517 L 612.4719101123595 139.42234671922517 L 612.4719101123595 139.57800366701235 L 604.3820224719101 139.57800366701235 L 604.3820224719101 139.42234671922517 Z" stroke-linejoin="bevel" stroke-miterlimit="10"/><path fill="none" stroke="black" paint-order="fill stroke markers" d=" M 644.8314606741573 50.70642911706767 L 652.9213483146067 50.70642911706767 L 652.9213483146067 50.86208606485485 L 644.8314606741573 50.86208606485485 L 644.8314606741573 50.70642911706767 Z" stroke-linejoin="bevel" stroke-miterlimit="10"/><path fill="none" stroke="black" paint-order="fill stroke markers" d=" M 685.2808988764044 51.15027730221328 L 693.3707865168539 51.15027730221328 L 693.3707865168539 51.30593425000045 L 685.2808988764044 51.30593425000045 L 685.2808988764044 51.15027730221328 Z" stroke-linejoin="bevel" stroke-miterlimit="10"/><path fill="none" stroke="black" paint-order="fill stroke markers" d=" M 725.7303370786516 40.419166907284776 L 733.820224719101 40.419166907284776 L 733.820224719101 40.574823855071955 L 725.7303370786516 40.574823855071955 L 725.7303370786516 40.419166907284776 Z" stroke-linejoin="bevel" stroke-miterlimit="10"/><path fill="none" stroke="black" paint-order="fill stroke markers" d="" stroke-linejoin="bevel" stroke-miterlimit="10"/></g></g></g><g clip-path="url(#DxuAZIBeZQdy)"><g><g><path fill="none" stroke="none"/><path fill="none" stroke="black" paint-order="fill stroke markers" d=" M 50.2247191011236 80.14126444305623 L 50.2247191011236 60.61044312393484" stroke-linejoin="bevel" stroke-miterlimit="10"/><path fill="none" stroke="black" paint-order="fill stroke markers" d=" M 90.67415730337078 145.1346205233109 L 90.67415730337078 141.03852153916003" stroke-linejoin="bevel" stroke-miterlimit="10"/><path fill="none" stroke="black" paint-order="fill stroke markers" d=" M 131.12359550561797 40.902846780367 L 131.12359550561797 37.46739802678732" stroke-linejoin="bevel" stroke-miterlimit="10"/><path fill="none" stroke="black" paint-order="fill stroke markers" d=" M 171.57303370786516 38.5939729648626 L 171.57303370786516 36.07496290488386" stroke-linejoin="bevel" stroke-miterlimit="10"/><path fill="none" stroke="black" paint-order="fill stroke markers" d=" M 212.02247191011233 34.57223852493753 L 212.02247191011233 31.005233701955873" stroke-linejoin="bevel" stroke-miterlimit="10"/><path fill="none" stroke="black" paint-order="fill stroke markers" d=" M 309.1011235955056 79.55879566312316 L 309.1011235955056 55.100226196033034" stroke-linejoin="bevel" stroke-miterlimit="10"/><path fill="none" stroke="black" paint-order="fill stroke markers" d=" M 349.5505617977528 145.24035334428822 L 349.5505617977528 139.66249138487385" stroke-linejoin="bevel" stroke-miterlimit="10"/><path fill="none" stroke="black" paint-order="fill stroke markers" d=" M 390 51.0227339116816 L 390 41.585213926649104" stroke-linejoin="bevel" stroke-miterlimit="10"/><path fill="none" stroke="black" paint-order="fill stroke markers" d=" M 430.44943820224717 47.440000822464114 L 430.44943820224717 40.57953063296149" stroke-linejoin="bevel" stroke-miterlimit="10"/><path fill="none" stroke="black" paint-order="fill stroke markers" d=" M 470.89887640449433 36.04348366923608 L 470.89887640449433 28.491864701612755" stroke-linejoin="bevel" stroke-miterlimit="10"/><path fill="none" stroke="black" paint-order="fill stroke markers" d=" M 567.9775280898876 66.9453709032589 L 567.9775280898876 50.06924045313919" stroke-linejoin="bevel" stroke-miterlimit="10"/><path fill="none" stroke="black" paint-order="fill stroke markers" d=" M 608.4269662921348 139.50017519311876 L 608.4269662921348 133.20884449741263" stroke-linejoin="bevel" stroke-miterlimit="10"/><path fill="none" stroke="black" paint-order="fill stroke markers" d=" M 648.876404494382 50.784257590961246 L 648.876404494382 43.46736674440166" stroke-linejoin="bevel" stroke-miterlimit="10"/><path fill="none" stroke="black" paint-order="fill stroke markers" d=" M 689.3258426966291 51.22810577610686 L 689.3258426966291 45.37009368444278" stroke-linejoin="bevel" stroke-miterlimit="10"/><path fill="none" stroke="black" paint-order="fill stroke markers" d=" M 729.7752808988763 40.496995381178365 L 729.7752808988763 35.61473704418812" stroke-linejoin="bevel" stroke-miterlimit="10"/></g></g></g><g clip-path="url(#yIVICBBGVMXW)"><g><g><path fill="none" stroke="none"/><path fill="#1f77b4" stroke="none" paint-order="stroke fill markers" d=" M 42.134831460674164 55.263538874844755 L 58.31460674157303 55.263538874844755 L 58.31460674157303 60.61044312393484 L 42.134831460674164 60.61044312393484 L 42.134831460674164 55.263538874844755 Z"/><path fill="none" stroke="black" paint-order="fill stroke markers" d=" M 42.134831460674164 55.263538874844755 L 58.31460674157303 55.263538874844755 L 58.31460674157303 60.61044312393484 L 42.134831460674164 60.61044312393484 L 42.134831460674164 55.263538874844755 Z" stroke-linejoin="bevel" stroke-miterlimit="10"/><path fill="#ff7f0e" stroke="none" paint-order="stroke fill markers" d=" M 82.58426966292134 138.82580485440835 L 98.76404494382021 138.82580485440835 L 98.76404494382021 141.03852153916003 L 82.58426966292134 141.03852153916003 L 82.58426966292134 138.82580485440835 Z"/><path fill="none" stroke="black" paint-order="fill stroke markers" d=" M 82.58426966292134 138.82580485440835 L 98.76404494382021 138.82580485440835 L 98.76404494382021 141.03852153916003 L 82.58426966292134 141.03852153916003 L 82.58426966292134 138.82580485440835 Z" stroke-linejoin="bevel" stroke-miterlimit="10"/><path fill="#2ca02c" stroke="none" paint-order="stroke fill markers" d=" M 123.03370786516854 35.179884657235576 L 139.2134831460674 35.179884657235576 L 139.2134831460674 37.46739802678732 L 123.03370786516854 37.46739802678732 L 123.03370786516854 35.179884657235576 Z"/><path fill="none" stroke="black" paint-order="fill stroke markers" d=" M 123.03370786516854 35.179884657235576 L 139.2134831460674 35.179884657235576 L 139.2134831460674 37.46739802678732 L 123.03370786516854 37.46739802678732 L 123.03370786516854 35.179884657235576 Z" stroke-linejoin="bevel" stroke-miterlimit="10"/><path fill="#d62728" stroke="none" paint-order="stroke fill markers" d=" M 163.4831460674157 34.82266282647036 L 179.66292134831463 34.82266282647036 L 179.66292134831463 36.07496290488386 L 163.4831460674157 36.07496290488386 L 163.4831460674157 34.82266282647036 Z"/><path fill="none" stroke="black" paint-order="fill stroke markers" d=" M 163.4831460674157 34.82266282647036 L 179.66292134831463 34.82266282647036 L 179.66292134831463 36.07496290488386 L 163.4831460674157 36.07496290488386 L 163.4831460674157 34.82266282647036 Z" stroke-linejoin="bevel" stroke-miterlimit="10"/><path fill="#9467bd" stroke="none" paint-order="stroke fill markers" d=" M 203.93258426966287 28.81068142134052 L 220.1123595505618 28.81068142134052 L 220.1123595505618 31.005233701955873 L 203.93258426966287 31.005233701955873 L 203.93258426966287 28.81068142134052 Z"/><path fill="none" stroke="black" paint-order="fill stroke markers" d=" M 203.93258426966287 28.81068142134052 L 220.1123595505618 28.81068142134052 L 220.1123595505618 31.005233701955873 L 203.93258426966287 31.005233701955873 L 203.93258426966287 28.81068142134052 Z" stroke-linejoin="bevel" stroke-miterlimit="10"/><path fill="#1f77b4" stroke="none" paint-order="stroke fill markers" d=" M 301.0112359550562 46.151194910463886 L 317.19101123595505 46.151194910463886 L 317.19101123595505 55.100226196033034 L 301.0112359550562 55.100226196033034 L 301.0112359550562 46.151194910463886 Z"/><path fill="none" stroke="black" paint-order="fill stroke markers" d=" M 301.0112359550562 46.151194910463886 L 317.19101123595505 46.151194910463886 L 317.19101123595505 55.100226196033034 L 301.0112359550562 55.100226196033034 L 301.0112359550562 46.151194910463886 Z" stroke-linejoin="bevel" stroke-miterlimit="10"/><path fill="#ff7f0e" stroke="none" paint-order="stroke fill markers" d=" M 341.46067415730334 137.51752449126766 L 357.6404494382022 137.51752449126766 L 357.6404494382022 139.66249138487385 L 341.46067415730334 139.66249138487385 L 341.46067415730334 137.51752449126766 Z"/><path fill="none" stroke="black" paint-order="fill stroke markers" d=" M 341.46067415730334 137.51752449126766 L 357.6404494382022 137.51752449126766 L 357.6404494382022 139.66249138487385 L 341.46067415730334 139.66249138487385 L 341.46067415730334 137.51752449126766 Z" stroke-linejoin="bevel" stroke-miterlimit="10"/><path fill="#2ca02c" stroke="none" paint-order="stroke fill markers" d=" M 381.91011235955057 38.13800981918121 L 398.08988764044943 38.13800981918121 L 398.08988764044943 41.585213926649104 L 381.91011235955057 41.585213926649104 L 381.91011235955057 38.13800981918121 Z"/><path fill="none" stroke="black" paint-order="fill stroke markers" d=" M 381.91011235955057 38.13800981918121 L 398.08988764044943 38.13800981918121 L 398.08988764044943 41.585213926649104 L 381.91011235955057 41.585213926649104 L 381.91011235955057 38.13800981918121 Z" stroke-linejoin="bevel" stroke-miterlimit="10"/><path fill="#d62728" stroke="none" paint-order="stroke fill markers" d=" M 422.35955056179773 37.455421307691495 L 438.5393258426966 37.455421307691495 L 438.5393258426966 40.57953063296149 L 422.35955056179773 40.57953063296149 L 422.35955056179773 37.455421307691495 Z"/><path fill="none" stroke="black" paint-order="fill stroke markers" d=" M 422.35955056179773 37.455421307691495 L 438.5393258426966 37.455421307691495 L 438.5393258426966 40.57953063296149 L 422.35955056179773 40.57953063296149 L 422.35955056179773 37.455421307691495 Z" stroke-linejoin="bevel" stroke-miterlimit="10"/><path fill="#9467bd" stroke="none" paint-order="stroke fill markers" d=" M 462.8089887640449 26.12873818659419 L 478.98876404494376 26.12873818659419 L 478.98876404494376 28.491864701612755 L 462.8089887640449 28.491864701612755 L 462.8089887640449 26.12873818659419 Z"/><path fill="none" stroke="black" paint-order="fill stroke markers" d=" M 462.8089887640449 26.12873818659419 L 478.98876404494376 26.12873818659419 L 478.98876404494376 28.491864701612755 L 462.8089887640449 28.491864701612755 L 462.8089887640449 26.12873818659419 Z" stroke-linejoin="bevel" stroke-miterlimit="10"/><path fill="#1f77b4" stroke="none" paint-order="stroke fill markers" d=" M 559.8876404494382 45.42480460787068 L 576.0674157303371 45.42480460787068 L 576.0674157303371 50.06924045313919 L 559.8876404494382 50.06924045313919 L 559.8876404494382 45.42480460787068 Z"/><path fill="none" stroke="black" paint-order="fill stroke markers" d=" M 559.8876404494382 45.42480460787068 L 576.0674157303371 45.42480460787068 L 576.0674157303371 50.06924045313919 L 559.8876404494382 50.06924045313919 L 559.8876404494382 45.42480460787068 Z" stroke-linejoin="bevel" stroke-miterlimit="10"/><path fill="#ff7f0e" stroke="none" paint-order="stroke fill markers" d=" M 600.3370786516854 129.5743287813723 L 616.5168539325842 129.5743287813723 L 616.5168539325842 133.20884449741263 L 600.3370786516854 133.20884449741263 L 600.3370786516854 129.5743287813723 Z"/><path fill="none" stroke="black" paint-order="fill stroke markers" d=" M 600.3370786516854 129.5743287813723 L 616.5168539325842 129.5743287813723 L 616.5168539325842 133.20884449741263 L 600.3370786516854 133.20884449741263 L 600.3370786516854 129.5743287813723 Z" stroke-linejoin="bevel" stroke-miterlimit="10"/><path fill="#2ca02c" stroke="none" paint-order="stroke fill markers" d=" M 640.7865168539325 40.785388342442076 L 656.9662921348314 40.785388342442076 L 656.9662921348314 43.46736674440166 L 640.7865168539325 43.46736674440166 L 640.7865168539325 40.785388342442076 Z"/><path fill="none" stroke="black" paint-order="fill stroke markers" d=" M 640.7865168539325 40.785388342442076 L 656.9662921348314 40.785388342442076 L 656.9662921348314 43.46736674440166 L 640.7865168539325 43.46736674440166 L 640.7865168539325 40.785388342442076 Z" stroke-linejoin="bevel" stroke-miterlimit="10"/><path fill="#d62728" stroke="none" paint-order="stroke fill markers" d=" M 681.2359550561798 40.474680229101835 L 697.4157303370785 40.474680229101835 L 697.4157303370785 45.37009368444278 L 681.2359550561798 45.37009368444278 L 681.2359550561798 40.474680229101835 Z"/><path fill="none" stroke="black" paint-order="fill stroke markers" d=" M 681.2359550561798 40.474680229101835 L 697.4157303370785 40.474680229101835 L 697.4157303370785 45.37009368444278 L 681.2359550561798 45.37009368444278 L 681.2359550561798 40.474680229101835 Z" stroke-linejoin="bevel" stroke-miterlimit="10"/><path fill="#9467bd" stroke="none" paint-order="stroke fill markers" d=" M 721.685393258427 34.01149100199781 L 737.8651685393256 34.01149100199781 L 737.8651685393256 35.61473704418812 L 721.685393258427 35.61473704418812 L 721.685393258427 34.01149100199781 Z"/><path fill="none" stroke="black" paint-order="fill stroke markers" d=" M 721.685393258427 34.01149100199781 L 737.8651685393256 34.01149100199781 L 737.8651685393256 35.61473704418812 L 721.685393258427 35.61473704418812 L 721.685393258427 34.01149100199781 Z" stroke-linejoin="bevel" stroke-miterlimit="10"/></g></g></g><g clip-path="url(#QOmuDXcgzUwI)"><g><g><path fill="none" stroke="none"/><path fill="#1f77b4" stroke="none" paint-order="stroke fill markers" d=" M 42.134831460674164 47.58989557785392 L 58.31460674157303 47.58989557785392 L 58.31460674157303 55.263538874844755 L 42.134831460674164 55.263538874844755 L 42.134831460674164 47.58989557785392 Z"/><path fill="none" stroke="black" paint-order="fill stroke markers" d=" M 42.134831460674164 47.58989557785392 L 58.31460674157303 47.58989557785392 L 58.31460674157303 55.263538874844755 L 42.134831460674164 55.263538874844755 L 42.134831460674164 47.58989557785392 Z" stroke-linejoin="bevel" stroke-miterlimit="10"/><path fill="#ff7f0e" stroke="none" paint-order="stroke fill markers" d=" M 82.58426966292134 135.49202697283468 L 98.76404494382021 135.49202697283468 L 98.76404494382021 138.82580485440835 L 82.58426966292134 138.82580485440835 L 82.58426966292134 135.49202697283468 Z"/><path fill="none" stroke="black" paint-order="fill stroke markers" d=" M 82.58426966292134 135.49202697283468 L 98.76404494382021 135.49202697283468 L 98.76404494382021 138.82580485440835 L 82.58426966292134 138.82580485440835 L 82.58426966292134 135.49202697283468 Z" stroke-linejoin="bevel" stroke-miterlimit="10"/><path fill="#2ca02c" stroke="none" paint-order="stroke fill markers" d=" M 123.03370786516854 32.79152103137011 L 139.2134831460674 32.79152103137011 L 139.2134831460674 35.179884657235576 L 123.03370786516854 35.179884657235576 L 123.03370786516854 32.79152103137011 Z"/><path fill="none" stroke="black" paint-order="fill stroke markers" d=" M 123.03370786516854 32.79152103137011 L 139.2134831460674 32.79152103137011 L 139.2134831460674 35.179884657235576 L 123.03370786516854 35.179884657235576 L 123.03370786516854 32.79152103137011 Z" stroke-linejoin="bevel" stroke-miterlimit="10"/><path fill="#d62728" stroke="none" paint-order="stroke fill markers" d=" M 163.4831460674157 33.90196957299662 L 179.66292134831463 33.90196957299662 L 179.66292134831463 34.82266282647036 L 163.4831460674157 34.82266282647036 L 163.4831460674157 33.90196957299662 Z"/><path fill="none" stroke="black" paint-order="fill stroke markers" d=" M 163.4831460674157 33.90196957299662 L 179.66292134831463 33.90196957299662 L 179.66292134831463 34.82266282647036 L 163.4831460674157 34.82266282647036 L 163.4831460674157 33.90196957299662 Z" stroke-linejoin="bevel" stroke-miterlimit="10"/><path fill="#9467bd" stroke="none" paint-order="stroke fill markers" d=" M 203.93258426966287 26.62806428223118 L 220.1123595505618 26.62806428223118 L 220.1123595505618 28.81068142134052 L 203.93258426966287 28.81068142134052 L 203.93258426966287 26.62806428223118 Z"/><path fill="none" stroke="black" paint-order="fill stroke markers" d=" M 203.93258426966287 26.62806428223118 L 220.1123595505618 26.62806428223118 L 220.1123595505618 28.81068142134052 L 203.93258426966287 28.81068142134052 L 203.93258426966287 26.62806428223118 Z" stroke-linejoin="bevel" stroke-miterlimit="10"/><path fill="#1f77b4" stroke="none" paint-order="stroke fill markers" d=" M 301.0112359550562 36.02878290207465 L 317.19101123595505 36.02878290207465 L 317.19101123595505 46.151194910463886 L 301.0112359550562 46.151194910463886 L 301.0112359550562 36.02878290207465 Z"/><path fill="none" stroke="black" paint-order="fill stroke markers" d=" M 301.0112359550562 36.02878290207465 L 317.19101123595505 36.02878290207465 L 317.19101123595505 46.151194910463886 L 301.0112359550562 46.151194910463886 L 301.0112359550562 36.02878290207465 Z" stroke-linejoin="bevel" stroke-miterlimit="10"/><path fill="#ff7f0e" stroke="none" paint-order="stroke fill markers" d=" M 341.46067415730334 134.2265016601714 L 357.6404494382022 134.2265016601714 L 357.6404494382022 137.51752449126766 L 341.46067415730334 137.51752449126766 L 341.46067415730334 134.2265016601714 Z"/><path fill="none" stroke="black" paint-order="fill stroke markers" d=" M 341.46067415730334 134.2265016601714 L 357.6404494382022 134.2265016601714 L 357.6404494382022 137.51752449126766 L 341.46067415730334 137.51752449126766 L 341.46067415730334 134.2265016601714 Z" stroke-linejoin="bevel" stroke-miterlimit="10"/><path fill="#2ca02c" stroke="none" paint-order="stroke fill markers" d=" M 381.91011235955057 34.55257168540578 L 398.08988764044943 34.55257168540578 L 398.08988764044943 38.13800981918121 L 381.91011235955057 38.13800981918121 L 381.91011235955057 34.55257168540578 Z"/><path fill="none" stroke="black" paint-order="fill stroke markers" d=" M 381.91011235955057 34.55257168540578 L 398.08988764044943 34.55257168540578 L 398.08988764044943 38.13800981918121 L 381.91011235955057 38.13800981918121 L 381.91011235955057 34.55257168540578 Z" stroke-linejoin="bevel" stroke-miterlimit="10"/><path fill="#d62728" stroke="none" paint-order="stroke fill markers" d=" M 422.35955056179773 36.00588383995975 L 438.5393258426966 36.00588383995975 L 438.5393258426966 37.455421307691495 L 422.35955056179773 37.455421307691495 L 422.35955056179773 36.00588383995975 Z"/><path fill="none" stroke="black" paint-order="fill stroke markers" d=" M 422.35955056179773 36.00588383995975 L 438.5393258426966 36.00588383995975 L 438.5393258426966 37.455421307691495 L 422.35955056179773 37.455421307691495 L 422.35955056179773 36.00588383995975 Z" stroke-linejoin="bevel" stroke-miterlimit="10"/><path fill="#9467bd" stroke="none" paint-order="stroke fill markers" d=" M 462.8089887640449 22.833751127800653 L 478.98876404494376 22.833751127800653 L 478.98876404494376 26.12873818659419 L 462.8089887640449 26.12873818659419 L 462.8089887640449 22.833751127800653 Z"/><path fill="none" stroke="black" paint-order="fill stroke markers" d=" M 462.8089887640449 22.833751127800653 L 478.98876404494376 22.833751127800653 L 478.98876404494376 26.12873818659419 L 462.8089887640449 26.12873818659419 L 462.8089887640449 22.833751127800653 Z" stroke-linejoin="bevel" stroke-miterlimit="10"/><path fill="#1f77b4" stroke="none" paint-order="stroke fill markers" d=" M 559.8876404494382 38.77422608868211 L 576.0674157303371 38.77422608868211 L 576.0674157303371 45.42480460787068 L 559.8876404494382 45.42480460787068 L 559.8876404494382 38.77422608868211 Z"/><path fill="none" stroke="black" paint-order="fill stroke markers" d=" M 559.8876404494382 38.77422608868211 L 576.0674157303371 38.77422608868211 L 576.0674157303371 45.42480460787068 L 559.8876404494382 45.42480460787068 L 559.8876404494382 38.77422608868211 Z" stroke-linejoin="bevel" stroke-miterlimit="10"/><path fill="#ff7f0e" stroke="none" paint-order="stroke fill markers" d=" M 600.3370786516854 125.5005067866805 L 616.5168539325842 125.5005067866805 L 616.5168539325842 129.5743287813723 L 600.3370786516854 129.5743287813723 L 600.3370786516854 125.5005067866805 Z"/><path fill="none" stroke="black" paint-order="fill stroke markers" d=" M 600.3370786516854 125.5005067866805 L 616.5168539325842 125.5005067866805 L 616.5168539325842 129.5743287813723 L 600.3370786516854 129.5743287813723 L 600.3370786516854 125.5005067866805 Z" stroke-linejoin="bevel" stroke-miterlimit="10"/><path fill="#2ca02c" stroke="none" paint-order="stroke fill markers" d=" M 640.7865168539325 37.35519447242828 L 656.9662921348314 37.35519447242828 L 656.9662921348314 40.785388342442076 L 640.7865168539325 40.785388342442076 L 640.7865168539325 37.35519447242828 Z"/><path fill="none" stroke="black" paint-order="fill stroke markers" d=" M 640.7865168539325 37.35519447242828 L 656.9662921348314 37.35519447242828 L 656.9662921348314 40.785388342442076 L 640.7865168539325 40.785388342442076 L 640.7865168539325 37.35519447242828 Z" stroke-linejoin="bevel" stroke-miterlimit="10"/><path fill="#d62728" stroke="none" paint-order="stroke fill markers" d=" M 681.2359550561798 38.26798249183058 L 697.4157303370785 38.26798249183058 L 697.4157303370785 40.474680229101835 L 681.2359550561798 40.474680229101835 L 681.2359550561798 38.26798249183058 Z"/><path fill="none" stroke="black" paint-order="fill stroke markers" d=" M 681.2359550561798 38.26798249183058 L 697.4157303370785 38.26798249183058 L 697.4157303370785 40.474680229101835 L 681.2359550561798 40.474680229101835 L 681.2359550561798 38.26798249183058 Z" stroke-linejoin="bevel" stroke-miterlimit="10"/><path fill="#9467bd" stroke="none" paint-order="stroke fill markers" d=" M 721.685393258427 31.93926283333971 L 737.8651685393256 31.93926283333971 L 737.8651685393256 34.01149100199781 L 721.685393258427 34.01149100199781 L 721.685393258427 31.93926283333971 Z"/><path fill="none" stroke="black" paint-order="fill stroke markers" d=" M 721.685393258427 31.93926283333971 L 737.8651685393256 31.93926283333971 L 737.8651685393256 34.01149100199781 L 721.685393258427 34.01149100199781 L 721.685393258427 31.93926283333971 Z" stroke-linejoin="bevel" stroke-miterlimit="10"/></g></g></g><g clip-path="url(#DPfezPgKSrXr)"><g><g><path fill="none" stroke="none"/><path fill="none" stroke="black" paint-order="fill stroke markers" d=" M 50.2247191011236 47.58989557785392 L 50.2247191011236 29.433100537084215" stroke-linejoin="bevel" stroke-miterlimit="10"/><path fill="none" stroke="black" paint-order="fill stroke markers" d=" M 90.67415730337078 135.49202697283468 L 90.67415730337078 130.58831106604515" stroke-linejoin="bevel" stroke-miterlimit="10"/><path fill="none" stroke="black" paint-order="fill stroke markers" d=" M 131.12359550561797 32.79152103137011 L 131.12359550561797 29.857484911779608" stroke-linejoin="bevel" stroke-miterlimit="10"/><path fill="none" stroke="black" paint-order="fill stroke markers" d=" M 171.57303370786516 33.90196957299662 L 171.57303370786516 31.888200731320694" stroke-linejoin="bevel" stroke-miterlimit="10"/><path fill="none" stroke="black" paint-order="fill stroke markers" d=" M 212.02247191011233 26.62806428223118 L 212.02247191011233 20.06231015264413" stroke-linejoin="bevel" stroke-miterlimit="10"/><path fill="none" stroke="black" paint-order="fill stroke markers" d=" M 309.1011235955056 36.02878290207465 L 309.1011235955056 11.759646655711748" stroke-linejoin="bevel" stroke-miterlimit="10"/><path fill="none" stroke="black" paint-order="fill stroke markers" d=" M 349.5505617977528 134.2265016601714 L 349.5505617977528 126.0725170731178" stroke-linejoin="bevel" stroke-miterlimit="10"/><path fill="none" stroke="black" paint-order="fill stroke markers" d=" M 390 34.55257168540578 L 390 24.00360832354079" stroke-linejoin="bevel" stroke-miterlimit="10"/><path fill="none" stroke="black" paint-order="fill stroke markers" d=" M 430.44943820224717 36.00588383995975 L 430.44943820224717 29.232424363587583" stroke-linejoin="bevel" stroke-miterlimit="10"/><path fill="none" stroke="black" paint-order="fill stroke markers" d=" M 470.89887640449433 22.833751127800653 L 470.89887640449433 14.346580767082486" stroke-linejoin="bevel" stroke-miterlimit="10"/><path fill="none" stroke="black" paint-order="fill stroke markers" d=" M 567.9775280898876 38.77422608868211 L 567.9775280898876 21.8317045419965" stroke-linejoin="bevel" stroke-miterlimit="10"/><path fill="none" stroke="black" paint-order="fill stroke markers" d=" M 608.4269662921348 125.5005067866805 L 608.4269662921348 113.9380002205823" stroke-linejoin="bevel" stroke-miterlimit="10"/><path fill="none" stroke="black" paint-order="fill stroke markers" d=" M 648.876404494382 37.35519447242828 L 648.876404494382 31.194322278979797" stroke-linejoin="bevel" stroke-miterlimit="10"/><path fill="none" stroke="black" paint-order="fill stroke markers" d=" M 689.3258426966291 38.26798249183058 L 689.3258426966291 34.51458789299875" stroke-linejoin="bevel" stroke-miterlimit="10"/><path fill="none" stroke="black" paint-order="fill stroke markers" d=" M 729.7752808988763 31.93926283333971 L 729.7752808988763 28.460143057597747" stroke-linejoin="bevel" stroke-miterlimit="10"/></g></g></g><g clip-path="url(#iFJwfSxUhtlR)"><g><g><path fill="none" stroke="none"/><rect fill="#1f77b4" stroke="none" x="46.17977528089888" y="29.35527206319064" width="8.089887640449433" height="0.15565694778717898"/><rect fill="#1f77b4" stroke="none" x="86.62921348314606" y="130.51048259215156" width="8.089887640449433" height="0.15565694778717898"/><rect fill="#1f77b4" stroke="none" x="127.07865168539324" y="29.779656437886032" width="8.089887640449447" height="0.15565694778716477"/><rect fill="#1f77b4" stroke="none" x="167.52808988764042" y="31.81037225742712" width="8.089887640449462" height="0.15565694778717898"/><rect fill="#1f77b4" stroke="none" x="207.97752808988764" y="19.984481678750555" width="8.089887640449433" height="0.15565694778716477"/><rect fill="#1f77b4" stroke="none" x="305.0561797752809" y="11.681818181818187" width="8.089887640449433" height="0.15565694778717898"/><rect fill="#1f77b4" stroke="none" x="345.50561797752806" y="125.9946885992242" width="8.089887640449433" height="0.15565694778717898"/><rect fill="#1f77b4" stroke="none" x="385.9550561797753" y="23.925779849647213" width="8.089887640449376" height="0.15565694778717898"/><rect fill="#1f77b4" stroke="none" x="426.40449438202245" y="29.154595889694008" width="8.089887640449433" height="0.15565694778716477"/><rect fill="#1f77b4" stroke="none" x="466.85393258426967" y="14.26875229318891" width="8.089887640449376" height="0.15565694778716477"/><rect fill="#1f77b4" stroke="none" x="563.9325842696629" y="21.75387606810291" width="8.089887640449433" height="0.15565694778717898"/><rect fill="#1f77b4" stroke="none" x="604.3820224719101" y="113.8601717466887" width="8.089887640449433" height="0.15565694778717898"/><rect fill="#1f77b4" stroke="none" x="644.8314606741573" y="31.116493805086222" width="8.089887640449433" height="0.15565694778716477"/><rect fill="#1f77b4" stroke="none" x="685.2808988764044" y="34.43675941910517" width="8.089887640449433" height="0.15565694778717898"/><rect fill="#1f77b4" stroke="none" x="725.7303370786516" y="28.382314583704158" width="8.089887640449433" height="0.15565694778717898"/><path fill="none" stroke="black" paint-order="fill stroke markers" d=" M 46.17977528089888 29.35527206319064 L 54.26966292134831 29.35527206319064 L 54.26966292134831 29.51092901097782 L 46.17977528089888 29.51092901097782 L 46.17977528089888 29.35527206319064 Z" stroke-linejoin="bevel" stroke-miterlimit="10"/><path fill="none" stroke="black" paint-order="fill stroke markers" d=" M 86.62921348314606 130.51048259215156 L 94.7191011235955 130.51048259215156 L 94.7191011235955 130.66613953993874 L 86.62921348314606 130.66613953993874 L 86.62921348314606 130.51048259215156 Z" stroke-linejoin="bevel" stroke-miterlimit="10"/><path fill="none" stroke="black" paint-order="fill stroke markers" d=" M 127.07865168539324 29.779656437886032 L 135.1685393258427 29.779656437886032 L 135.1685393258427 29.935313385673197 L 127.07865168539324 29.935313385673197 L 127.07865168539324 29.779656437886032 Z" stroke-linejoin="bevel" stroke-miterlimit="10"/><path fill="none" stroke="black" paint-order="fill stroke markers" d=" M 167.52808988764042 31.81037225742712 L 175.61797752808988 31.81037225742712 L 175.61797752808988 31.966029205214298 L 167.52808988764042 31.966029205214298 L 167.52808988764042 31.81037225742712 Z" stroke-linejoin="bevel" stroke-miterlimit="10"/><path fill="none" stroke="black" paint-order="fill stroke markers" d=" M 207.97752808988764 19.984481678750555 L 216.06741573033707 19.984481678750555 L 216.06741573033707 20.14013862653772 L 207.97752808988764 20.14013862653772 L 207.97752808988764 19.984481678750555 Z" stroke-linejoin="bevel" stroke-miterlimit="10"/><path fill="none" stroke="black" paint-order="fill stroke markers" d=" M 305.0561797752809 11.681818181818187 L 313.14606741573033 11.681818181818187 L 313.14606741573033 11.837475129605366 L 305.0561797752809 11.837475129605366 L 305.0561797752809 11.681818181818187 Z" stroke-linejoin="bevel" stroke-miterlimit="10"/><path fill="none" stroke="black" paint-order="fill stroke markers" d=" M 345.50561797752806 125.9946885992242 L 353.5955056179775 125.9946885992242 L 353.5955056179775 126.15034554701138 L 345.50561797752806 126.15034554701138 L 345.50561797752806 125.9946885992242 Z" stroke-linejoin="bevel" stroke-miterlimit="10"/><path fill="none" stroke="black" paint-order="fill stroke markers" d=" M 385.9550561797753 23.925779849647213 L 394.04494382022466 23.925779849647213 L 394.04494382022466 24.081436797434392 L 385.9550561797753 24.081436797434392 L 385.9550561797753 23.925779849647213 Z" stroke-linejoin="bevel" stroke-miterlimit="10"/><path fill="none" stroke="black" paint-order="fill stroke markers" d=" M 426.40449438202245 29.154595889694008 L 434.4943820224719 29.154595889694008 L 434.4943820224719 29.310252837481173 L 426.40449438202245 29.310252837481173 L 426.40449438202245 29.154595889694008 Z" stroke-linejoin="bevel" stroke-miterlimit="10"/><path fill="none" stroke="black" paint-order="fill stroke markers" d=" M 466.85393258426967 14.26875229318891 L 474.94382022471905 14.26875229318891 L 474.94382022471905 14.424409240976075 L 466.85393258426967 14.424409240976075 L 466.85393258426967 14.26875229318891 Z" stroke-linejoin="bevel" stroke-miterlimit="10"/><path fill="none" stroke="black" paint-order="fill stroke markers" d=" M 563.9325842696629 21.75387606810291 L 572.0224719101124 21.75387606810291 L 572.0224719101124 21.90953301589009 L 563.9325842696629 21.90953301589009 L 563.9325842696629 21.75387606810291 Z" stroke-linejoin="bevel" stroke-miterlimit="10"/><path fill="none" stroke="black" paint-order="fill stroke markers" d=" M 604.3820224719101 113.8601717466887 L 612.4719101123595 113.8601717466887 L 612.4719101123595 114.01582869447589 L 604.3820224719101 114.01582869447589 L 604.3820224719101 113.8601717466887 Z" stroke-linejoin="bevel" stroke-miterlimit="10"/><path fill="none" stroke="black" paint-order="fill stroke markers" d=" M 644.8314606741573 31.116493805086222 L 652.9213483146067 31.116493805086222 L 652.9213483146067 31.272150752873387 L 644.8314606741573 31.272150752873387 L 644.8314606741573 31.116493805086222 Z" stroke-linejoin="bevel" stroke-miterlimit="10"/><path fill="none" stroke="black" paint-order="fill stroke markers" d=" M 685.2808988764044 34.43675941910517 L 693.3707865168539 34.43675941910517 L 693.3707865168539 34.59241636689235 L 685.2808988764044 34.59241636689235 L 685.2808988764044 34.43675941910517 Z" stroke-linejoin="bevel" stroke-miterlimit="10"/><path fill="none" stroke="black" paint-order="fill stroke markers" d=" M 725.7303370786516 28.382314583704158 L 733.820224719101 28.382314583704158 L 733.820224719101 28.537971531491337 L 725.7303370786516 28.537971531491337 L 725.7303370786516 28.382314583704158 Z" stroke-linejoin="bevel" stroke-miterlimit="10"/><path fill="none" stroke="black" paint-order="fill stroke markers" d="" stroke-linejoin="bevel" stroke-miterlimit="10"/></g></g></g><g/><g/><g><g fill="grey" stroke="lightgrey" stroke-linejoin="bevel" stroke-miterlimit="10" stroke-width="2"><path fill="none" stroke="black" paint-order="fill stroke markers" d=" M 30 152 L 750 152" stroke-linejoin="bevel" stroke-miterlimit="10"/><path fill="none" stroke="black" paint-order="fill stroke markers" d=" M 50 158 L 50 150" stroke-linejoin="bevel" stroke-miterlimit="10"/><path fill="none" stroke="black" paint-order="fill stroke markers" d=" M 91 158 L 91 150" stroke-linejoin="bevel" stroke-miterlimit="10"/><path fill="none" stroke="black" paint-order="fill stroke markers" d=" M 131 158 L 131 150" stroke-linejoin="bevel" stroke-miterlimit="10"/><path fill="none" stroke="black" paint-order="fill stroke markers" d=" M 172 158 L 172 150" stroke-linejoin="bevel" stroke-miterlimit="10"/><path fill="none" stroke="black" paint-order="fill stroke markers" d=" M 212 158 L 212 150" stroke-linejoin="bevel" stroke-miterlimit="10"/><path fill="none" stroke="black" paint-order="fill stroke markers" d=" M 309 158 L 309 150" stroke-linejoin="bevel" stroke-miterlimit="10"/><path fill="none" stroke="black" paint-order="fill stroke markers" d=" M 350 158 L 350 150" stroke-linejoin="bevel" stroke-miterlimit="10"/><path fill="none" stroke="black" paint-order="fill stroke markers" d=" M 390 158 L 390 150" stroke-linejoin="bevel" stroke-miterlimit="10"/><path fill="none" stroke="black" paint-order="fill stroke markers" d=" M 430 158 L 430 150" stroke-linejoin="bevel" stroke-miterlimit="10"/><path fill="none" stroke="black" paint-order="fill stroke markers" d=" M 471 158 L 471 150" stroke-linejoin="bevel" stroke-miterlimit="10"/><path fill="none" stroke="black" paint-order="fill stroke markers" d=" M 568 158 L 568 150" stroke-linejoin="bevel" stroke-miterlimit="10"/><path fill="none" stroke="black" paint-order="fill stroke markers" d=" M 608 158 L 608 150" stroke-linejoin="bevel" stroke-miterlimit="10"/><path fill="none" stroke="black" paint-order="fill stroke markers" d=" M 649 158 L 649 150" stroke-linejoin="bevel" stroke-miterlimit="10"/><path fill="none" stroke="black" paint-order="fill stroke markers" d=" M 689 158 L 689 150" stroke-linejoin="bevel" stroke-miterlimit="10"/><path fill="" stroke="" paint-order="fill stroke markers" d=" M 730 158 L 730 150" stroke-linejoin="bevel" stroke-miterlimit="10"/><g transform="translate(50,163) rotate(0,0,0)"><text fill="" stroke="none" font-family="helvetica" font-size="8pt" font-style="normal" font-weight="normal" text-decoration="normal" x="0" y="0" text-anchor="middle" dominant-baseline="hanging">Precision</text><g transform="rotate(0,0,0) translate(-50,-163) translate(91,163) rotate(0,0,0)"><text fill="" stroke="none" font-family="helvetica" font-size="8pt" font-style="normal" font-weight="normal" text-decoration="normal" x="0" y="0" text-anchor="middle" dominant-baseline="hanging">KLD</text><g transform="rotate(0,0,0) translate(-91,-163) translate(131,163) rotate(0,0,0)"><text fill="" stroke="none" font-family="helvetica" font-size="8pt" font-style="normal" font-weight="normal" text-decoration="normal" x="0" y="0" text-anchor="middle" dominant-baseline="hanging">Loss G</text><g transform="rotate(0,0,0) translate(-131,-163) translate(172,163) rotate(0,0,0)"><text fill="" stroke="none" font-family="helvetica" font-size="8pt" font-style="normal" font-weight="normal" text-decoration="normal" x="0" y="0" text-anchor="middle" dominant-baseline="hanging">loss D</text><g transform="rotate(0,0,0) translate(-172,-163) translate(212,163) rotate(0,0,0)"><text fill="" stroke="none" font-family="helvetica" font-size="8pt" font-style="normal" font-weight="normal" text-decoration="normal" x="0" y="0" text-anchor="middle" dominant-baseline="hanging">S metric</text><g transform="rotate(0,0,0) translate(-212,-163) translate(309,163) rotate(0,0,0)"><text fill="" stroke="none" font-family="helvetica" font-size="8pt" font-style="normal" font-weight="normal" text-decoration="normal" x="0" y="0" text-anchor="middle" dominant-baseline="hanging">Precision</text><g transform="rotate(0,0,0) translate(-309,-163) translate(350,163) rotate(0,0,0)"><text fill="" stroke="none" font-family="helvetica" font-size="8pt" font-style="normal" font-weight="normal" text-decoration="normal" x="0" y="0" text-anchor="middle" dominant-baseline="hanging">KLD</text><g transform="rotate(0,0,0) translate(-350,-163) translate(390,163) rotate(0,0,0)"><text fill="" stroke="none" font-family="helvetica" font-size="8pt" font-style="normal" font-weight="normal" text-decoration="normal" x="0" y="0" text-anchor="middle" dominant-baseline="hanging">Loss G</text><g transform="rotate(0,0,0) translate(-390,-163) translate(430,163) rotate(0,0,0)"><text fill="" stroke="none" font-family="helvetica" font-size="8pt" font-style="normal" font-weight="normal" text-decoration="normal" x="0" y="0" text-anchor="middle" dominant-baseline="hanging">loss D</text><g transform="rotate(0,0,0) translate(-430,-163) translate(471,163) rotate(0,0,0)"><text fill="" stroke="none" font-family="helvetica" font-size="8pt" font-style="normal" font-weight="normal" text-decoration="normal" x="0" y="0" text-anchor="middle" dominant-baseline="hanging">S metric</text><g transform="rotate(0,0,0) translate(-471,-163) translate(568,163) rotate(0,0,0)"><text fill="" stroke="none" font-family="helvetica" font-size="8pt" font-style="normal" font-weight="normal" text-decoration="normal" x="0" y="0" text-anchor="middle" dominant-baseline="hanging">Precision</text><g transform="rotate(0,0,0) translate(-568,-163) translate(608,163) rotate(0,0,0)"><text fill="" stroke="none" font-family="helvetica" font-size="8pt" font-style="normal" font-weight="normal" text-decoration="normal" x="0" y="0" text-anchor="middle" dominant-baseline="hanging">KLD</text><g transform="rotate(0,0,0) translate(-608,-163) translate(649,163) rotate(0,0,0)"><text fill="" stroke="none" font-family="helvetica" font-size="8pt" font-style="normal" font-weight="normal" text-decoration="normal" x="0" y="0" text-anchor="middle" dominant-baseline="hanging">Loss G</text><g transform="rotate(0,0,0) translate(-649,-163) translate(689,163) rotate(0,0,0)"><text fill="" stroke="none" font-family="helvetica" font-size="8pt" font-style="normal" font-weight="normal" text-decoration="normal" x="0" y="0" text-anchor="middle" dominant-baseline="hanging">loss D</text><g transform="rotate(0,0,0) translate(-689,-163) translate(730,163) rotate(0,0,0)"><text fill="" stroke="none" font-family="helvetica" font-size="8pt" font-style="normal" font-weight="normal" text-decoration="normal" x="0" y="0" text-anchor="middle" dominant-baseline="hanging">S metric</text><g transform="rotate(0,0,0) translate(-730,-163) translate(131,183) rotate(0,0,0)"><text fill="" stroke="none" font-family="helvetica" font-size="8pt" font-style="normal" font-weight="bold" text-decoration="normal" x="0" y="0" text-anchor="middle" dominant-baseline="hanging">Architecture 1</text><g transform="rotate(0,0,0) translate(-131,-183) translate(390,183) rotate(0,0,0)"><text fill="" stroke="none" font-family="helvetica" font-size="8pt" font-style="normal" font-weight="bold" text-decoration="normal" x="0" y="0" text-anchor="middle" dominant-baseline="hanging">Architecture 2</text><g transform="rotate(0,0,0) translate(-390,-183) translate(649,183) rotate(0,0,0)"><text fill="" stroke="none" font-family="helvetica" font-size="8pt" font-style="normal" font-weight="bold" text-decoration="normal" x="0" y="0" text-anchor="middle" dominant-baseline="hanging">Architecture 3</text><g transform="rotate(0,0,0) translate(-649,-183)"><path fill="none" stroke="" paint-order="fill stroke markers" d=" M 261 188 L 261 155"/><path fill="none" stroke="" paint-order="fill stroke markers" d=" M 519 188 L 519 155"/></g></g></g></g></g></g></g></g></g></g></g></g></g></g></g></g></g></g></g></g></g><g><g fill="#444444"><path fill="none" stroke="black" paint-order="fill stroke markers" d=" M 30 152 L 30 5" stroke-linejoin="bevel" stroke-miterlimit="10"/><path fill="none" stroke="black" paint-order="fill stroke markers" d=" M 24 142 L 32 142" stroke-linejoin="bevel" stroke-miterlimit="10"/><path fill="none" stroke="black" paint-order="fill stroke markers" d=" M 24 111 L 32 111" stroke-linejoin="bevel" stroke-miterlimit="10"/><path fill="none" stroke="black" paint-order="fill stroke markers" d=" M 24 79 L 32 79" stroke-linejoin="bevel" stroke-miterlimit="10"/><path fill="none" stroke="black" paint-order="fill stroke markers" d=" M 24 48 L 32 48" stroke-linejoin="bevel" stroke-miterlimit="10"/><path fill="none" stroke="black" paint-order="fill stroke markers" d=" M 24 17 L 32 17" stroke-linejoin="bevel" stroke-miterlimit="10"/><path fill="none" stroke="black" paint-order="fill stroke markers" d=" M 26 148 L 30 148" stroke-linejoin="bevel" stroke-miterlimit="10"/><path fill="none" stroke="black" paint-order="fill stroke markers" d=" M 26 142 L 30 142" stroke-linejoin="bevel" stroke-miterlimit="10"/><path fill="none" stroke="black" paint-order="fill stroke markers" d=" M 26 135 L 30 135" stroke-linejoin="bevel" stroke-miterlimit="10"/><path fill="none" stroke="black" paint-order="fill stroke markers" d=" M 26 129 L 30 129" stroke-linejoin="bevel" stroke-miterlimit="10"/><path fill="none" stroke="black" paint-order="fill stroke markers" d=" M 26 123 L 30 123" stroke-linejoin="bevel" stroke-miterlimit="10"/><path fill="none" stroke="black" paint-order="fill stroke markers" d=" M 26 117 L 30 117" stroke-linejoin="bevel" stroke-miterlimit="10"/><path fill="none" stroke="black" paint-order="fill stroke markers" d=" M 26 111 L 30 111" stroke-linejoin="bevel" stroke-miterlimit="10"/><path fill="none" stroke="black" paint-order="fill stroke markers" d=" M 26 104 L 30 104" stroke-linejoin="bevel" stroke-miterlimit="10"/><path fill="none" stroke="black" paint-order="fill stroke markers" d=" M 26 98 L 30 98" stroke-linejoin="bevel" stroke-miterlimit="10"/><path fill="none" stroke="black" paint-order="fill stroke markers" d=" M 26 92 L 30 92" stroke-linejoin="bevel" stroke-miterlimit="10"/><path fill="none" stroke="black" paint-order="fill stroke markers" d=" M 26 86 L 30 86" stroke-linejoin="bevel" stroke-miterlimit="10"/><path fill="none" stroke="black" paint-order="fill stroke markers" d=" M 26 79 L 30 79" stroke-linejoin="bevel" stroke-miterlimit="10"/><path fill="none" stroke="black" paint-order="fill stroke markers" d=" M 26 73 L 30 73" stroke-linejoin="bevel" stroke-miterlimit="10"/><path fill="none" stroke="black" paint-order="fill stroke markers" d=" M 26 67 L 30 67" stroke-linejoin="bevel" stroke-miterlimit="10"/><path fill="none" stroke="black" paint-order="fill stroke markers" d=" M 26 61 L 30 61" stroke-linejoin="bevel" stroke-miterlimit="10"/><path fill="none" stroke="black" paint-order="fill stroke markers" d=" M 26 55 L 30 55" stroke-linejoin="bevel" stroke-miterlimit="10"/><path fill="none" stroke="black" paint-order="fill stroke markers" d=" M 26 48 L 30 48" stroke-linejoin="bevel" stroke-miterlimit="10"/><path fill="none" stroke="black" paint-order="fill stroke markers" d=" M 26 42 L 30 42" stroke-linejoin="bevel" stroke-miterlimit="10"/><path fill="none" stroke="black" paint-order="fill stroke markers" d=" M 26 36 L 30 36" stroke-linejoin="bevel" stroke-miterlimit="10"/><path fill="none" stroke="black" paint-order="fill stroke markers" d=" M 26 30 L 30 30" stroke-linejoin="bevel" stroke-miterlimit="10"/><path fill="none" stroke="black" paint-order="fill stroke markers" d=" M 26 23 L 30 23" stroke-linejoin="bevel" stroke-miterlimit="10"/><path fill="none" stroke="black" paint-order="fill stroke markers" d=" M 26 17 L 30 17" stroke-linejoin="bevel" stroke-miterlimit="10"/><path fill="" stroke="black" paint-order="fill stroke markers" d=" M 26 11 L 30 11" stroke-linejoin="bevel" stroke-miterlimit="10"/><g transform="translate(19,142) rotate(0,0,0)"><text fill="" stroke="none" font-family="helvetica" font-size="8pt" font-style="normal" font-weight="normal" text-decoration="normal" x="0" y="0" text-anchor="end" dominant-baseline="central">0</text><g transform="rotate(0,0,0) translate(-19,-142) translate(19,111) rotate(0,0,0)"><text fill="" stroke="none" font-family="helvetica" font-size="8pt" font-style="normal" font-weight="normal" text-decoration="normal" x="0" y="0" text-anchor="end" dominant-baseline="central">0.2</text><g transform="rotate(0,0,0) translate(-19,-111) translate(19,79) rotate(0,0,0)"><text fill="" stroke="none" font-family="helvetica" font-size="8pt" font-style="normal" font-weight="normal" text-decoration="normal" x="0" y="0" text-anchor="end" dominant-baseline="central">0.4</text><g transform="rotate(0,0,0) translate(-19,-79) translate(19,48) rotate(0,0,0)"><text fill="" stroke="none" font-family="helvetica" font-size="8pt" font-style="normal" font-weight="normal" text-decoration="normal" x="0" y="0" text-anchor="end" dominant-baseline="central">0.6</text><g transform="rotate(0,0,0) translate(-19,-48) translate(19,17) rotate(0,0,0)"><text fill="" stroke="none" font-family="helvetica" font-size="8pt" font-style="normal" font-weight="normal" text-decoration="normal" x="0" y="0" text-anchor="end" dominant-baseline="central">0.8</text><g transform="rotate(0,0,0) translate(-19,-17)"/></g></g></g></g></g></g></g><g clip-path="url(#FqzgDJOByVzr)"><g/></g></g></g></svg>