<svg version="1.1" xmlns="http://www.w3.org/2000/svg" xmlns:xlink="http://www.w3.org/1999/xlink" width="230" height="250"><defs><clipPath id="xOQNpggLlOAp"><path fill="none" stroke="none" d="M 53.5 5.5 L 200.5 5.5 L 200.5 228.5 L 53.5 228.5 L 53.5 5.5"/></clipPath><clipPath id="BuDyxKsFhvRQ"><path fill="none" stroke="none" d="M 53.5 5.5 L 200.5 5.5 L 200.5 228.5 L 53.5 228.5 L 53.5 5.5"/></clipPath><clipPath id="cQyEDmHkBzBS"><path fill="none" stroke="none" d="M 53.5 5.5 L 200.5 5.5 L 200.5 228.5 L 53.5 228.5 L 53.5 5.5"/></clipPath><clipPath id="izTfzJTZMeIV"><path fill="none" stroke="none" d="M 53.5 5.5 L 200.5 5.5 L 200.5 228.5 L 53.5 228.5 L 53.5 5.5"/></clipPath><clipPath id="JFXyOrPCVhsL"><path fill="none" stroke="none" d="M 53.5 5.5 L 200.5 5.5 L 200.5 228.5 L 53.5 228.5 L 53.5 5.5"/></clipPath><clipPath id="xaiPVUVuaqFn"><path fill="none" stroke="none" d="M 53.5 5.5 L 200.5 5.5 L 200.5 228.5 L 53.5 228.5 L 53.5 5.5"/></clipPath><clipPath id="HVVFGccvkTis"><path fill="none" stroke="none" d="M 53.5 5.5 L 200.5 5.5 L 200.5 228.5 L 53.5 228.5 L 53.5 5.5"/></clipPath><clipPath id="eKpQFTeCnklx"><path fill="none" stroke="none" d="M 53.5 5.5 L 200.5 5.5 L 200.5 228.5 L 53.5 228.5 L 53.5 5.5"/></clipPath><clipPath id="nLJMMOuqDoCr"><path fill="none" stroke="none" d="M 53.5 5.5 L 200.5 5.5 L 200.5 228.5 L 53.5 228.5 L 53.5 5.5"/></clipPath><clipPath id="LbBDMdrbQxzy"><path fill="none" stroke="none" d="M 53.5 5.5 L 200.5 5.5 L 200.5 228.5 L 53.5 228.5 L 53.5 5.5"/></clipPath></defs><path fill="rgb(255,255,255)" stroke="none" paint-order="stroke" d="M 0.5 0.5 L 230.5 0.5 L 230.5 250.5 L 0.5 250.5 L 0.5 0.5" fill-opacity="1"/><rect fill="#FFFFFF" stroke="none" x="53" y="5" width="147" height="223" transform="matrix(1, 0, 0, 1, 0.5, 0.5)"/><path fill="rgb(255,255,255)" stroke="none" paint-order="stroke" d="M 53.5 5.5 L 200.5 5.5 L 200.5 228.5 L 53.5 228.5 L 53.5 5.5" fill-opacity="1"/><path fill="none" stroke="rgb(229,229,229)" paint-order="fill" d="M 53.5 5.5 L 200.5 5.5 L 200.5 228.5 L 53.5 228.5 L 53.5 5.5" stroke-opacity="1" stroke-linejoin="bevel" stroke-miterlimit="10" stroke-dasharray=""/><path fill="none" stroke="rgb(229,229,229)" paint-order="fill" d="M 53.5 179.5 L 200.5 179.5 M 53.5 116.5 L 200.5 116.5 M 53.5 54.5 L 200.5 54.5" stroke-opacity="1" stroke-linejoin="bevel" stroke-miterlimit="10" stroke-dasharray="" clip-path="url(#BuDyxKsFhvRQ)"/><path fill="none" stroke="none"/><path fill="rgb(31,119,180)" stroke="rgb(0,0,0)" paint-order="fill" d="M 118.18000030517578 217.7429656982422 L 135.81999969482422 217.7429656982422 L 135.81999969482422 218.36363184452057 L 118.18000030517578 218.36363184452057 L 118.18000030517578 217.7429656982422" fill-opacity="1" clip-path="url(#cQyEDmHkBzBS)" stroke-opacity="1" stroke-linejoin="bevel" stroke-miterlimit="10" stroke-dasharray=""/><path fill="none" stroke="none"/><path fill="rgb(31,119,180)" stroke="rgb(0,0,0)" paint-order="fill" d="M 118.18000030517578 63.596988677978516 L 135.81999969482422 63.596988677978516 L 135.81999969482422 64.2176548242569 L 118.18000030517578 64.2176548242569 L 118.18000030517578 63.596988677978516" fill-opacity="1" clip-path="url(#izTfzJTZMeIV)" stroke-opacity="1" stroke-linejoin="bevel" stroke-miterlimit="10" stroke-dasharray=""/><path fill="none" stroke="none"/><path fill="none" stroke="rgb(0,0,0)" paint-order="fill" d="M 127 218.0532989501953 L 127 160.24856567382812" stroke-opacity="1" stroke-linejoin="bevel" stroke-miterlimit="10" stroke-width="2" stroke-dasharray="" clip-path="url(#JFXyOrPCVhsL)"/><path fill="none" stroke="none"/><path fill="none" stroke="rgb(0,0,0)" paint-order="fill" d="M 127 121.71206665039062 L 127 63.90732192993164" stroke-opacity="1" stroke-linejoin="bevel" stroke-miterlimit="10" stroke-width="2" stroke-dasharray="" clip-path="url(#xaiPVUVuaqFn)"/><path fill="none" stroke="none"/><path fill="rgb(224,142,121)" stroke="none" paint-order="stroke" d="M 106.41999816894531 145.0013427734375 L 147.5800018310547 145.0013427734375 L 147.5800018310547 160.24856567382812 L 106.41999816894531 160.24856567382812 L 106.41999816894531 145.0013427734375" fill-opacity="1" clip-path="url(#HVVFGccvkTis)"/><path fill="none" stroke="rgb(0,0,0)" paint-order="fill" d="M 106.41999816894531 145.0013427734375 L 147.5800018310547 145.0013427734375 L 147.5800018310547 160.24856567382812 L 106.41999816894531 160.24856567382812 L 106.41999816894531 145.0013427734375" stroke-opacity="1" stroke-linejoin="bevel" stroke-miterlimit="10" stroke-width="2" stroke-dasharray="" clip-path="url(#HVVFGccvkTis)"/><path fill="none" stroke="none"/><path fill="rgb(59,134,134)" stroke="none" paint-order="stroke" d="M 106.41999816894531 145.0013427734375 L 147.5800018310547 145.0013427734375 L 147.5800018310547 121.71206665039062 L 106.41999816894531 121.71206665039062 L 106.41999816894531 145.0013427734375" fill-opacity="1" clip-path="url(#eKpQFTeCnklx)"/><path fill="none" stroke="rgb(0,0,0)" paint-order="fill" d="M 106.41999816894531 145.0013427734375 L 147.5800018310547 145.0013427734375 L 147.5800018310547 121.71206665039062 L 106.41999816894531 121.71206665039062 L 106.41999816894531 145.0013427734375" stroke-opacity="1" stroke-linejoin="bevel" stroke-miterlimit="10" stroke-width="2" stroke-dasharray="" clip-path="url(#eKpQFTeCnklx)"/><path fill="none" stroke="none"/><path fill="rgb(255,165,0)" stroke="rgb(255,165,0)" paint-order="fill" d="M 129 15.636363983154297 A 2 2 0 1 1 128.9999990000001 15.63436398348763" fill-opacity="1" clip-path="url(#nLJMMOuqDoCr)" stroke-opacity="1" stroke-linejoin="bevel" stroke-miterlimit="10" stroke-width="5" stroke-dasharray=""/><path fill="none" stroke="rgb(0,0,0)" paint-order="fill" d="M 53.5 228.5 L 200.5 228.5" stroke-opacity="1" stroke-linejoin="bevel" stroke-miterlimit="10" stroke-dasharray=""/><path fill="none" stroke="rgb(0,0,0)" paint-order="fill" d="M 127.5 234.5 L 127.5 226.5" stroke-opacity="1" stroke-linejoin="bevel" stroke-miterlimit="10" stroke-dasharray=""/><path fill="none" stroke="rgb(0,0,0)" paint-order="fill" d="" stroke-opacity="1" stroke-linejoin="bevel" stroke-miterlimit="10" stroke-dasharray=""/><text fill="rgb(68,68,68)" stroke="none" font-family="helvetica" font-size="11px" font-style="normal" font-weight="normal" text-decoration="normal" x="123.44166660308838" y="247" text-anchor="start" dominant-baseline="alphabetic" transform="matrix(1, 0, 0, 1, 0.5, 0.5)" fill-opacity="1">1</text><path fill="none" stroke="rgb(0,0,0)" paint-order="fill" d="M 53.5 228.5 L 53.5 5.5" stroke-opacity="1" stroke-linejoin="bevel" stroke-miterlimit="10" stroke-dasharray=""/><path fill="none" stroke="rgb(0,0,0)" paint-order="fill" d="M 47.5 179.5 L 55.5 179.5 M 47.5 116.5 L 55.5 116.5 M 47.5 54.5 L 55.5 54.5" stroke-opacity="1" stroke-linejoin="bevel" stroke-miterlimit="10" stroke-dasharray=""/><path fill="none" stroke="rgb(0,0,0)" paint-order="fill" d="M 49.5 191.5 L 53.5 191.5 M 49.5 203.5 L 53.5 203.5 M 49.5 216.5 L 53.5 216.5 M 49.5 179.5 L 53.5 179.5 M 49.5 166.5 L 53.5 166.5 M 49.5 154.5 L 53.5 154.5 M 49.5 141.5 L 53.5 141.5 M 49.5 129.5 L 53.5 129.5 M 49.5 116.5 L 53.5 116.5 M 49.5 104.5 L 53.5 104.5 M 49.5 92.5 L 53.5 92.5 M 49.5 79.5 L 53.5 79.5 M 49.5 67.5 L 53.5 67.5 M 49.5 54.5 L 53.5 54.5 M 49.5 42.5 L 53.5 42.5 M 49.5 30.5 L 53.5 30.5 M 49.5 17.5 L 53.5 17.5" stroke-opacity="1" stroke-linejoin="bevel" stroke-miterlimit="10" stroke-dasharray=""/><text fill="rgb(68,68,68)" stroke="none" font-family="helvetica" font-size="11px" font-style="normal" font-weight="normal" text-decoration="normal" x="26.716666221618652" y="182.560546875" text-anchor="start" dominant-baseline="alphabetic" transform="matrix(1, 0, 0, 1, 0.5, 0.5)" fill-opacity="1">4.5</text><text fill="rgb(68,68,68)" stroke="none" font-family="helvetica" font-size="11px" font-style="normal" font-weight="normal" text-decoration="normal" x="35.88333320617676" y="120.49393463134766" text-anchor="start" dominant-baseline="alphabetic" transform="matrix(1, 0, 0, 1, 0.5, 0.5)" fill-opacity="1">5</text><text fill="rgb(68,68,68)" stroke="none" font-family="helvetica" font-size="11px" font-style="normal" font-weight="normal" text-decoration="normal" x="26.716666221618652" y="58.42732238769531" text-anchor="start" dominant-baseline="alphabetic" transform="matrix(1, 0, 0, 1, 0.5, 0.5)" fill-opacity="1">5.5</text><text fill="rgb(68,68,68)" stroke="none" font-family="helvetica" font-size="13px" font-style="italic" font-weight="normal" text-decoration="normal" x="-10.40000057220459" y="113.5" text-anchor="start" dominant-baseline="alphabetic" transform="matrix(6.123233995736766e-17, -1, 1, 6.123233995736766e-17, -97.28333377838135, 135.71666622161865)" fill-opacity="1">Sm metric</text></svg>