<svg version="1.1" xmlns="http://www.w3.org/2000/svg" xmlns:xlink="http://www.w3.org/1999/xlink" width="230" height="250" style="width: 230px; height: 250px;"><defs><clipPath id="ARDrVVqyCDBn"><path fill="none" stroke="none" d=" M 53 5 L 200 5 L 200 224 L 53 224 L 53 5 Z"/></clipPath><clipPath id="tKmReHqzsxAT"><path fill="none" stroke="none" d=" M 53 5 L 200 5 L 200 224 L 53 224 L 53 5 Z"/></clipPath><clipPath id="uBagsZgBCQkn"><path fill="none" stroke="none" d=" M 53 5 L 200 5 L 200 224 L 53 224 L 53 5 Z"/></clipPath><clipPath id="RCTXuTlGPqsT"><path fill="none" stroke="none" d=" M 53 5 L 200 5 L 200 224 L 53 224 L 53 5 Z"/></clipPath><clipPath id="AlmNVJkeTZTs"><path fill="none" stroke="none" d=" M 53 5 L 200 5 L 200 224 L 53 224 L 53 5 Z"/></clipPath><clipPath id="fhXXqdUlPtdn"><path fill="none" stroke="none" d=" M 53 5 L 200 5 L 200 224 L 53 224 L 53 5 Z"/></clipPath><clipPath id="tyPQObwuyrfu"><path fill="none" stroke="none" d=" M 53 5 L 200 5 L 200 224 L 53 224 L 53 5 Z"/></clipPath><clipPath id="BBtNVGeUAosW"><path fill="none" stroke="none" d=" M 53 5 L 200 5 L 200 224 L 53 224 L 53 5 Z"/></clipPath><clipPath id="lgQTBxMWKvUw"><path fill="none" stroke="none" d=" M 53 5 L 200 5 L 200 224 L 53 224 L 53 5 Z"/></clipPath><clipPath id="uqHRHCMuwctu"><path fill="none" stroke="none" d=" M 53 5 L 200 5 L 200 224 L 53 224 L 53 5 Z"/></clipPath></defs><g><g transform="scale(1,1) translate(0.5,0.5)"><rect fill="#FFFFFF" stroke="none" x="0" y="0" width="230" height="250"/><rect fill="#ffffff" stroke="none" x="0" y="0" width="230" height="250"/><rect fill="#FFFFFF" stroke="none" x="53" y="5" width="147" height="219"/><rect fill="#ffffff" stroke="none" x="53" y="5" width="147" height="219"/><g><rect fill="none" stroke="#e5e5e5" x="53" y="5" width="147" height="219" stroke-linejoin="bevel" stroke-miterlimit="10"/></g><g clip-path="url(#ARDrVVqyCDBn)"><g><g/></g></g><g clip-path="url(#tKmReHqzsxAT)"><g><g><path fill="none" stroke="#e5e5e5" paint-order="fill stroke markers" d=" M 53 214 L 200 214" stroke-linejoin="bevel" stroke-miterlimit="10"/><path fill="none" stroke="#e5e5e5" paint-order="fill stroke markers" d=" M 53 157 L 200 157" stroke-linejoin="bevel" stroke-miterlimit="10"/><path fill="none" stroke="#e5e5e5" paint-order="fill stroke markers" d=" M 53 99 L 200 99" stroke-linejoin="bevel" stroke-miterlimit="10"/><path fill="none" stroke="#e5e5e5" paint-order="fill stroke markers" d=" M 53 42 L 200 42" stroke-linejoin="bevel" stroke-miterlimit="10"/></g></g></g><g clip-path="url(#uBagsZgBCQkn)"><g><g><path fill="none" stroke="none"/><rect fill="#1f77b4" stroke="none" x="117.68" y="213.47166500773938" width="17.639999999999986" height="0.573789537715129"/><path fill="none" stroke="black" paint-order="fill stroke markers" d=" M 117.68 213.47166500773938 L 135.32 213.47166500773938 L 135.32 214.0454545454545 L 117.68 214.0454545454545 L 117.68 213.47166500773938 Z" stroke-linejoin="bevel" stroke-miterlimit="10"/><path fill="none" stroke="black" paint-order="fill stroke markers" d="" stroke-linejoin="bevel" stroke-miterlimit="10"/></g></g></g><g clip-path="url(#RCTXuTlGPqsT)"><g><g><path fill="none" stroke="none"/><rect fill="#1f77b4" stroke="none" x="117.68" y="28.4735182800747" width="17.639999999999986" height="0.5737895377150153"/><path fill="none" stroke="black" paint-order="fill stroke markers" d=" M 117.68 28.4735182800747 L 135.32 28.4735182800747 L 135.32 29.047307817789715 L 117.68 29.047307817789715 L 117.68 28.4735182800747 Z" stroke-linejoin="bevel" stroke-miterlimit="10"/><path fill="none" stroke="black" paint-order="fill stroke markers" d="" stroke-linejoin="bevel" stroke-miterlimit="10"/></g></g></g><g clip-path="url(#AlmNVJkeTZTs)"><g><g><path fill="none" stroke="none"/><path fill="none" stroke="black" paint-order="fill stroke markers" d=" M 126.5 213.758559776597 L 126.5 144.38425475372276" stroke-linejoin="bevel" stroke-miterlimit="10" stroke-width="2"/></g></g></g><g clip-path="url(#fhXXqdUlPtdn)"><g><g><path fill="none" stroke="none"/><path fill="none" stroke="black" paint-order="fill stroke markers" d=" M 126.5 98.13471807180656 L 126.5 28.760413048932264" stroke-linejoin="bevel" stroke-miterlimit="10" stroke-width="2"/></g></g></g><g clip-path="url(#tyPQObwuyrfu)"><g><g><path fill="none" stroke="none"/><path fill="#E08E79" stroke="none" paint-order="stroke fill markers" d=" M 105.92 118.60550909428162 L 147.07999999999998 118.60550909428162 L 147.07999999999998 144.38425475372276 L 105.92 144.38425475372276 L 105.92 118.60550909428162 Z"/><path fill="none" stroke="black" paint-order="fill stroke markers" d=" M 105.92 118.60550909428162 L 147.07999999999998 118.60550909428162 L 147.07999999999998 144.38425475372276 L 105.92 144.38425475372276 L 105.92 118.60550909428162 Z" stroke-linejoin="bevel" stroke-miterlimit="10" stroke-width="2"/></g></g></g><g clip-path="url(#BBtNVGeUAosW)"><g><g><path fill="none" stroke="none"/><path fill="#3B8686" stroke="none" paint-order="stroke fill markers" d=" M 105.92 118.60550909428162 L 147.07999999999998 118.60550909428162 L 147.07999999999998 98.13471807180656 L 105.92 98.13471807180656 L 105.92 118.60550909428162 Z"/><path fill="none" stroke="black" paint-order="fill stroke markers" d=" M 105.92 118.60550909428162 L 147.07999999999998 118.60550909428162 L 147.07999999999998 98.13471807180656 L 105.92 98.13471807180656 L 105.92 118.60550909428162 Z" stroke-linejoin="bevel" stroke-miterlimit="10" stroke-width="2"/></g></g></g><g clip-path="url(#lgQTBxMWKvUw)"><g><g><path fill="none" stroke="none"/><path fill="orange" stroke="orange" paint-order="fill stroke markers" d=" M 128.5 14.954545454545496 A 2 2 0 1 1 128.4999990000001 14.952545454878829" stroke-linejoin="bevel" stroke-miterlimit="10" stroke-width="5"/></g></g></g><g/><g/><g><g fill="#444444"><path fill="none" stroke="black" paint-order="fill stroke markers" d=" M 53 224 L 200 224" stroke-linejoin="bevel" stroke-miterlimit="10"/><path fill="" stroke="black" paint-order="fill stroke markers" d=" M 127 230 L 127 222" stroke-linejoin="bevel" stroke-miterlimit="10"/><g transform="translate(127,235) rotate(0,0,0)"><text fill="" stroke="none" font-family="helvetica" font-size="8pt" font-style="normal" font-weight="normal" text-decoration="normal" x="0" y="0" text-anchor="middle" dominant-baseline="hanging">1</text><g transform="rotate(0,0,0) translate(-127,-235)"/></g></g></g><g><g fill="#444444"><path fill="none" stroke="black" paint-order="fill stroke markers" d=" M 53 224 L 53 5" stroke-linejoin="bevel" stroke-miterlimit="10"/><path fill="none" stroke="black" paint-order="fill stroke markers" d=" M 47 214 L 55 214" stroke-linejoin="bevel" stroke-miterlimit="10"/><path fill="none" stroke="black" paint-order="fill stroke markers" d=" M 47 157 L 55 157" stroke-linejoin="bevel" stroke-miterlimit="10"/><path fill="none" stroke="black" paint-order="fill stroke markers" d=" M 47 99 L 55 99" stroke-linejoin="bevel" stroke-miterlimit="10"/><path fill="none" stroke="black" paint-order="fill stroke markers" d=" M 47 42 L 55 42" stroke-linejoin="bevel" stroke-miterlimit="10"/><path fill="none" stroke="black" paint-order="fill stroke markers" d=" M 49 214 L 53 214" stroke-linejoin="bevel" stroke-miterlimit="10"/><path fill="none" stroke="black" paint-order="fill stroke markers" d=" M 49 202 L 53 202" stroke-linejoin="bevel" stroke-miterlimit="10"/><path fill="none" stroke="black" paint-order="fill stroke markers" d=" M 49 191 L 53 191" stroke-linejoin="bevel" stroke-miterlimit="10"/><path fill="none" stroke="black" paint-order="fill stroke markers" d=" M 49 180 L 53 180" stroke-linejoin="bevel" stroke-miterlimit="10"/><path fill="none" stroke="black" paint-order="fill stroke markers" d=" M 49 168 L 53 168" stroke-linejoin="bevel" stroke-miterlimit="10"/><path fill="none" stroke="black" paint-order="fill stroke markers" d=" M 49 157 L 53 157" stroke-linejoin="bevel" stroke-miterlimit="10"/><path fill="none" stroke="black" paint-order="fill stroke markers" d=" M 49 145 L 53 145" stroke-linejoin="bevel" stroke-miterlimit="10"/><path fill="none" stroke="black" paint-order="fill stroke markers" d=" M 49 134 L 53 134" stroke-linejoin="bevel" stroke-miterlimit="10"/><path fill="none" stroke="black" paint-order="fill stroke markers" d=" M 49 122 L 53 122" stroke-linejoin="bevel" stroke-miterlimit="10"/><path fill="none" stroke="black" paint-order="fill stroke markers" d=" M 49 111 L 53 111" stroke-linejoin="bevel" stroke-miterlimit="10"/><path fill="none" stroke="black" paint-order="fill stroke markers" d=" M 49 99 L 53 99" stroke-linejoin="bevel" stroke-miterlimit="10"/><path fill="none" stroke="black" paint-order="fill stroke markers" d=" M 49 88 L 53 88" stroke-linejoin="bevel" stroke-miterlimit="10"/><path fill="none" stroke="black" paint-order="fill stroke markers" d=" M 49 76 L 53 76" stroke-linejoin="bevel" stroke-miterlimit="10"/><path fill="none" stroke="black" paint-order="fill stroke markers" d=" M 49 65 L 53 65" stroke-linejoin="bevel" stroke-miterlimit="10"/><path fill="none" stroke="black" paint-order="fill stroke markers" d=" M 49 53 L 53 53" stroke-linejoin="bevel" stroke-miterlimit="10"/><path fill="none" stroke="black" paint-order="fill stroke markers" d=" M 49 42 L 53 42" stroke-linejoin="bevel" stroke-miterlimit="10"/><path fill="none" stroke="black" paint-order="fill stroke markers" d=" M 49 30 L 53 30" stroke-linejoin="bevel" stroke-miterlimit="10"/><path fill="none" stroke="black" paint-order="fill stroke markers" d=" M 49 19 L 53 19" stroke-linejoin="bevel" stroke-miterlimit="10"/><path fill="" stroke="black" paint-order="fill stroke markers" d=" M 49 7 L 53 7" stroke-linejoin="bevel" stroke-miterlimit="10"/><g transform="translate(42,214) rotate(0,0,0)"><text fill="" stroke="none" font-family="helvetica" font-size="8pt" font-style="normal" font-weight="normal" text-decoration="normal" x="0" y="0" text-anchor="end" dominant-baseline="central">4</text><g transform="rotate(0,0,0) translate(-42,-214) translate(42,157) rotate(0,0,0)"><text fill="" stroke="none" font-family="helvetica" font-size="8pt" font-style="normal" font-weight="normal" text-decoration="normal" x="0" y="0" text-anchor="end" dominant-baseline="central">4.5</text><g transform="rotate(0,0,0) translate(-42,-157) translate(42,99) rotate(0,0,0)"><text fill="" stroke="none" font-family="helvetica" font-size="8pt" font-style="normal" font-weight="normal" text-decoration="normal" x="0" y="0" text-anchor="end" dominant-baseline="central">5</text><g transform="rotate(0,0,0) translate(-42,-99) translate(42,42) rotate(0,0,0)"><text fill="" stroke="none" font-family="helvetica" font-size="8pt" font-style="normal" font-weight="normal" text-decoration="normal" x="0" y="0" text-anchor="end" dominant-baseline="central">5.5</text><g transform="rotate(0,0,0) translate(-42,-42) translate(18,115) rotate(-90,0,0)"><text fill="" stroke="none" font-family="helvetica" font-size="10pt" font-style="italic" font-weight="normal" text-decoration="normal" x="0" y="0" text-anchor="middle" dominant-baseline="alphabetic">Sm metric</text><g transform="rotate(90,0,0) translate(-18,-115)"/></g></g></g></g></g></g></g><g clip-path="url(#uqHRHCMuwctu)"><g/></g></g></g></svg>