<svg version="1.1" xmlns="http://www.w3.org/2000/svg" xmlns:xlink="http://www.w3.org/1999/xlink" width="300" height="250" style="width: 300px; height: 250px;"><defs><clipPath id="ilOZVPOtUpal"><path fill="none" stroke="none" d=" M 61 5 L 270 5 L 270 201 L 61 201 L 61 5 Z"/></clipPath><clipPath id="FDDcyIlzWaXU"><path fill="none" stroke="none" d=" M 61 5 L 270 5 L 270 201 L 61 201 L 61 5 Z"/></clipPath><clipPath id="gxbXxOvTJAhg"><path fill="none" stroke="none" d=" M 61 5 L 270 5 L 270 201 L 61 201 L 61 5 Z"/></clipPath><clipPath id="mkwsyGrqZBot"><path fill="none" stroke="none" d=" M 61 5 L 270 5 L 270 201 L 61 201 L 61 5 Z"/></clipPath><clipPath id="gTfviHRZRQgV"><path fill="none" stroke="none" d=" M 61 5 L 270 5 L 270 201 L 61 201 L 61 5 Z"/></clipPath><clipPath id="UVPctfBDqdqw"><path fill="none" stroke="none" d=" M 61 5 L 270 5 L 270 201 L 61 201 L 61 5 Z"/></clipPath><clipPath id="wvpTgXowEXTQ"><path fill="none" stroke="none" d=" M 61 5 L 270 5 L 270 201 L 61 201 L 61 5 Z"/></clipPath><clipPath id="DmdRKRkkJczh"><path fill="none" stroke="none" d=" M 61 5 L 270 5 L 270 201 L 61 201 L 61 5 Z"/></clipPath><clipPath id="lTVZWvnuvVuR"><path fill="none" stroke="none" d=" M 61 5 L 270 5 L 270 201 L 61 201 L 61 5 Z"/></clipPath></defs><g><g transform="scale(1,1) translate(0.5,0.5)"><rect fill="#FFFFFF" stroke="none" x="0" y="0" width="300" height="250"/><rect fill="#ffffff" stroke="none" x="0" y="0" width="300" height="250"/><rect fill="#FFFFFF" stroke="none" x="61" y="5" width="209" height="196"/><rect fill="#efefef" stroke="none" x="61" y="5" width="209" height="196"/><g><rect fill="none" stroke="#e5e5e5" x="61" y="5" width="209" height="196" stroke-linejoin="bevel" stroke-miterlimit="10"/></g><g clip-path="url(#ilOZVPOtUpal)"><g><g/></g></g><g clip-path="url(#FDDcyIlzWaXU)"><g><g><path fill="none" stroke="white" paint-order="fill stroke markers" d=" M 61 199 L 270 199" stroke-linejoin="bevel" stroke-miterlimit="10"/><path fill="none" stroke="white" paint-order="fill stroke markers" d=" M 61 176 L 270 176" stroke-linejoin="bevel" stroke-miterlimit="10"/><path fill="none" stroke="white" paint-order="fill stroke markers" d=" M 61 153 L 270 153" stroke-linejoin="bevel" stroke-miterlimit="10"/><path fill="none" stroke="white" paint-order="fill stroke markers" d=" M 61 130 L 270 130" stroke-linejoin="bevel" stroke-miterlimit="10"/><path fill="none" stroke="white" paint-order="fill stroke markers" d=" M 61 107 L 270 107" stroke-linejoin="bevel" stroke-miterlimit="10"/><path fill="none" stroke="white" paint-order="fill stroke markers" d=" M 61 83 L 270 83" stroke-linejoin="bevel" stroke-miterlimit="10"/><path fill="none" stroke="white" paint-order="fill stroke markers" d=" M 61 60 L 270 60" stroke-linejoin="bevel" stroke-miterlimit="10"/><path fill="none" stroke="white" paint-order="fill stroke markers" d=" M 61 37 L 270 37" stroke-linejoin="bevel" stroke-miterlimit="10"/><path fill="none" stroke="white" paint-order="fill stroke markers" d=" M 61 14 L 270 14" stroke-linejoin="bevel" stroke-miterlimit="10"/></g></g></g><g clip-path="url(#gxbXxOvTJAhg)"><g><g><path fill="none" stroke="none"/><rect fill="#1f77b4" stroke="none" x="106.97999999999999" y="71.63058695602945" width="12.54000000000002" height="0.5772149604692913"/><rect fill="#1f77b4" stroke="none" x="211.48" y="191.51369413043983" width="12.54000000000002" height="0.577214960469405"/><path fill="none" stroke="black" paint-order="fill stroke markers" d=" M 106.97999999999999 71.63058695602945 L 119.52000000000001 71.63058695602945 L 119.52000000000001 72.20780191649874 L 106.97999999999999 72.20780191649874 L 106.97999999999999 71.63058695602945 Z" stroke-linejoin="bevel" stroke-miterlimit="10"/><path fill="none" stroke="black" paint-order="fill stroke markers" d=" M 211.48 191.51369413043983 L 224.02 191.51369413043983 L 224.02 192.09090909090924 L 211.48 192.09090909090924 L 211.48 191.51369413043983 Z" stroke-linejoin="bevel" stroke-miterlimit="10"/><path fill="none" stroke="black" paint-order="fill stroke markers" d="" stroke-linejoin="bevel" stroke-miterlimit="10"/></g></g></g><g clip-path="url(#mkwsyGrqZBot)"><g><g><path fill="none" stroke="none"/><rect fill="#1f77b4" stroke="none" x="106.97999999999999" y="40.845789064328756" width="12.54000000000002" height="0.5772149604695187"/><rect fill="#1f77b4" stroke="none" x="211.48" y="13.909090909090992" width="12.54000000000002" height="0.5772149604695187"/><path fill="none" stroke="black" paint-order="fill stroke markers" d=" M 106.97999999999999 40.845789064328756 L 119.52000000000001 40.845789064328756 L 119.52000000000001 41.423004024798274 L 106.97999999999999 41.423004024798274 L 106.97999999999999 40.845789064328756 Z" stroke-linejoin="bevel" stroke-miterlimit="10"/><path fill="none" stroke="black" paint-order="fill stroke markers" d=" M 211.48 13.909090909090992 L 224.02 13.909090909090992 L 224.02 14.48630586956051 L 211.48 14.48630586956051 L 211.48 13.909090909090992 Z" stroke-linejoin="bevel" stroke-miterlimit="10"/><path fill="none" stroke="black" paint-order="fill stroke markers" d="" stroke-linejoin="bevel" stroke-miterlimit="10"/></g></g></g><g clip-path="url(#gTfviHRZRQgV)"><g><g><path fill="none" stroke="none"/><path fill="none" stroke="black" paint-order="fill stroke markers" d=" M 113.25 71.9191944362642 L 113.25 60.37489522687656" stroke-linejoin="bevel" stroke-miterlimit="10"/><path fill="none" stroke="black" paint-order="fill stroke markers" d=" M 217.75 191.8023016106746 L 217.75 120.76046032213503" stroke-linejoin="bevel" stroke-miterlimit="10"/></g></g></g><g clip-path="url(#UVPctfBDqdqw)"><g><g><path fill="none" stroke="none"/><path fill="none" stroke="black" paint-order="fill stroke markers" d=" M 113.25 52.67869575395139 L 113.25 41.134396544563515" stroke-linejoin="bevel" stroke-miterlimit="10"/><path fill="none" stroke="black" paint-order="fill stroke markers" d=" M 217.75 67.47907935573039 L 217.75 14.197698389325751" stroke-linejoin="bevel" stroke-miterlimit="10"/></g></g></g><g clip-path="url(#wvpTgXowEXTQ)"><g><g><path fill="none" stroke="none"/><path fill="#E08E79" stroke="none" paint-order="stroke fill markers" d=" M 94.96249999999999 60.37489522687656 L 131.53750000000002 60.37489522687656 L 131.53750000000002 60.37489522687656 L 94.96249999999999 60.37489522687656 L 94.96249999999999 60.37489522687656 Z"/><path fill="none" stroke="black" paint-order="fill stroke markers" d=" M 94.96249999999999 60.37489522687656 L 131.53750000000002 60.37489522687656 L 131.53750000000002 60.37489522687656 L 94.96249999999999 60.37489522687656 L 94.96249999999999 60.37489522687656 Z" stroke-linejoin="bevel" stroke-miterlimit="10"/><path fill="#E08E79" stroke="none" paint-order="stroke fill markers" d=" M 199.4625 85.2395396778652 L 236.0375 85.2395396778652 L 236.0375 120.76046032213503 L 199.4625 120.76046032213503 L 199.4625 85.2395396778652 Z"/><path fill="none" stroke="black" paint-order="fill stroke markers" d=" M 199.4625 85.2395396778652 L 236.0375 85.2395396778652 L 236.0375 120.76046032213503 L 199.4625 120.76046032213503 L 199.4625 85.2395396778652 Z" stroke-linejoin="bevel" stroke-miterlimit="10"/></g></g></g><g clip-path="url(#DmdRKRkkJczh)"><g><g><path fill="none" stroke="none"/><path fill="#3B8686" stroke="none" paint-order="stroke fill markers" d=" M 94.96249999999999 60.37489522687656 L 131.53750000000002 60.37489522687656 L 131.53750000000002 52.67869575395139 L 94.96249999999999 52.67869575395139 L 94.96249999999999 60.37489522687656 Z"/><path fill="none" stroke="black" paint-order="fill stroke markers" d=" M 94.96249999999999 60.37489522687656 L 131.53750000000002 60.37489522687656 L 131.53750000000002 52.67869575395139 L 94.96249999999999 52.67869575395139 L 94.96249999999999 60.37489522687656 Z" stroke-linejoin="bevel" stroke-miterlimit="10"/><path fill="#3B8686" stroke="none" paint-order="stroke fill markers" d=" M 199.4625 85.2395396778652 L 236.0375 85.2395396778652 L 236.0375 67.47907935573039 L 199.4625 67.47907935573039 L 199.4625 85.2395396778652 Z"/><path fill="none" stroke="black" paint-order="fill stroke markers" d=" M 199.4625 85.2395396778652 L 236.0375 85.2395396778652 L 236.0375 67.47907935573039 L 199.4625 67.47907935573039 L 199.4625 85.2395396778652 Z" stroke-linejoin="bevel" stroke-miterlimit="10"/></g></g></g><g/><g/><g><g fill="#444444"><path fill="none" stroke="black" paint-order="fill stroke markers" d=" M 61 201 L 270 201" stroke-linejoin="bevel" stroke-miterlimit="10"/><path fill="none" stroke="black" paint-order="fill stroke markers" d=" M 113 207 L 113 199" stroke-linejoin="bevel" stroke-miterlimit="10"/><path fill="" stroke="black" paint-order="fill stroke markers" d=" M 218 207 L 218 199" stroke-linejoin="bevel" stroke-miterlimit="10"/><g transform="translate(113,212) rotate(0,0,0)"><text fill="" stroke="none" font-family="helvetica" font-size="8pt" font-style="normal" font-weight="normal" text-decoration="normal" x="0" y="0" text-anchor="middle" dominant-baseline="hanging">Treino</text><g transform="rotate(0,0,0) translate(-113,-212) translate(218,212) rotate(0,0,0)"><text fill="" stroke="none" font-family="helvetica" font-size="8pt" font-style="normal" font-weight="normal" text-decoration="normal" x="0" y="0" text-anchor="middle" dominant-baseline="hanging">Teste</text><g transform="rotate(0,0,0) translate(-218,-212) translate(166,232) rotate(0,0,0)"><text fill="" stroke="none" font-family="helvetica" font-size="10pt" font-style="italic" font-weight="normal" text-decoration="normal" x="0" y="0" text-anchor="middle" dominant-baseline="hanging">conjunto de dados</text><g transform="rotate(0,0,0) translate(-166,-232)"/></g></g></g></g></g><g><g fill="#444444"><path fill="none" stroke="black" paint-order="fill stroke markers" d=" M 61 201 L 61 5" stroke-linejoin="bevel" stroke-miterlimit="10"/><path fill="none" stroke="black" paint-order="fill stroke markers" d=" M 55 199 L 63 199" stroke-linejoin="bevel" stroke-miterlimit="10"/><path fill="none" stroke="black" paint-order="fill stroke markers" d=" M 55 176 L 63 176" stroke-linejoin="bevel" stroke-miterlimit="10"/><path fill="none" stroke="black" paint-order="fill stroke markers" d=" M 55 153 L 63 153" stroke-linejoin="bevel" stroke-miterlimit="10"/><path fill="none" stroke="black" paint-order="fill stroke markers" d=" M 55 130 L 63 130" stroke-linejoin="bevel" stroke-miterlimit="10"/><path fill="none" stroke="black" paint-order="fill stroke markers" d=" M 55 107 L 63 107" stroke-linejoin="bevel" stroke-miterlimit="10"/><path fill="none" stroke="black" paint-order="fill stroke markers" d=" M 55 83 L 63 83" stroke-linejoin="bevel" stroke-miterlimit="10"/><path fill="none" stroke="black" paint-order="fill stroke markers" d=" M 55 60 L 63 60" stroke-linejoin="bevel" stroke-miterlimit="10"/><path fill="none" stroke="black" paint-order="fill stroke markers" d=" M 55 37 L 63 37" stroke-linejoin="bevel" stroke-miterlimit="10"/><path fill="none" stroke="black" paint-order="fill stroke markers" d=" M 55 14 L 63 14" stroke-linejoin="bevel" stroke-miterlimit="10"/><path fill="none" stroke="black" paint-order="fill stroke markers" d=" M 57 199 L 61 199" stroke-linejoin="bevel" stroke-miterlimit="10"/><path fill="none" stroke="black" paint-order="fill stroke markers" d=" M 57 194 L 61 194" stroke-linejoin="bevel" stroke-miterlimit="10"/><path fill="none" stroke="black" paint-order="fill stroke markers" d=" M 57 190 L 61 190" stroke-linejoin="bevel" stroke-miterlimit="10"/><path fill="none" stroke="black" paint-order="fill stroke markers" d=" M 57 185 L 61 185" stroke-linejoin="bevel" stroke-miterlimit="10"/><path fill="none" stroke="black" paint-order="fill stroke markers" d=" M 57 180 L 61 180" stroke-linejoin="bevel" stroke-miterlimit="10"/><path fill="none" stroke="black" paint-order="fill stroke markers" d=" M 57 176 L 61 176" stroke-linejoin="bevel" stroke-miterlimit="10"/><path fill="none" stroke="black" paint-order="fill stroke markers" d=" M 57 171 L 61 171" stroke-linejoin="bevel" stroke-miterlimit="10"/><path fill="none" stroke="black" paint-order="fill stroke markers" d=" M 57 167 L 61 167" stroke-linejoin="bevel" stroke-miterlimit="10"/><path fill="none" stroke="black" paint-order="fill stroke markers" d=" M 57 162 L 61 162" stroke-linejoin="bevel" stroke-miterlimit="10"/><path fill="none" stroke="black" paint-order="fill stroke markers" d=" M 57 157 L 61 157" stroke-linejoin="bevel" stroke-miterlimit="10"/><path fill="none" stroke="black" paint-order="fill stroke markers" d=" M 57 153 L 61 153" stroke-linejoin="bevel" stroke-miterlimit="10"/><path fill="none" stroke="black" paint-order="fill stroke markers" d=" M 57 148 L 61 148" stroke-linejoin="bevel" stroke-miterlimit="10"/><path fill="none" stroke="black" paint-order="fill stroke markers" d=" M 57 143 L 61 143" stroke-linejoin="bevel" stroke-miterlimit="10"/><path fill="none" stroke="black" paint-order="fill stroke markers" d=" M 57 139 L 61 139" stroke-linejoin="bevel" stroke-miterlimit="10"/><path fill="none" stroke="black" paint-order="fill stroke markers" d=" M 57 134 L 61 134" stroke-linejoin="bevel" stroke-miterlimit="10"/><path fill="none" stroke="black" paint-order="fill stroke markers" d=" M 57 130 L 61 130" stroke-linejoin="bevel" stroke-miterlimit="10"/><path fill="none" stroke="black" paint-order="fill stroke markers" d=" M 57 125 L 61 125" stroke-linejoin="bevel" stroke-miterlimit="10"/><path fill="none" stroke="black" paint-order="fill stroke markers" d=" M 57 120 L 61 120" stroke-linejoin="bevel" stroke-miterlimit="10"/><path fill="none" stroke="black" paint-order="fill stroke markers" d=" M 57 116 L 61 116" stroke-linejoin="bevel" stroke-miterlimit="10"/><path fill="none" stroke="black" paint-order="fill stroke markers" d=" M 57 111 L 61 111" stroke-linejoin="bevel" stroke-miterlimit="10"/><path fill="none" stroke="black" paint-order="fill stroke markers" d=" M 57 107 L 61 107" stroke-linejoin="bevel" stroke-miterlimit="10"/><path fill="none" stroke="black" paint-order="fill stroke markers" d=" M 57 102 L 61 102" stroke-linejoin="bevel" stroke-miterlimit="10"/><path fill="none" stroke="black" paint-order="fill stroke markers" d=" M 57 97 L 61 97" stroke-linejoin="bevel" stroke-miterlimit="10"/><path fill="none" stroke="black" paint-order="fill stroke markers" d=" M 57 93 L 61 93" stroke-linejoin="bevel" stroke-miterlimit="10"/><path fill="none" stroke="black" paint-order="fill stroke markers" d=" M 57 88 L 61 88" stroke-linejoin="bevel" stroke-miterlimit="10"/><path fill="none" stroke="black" paint-order="fill stroke markers" d=" M 57 83 L 61 83" stroke-linejoin="bevel" stroke-miterlimit="10"/><path fill="none" stroke="black" paint-order="fill stroke markers" d=" M 57 79 L 61 79" stroke-linejoin="bevel" stroke-miterlimit="10"/><path fill="none" stroke="black" paint-order="fill stroke markers" d=" M 57 74 L 61 74" stroke-linejoin="bevel" stroke-miterlimit="10"/><path fill="none" stroke="black" paint-order="fill stroke markers" d=" M 57 70 L 61 70" stroke-linejoin="bevel" stroke-miterlimit="10"/><path fill="none" stroke="black" paint-order="fill stroke markers" d=" M 57 65 L 61 65" stroke-linejoin="bevel" stroke-miterlimit="10"/><path fill="none" stroke="black" paint-order="fill stroke markers" d=" M 57 60 L 61 60" stroke-linejoin="bevel" stroke-miterlimit="10"/><path fill="none" stroke="black" paint-order="fill stroke markers" d=" M 57 56 L 61 56" stroke-linejoin="bevel" stroke-miterlimit="10"/><path fill="none" stroke="black" paint-order="fill stroke markers" d=" M 57 51 L 61 51" stroke-linejoin="bevel" stroke-miterlimit="10"/><path fill="none" stroke="black" paint-order="fill stroke markers" d=" M 57 47 L 61 47" stroke-linejoin="bevel" stroke-miterlimit="10"/><path fill="none" stroke="black" paint-order="fill stroke markers" d=" M 57 42 L 61 42" stroke-linejoin="bevel" stroke-miterlimit="10"/><path fill="none" stroke="black" paint-order="fill stroke markers" d=" M 57 37 L 61 37" stroke-linejoin="bevel" stroke-miterlimit="10"/><path fill="none" stroke="black" paint-order="fill stroke markers" d=" M 57 33 L 61 33" stroke-linejoin="bevel" stroke-miterlimit="10"/><path fill="none" stroke="black" paint-order="fill stroke markers" d=" M 57 28 L 61 28" stroke-linejoin="bevel" stroke-miterlimit="10"/><path fill="none" stroke="black" paint-order="fill stroke markers" d=" M 57 23 L 61 23" stroke-linejoin="bevel" stroke-miterlimit="10"/><path fill="none" stroke="black" paint-order="fill stroke markers" d=" M 57 19 L 61 19" stroke-linejoin="bevel" stroke-miterlimit="10"/><path fill="none" stroke="black" paint-order="fill stroke markers" d=" M 57 14 L 61 14" stroke-linejoin="bevel" stroke-miterlimit="10"/><path fill="" stroke="black" paint-order="fill stroke markers" d=" M 57 10 L 61 10" stroke-linejoin="bevel" stroke-miterlimit="10"/><g transform="translate(50,199) rotate(0,0,0)"><text fill="" stroke="none" font-family="helvetica" font-size="8pt" font-style="normal" font-weight="normal" text-decoration="normal" x="0" y="0" text-anchor="end" dominant-baseline="central">0.84</text><g transform="rotate(0,0,0) translate(-50,-199) translate(50,176) rotate(0,0,0)"><text fill="" stroke="none" font-family="helvetica" font-size="8pt" font-style="normal" font-weight="normal" text-decoration="normal" x="0" y="0" text-anchor="end" dominant-baseline="central">0.86</text><g transform="rotate(0,0,0) translate(-50,-176) translate(50,153) rotate(0,0,0)"><text fill="" stroke="none" font-family="helvetica" font-size="8pt" font-style="normal" font-weight="normal" text-decoration="normal" x="0" y="0" text-anchor="end" dominant-baseline="central">0.88</text><g transform="rotate(0,0,0) translate(-50,-153) translate(50,130) rotate(0,0,0)"><text fill="" stroke="none" font-family="helvetica" font-size="8pt" font-style="normal" font-weight="normal" text-decoration="normal" x="0" y="0" text-anchor="end" dominant-baseline="central">0.9</text><g transform="rotate(0,0,0) translate(-50,-130) translate(50,107) rotate(0,0,0)"><text fill="" stroke="none" font-family="helvetica" font-size="8pt" font-style="normal" font-weight="normal" text-decoration="normal" x="0" y="0" text-anchor="end" dominant-baseline="central">0.92</text><g transform="rotate(0,0,0) translate(-50,-107) translate(50,83) rotate(0,0,0)"><text fill="" stroke="none" font-family="helvetica" font-size="8pt" font-style="normal" font-weight="normal" text-decoration="normal" x="0" y="0" text-anchor="end" dominant-baseline="central">0.94</text><g transform="rotate(0,0,0) translate(-50,-83) translate(50,60) rotate(0,0,0)"><text fill="" stroke="none" font-family="helvetica" font-size="8pt" font-style="normal" font-weight="normal" text-decoration="normal" x="0" y="0" text-anchor="end" dominant-baseline="central">0.96</text><g transform="rotate(0,0,0) translate(-50,-60) translate(50,37) rotate(0,0,0)"><text fill="" stroke="none" font-family="helvetica" font-size="8pt" font-style="normal" font-weight="normal" text-decoration="normal" x="0" y="0" text-anchor="end" dominant-baseline="central">0.98</text><g transform="rotate(0,0,0) translate(-50,-37) translate(50,14) rotate(0,0,0)"><text fill="" stroke="none" font-family="helvetica" font-size="8pt" font-style="normal" font-weight="normal" text-decoration="normal" x="0" y="0" text-anchor="end" dominant-baseline="central">1</text><g transform="rotate(0,0,0) translate(-50,-14) translate(18,103) rotate(-90,0,0)"><text fill="" stroke="none" font-family="helvetica" font-size="10pt" font-style="italic" font-weight="normal" text-decoration="normal" x="0" y="0" text-anchor="middle" dominant-baseline="alphabetic">pontuação recall</text><g transform="rotate(90,0,0) translate(-18,-103)"/></g></g></g></g></g></g></g></g></g></g></g></g><g clip-path="url(#lTVZWvnuvVuR)"><g/></g></g></g></svg>