<?xml version="1.0" encoding="UTF-8" standalone="no"?>
<svg
   xmlns:ns1="http://www.iki.fi/pav/software/textext/"
   xmlns:dc="http://purl.org/dc/elements/1.1/"
   xmlns:cc="http://creativecommons.org/ns#"
   xmlns:rdf="http://www.w3.org/1999/02/22-rdf-syntax-ns#"
   xmlns:svg="http://www.w3.org/2000/svg"
   xmlns="http://www.w3.org/2000/svg"
   xmlns:xlink="http://www.w3.org/1999/xlink"
   xmlns:sodipodi="http://sodipodi.sourceforge.net/DTD/sodipodi-0.dtd"
   xmlns:inkscape="http://www.inkscape.org/namespaces/inkscape"
   sodipodi:docname="recall_score_in_unaugmented_data.svg"
   id="svg554"
   width="720pt"
   viewBox="0 0 720 360"
   version="1.1"
   height="360pt"
   inkscape:version="0.92.5 (2060ec1f9f, 2020-04-08)">
  <sodipodi:namedview
     pagecolor="#ffffff"
     bordercolor="#666666"
     borderopacity="1"
     objecttolerance="10"
     gridtolerance="10"
     guidetolerance="10"
     inkscape:pageopacity="0"
     inkscape:pageshadow="2"
     inkscape:window-width="1316"
     inkscape:window-height="704"
     id="namedview556"
     showgrid="false"
     inkscape:zoom="1.9666667"
     inkscape:cx="782.57496"
     inkscape:cy="382.04805"
     inkscape:window-x="50"
     inkscape:window-y="27"
     inkscape:window-maximized="1"
     inkscape:current-layer="axes_1" />
  <metadata
     id="metadata2">
    <rdf:RDF>
      <cc:Work>
        <dc:type
           rdf:resource="http://purl.org/dc/dcmitype/StillImage" />
        <dc:date>2021-04-07T13:49:36.450297</dc:date>
        <dc:format>image/svg+xml</dc:format>
        <dc:creator>
          <cc:Agent>
            <dc:title>Matplotlib v3.4.1, https://matplotlib.org/</dc:title>
          </cc:Agent>
        </dc:creator>
      </cc:Work>
    </rdf:RDF>
  </metadata>
  <defs
     id="defs6">
    <style
       type="text/css"
       id="style4">*{stroke-linecap:butt;stroke-linejoin:round;}</style>
  </defs>
  <g
     id="figure_1">
    <g
       id="patch_1">
      <path
         d="M 0 360  L 720 360  L 720 0  L 0 0  z "
         style="fill:none;"
         id="path8" />
    </g>
    <g
       id="axes_1">
      <g
         id="patch_2">
        <path
           d="M 90 315  L 648 315  L 648 43.2  L 90 43.2  z "
           style="fill:#ffffff;"
           id="path11" />
      </g>
      <g
         id="PolyCollection_1">
        <path
           clip-path="url(#p609a828abe)"
           d="M 115.363636 99.380806  L 115.363636 185.205684  L 132.855799 110.707484  L 150.347962 109.969282  L 167.840125 115.144995  L 185.332288 106.267873  L 202.824451 108.22119  L 220.316614 113.921493  L 237.808777 110.897788  L 255.30094 107.470307  L 272.793103 111.001172  L 290.285266 115.802907  L 307.777429 116.438444  L 325.269592 120.898317  L 342.761755 135.099341  L 360.253918 128.607916  L 377.746082 133.084133  L 395.238245 127.400129  L 412.730408 129.053777  L 430.222571 136.092122  L 447.714734 131.721284  L 465.206897 133.203594  L 482.69906 142.469989  L 500.191223 148.749939  L 517.683386 155.859465  L 535.175549 170.860144  L 552.667712 173.107639  L 570.159875 172.561217  L 587.652038 181.643338  L 605.144201 190.194021  L 622.636364 197.714312  L 622.636364 144.74986  L 622.636364 144.74986  L 605.144201 137.387319  L 587.652038 135.189289  L 570.159875 125.254457  L 552.667712 116.439795  L 535.175549 112.072698  L 517.683386 102.268656  L 500.191223 93.668524  L 482.69906 90.026587  L 465.206897 87.717444  L 447.714734 85.065634  L 430.222571 85.655741  L 412.730408 78.638077  L 395.238245 76.984429  L 377.746082 86.183257  L 360.253918 79.910762  L 342.761755 84.994873  L 325.269592 67.776584  L 307.777429 60.66092  L 290.285266 60.469633  L 272.793103 60.310424  L 255.30094 58.880345  L 237.808777 57.933336  L 220.316614 64.004695  L 202.824451 58.956286  L 185.332288 59.255955  L 167.840125 62.781194  L 150.347962 55.554545  L 132.855799 59.777289  L 115.363636 99.380806  z "
           style="fill:#1f77b4;fill-opacity:0.3;"
           id="path14" />
      </g>
      <g
         id="PolyCollection_2">
        <path
           clip-path="url(#p609a828abe)"
           d="M 115.363636 95.595304  L 115.363636 271.673589  L 132.855799 247.340307  L 150.347962 245.869148  L 167.840125 245.869148  L 185.332288 244.378806  L 202.824451 244.378806  L 220.316614 244.378806  L 237.808777 244.378806  L 255.30094 244.378806  L 272.793103 244.378806  L 290.285266 244.378806  L 307.777429 244.378806  L 325.269592 247.681013  L 342.761755 251.613227  L 360.253918 251.613227  L 377.746082 252.922611  L 395.238245 251.462474  L 412.730408 251.462474  L 430.222571 252.790399  L 447.714734 261.194798  L 465.206897 264.772348  L 482.69906 264.772348  L 500.191223 271.572009  L 517.683386 279.130521  L 535.175549 284.529428  L 552.667712 284.531501  L 570.159875 288.179871  L 587.652038 295.094227  L 605.144201 295.847765  L 622.636364 302.645455  L 622.636364 131.596186  L 622.636364 131.596186  L 605.144201 125.991515  L 587.652038 124.264581  L 570.159875 113.815632  L 552.667712 102.58117  L 535.175549 100.102771  L 517.683386 93.099317  L 500.191223 93.216413  L 482.69906 92.574657  L 465.206897 92.574657  L 447.714734 91.191263  L 430.222571 92.154245  L 412.730408 91.001698  L 395.238245 91.001698  L 377.746082 94.502505  L 360.253918 93.331418  L 342.761755 93.331418  L 325.269592 79.900327  L 307.777429 75.761118  L 290.285266 75.761118  L 272.793103 75.761118  L 255.30094 75.761118  L 237.808777 75.761118  L 220.316614 75.761118  L 202.824451 75.761118  L 185.332288 75.761118  L 167.840125 76.751247  L 150.347962 76.751247  L 132.855799 77.760561  L 115.363636 95.595304  z "
           style="fill:#ff7f0e;fill-opacity:0.3;"
           id="path17" />
      </g>
      <g
         id="PathCollection_1">
        <path
           clip-path="url(#p609a828abe)"
           d="M 115.363636 186.64956  C 116.163254 186.64956 116.930229 186.331869 117.495644 185.766454  C 118.061058 185.201039 118.37875 184.434064 118.37875 183.634447  C 118.37875 182.834829 118.061058 182.067855 117.495644 181.50244  C 116.930229 180.937025 116.163254 180.619333 115.363636 180.619333  C 114.564019 180.619333 113.797044 180.937025 113.231629 181.50244  C 112.666214 182.067855 112.348523 182.834829 112.348523 183.634447  C 112.348523 184.434064 112.666214 185.201039 113.231629 185.766454  C 113.797044 186.331869 114.564019 186.64956 115.363636 186.64956  z "
           style="fill:#0fc238;stroke:#00801d;"
           id="path20" />
        <path
           clip-path="url(#p609a828abe)"
           d="M 132.855799 169.621502  C 134.731068 169.621502 136.529784 168.876449 137.855799 167.550434  C 139.181815 166.224418 139.926867 164.425703 139.926867 162.550434  C 139.926867 160.675165 139.181815 158.876449 137.855799 157.550434  C 136.529784 156.224418 134.731068 155.479366 132.855799 155.479366  C 130.98053 155.479366 129.181815 156.224418 127.855799 157.550434  C 126.529784 158.876449 125.784732 160.675165 125.784732 162.550434  C 125.784732 164.425703 126.529784 166.224418 127.855799 167.550434  C 129.181815 168.876449 130.98053 169.621502 132.855799 169.621502  z "
           style="fill:#0fc238;stroke:#00801d;"
           id="path22" />
        <path
           clip-path="url(#p609a828abe)"
           d="M 150.347962 163.442205  C 150.913377 163.442205 151.45571 163.217563 151.855519 162.817754  C 152.255328 162.417946 152.47997 161.875613 152.47997 161.310198  C 152.47997 160.744783 152.255328 160.20245 151.855519 159.802641  C 151.45571 159.402832 150.913377 159.178191 150.347962 159.178191  C 149.782547 159.178191 149.240214 159.402832 148.840406 159.802641  C 148.440597 160.20245 148.215955 160.744783 148.215955 161.310198  C 148.215955 161.875613 148.440597 162.417946 148.840406 162.817754  C 149.240214 163.217563 149.782547 163.442205 150.347962 163.442205  z "
           style="fill:#0fc238;stroke:#00801d;"
           id="path24" />
        <path
           clip-path="url(#p609a828abe)"
           d="M 185.332288 162.201969  C 185.897703 162.201969 186.440036 161.977327 186.839845 161.577518  C 187.239654 161.17771 187.464296 160.635377 187.464296 160.069962  C 187.464296 159.504547 187.239654 158.962214 186.839845 158.562405  C 186.440036 158.162596 185.897703 157.937955 185.332288 157.937955  C 184.766873 157.937955 184.22454 158.162596 183.824732 158.562405  C 183.424923 158.962214 183.200281 159.504547 183.200281 160.069962  C 183.200281 160.635377 183.424923 161.17771 183.824732 161.577518  C 184.22454 161.977327 184.766873 162.201969 185.332288 162.201969  z "
           style="fill:#0fc238;stroke:#00801d;"
           id="path26" />
      </g>
      <g
         id="matplotlib.axis_1">
        <g
           id="xtick_1">
          <g
             id="line2d_1">
            <path
               clip-path="url(#p609a828abe)"
               d="M 114.347058 315  L 114.347058 43.2  "
               style="fill:none;stroke:#b0b0b0;stroke-linecap:square;stroke-width:0.8;"
               id="path29" />
          </g>
          <g
             id="line2d_2">
            <defs
               id="defs33">
              <path
                 d="M 0 0  L 0 3.5  "
                 id="m0a4622e505"
                 style="stroke:#000000;stroke-width:0.8;" />
            </defs>
            <g
               id="g37">
              <use
                 style="stroke:#000000;stroke-width:0.8;"
                 x="114.347058"
                 xlink:href="#m0a4622e505"
                 y="315"
                 id="use35" />
            </g>
          </g>
          <g
             id="text_1">
            <!-- 0.0 -->
            <g
               transform="translate(106.395495 329.598437)scale(0.1 -0.1)"
               id="g50">
              <defs
                 id="defs42">
                <path
                   d="M 2034 4250  Q 1547 4250 1301 3770  Q 1056 3291 1056 2328  Q 1056 1369 1301 889  Q 1547 409 2034 409  Q 2525 409 2770 889  Q 3016 1369 3016 2328  Q 3016 3291 2770 3770  Q 2525 4250 2034 4250  z M 2034 4750  Q 2819 4750 3233 4129  Q 3647 3509 3647 2328  Q 3647 1150 3233 529  Q 2819 -91 2034 -91  Q 1250 -91 836 529  Q 422 1150 422 2328  Q 422 3509 836 4129  Q 1250 4750 2034 4750  z "
                   id="DejaVuSans-30"
                   transform="scale(0.015625)" />
                <path
                   d="M 684 794  L 1344 794  L 1344 0  L 684 0  L 684 794  z "
                   id="DejaVuSans-2e"
                   transform="scale(0.015625)" />
              </defs>
              <use
                 xlink:href="#DejaVuSans-30"
                 id="use44" />
              <use
                 x="63.623047"
                 xlink:href="#DejaVuSans-2e"
                 id="use46" />
              <use
                 x="95.410156"
                 xlink:href="#DejaVuSans-30"
                 id="use48" />
            </g>
          </g>
        </g>
        <g
           id="xtick_2">
          <g
             id="line2d_3">
            <path
               clip-path="url(#p609a828abe)"
               d="M 216.004919 315  L 216.004919 43.2  "
               style="fill:none;stroke:#b0b0b0;stroke-linecap:square;stroke-width:0.8;"
               id="path54" />
          </g>
          <g
             id="line2d_4">
            <g
               id="g59">
              <use
                 style="stroke:#000000;stroke-width:0.8;"
                 x="216.004919"
                 xlink:href="#m0a4622e505"
                 y="315"
                 id="use57" />
            </g>
          </g>
          <g
             id="text_2">
            <!-- 0.1 -->
            <g
               transform="translate(208.053356 329.598437)scale(0.1 -0.1)"
               id="g71">
              <defs
                 id="defs63">
                <path
                   d="M 794 531  L 1825 531  L 1825 4091  L 703 3866  L 703 4441  L 1819 4666  L 2450 4666  L 2450 531  L 3481 531  L 3481 0  L 794 0  L 794 531  z "
                   id="DejaVuSans-31"
                   transform="scale(0.015625)" />
              </defs>
              <use
                 xlink:href="#DejaVuSans-30"
                 id="use65" />
              <use
                 x="63.623047"
                 xlink:href="#DejaVuSans-2e"
                 id="use67" />
              <use
                 x="95.410156"
                 xlink:href="#DejaVuSans-31"
                 id="use69" />
            </g>
          </g>
        </g>
        <g
           id="xtick_3">
          <g
             id="line2d_5">
            <path
               clip-path="url(#p609a828abe)"
               d="M 317.66278 315  L 317.66278 43.2  "
               style="fill:none;stroke:#b0b0b0;stroke-linecap:square;stroke-width:0.8;"
               id="path75" />
          </g>
          <g
             id="line2d_6">
            <g
               id="g80">
              <use
                 style="stroke:#000000;stroke-width:0.8;"
                 x="317.66278"
                 xlink:href="#m0a4622e505"
                 y="315"
                 id="use78" />
            </g>
          </g>
          <g
             id="text_3">
            <!-- 0.2 -->
            <g
               transform="translate(309.711218 329.598437)scale(0.1 -0.1)"
               id="g92">
              <defs
                 id="defs84">
                <path
                   d="M 1228 531  L 3431 531  L 3431 0  L 469 0  L 469 531  Q 828 903 1448 1529  Q 2069 2156 2228 2338  Q 2531 2678 2651 2914  Q 2772 3150 2772 3378  Q 2772 3750 2511 3984  Q 2250 4219 1831 4219  Q 1534 4219 1204 4116  Q 875 4013 500 3803  L 500 4441  Q 881 4594 1212 4672  Q 1544 4750 1819 4750  Q 2544 4750 2975 4387  Q 3406 4025 3406 3419  Q 3406 3131 3298 2873  Q 3191 2616 2906 2266  Q 2828 2175 2409 1742  Q 1991 1309 1228 531  z "
                   id="DejaVuSans-32"
                   transform="scale(0.015625)" />
              </defs>
              <use
                 xlink:href="#DejaVuSans-30"
                 id="use86" />
              <use
                 x="63.623047"
                 xlink:href="#DejaVuSans-2e"
                 id="use88" />
              <use
                 x="95.410156"
                 xlink:href="#DejaVuSans-32"
                 id="use90" />
            </g>
          </g>
        </g>
        <g
           id="xtick_4">
          <g
             id="line2d_7">
            <path
               clip-path="url(#p609a828abe)"
               d="M 419.320641 315  L 419.320641 43.2  "
               style="fill:none;stroke:#b0b0b0;stroke-linecap:square;stroke-width:0.8;"
               id="path96" />
          </g>
          <g
             id="line2d_8">
            <g
               id="g101">
              <use
                 style="stroke:#000000;stroke-width:0.8;"
                 x="419.320641"
                 xlink:href="#m0a4622e505"
                 y="315"
                 id="use99" />
            </g>
          </g>
          <g
             id="text_4">
            <!-- 0.3 -->
            <g
               transform="translate(411.369079 329.598437)scale(0.1 -0.1)"
               id="g113">
              <defs
                 id="defs105">
                <path
                   d="M 2597 2516  Q 3050 2419 3304 2112  Q 3559 1806 3559 1356  Q 3559 666 3084 287  Q 2609 -91 1734 -91  Q 1441 -91 1130 -33  Q 819 25 488 141  L 488 750  Q 750 597 1062 519  Q 1375 441 1716 441  Q 2309 441 2620 675  Q 2931 909 2931 1356  Q 2931 1769 2642 2001  Q 2353 2234 1838 2234  L 1294 2234  L 1294 2753  L 1863 2753  Q 2328 2753 2575 2939  Q 2822 3125 2822 3475  Q 2822 3834 2567 4026  Q 2313 4219 1838 4219  Q 1578 4219 1281 4162  Q 984 4106 628 3988  L 628 4550  Q 988 4650 1302 4700  Q 1616 4750 1894 4750  Q 2613 4750 3031 4423  Q 3450 4097 3450 3541  Q 3450 3153 3228 2886  Q 3006 2619 2597 2516  z "
                   id="DejaVuSans-33"
                   transform="scale(0.015625)" />
              </defs>
              <use
                 xlink:href="#DejaVuSans-30"
                 id="use107" />
              <use
                 x="63.623047"
                 xlink:href="#DejaVuSans-2e"
                 id="use109" />
              <use
                 x="95.410156"
                 xlink:href="#DejaVuSans-33"
                 id="use111" />
            </g>
          </g>
        </g>
        <g
           id="xtick_5">
          <g
             id="line2d_9">
            <path
               clip-path="url(#p609a828abe)"
               d="M 520.978502 315  L 520.978502 43.2  "
               style="fill:none;stroke:#b0b0b0;stroke-linecap:square;stroke-width:0.8;"
               id="path117" />
          </g>
          <g
             id="line2d_10">
            <g
               id="g122">
              <use
                 style="stroke:#000000;stroke-width:0.8;"
                 x="520.978502"
                 xlink:href="#m0a4622e505"
                 y="315"
                 id="use120" />
            </g>
          </g>
          <g
             id="text_5">
            <!-- 0.4 -->
            <g
               transform="translate(513.02694 329.598437)scale(0.1 -0.1)"
               id="g134">
              <defs
                 id="defs126">
                <path
                   d="M 2419 4116  L 825 1625  L 2419 1625  L 2419 4116  z M 2253 4666  L 3047 4666  L 3047 1625  L 3713 1625  L 3713 1100  L 3047 1100  L 3047 0  L 2419 0  L 2419 1100  L 313 1100  L 313 1709  L 2253 4666  z "
                   id="DejaVuSans-34"
                   transform="scale(0.015625)" />
              </defs>
              <use
                 xlink:href="#DejaVuSans-30"
                 id="use128" />
              <use
                 x="63.623047"
                 xlink:href="#DejaVuSans-2e"
                 id="use130" />
              <use
                 x="95.410156"
                 xlink:href="#DejaVuSans-34"
                 id="use132" />
            </g>
          </g>
        </g>
        <g
           id="xtick_6">
          <g
             id="line2d_11">
            <path
               clip-path="url(#p609a828abe)"
               d="M 622.636364 315  L 622.636364 43.2  "
               style="fill:none;stroke:#b0b0b0;stroke-linecap:square;stroke-width:0.8;"
               id="path138" />
          </g>
          <g
             id="line2d_12">
            <g
               id="g143">
              <use
                 style="stroke:#000000;stroke-width:0.8;"
                 x="622.636364"
                 xlink:href="#m0a4622e505"
                 y="315"
                 id="use141" />
            </g>
          </g>
          <g
             id="text_6">
            <!-- 0.5 -->
            <g
               transform="translate(614.684801 329.598437)scale(0.1 -0.1)"
               id="g155">
              <defs
                 id="defs147">
                <path
                   d="M 691 4666  L 3169 4666  L 3169 4134  L 1269 4134  L 1269 2991  Q 1406 3038 1543 3061  Q 1681 3084 1819 3084  Q 2600 3084 3056 2656  Q 3513 2228 3513 1497  Q 3513 744 3044 326  Q 2575 -91 1722 -91  Q 1428 -91 1123 -41  Q 819 9 494 109  L 494 744  Q 775 591 1075 516  Q 1375 441 1709 441  Q 2250 441 2565 725  Q 2881 1009 2881 1497  Q 2881 1984 2565 2268  Q 2250 2553 1709 2553  Q 1456 2553 1204 2497  Q 953 2441 691 2322  L 691 4666  z "
                   id="DejaVuSans-35"
                   transform="scale(0.015625)" />
              </defs>
              <use
                 xlink:href="#DejaVuSans-30"
                 id="use149" />
              <use
                 x="63.623047"
                 xlink:href="#DejaVuSans-2e"
                 id="use151" />
              <use
                 x="95.410156"
                 xlink:href="#DejaVuSans-35"
                 id="use153" />
            </g>
          </g>
        </g>
      </g>
      <g
         id="matplotlib.axis_2">
        <g
           id="ytick_1">
          <g
             id="line2d_13">
            <path
               clip-path="url(#p609a828abe)"
               d="M 90 289.054512  L 648 289.054512  "
               style="fill:none;stroke:#b0b0b0;stroke-linecap:square;stroke-width:0.8;"
               id="path191" />
          </g>
          <g
             id="line2d_14">
            <defs
               id="defs195">
              <path
                 d="M 0 0  L -3.5 0  "
                 id="md612f55e5f"
                 style="stroke:#000000;stroke-width:0.8;" />
            </defs>
            <g
               id="g199">
              <use
                 style="stroke:#000000;stroke-width:0.8;"
                 x="90"
                 xlink:href="#md612f55e5f"
                 y="289.054512"
                 id="use197" />
            </g>
          </g>
          <g
             id="text_8">
            <!-- 0.2 -->
            <g
               transform="translate(67.096875 292.853731)scale(0.1 -0.1)"
               id="g208">
              <use
                 xlink:href="#DejaVuSans-30"
                 id="use202" />
              <use
                 x="63.623047"
                 xlink:href="#DejaVuSans-2e"
                 id="use204" />
              <use
                 x="95.410156"
                 xlink:href="#DejaVuSans-32"
                 id="use206" />
            </g>
          </g>
        </g>
        <g
           id="ytick_2">
          <g
             id="line2d_15">
            <path
               clip-path="url(#p609a828abe)"
               d="M 90 251.84743  L 648 251.84743  "
               style="fill:none;stroke:#b0b0b0;stroke-linecap:square;stroke-width:0.8;"
               id="path212" />
          </g>
          <g
             id="line2d_16">
            <g
               id="g217">
              <use
                 style="stroke:#000000;stroke-width:0.8;"
                 x="90"
                 xlink:href="#md612f55e5f"
                 y="251.84743"
                 id="use215" />
            </g>
          </g>
          <g
             id="text_9">
            <!-- 0.3 -->
            <g
               transform="translate(67.096875 255.646649)scale(0.1 -0.1)"
               id="g226">
              <use
                 xlink:href="#DejaVuSans-30"
                 id="use220" />
              <use
                 x="63.623047"
                 xlink:href="#DejaVuSans-2e"
                 id="use222" />
              <use
                 x="95.410156"
                 xlink:href="#DejaVuSans-33"
                 id="use224" />
            </g>
          </g>
        </g>
        <g
           id="ytick_3">
          <g
             id="line2d_17">
            <path
               clip-path="url(#p609a828abe)"
               d="M 90 214.640348  L 648 214.640348  "
               style="fill:none;stroke:#b0b0b0;stroke-linecap:square;stroke-width:0.8;"
               id="path230" />
          </g>
          <g
             id="line2d_18">
            <g
               id="g235">
              <use
                 style="stroke:#000000;stroke-width:0.8;"
                 x="90"
                 xlink:href="#md612f55e5f"
                 y="214.640348"
                 id="use233" />
            </g>
          </g>
          <g
             id="text_10">
            <!-- 0.4 -->
            <g
               transform="translate(67.096875 218.439567)scale(0.1 -0.1)"
               id="g244">
              <use
                 xlink:href="#DejaVuSans-30"
                 id="use238" />
              <use
                 x="63.623047"
                 xlink:href="#DejaVuSans-2e"
                 id="use240" />
              <use
                 x="95.410156"
                 xlink:href="#DejaVuSans-34"
                 id="use242" />
            </g>
          </g>
        </g>
        <g
           id="ytick_4">
          <g
             id="line2d_19">
            <path
               clip-path="url(#p609a828abe)"
               d="M 90 177.433267  L 648 177.433267  "
               style="fill:none;stroke:#b0b0b0;stroke-linecap:square;stroke-width:0.8;"
               id="path248" />
          </g>
          <g
             id="line2d_20">
            <g
               id="g253">
              <use
                 style="stroke:#000000;stroke-width:0.8;"
                 x="90"
                 xlink:href="#md612f55e5f"
                 y="177.433267"
                 id="use251" />
            </g>
          </g>
          <g
             id="text_11">
            <!-- 0.5 -->
            <g
               transform="translate(67.096875 181.232485)scale(0.1 -0.1)"
               id="g262">
              <use
                 xlink:href="#DejaVuSans-30"
                 id="use256" />
              <use
                 x="63.623047"
                 xlink:href="#DejaVuSans-2e"
                 id="use258" />
              <use
                 x="95.410156"
                 xlink:href="#DejaVuSans-35"
                 id="use260" />
            </g>
          </g>
        </g>
        <g
           id="ytick_5">
          <g
             id="line2d_21">
            <path
               clip-path="url(#p609a828abe)"
               d="M 90 140.226185  L 648 140.226185  "
               style="fill:none;stroke:#b0b0b0;stroke-linecap:square;stroke-width:0.8;"
               id="path266" />
          </g>
          <g
             id="line2d_22">
            <g
               id="g271">
              <use
                 style="stroke:#000000;stroke-width:0.8;"
                 x="90"
                 xlink:href="#md612f55e5f"
                 y="140.226185"
                 id="use269" />
            </g>
          </g>
          <g
             id="text_12">
            <!-- 0.6 -->
            <g
               transform="translate(67.096875 144.025403)scale(0.1 -0.1)"
               id="g283">
              <defs
                 id="defs275">
                <path
                   d="M 2113 2584  Q 1688 2584 1439 2293  Q 1191 2003 1191 1497  Q 1191 994 1439 701  Q 1688 409 2113 409  Q 2538 409 2786 701  Q 3034 994 3034 1497  Q 3034 2003 2786 2293  Q 2538 2584 2113 2584  z M 3366 4563  L 3366 3988  Q 3128 4100 2886 4159  Q 2644 4219 2406 4219  Q 1781 4219 1451 3797  Q 1122 3375 1075 2522  Q 1259 2794 1537 2939  Q 1816 3084 2150 3084  Q 2853 3084 3261 2657  Q 3669 2231 3669 1497  Q 3669 778 3244 343  Q 2819 -91 2113 -91  Q 1303 -91 875 529  Q 447 1150 447 2328  Q 447 3434 972 4092  Q 1497 4750 2381 4750  Q 2619 4750 2861 4703  Q 3103 4656 3366 4563  z "
                   id="DejaVuSans-36"
                   transform="scale(0.015625)" />
              </defs>
              <use
                 xlink:href="#DejaVuSans-30"
                 id="use277" />
              <use
                 x="63.623047"
                 xlink:href="#DejaVuSans-2e"
                 id="use279" />
              <use
                 x="95.410156"
                 xlink:href="#DejaVuSans-36"
                 id="use281" />
            </g>
          </g>
        </g>
        <g
           id="ytick_6">
          <g
             id="line2d_23">
            <path
               clip-path="url(#p609a828abe)"
               d="M 90 103.019103  L 648 103.019103  "
               style="fill:none;stroke:#b0b0b0;stroke-linecap:square;stroke-width:0.8;"
               id="path287" />
          </g>
          <g
             id="line2d_24">
            <g
               id="g292">
              <use
                 style="stroke:#000000;stroke-width:0.8;"
                 x="90"
                 xlink:href="#md612f55e5f"
                 y="103.019103"
                 id="use290" />
            </g>
          </g>
          <g
             id="text_13">
            <!-- 0.7 -->
            <g
               transform="translate(67.096875 106.818322)scale(0.1 -0.1)"
               id="g304">
              <defs
                 id="defs296">
                <path
                   d="M 525 4666  L 3525 4666  L 3525 4397  L 1831 0  L 1172 0  L 2766 4134  L 525 4134  L 525 4666  z "
                   id="DejaVuSans-37"
                   transform="scale(0.015625)" />
              </defs>
              <use
                 xlink:href="#DejaVuSans-30"
                 id="use298" />
              <use
                 x="63.623047"
                 xlink:href="#DejaVuSans-2e"
                 id="use300" />
              <use
                 x="95.410156"
                 xlink:href="#DejaVuSans-37"
                 id="use302" />
            </g>
          </g>
        </g>
        <g
           id="ytick_7">
          <g
             id="line2d_25">
            <path
               clip-path="url(#p609a828abe)"
               d="M 90 65.812021  L 648 65.812021  "
               style="fill:none;stroke:#b0b0b0;stroke-linecap:square;stroke-width:0.8;"
               id="path308" />
          </g>
          <g
             id="line2d_26">
            <g
               id="g313">
              <use
                 style="stroke:#000000;stroke-width:0.8;"
                 x="90"
                 xlink:href="#md612f55e5f"
                 y="65.812021"
                 id="use311" />
            </g>
          </g>
          <g
             id="text_14">
            <!-- 0.8 -->
            <g
               transform="translate(67.096875 69.61124)scale(0.1 -0.1)"
               id="g325">
              <defs
                 id="defs317">
                <path
                   d="M 2034 2216  Q 1584 2216 1326 1975  Q 1069 1734 1069 1313  Q 1069 891 1326 650  Q 1584 409 2034 409  Q 2484 409 2743 651  Q 3003 894 3003 1313  Q 3003 1734 2745 1975  Q 2488 2216 2034 2216  z M 1403 2484  Q 997 2584 770 2862  Q 544 3141 544 3541  Q 544 4100 942 4425  Q 1341 4750 2034 4750  Q 2731 4750 3128 4425  Q 3525 4100 3525 3541  Q 3525 3141 3298 2862  Q 3072 2584 2669 2484  Q 3125 2378 3379 2068  Q 3634 1759 3634 1313  Q 3634 634 3220 271  Q 2806 -91 2034 -91  Q 1263 -91 848 271  Q 434 634 434 1313  Q 434 1759 690 2068  Q 947 2378 1403 2484  z M 1172 3481  Q 1172 3119 1398 2916  Q 1625 2713 2034 2713  Q 2441 2713 2670 2916  Q 2900 3119 2900 3481  Q 2900 3844 2670 4047  Q 2441 4250 2034 4250  Q 1625 4250 1398 4047  Q 1172 3844 1172 3481  z "
                   id="DejaVuSans-38"
                   transform="scale(0.015625)" />
              </defs>
              <use
                 xlink:href="#DejaVuSans-30"
                 id="use319" />
              <use
                 x="63.623047"
                 xlink:href="#DejaVuSans-2e"
                 id="use321" />
              <use
                 x="95.410156"
                 xlink:href="#DejaVuSans-38"
                 id="use323" />
            </g>
          </g>
        </g>
        <g
           id="g2850"
           ns1:jacobian_sqrt="2.0"
           ns1:alignment="middle center"
           ns1:scale="2.0"
           ns1:preamble="/home/edwin/.config/inkscape/extensions/textext/default_packages.tex"
           ns1:text="Pontua\xc3\xa7\xc3\xa3o $recall$"
           ns1:pdfconverter="pdf2svg"
           ns1:texconverter="pdflatex"
           ns1:version="0.11.0"
           transform="matrix(0,-2,2,0,-215.0631,546.76744)"
           style="stroke-linecap:butt;stroke-linejoin:round">
          <g
             id="surface1"
             style="stroke-linecap:butt;stroke-linejoin:round">
            <g
               id="g2801"
               style="fill:#000000;fill-opacity:1;stroke-linecap:butt;stroke-linejoin:round">
              <path
                 id="path2799"
                 transform="translate(148.712,134.765)"
                 d="m 2.265625,-3.15625 h 1.6875 c 1.1875,0 2.265625,-0.796875 2.265625,-1.796875 C 6.21875,-5.9375 5.234375,-6.8125 3.875,-6.8125 H 0.34375 V -6.5 h 0.25 c 0.765625,0 0.78125,0.109375 0.78125,0.46875 v 5.25 c 0,0.359375 -0.015625,0.46875 -0.78125,0.46875 h -0.25 V 0 c 0.359375,-0.03125 1.09375,-0.03125 1.46875,-0.03125 0.375,0 1.125,0 1.484375,0.03125 v -0.3125 h -0.25 c -0.765625,0 -0.78125,-0.109375 -0.78125,-0.46875 z m -0.03125,-0.25 v -2.6875 C 2.234375,-6.4375 2.25,-6.5 2.71875,-6.5 h 0.890625 c 1.578125,0 1.578125,1.0625 1.578125,1.546875 0,0.46875 0,1.546875 -1.578125,1.546875 z m 0,0"
                 style="stroke:none;stroke-width:0;stroke-linecap:butt;stroke-linejoin:round"
                 inkscape:connector-curvature="0" />
            </g>
            <g
               id="g2807"
               style="fill:#000000;fill-opacity:1;stroke-linecap:butt;stroke-linejoin:round">
              <path
                 id="path2803"
                 transform="translate(155.21359,134.765)"
                 d="M 4.6875,-2.140625 C 4.6875,-3.40625 3.703125,-4.46875 2.5,-4.46875 c -1.25,0 -2.21875,1.09375 -2.21875,2.328125 0,1.296875 1.03125,2.25 2.203125,2.25 1.203125,0 2.203125,-0.984375 2.203125,-2.25 z m -2.1875,2 c -0.4375,0 -0.875,-0.203125 -1.140625,-0.671875 -0.25,-0.4375 -0.25,-1.046875 -0.25,-1.40625 0,-0.390625 0,-0.921875 0.234375,-1.359375 C 1.609375,-4.03125 2.078125,-4.25 2.484375,-4.25 c 0.4375,0 0.859375,0.21875 1.125,0.65625 0.265625,0.421875 0.265625,1 0.265625,1.375 0,0.359375 0,0.90625 -0.21875,1.34375 C 3.421875,-0.421875 2.984375,-0.140625 2.5,-0.140625 Z m 0,0"
                 style="stroke:none;stroke-width:0;stroke-linecap:butt;stroke-linejoin:round"
                 inkscape:connector-curvature="0" />
              <path
                 id="path2805"
                 transform="translate(160.19489,134.765)"
                 d="M 1.09375,-3.421875 V -0.75 c 0,0.4375 -0.109375,0.4375 -0.78125,0.4375 V 0 c 0.359375,-0.015625 0.859375,-0.03125 1.140625,-0.03125 0.25,0 0.765625,0.015625 1.109375,0.03125 v -0.3125 c -0.671875,0 -0.78125,0 -0.78125,-0.4375 V -2.59375 C 1.78125,-3.625 2.5,-4.1875 3.125,-4.1875 c 0.640625,0 0.75,0.53125 0.75,1.109375 V -0.75 c 0,0.4375 -0.109375,0.4375 -0.78125,0.4375 V 0 c 0.34375,-0.015625 0.859375,-0.03125 1.125,-0.03125 0.25,0 0.78125,0.015625 1.109375,0.03125 v -0.3125 c -0.515625,0 -0.765625,0 -0.765625,-0.296875 v -1.90625 c 0,-0.859375 0,-1.15625 -0.3125,-1.515625 -0.140625,-0.171875 -0.46875,-0.375 -1.046875,-0.375 C 2.46875,-4.40625 2,-3.984375 1.71875,-3.359375 V -4.40625 L 0.3125,-4.296875 v 0.3125 c 0.703125,0 0.78125,0.0625 0.78125,0.5625 z m 0,0"
                 style="stroke:none;stroke-width:0;stroke-linecap:butt;stroke-linejoin:round"
                 inkscape:connector-curvature="0" />
            </g>
            <g
               id="g2817"
               style="fill:#000000;fill-opacity:1;stroke-linecap:butt;stroke-linejoin:round">
              <path
                 id="path2809"
                 transform="translate(165.45116,134.765)"
                 d="m 1.71875,-3.984375 h 1.4375 v -0.3125 H 1.71875 V -6.125 h -0.25 c 0,0.8125 -0.296875,1.875 -1.28125,1.921875 v 0.21875 h 0.84375 v 2.75 c 0,1.21875 0.9375,1.34375 1.296875,1.34375 0.703125,0 0.984375,-0.703125 0.984375,-1.34375 v -0.5625 h -0.25 V -1.25 c 0,0.734375 -0.296875,1.109375 -0.671875,1.109375 -0.671875,0 -0.671875,-0.90625 -0.671875,-1.078125 z m 0,0"
                 style="stroke:none;stroke-width:0;stroke-linecap:butt;stroke-linejoin:round"
                 inkscape:connector-curvature="0" />
              <path
                 id="path2811"
                 transform="translate(169.32562,134.765)"
                 d="M 3.890625,-0.78125 V 0.109375 L 5.328125,0 V -0.3125 C 4.640625,-0.3125 4.5625,-0.375 4.5625,-0.875 v -3.53125 l -1.46875,0.109375 v 0.3125 c 0.6875,0 0.78125,0.0625 0.78125,0.5625 v 1.765625 c 0,0.875 -0.484375,1.546875 -1.21875,1.546875 -0.828125,0 -0.875,-0.46875 -0.875,-0.984375 v -3.3125 L 0.3125,-4.296875 v 0.3125 c 0.78125,0 0.78125,0.03125 0.78125,0.90625 v 1.5 c 0,0.78125 0,1.6875 1.515625,1.6875 0.5625,0 1,-0.28125 1.28125,-0.890625 z m 0,0"
                 style="stroke:none;stroke-width:0;stroke-linecap:butt;stroke-linejoin:round"
                 inkscape:connector-curvature="0" />
              <path
                 id="path2813"
                 transform="translate(174.86084,134.765)"
                 d="m 3.3125,-0.75 c 0.046875,0.390625 0.3125,0.8125 0.78125,0.8125 0.21875,0 0.828125,-0.140625 0.828125,-0.953125 v -0.5625 h -0.25 v 0.5625 c 0,0.578125 -0.25,0.640625 -0.359375,0.640625 -0.328125,0 -0.375,-0.453125 -0.375,-0.5 v -1.984375 c 0,-0.421875 0,-0.8125 -0.359375,-1.1875 C 3.1875,-4.3125 2.6875,-4.46875 2.21875,-4.46875 c -0.828125,0 -1.515625,0.46875 -1.515625,1.125 0,0.296875 0.203125,0.46875 0.46875,0.46875 0.28125,0 0.453125,-0.203125 0.453125,-0.453125 0,-0.125 -0.046875,-0.453125 -0.515625,-0.453125 C 1.390625,-4.140625 1.875,-4.25 2.1875,-4.25 c 0.5,0 1.0625,0.390625 1.0625,1.28125 v 0.359375 c -0.515625,0.03125 -1.203125,0.0625 -1.828125,0.359375 -0.75,0.34375 -1,0.859375 -1,1.296875 0,0.8125 0.96875,1.0625 1.59375,1.0625 0.65625,0 1.109375,-0.40625 1.296875,-0.859375 z M 3.25,-2.390625 v 1 c 0,0.9375 -0.71875,1.28125 -1.171875,1.28125 -0.484375,0 -0.890625,-0.34375 -0.890625,-0.84375 0,-0.546875 0.421875,-1.375 2.0625,-1.4375 z m 0,0"
                 style="stroke:none;stroke-width:0;stroke-linecap:butt;stroke-linejoin:round"
                 inkscape:connector-curvature="0" />
              <path
                 id="path2815"
                 transform="translate(179.84214,134.765)"
                 d="m 2.828125,0.21875 h -0.6875 V 0.703125 C 2.6875,0.71875 2.96875,0.953125 2.96875,1.25 c 0,0.390625 -0.421875,0.546875 -1.359375,0.546875 H 1.3125 V 2.03125 H 1.75 c 0.03125,0 0.703125,0 1.171875,-0.125 C 3.328125,1.828125 3.65625,1.640625 3.65625,1.25 3.65625,0.828125 3.296875,0.625 2.828125,0.546875 Z m 0,0"
                 style="stroke:none;stroke-width:0;stroke-linecap:butt;stroke-linejoin:round"
                 inkscape:connector-curvature="0" />
            </g>
            <g
               id="g2823"
               style="fill:#000000;fill-opacity:1;stroke-linecap:butt;stroke-linejoin:round">
              <path
                 id="path2819"
                 transform="translate(179.84612,134.765)"
                 d="m 1.171875,-2.171875 c 0,-1.625 0.8125,-2.046875 1.34375,-2.046875 0.09375,0 0.71875,0.015625 1.0625,0.375 -0.40625,0.03125 -0.46875,0.328125 -0.46875,0.453125 0,0.265625 0.1875,0.453125 0.453125,0.453125 0.265625,0 0.46875,-0.15625 0.46875,-0.46875 0,-0.671875 -0.765625,-1.0625 -1.53125,-1.0625 -1.25,0 -2.15625,1.078125 -2.15625,2.3125 0,1.28125 0.984375,2.265625 2.140625,2.265625 1.328125,0 1.65625,-1.203125 1.65625,-1.296875 0,-0.09375 -0.109375,-0.09375 -0.140625,-0.09375 -0.078125,0 -0.109375,0.03125 -0.125,0.09375 -0.28125,0.921875 -0.9375,1.046875 -1.296875,1.046875 -0.53125,0 -1.40625,-0.421875 -1.40625,-2.03125 z m 0,0"
                 style="stroke:none;stroke-width:0;stroke-linecap:butt;stroke-linejoin:round"
                 inkscape:connector-curvature="0" />
              <path
                 id="path2821"
                 transform="translate(184.2735,134.765)"
                 d="M 4.140625,-6.515625 3.984375,-6.65625 c 0,0 -0.375,0.46875 -0.8125,0.46875 -0.234375,0 -0.484375,-0.140625 -0.65625,-0.25 C 2.25,-6.59375 2.078125,-6.65625 1.90625,-6.65625 c -0.375,0 -0.578125,0.21875 -1.078125,0.78125 l 0.15625,0.140625 c 0,0 0.375,-0.46875 0.8125,-0.46875 0.234375,0 0.484375,0.140625 0.65625,0.234375 0.265625,0.171875 0.453125,0.234375 0.625,0.234375 0.375,0 0.5625,-0.21875 1.0625,-0.78125 z m 0,0"
                 style="stroke:none;stroke-width:0;stroke-linecap:butt;stroke-linejoin:round"
                 inkscape:connector-curvature="0" />
            </g>
            <g
               id="g2829"
               style="fill:#000000;fill-opacity:1;stroke-linecap:butt;stroke-linejoin:round">
              <path
                 id="path2825"
                 transform="translate(184.2735,134.765)"
                 d="m 3.3125,-0.75 c 0.046875,0.390625 0.3125,0.8125 0.78125,0.8125 0.21875,0 0.828125,-0.140625 0.828125,-0.953125 v -0.5625 h -0.25 v 0.5625 c 0,0.578125 -0.25,0.640625 -0.359375,0.640625 -0.328125,0 -0.375,-0.453125 -0.375,-0.5 v -1.984375 c 0,-0.421875 0,-0.8125 -0.359375,-1.1875 C 3.1875,-4.3125 2.6875,-4.46875 2.21875,-4.46875 c -0.828125,0 -1.515625,0.46875 -1.515625,1.125 0,0.296875 0.203125,0.46875 0.46875,0.46875 0.28125,0 0.453125,-0.203125 0.453125,-0.453125 0,-0.125 -0.046875,-0.453125 -0.515625,-0.453125 C 1.390625,-4.140625 1.875,-4.25 2.1875,-4.25 c 0.5,0 1.0625,0.390625 1.0625,1.28125 v 0.359375 c -0.515625,0.03125 -1.203125,0.0625 -1.828125,0.359375 -0.75,0.34375 -1,0.859375 -1,1.296875 0,0.8125 0.96875,1.0625 1.59375,1.0625 0.65625,0 1.109375,-0.40625 1.296875,-0.859375 z M 3.25,-2.390625 v 1 c 0,0.9375 -0.71875,1.28125 -1.171875,1.28125 -0.484375,0 -0.890625,-0.34375 -0.890625,-0.84375 0,-0.546875 0.421875,-1.375 2.0625,-1.4375 z m 0,0"
                 style="stroke:none;stroke-width:0;stroke-linecap:butt;stroke-linejoin:round"
                 inkscape:connector-curvature="0" />
              <path
                 id="path2827"
                 transform="translate(189.2548,134.765)"
                 d="M 4.6875,-2.140625 C 4.6875,-3.40625 3.703125,-4.46875 2.5,-4.46875 c -1.25,0 -2.21875,1.09375 -2.21875,2.328125 0,1.296875 1.03125,2.25 2.203125,2.25 1.203125,0 2.203125,-0.984375 2.203125,-2.25 z m -2.1875,2 c -0.4375,0 -0.875,-0.203125 -1.140625,-0.671875 -0.25,-0.4375 -0.25,-1.046875 -0.25,-1.40625 0,-0.390625 0,-0.921875 0.234375,-1.359375 C 1.609375,-4.03125 2.078125,-4.25 2.484375,-4.25 c 0.4375,0 0.859375,0.21875 1.125,0.65625 0.265625,0.421875 0.265625,1 0.265625,1.375 0,0.359375 0,0.90625 -0.21875,1.34375 C 3.421875,-0.421875 2.984375,-0.140625 2.5,-0.140625 Z m 0,0"
                 style="stroke:none;stroke-width:0;stroke-linecap:butt;stroke-linejoin:round"
                 inkscape:connector-curvature="0" />
            </g>
            <g
               id="g2833"
               style="fill:#000000;fill-opacity:1;stroke-linecap:butt;stroke-linejoin:round">
              <path
                 id="path2831"
                 transform="translate(197.557,134.765)"
                 d="m 0.875,-0.59375 c -0.03125,0.15625 -0.09375,0.390625 -0.09375,0.4375 0,0.171875 0.140625,0.265625 0.296875,0.265625 0.125,0 0.296875,-0.078125 0.375,-0.28125 C 1.46875,-0.203125 1.796875,-1.5625 1.84375,-1.75 c 0.078125,-0.328125 0.265625,-1.015625 0.3125,-1.296875 0.046875,-0.125 0.328125,-0.59375 0.5625,-0.8125 0.078125,-0.0625 0.375,-0.328125 0.796875,-0.328125 0.265625,0 0.40625,0.125 0.421875,0.125 -0.296875,0.046875 -0.515625,0.28125 -0.515625,0.546875 0,0.15625 0.109375,0.34375 0.375,0.34375 0.265625,0 0.546875,-0.234375 0.546875,-0.59375 0,-0.34375 -0.3125,-0.640625 -0.828125,-0.640625 C 2.875,-4.40625 2.4375,-3.921875 2.25,-3.640625 2.15625,-4.09375 1.796875,-4.40625 1.328125,-4.40625 0.875,-4.40625 0.6875,-4.015625 0.59375,-3.84375 0.421875,-3.5 0.296875,-2.90625 0.296875,-2.875 c 0,0.109375 0.09375,0.109375 0.109375,0.109375 0.109375,0 0.109375,-0.015625 0.171875,-0.234375 0.171875,-0.703125 0.375,-1.1875 0.734375,-1.1875 0.15625,0 0.296875,0.078125 0.296875,0.453125 0,0.21875 -0.03125,0.328125 -0.15625,0.84375 z m 0,0"
                 style="stroke:none;stroke-width:0;stroke-linecap:butt;stroke-linejoin:round"
                 inkscape:connector-curvature="0" />
            </g>
            <g
               id="g2843"
               style="fill:#000000;fill-opacity:1;stroke-linecap:butt;stroke-linejoin:round">
              <path
                 id="path2835"
                 transform="translate(202.33108,134.765)"
                 d="m 1.859375,-2.296875 c 0.296875,0 1.03125,-0.03125 1.53125,-0.234375 0.703125,-0.296875 0.75,-0.890625 0.75,-1.03125 0,-0.4375 -0.375,-0.84375 -1.0625,-0.84375 -1.109375,0 -2.625,0.96875 -2.625,2.71875 0,1.015625 0.59375,1.796875 1.578125,1.796875 1.421875,0 2.25,-1.0625 2.25,-1.171875 0,-0.0625 -0.046875,-0.140625 -0.109375,-0.140625 -0.0625,0 -0.078125,0.03125 -0.140625,0.109375 -0.78125,0.984375 -1.875,0.984375 -1.984375,0.984375 -0.78125,0 -0.875,-0.84375 -0.875,-1.15625 0,-0.125 0.015625,-0.421875 0.15625,-1.03125 z m -0.46875,-0.21875 C 1.78125,-4.03125 2.8125,-4.1875 3.078125,-4.1875 c 0.453125,0 0.734375,0.296875 0.734375,0.625 0,1.046875 -1.59375,1.046875 -2.015625,1.046875 z m 0,0"
                 style="stroke:none;stroke-width:0;stroke-linecap:butt;stroke-linejoin:round"
                 inkscape:connector-curvature="0" />
              <path
                 id="path2837"
                 transform="translate(206.96966,134.765)"
                 d="m 3.953125,-3.78125 c -0.171875,0 -0.296875,0 -0.4375,0.125 -0.171875,0.15625 -0.1875,0.328125 -0.1875,0.390625 0,0.25 0.1875,0.359375 0.375,0.359375 0.28125,0 0.546875,-0.25 0.546875,-0.640625 0,-0.484375 -0.46875,-0.859375 -1.171875,-0.859375 -1.34375,0 -2.671875,1.421875 -2.671875,2.828125 0,0.90625 0.578125,1.6875 1.625,1.6875 1.421875,0 2.25,-1.0625 2.25,-1.171875 0,-0.0625 -0.046875,-0.140625 -0.109375,-0.140625 -0.0625,0 -0.078125,0.03125 -0.140625,0.109375 -0.78125,0.984375 -1.875,0.984375 -1.984375,0.984375 -0.625,0 -0.90625,-0.484375 -0.90625,-1.09375 0,-0.40625 0.203125,-1.375 0.546875,-1.984375 0.3125,-0.578125 0.859375,-1 1.40625,-1 0.328125,0 0.71875,0.125 0.859375,0.40625 z m 0,0"
                 style="stroke:none;stroke-width:0;stroke-linecap:butt;stroke-linejoin:round"
                 inkscape:connector-curvature="0" />
              <path
                 id="path2839"
                 transform="translate(211.28148,134.765)"
                 d="M 3.71875,-3.765625 C 3.53125,-4.140625 3.25,-4.40625 2.796875,-4.40625 c -1.15625,0 -2.390625,1.46875 -2.390625,2.921875 0,0.9375 0.546875,1.59375 1.3125,1.59375 0.203125,0 0.703125,-0.046875 1.296875,-0.75 0.078125,0.421875 0.4375,0.75 0.90625,0.75 0.359375,0 0.578125,-0.234375 0.75,-0.546875 0.15625,-0.359375 0.296875,-0.96875 0.296875,-0.984375 0,-0.109375 -0.09375,-0.109375 -0.125,-0.109375 -0.09375,0 -0.109375,0.046875 -0.140625,0.1875 -0.171875,0.640625 -0.34375,1.234375 -0.75,1.234375 -0.28125,0 -0.296875,-0.265625 -0.296875,-0.453125 0,-0.21875 0.015625,-0.3125 0.125,-0.75 C 3.890625,-1.71875 3.90625,-1.828125 4,-2.203125 L 4.359375,-3.59375 c 0.0625,-0.28125 0.0625,-0.296875 0.0625,-0.34375 0,-0.171875 -0.109375,-0.265625 -0.28125,-0.265625 -0.25,0 -0.390625,0.21875 -0.421875,0.4375 z M 3.078125,-1.1875 C 3.015625,-1 3.015625,-0.984375 2.875,-0.8125 2.4375,-0.265625 2.03125,-0.109375 1.75,-0.109375 c -0.5,0 -0.640625,-0.546875 -0.640625,-0.9375 0,-0.5 0.3125,-1.71875 0.546875,-2.1875 0.3125,-0.578125 0.75,-0.953125 1.15625,-0.953125 0.640625,0 0.78125,0.8125 0.78125,0.875 0,0.0625 -0.015625,0.125 -0.03125,0.171875 z m 0,0"
                 style="stroke:none;stroke-width:0;stroke-linecap:butt;stroke-linejoin:round"
                 inkscape:connector-curvature="0" />
              <path
                 id="path2841"
                 transform="translate(216.54771,134.765)"
                 d="m 2.578125,-6.8125 c 0,0 0,-0.109375 -0.140625,-0.109375 -0.21875,0 -0.953125,0.078125 -1.21875,0.109375 -0.078125,0 -0.1875,0.015625 -0.1875,0.203125 0,0.109375 0.109375,0.109375 0.25,0.109375 0.484375,0 0.5,0.09375 0.5,0.171875 L 1.75,-6.125 0.484375,-1.140625 C 0.453125,-1.03125 0.4375,-0.96875 0.4375,-0.8125 c 0,0.578125 0.4375,0.921875 0.90625,0.921875 0.328125,0 0.578125,-0.203125 0.75,-0.5625 0.171875,-0.375 0.296875,-0.953125 0.296875,-0.96875 0,-0.109375 -0.09375,-0.109375 -0.125,-0.109375 -0.09375,0 -0.109375,0.046875 -0.125,0.1875 C 1.96875,-0.703125 1.78125,-0.109375 1.375,-0.109375 c -0.296875,0 -0.296875,-0.3125 -0.296875,-0.453125 0,-0.25 0.015625,-0.296875 0.0625,-0.484375 z m 0,0"
                 style="stroke:none;stroke-width:0;stroke-linecap:butt;stroke-linejoin:round"
                 inkscape:connector-curvature="0" />
            </g>
            <g
               id="g2847"
               style="fill:#000000;fill-opacity:1;stroke-linecap:butt;stroke-linejoin:round">
              <path
                 id="path2845"
                 transform="translate(219.70984,134.765)"
                 d="m 2.578125,-6.8125 c 0,0 0,-0.109375 -0.140625,-0.109375 -0.21875,0 -0.953125,0.078125 -1.21875,0.109375 -0.078125,0 -0.1875,0.015625 -0.1875,0.203125 0,0.109375 0.109375,0.109375 0.25,0.109375 0.484375,0 0.5,0.09375 0.5,0.171875 L 1.75,-6.125 0.484375,-1.140625 C 0.453125,-1.03125 0.4375,-0.96875 0.4375,-0.8125 c 0,0.578125 0.4375,0.921875 0.90625,0.921875 0.328125,0 0.578125,-0.203125 0.75,-0.5625 0.171875,-0.375 0.296875,-0.953125 0.296875,-0.96875 0,-0.109375 -0.09375,-0.109375 -0.125,-0.109375 -0.09375,0 -0.109375,0.046875 -0.125,0.1875 C 1.96875,-0.703125 1.78125,-0.109375 1.375,-0.109375 c -0.296875,0 -0.296875,-0.3125 -0.296875,-0.453125 0,-0.25 0.015625,-0.296875 0.0625,-0.484375 z m 0,0"
                 style="stroke:none;stroke-width:0;stroke-linecap:butt;stroke-linejoin:round"
                 inkscape:connector-curvature="0" />
            </g>
          </g>
        </g>
      </g>
      <g
         id="line2d_27">
        <path
           clip-path="url(#p609a828abe)"
           d="M 115.363636 142.293245  L 132.855799 85.242386  L 150.347962 82.761914  L 167.840125 88.963094  L 185.332288 82.761914  L 202.824451 83.588738  L 220.316614 88.963094  L 237.808777 84.415562  L 255.30094 83.175326  L 272.793103 85.655798  L 290.285266 88.13627  L 307.777429 88.549682  L 325.269592 94.337451  L 342.761755 110.047107  L 360.253918 104.259339  L 377.746082 109.633695  L 395.238245 102.192279  L 412.730408 103.845927  L 430.222571 110.873931  L 447.714734 108.393459  L 465.206897 110.460519  L 482.69906 116.248288  L 500.191223 121.209232  L 517.683386 129.06406  L 535.175549 141.466421  L 552.667712 144.773717  L 570.159875 148.907837  L 587.652038 158.416314  L 605.144201 163.79067  L 622.636364 171.232086  "
           style="fill:none;stroke:#1f77b4;stroke-linecap:square;stroke-width:1.5;"
           id="path363" />
      </g>
      <g
         id="line2d_28">
        <path
           clip-path="url(#p609a828abe)"
           d="M 115.363636 183.634447  L 132.855799 162.550434  L 150.347962 161.310198  L 167.840125 161.310198  L 185.332288 160.069962  L 202.824451 160.069962  L 220.316614 160.069962  L 237.808777 160.069962  L 255.30094 160.069962  L 272.793103 160.069962  L 290.285266 160.069962  L 307.777429 160.069962  L 325.269592 163.79067  L 342.761755 172.472322  L 360.253918 172.472322  L 377.746082 173.712558  L 395.238245 171.232086  L 412.730408 171.232086  L 430.222571 172.472322  L 447.714734 176.19303  L 465.206897 178.673503  L 482.69906 178.673503  L 500.191223 182.394211  L 517.683386 186.114919  L 535.175549 192.316099  L 552.667712 193.556335  L 570.159875 200.997752  L 587.652038 209.679404  L 605.144201 210.91964  L 622.636364 217.12082  "
           style="fill:none;stroke:#ff7f0e;stroke-linecap:square;stroke-width:1.5;"
           id="path366" />
      </g>
      <g
         id="patch_3">
        <path
           d="M 90 315  L 90 43.2  "
           style="fill:none;stroke:#000000;stroke-linecap:square;stroke-linejoin:miter;stroke-width:0.8;"
           id="path369" />
      </g>
      <g
         id="patch_4">
        <path
           d="M 648 315  L 648 43.2  "
           style="fill:none;stroke:#000000;stroke-linecap:square;stroke-linejoin:miter;stroke-width:0.8;"
           id="path372" />
      </g>
      <g
         id="patch_5">
        <path
           d="M 90 315  L 648 315  "
           style="fill:none;stroke:#000000;stroke-linecap:square;stroke-linejoin:miter;stroke-width:0.8;"
           id="path375" />
      </g>
      <g
         id="patch_6">
        <path
           d="M 90 43.2  L 648 43.2  "
           style="fill:none;stroke:#000000;stroke-linecap:square;stroke-linejoin:miter;stroke-width:0.8;"
           id="path378" />
      </g>
      <g
         id="text_16">
        <!-- best nu: 0.01820689655172414 -->
        <g
           transform="translate(449.818 311.378761)scale(0.1 -0.1)"
           id="g443">
          <defs
             id="defs385">
            <path
               d="M 3116 1747  Q 3116 2381 2855 2742  Q 2594 3103 2138 3103  Q 1681 3103 1420 2742  Q 1159 2381 1159 1747  Q 1159 1113 1420 752  Q 1681 391 2138 391  Q 2594 391 2855 752  Q 3116 1113 3116 1747  z M 1159 2969  Q 1341 3281 1617 3432  Q 1894 3584 2278 3584  Q 2916 3584 3314 3078  Q 3713 2572 3713 1747  Q 3713 922 3314 415  Q 2916 -91 2278 -91  Q 1894 -91 1617 61  Q 1341 213 1159 525  L 1159 0  L 581 0  L 581 4863  L 1159 4863  L 1159 2969  z "
               id="DejaVuSans-62"
               transform="scale(0.015625)" />
            <path
               d="M 1172 4494  L 1172 3500  L 2356 3500  L 2356 3053  L 1172 3053  L 1172 1153  Q 1172 725 1289 603  Q 1406 481 1766 481  L 2356 481  L 2356 0  L 1766 0  Q 1100 0 847 248  Q 594 497 594 1153  L 594 3053  L 172 3053  L 172 3500  L 594 3500  L 594 4494  L 1172 4494  z "
               id="DejaVuSans-74"
               transform="scale(0.015625)" />
            <path
               d="M 750 794  L 1409 794  L 1409 0  L 750 0  L 750 794  z M 750 3309  L 1409 3309  L 1409 2516  L 750 2516  L 750 3309  z "
               id="DejaVuSans-3a"
               transform="scale(0.015625)" />
            <path
               d="M 703 97  L 703 672  Q 941 559 1184 500  Q 1428 441 1663 441  Q 2288 441 2617 861  Q 2947 1281 2994 2138  Q 2813 1869 2534 1725  Q 2256 1581 1919 1581  Q 1219 1581 811 2004  Q 403 2428 403 3163  Q 403 3881 828 4315  Q 1253 4750 1959 4750  Q 2769 4750 3195 4129  Q 3622 3509 3622 2328  Q 3622 1225 3098 567  Q 2575 -91 1691 -91  Q 1453 -91 1209 -44  Q 966 3 703 97  z M 1959 2075  Q 2384 2075 2632 2365  Q 2881 2656 2881 3163  Q 2881 3666 2632 3958  Q 2384 4250 1959 4250  Q 1534 4250 1286 3958  Q 1038 3666 1038 3163  Q 1038 2656 1286 2365  Q 1534 2075 1959 2075  z "
               id="DejaVuSans-39"
               transform="scale(0.015625)" />
          </defs>
          <path
             id="use395"
             d=""
             inkscape:connector-curvature="0"
             style="stroke-width:0.015625;stroke-linecap:butt;stroke-linejoin:round" />
          <use
             x="374.853516"
             xlink:href="#DejaVuSans-3a"
             id="use401" />
          <path
             id="use403"
             d=""
             inkscape:connector-curvature="0"
             style="stroke-width:0.015625;stroke-linecap:butt;stroke-linejoin:round" />
          <use
             x="440.332031"
             xlink:href="#DejaVuSans-30"
             id="use405" />
          <use
             x="503.955078"
             xlink:href="#DejaVuSans-2e"
             id="use407" />
          <use
             x="535.742188"
             xlink:href="#DejaVuSans-30"
             id="use409" />
          <use
             x="599.365234"
             xlink:href="#DejaVuSans-31"
             id="use411" />
          <use
             x="662.988281"
             xlink:href="#DejaVuSans-38"
             id="use413" />
          <use
             x="726.611328"
             xlink:href="#DejaVuSans-32"
             id="use415" />
          <use
             x="790.234375"
             xlink:href="#DejaVuSans-30"
             id="use417" />
          <use
             x="853.857422"
             xlink:href="#DejaVuSans-36"
             id="use419" />
          <use
             x="917.480469"
             xlink:href="#DejaVuSans-38"
             id="use421" />
          <use
             x="981.103516"
             xlink:href="#DejaVuSans-39"
             id="use423" />
          <use
             x="1044.726562"
             xlink:href="#DejaVuSans-36"
             id="use425" />
          <use
             x="1108.349609"
             xlink:href="#DejaVuSans-35"
             id="use427" />
          <use
             x="1171.972656"
             xlink:href="#DejaVuSans-35"
             id="use429" />
          <use
             x="1235.595703"
             xlink:href="#DejaVuSans-31"
             id="use431" />
          <use
             x="1299.21875"
             xlink:href="#DejaVuSans-37"
             id="use433" />
          <use
             x="1362.841797"
             xlink:href="#DejaVuSans-32"
             id="use435" />
          <use
             x="1426.464844"
             xlink:href="#DejaVuSans-34"
             id="use437" />
          <use
             x="1490.087891"
             xlink:href="#DejaVuSans-31"
             id="use439" />
          <use
             x="1553.710938"
             xlink:href="#DejaVuSans-34"
             id="use441" />
        </g>
        <text
           xml:space="preserve"
           style="font-style:normal;font-weight:normal;font-size:12px;line-height:1.25;font-family:sans-serif;letter-spacing:0px;word-spacing:0px;fill:#000000;fill-opacity:1;stroke:none;stroke-width:0.75;stroke-linecap:butt;stroke-linejoin:round"
           x="472.5"
           y="327.96613"
           id="text3025"><tspan
             sodipodi:role="line"
             id="tspan3023"
             style="stroke-width:0.75;stroke-linecap:butt;stroke-linejoin:round"
             x="472.5"
             y="338.58331" /></text>
        <g
           id="g3307"
           ns1:jacobian_sqrt="1.0"
           inkscapeversion="0.92.5"
           ns1:alignment="middle center"
           ns1:scale="1.0"
           ns1:preamble="/home/edwin/.config/inkscape/extensions/textext/default_packages.tex"
           ns1:text="Melhor $\\nu$"
           ns1:pdfconverter="pdf2svg"
           ns1:texconverter="pdflatex"
           ns1:version="0.11.0"
           transform="translate(299,176.58616)"
           style="stroke-linecap:butt;stroke-linejoin:round">
          <g
             id="g3305"
             style="stroke-linecap:butt;stroke-linejoin:round">
            <g
               id="g3299"
               style="fill:#000000;fill-opacity:1;stroke-linecap:butt;stroke-linejoin:round">
              <path
                 id="path3287"
                 transform="translate(148.712,134.765)"
                 d="M 2.40625,-6.59375 C 2.3125,-6.8125 2.28125,-6.8125 2.046875,-6.8125 H 0.375 V -6.5 h 0.234375 c 0.765625,0 0.78125,0.109375 0.78125,0.46875 v 4.984375 c 0,0.265625 0,0.734375 -1.015625,0.734375 V 0 c 0.34375,-0.015625 0.828125,-0.03125 1.15625,-0.03125 0.328125,0 0.828125,0.015625 1.171875,0.03125 v -0.3125 c -1.03125,0 -1.03125,-0.46875 -1.03125,-0.734375 v -5.375 H 1.6875 L 4.09375,-0.21875 C 4.140625,-0.09375 4.1875,0 4.28125,0 4.390625,0 4.421875,-0.078125 4.46875,-0.1875 L 6.921875,-6.5 v 5.71875 c 0,0.359375 -0.015625,0.46875 -0.78125,0.46875 H 5.90625 V 0 c 0.359375,-0.03125 1.046875,-0.03125 1.4375,-0.03125 0.375,0 1.046875,0 1.421875,0.03125 v -0.3125 h -0.25 c -0.765625,0 -0.78125,-0.109375 -0.78125,-0.46875 v -5.25 C 7.734375,-6.390625 7.75,-6.5 8.515625,-6.5 h 0.25 v -0.3125 h -1.6875 C 6.8125,-6.8125 6.8125,-6.796875 6.75,-6.625 L 4.5625,-1 Z m 0,0"
                 style="stroke:none;stroke-width:0;stroke-linecap:butt;stroke-linejoin:round"
                 inkscape:connector-curvature="0" />
              <path
                 id="path3289"
                 transform="translate(157.84471,134.765)"
                 d="M 1.109375,-2.515625 C 1.171875,-4 2.015625,-4.25 2.359375,-4.25 c 1.015625,0 1.125,1.34375 1.125,1.734375 z m 0,0.21875 h 2.78125 c 0.21875,0 0.25,0 0.25,-0.21875 0,-0.984375 -0.546875,-1.953125 -1.78125,-1.953125 -1.15625,0 -2.078125,1.03125 -2.078125,2.28125 0,1.328125 1.046875,2.296875 2.1875,2.296875 C 3.6875,0.109375 4.140625,-1 4.140625,-1.1875 4.140625,-1.28125 4.0625,-1.3125 4,-1.3125 c -0.078125,0 -0.109375,0.0625 -0.125,0.140625 -0.34375,1.03125 -1.25,1.03125 -1.34375,1.03125 -0.5,0 -0.890625,-0.296875 -1.125,-0.671875 -0.296875,-0.46875 -0.296875,-1.125 -0.296875,-1.484375 z m 0,0"
                 style="stroke:none;stroke-width:0;stroke-linecap:butt;stroke-linejoin:round"
                 inkscape:connector-curvature="0" />
              <path
                 id="path3291"
                 transform="translate(162.27209,134.765)"
                 d="M 1.765625,-6.921875 0.328125,-6.8125 V -6.5 c 0.703125,0 0.78125,0.0625 0.78125,0.5625 V -0.75 c 0,0.4375 -0.109375,0.4375 -0.78125,0.4375 V 0 C 0.65625,-0.015625 1.1875,-0.03125 1.4375,-0.03125 c 0.25,0 0.734375,0.015625 1.109375,0.03125 v -0.3125 c -0.671875,0 -0.78125,0 -0.78125,-0.4375 z m 0,0"
                 style="stroke:none;stroke-width:0;stroke-linecap:butt;stroke-linejoin:round"
                 inkscape:connector-curvature="0" />
              <path
                 id="path3293"
                 transform="translate(165.0397,134.765)"
                 d="m 1.09375,-0.75 c 0,0.4375 -0.109375,0.4375 -0.78125,0.4375 V 0 c 0.359375,-0.015625 0.859375,-0.03125 1.140625,-0.03125 0.25,0 0.765625,0.015625 1.109375,0.03125 v -0.3125 c -0.671875,0 -0.78125,0 -0.78125,-0.4375 V -2.59375 C 1.78125,-3.625 2.5,-4.1875 3.125,-4.1875 c 0.640625,0 0.75,0.53125 0.75,1.109375 V -0.75 c 0,0.4375 -0.109375,0.4375 -0.78125,0.4375 V 0 c 0.34375,-0.015625 0.859375,-0.03125 1.125,-0.03125 0.25,0 0.78125,0.015625 1.109375,0.03125 v -0.3125 c -0.515625,0 -0.765625,0 -0.765625,-0.296875 v -1.90625 c 0,-0.859375 0,-1.15625 -0.3125,-1.515625 -0.140625,-0.171875 -0.46875,-0.375 -1.046875,-0.375 -0.84375,0 -1.28125,0.59375 -1.453125,0.984375 v -3.5 L 0.3125,-6.8125 V -6.5 c 0.703125,0 0.78125,0.0625 0.78125,0.5625 z m 0,0"
                 style="stroke:none;stroke-width:0;stroke-linecap:butt;stroke-linejoin:round"
                 inkscape:connector-curvature="0" />
              <path
                 id="path3295"
                 transform="translate(170.57493,134.765)"
                 d="M 4.6875,-2.140625 C 4.6875,-3.40625 3.703125,-4.46875 2.5,-4.46875 c -1.25,0 -2.21875,1.09375 -2.21875,2.328125 0,1.296875 1.03125,2.25 2.203125,2.25 1.203125,0 2.203125,-0.984375 2.203125,-2.25 z m -2.1875,2 c -0.4375,0 -0.875,-0.203125 -1.140625,-0.671875 -0.25,-0.4375 -0.25,-1.046875 -0.25,-1.40625 0,-0.390625 0,-0.921875 0.234375,-1.359375 C 1.609375,-4.03125 2.078125,-4.25 2.484375,-4.25 c 0.4375,0 0.859375,0.21875 1.125,0.65625 0.265625,0.421875 0.265625,1 0.265625,1.375 0,0.359375 0,0.90625 -0.21875,1.34375 C 3.421875,-0.421875 2.984375,-0.140625 2.5,-0.140625 Z m 0,0"
                 style="stroke:none;stroke-width:0;stroke-linecap:butt;stroke-linejoin:round"
                 inkscape:connector-curvature="0" />
              <path
                 id="path3297"
                 transform="translate(175.55623,134.765)"
                 d="M 1.671875,-3.3125 V -4.40625 L 0.28125,-4.296875 v 0.3125 c 0.703125,0 0.78125,0.0625 0.78125,0.5625 V -0.75 c 0,0.4375 -0.109375,0.4375 -0.78125,0.4375 V 0 c 0.390625,-0.015625 0.859375,-0.03125 1.140625,-0.03125 0.390625,0 0.859375,0 1.265625,0.03125 V -0.3125 H 2.46875 c -0.734375,0 -0.75,-0.109375 -0.75,-0.46875 V -2.3125 c 0,-0.984375 0.421875,-1.875 1.171875,-1.875 0.0625,0 0.09375,0 0.109375,0.015625 -0.03125,0 -0.234375,0.125 -0.234375,0.390625 0,0.265625 0.21875,0.421875 0.4375,0.421875 0.171875,0 0.421875,-0.125 0.421875,-0.4375 0,-0.3125 -0.3125,-0.609375 -0.734375,-0.609375 -0.734375,0 -1.09375,0.671875 -1.21875,1.09375 z m 0,0"
                 style="stroke:none;stroke-width:0;stroke-linecap:butt;stroke-linejoin:round"
                 inkscape:connector-curvature="0" />
            </g>
            <g
               id="g3303"
               style="fill:#000000;fill-opacity:1;stroke-linecap:butt;stroke-linejoin:round">
              <path
                 id="path3301"
                 transform="translate(182.779,134.765)"
                 d="m 2.234375,-4.296875 c 0,-0.015625 0,-0.109375 -0.125,-0.109375 -0.234375,0 -0.96875,0.078125 -1.21875,0.09375 -0.078125,0.015625 -0.1875,0.03125 -0.1875,0.203125 0,0.125 0.078125,0.125 0.234375,0.125 0.484375,0 0.5,0.0625 0.5,0.171875 0,0.0625 -0.125,0.53125 -0.1875,0.796875 L 0.640625,-0.5625 C 0.59375,-0.421875 0.53125,-0.140625 0.53125,-0.125 0.53125,-0.015625 0.625,0 0.6875,0 h 0.140625 c 0.703125,-0.125 1.78125,-0.515625 2.8125,-1.46875 1.3125,-1.21875 1.578125,-2.578125 1.578125,-2.671875 0,-0.171875 -0.109375,-0.265625 -0.28125,-0.265625 -0.078125,0 -0.3125,0.046875 -0.390625,0.328125 -0.640625,2.265625 -2.15625,3.375 -3.296875,3.75 z m 0,0"
                 style="stroke:none;stroke-width:0;stroke-linecap:butt;stroke-linejoin:round"
                 inkscape:connector-curvature="0" />
            </g>
          </g>
        </g>
      </g>
      <g
         id="legend_1">
        <g
           id="patch_7">
          <path
             d="M 547.882812 95.234375  L 641 95.234375  Q 643 95.234375 643 93.234375  L 643 50.2  Q 643 48.2 641 48.2  L 547.882812 48.2  Q 545.882812 48.2 545.882812 50.2  L 545.882812 93.234375  Q 545.882812 95.234375 547.882812 95.234375  z "
             style="fill:#ffffff;opacity:0.8;stroke:#cccccc;stroke-linejoin:miter;"
             id="path446" />
        </g>
        <g
           id="line2d_29">
          <path
             d="M 549.882812 56.298437  L 569.882812 56.298437  "
             style="fill:none;stroke:#1f77b4;stroke-linecap:square;stroke-width:1.5;"
             id="path449" />
        </g>
        <g
           id="line2d_30" />
        <g
           id="line2d_31">
          <path
             d="M 549.882812 70.976562  L 569.882812 70.976562  "
             style="fill:none;stroke:#ff7f0e;stroke-linecap:square;stroke-width:1.5;"
             id="path482" />
        </g>
        <g
           id="line2d_32" />
        <g
           id="PathCollection_2">
          <defs
             id="defs510">
            <path
               d="M 0 5.22233  C 1.384978 5.22233 2.713417 4.672072 3.692745 3.692745  C 4.672072 2.713417 5.22233 1.384978 5.22233 0  C 5.22233 -1.384978 4.672072 -2.713417 3.692745 -3.692745  C 2.713417 -4.672072 1.384978 -5.22233 0 -5.22233  C -1.384978 -5.22233 -2.713417 -4.672072 -3.692745 -3.692745  C -4.672072 -2.713417 -5.22233 -1.384978 -5.22233 0  C -5.22233 1.384978 -4.672072 2.713417 -3.692745 3.692745  C -2.713417 4.672072 -1.384978 5.22233 0 5.22233  z "
               id="m60d9b1e159"
               style="stroke:#00801d;" />
          </defs>
          <g
             id="g514">
            <use
               style="fill:#0fc238;stroke:#00801d;"
               x="559.882812"
               xlink:href="#m60d9b1e159"
               y="86.529687"
               id="use512" />
          </g>
        </g>
        <g
           id="text_19">
          <!-- Melhores nu -->
          <g
             transform="translate(577.882812 89.154687)scale(0.1 -0.1)"
             id="g543">
            <defs
               id="defs519">
              <path
                 d="M 628 4666  L 1569 4666  L 2759 1491  L 3956 4666  L 4897 4666  L 4897 0  L 4281 0  L 4281 4097  L 3078 897  L 2444 897  L 1241 4097  L 1241 0  L 628 0  L 628 4666  z "
                 id="DejaVuSans-4d"
                 transform="scale(0.015625)" />
              <path
                 d="M 3513 2113  L 3513 0  L 2938 0  L 2938 2094  Q 2938 2591 2744 2837  Q 2550 3084 2163 3084  Q 1697 3084 1428 2787  Q 1159 2491 1159 1978  L 1159 0  L 581 0  L 581 4863  L 1159 4863  L 1159 2956  Q 1366 3272 1645 3428  Q 1925 3584 2291 3584  Q 2894 3584 3203 3211  Q 3513 2838 3513 2113  z "
                 id="DejaVuSans-68"
                 transform="scale(0.015625)" />
            </defs>
            <use
               xlink:href="#DejaVuSans-4d"
               id="use521" />
            <path
               id="use523"
               d="m 142.48242,29.59375 v -4.390625 h -41.3125 q 0.59375,-9.28125 5.59375,-14.140625 5,-4.859375 13.9375,-4.859375 5.17188,0 10.03125,1.265625 4.85938,1.265625 9.65625,3.8125 v -8.5 q -4.84375,-2.046875 -9.92187,-3.125 -5.07813,-1.078125 -10.29688,-1.078125 -13.09375,0 -20.734373,7.609375 -7.640625,7.625 -7.640625,20.625 0,13.421875 7.25,21.296875 Q 106.29492,56 118.60742,56 q 11.03125,0 17.45313,-7.109375 6.42187,-7.09375 6.42187,-19.296875 z m -8.98437,2.640625 q -0.0937,7.359375 -4.125,11.75 -4.03125,4.40625 -10.67188,4.40625 -7.51562,0 -12.03125,-4.25 -4.51562,-4.25 -5.20312,-11.96875 z"
               inkscape:connector-curvature="0"
               style="stroke-width:0.015625;stroke-linecap:butt;stroke-linejoin:round" />
            <path
               id="use525"
               d="m 157.22461,75.984375 h 8.98437 V 0 h -8.98437 z"
               inkscape:connector-curvature="0"
               style="stroke-width:0.015625;stroke-linecap:butt;stroke-linejoin:round" />
            <use
               x="175.585938"
               xlink:href="#DejaVuSans-68"
               id="use527" />
            <path
               id="use529"
               d="m 269.57422,48.390625 q -7.21875,0 -11.42188,-5.640625 -4.20312,-5.640625 -4.20312,-15.453125 0,-9.8125 4.17187,-15.453125 4.1875,-5.640625 11.45313,-5.640625 7.1875,0 11.375,5.65625 4.20312,5.671875 4.20312,15.4375 0,9.71875 -4.20312,15.40625 -4.1875,5.6875 -11.375,5.6875 z m 0,7.609375 q 11.71875,0 18.40625,-7.625 6.70312,-7.609375 6.70312,-21.078125 0,-13.421875 -6.70312,-21.078125 -6.6875,-7.640625 -18.40625,-7.640625 -11.76563,0 -18.4375,7.640625 -6.65625,7.65625 -6.65625,21.078125 0,13.46875 6.65625,21.078125 6.67187,7.625 18.4375,7.625 z"
               inkscape:connector-curvature="0"
               style="stroke-width:0.015625;stroke-linecap:butt;stroke-linejoin:round" />
            <path
               id="use531"
               d="m 341.25586,46.296875 q -1.51563,0.875 -3.29688,1.28125 Q 336.17773,48 334.03711,48 326.41211,48 322.33398,43.046875 318.25586,38.09375 318.25586,28.8125 V 0 h -9.03125 v 54.6875 h 9.03125 v -8.5 q 2.84375,4.984375 7.375,7.390625 Q 330.17773,56 336.67773,56 q 0.92188,0 2.04688,-0.125 1.125,-0.109375 2.48437,-0.359375 z"
               inkscape:connector-curvature="0"
               style="stroke-width:0.015625;stroke-linecap:butt;stroke-linejoin:round" />
            <path
               id="use533"
               d="m 395.21289,29.59375 v -4.390625 h -41.3125 q 0.59375,-9.28125 5.59375,-14.140625 5,-4.859375 13.9375,-4.859375 5.17188,0 10.03125,1.265625 4.85938,1.265625 9.65625,3.8125 v -8.5 q -4.84375,-2.046875 -9.92187,-3.125 -5.07813,-1.078125 -10.29688,-1.078125 -13.09375,0 -20.73437,7.609375 -7.64063,7.625 -7.64063,20.625 0,13.421875 7.25,21.296875 Q 359.02539,56 371.33789,56 q 11.03125,0 17.45313,-7.109375 6.42187,-7.09375 6.42187,-19.296875 z m -8.98437,2.640625 q -0.0937,7.359375 -4.125,11.75 -4.03125,4.40625 -10.67188,4.40625 -7.51562,0 -12.03125,-4.25 -4.51562,-4.25 -5.20312,-11.96875 z"
               inkscape:connector-curvature="0"
               style="stroke-width:0.015625;stroke-linecap:butt;stroke-linejoin:round" />
            <path
               id="use535"
               d="m 444.81445,53.078125 v -8.5 Q 441.01758,46.53125 436.9082,47.5 q -4.09375,0.984375 -8.5,0.984375 -6.6875,0 -10.03125,-2.046875 -3.34375,-2.046875 -3.34375,-6.15625 0,-3.125 2.39063,-4.90625 2.39062,-1.78125 9.625,-3.390625 l 3.07812,-0.6875 q 9.5625,-2.046875 13.59375,-5.78125 4.03125,-3.734375 4.03125,-10.421875 0,-7.625 -6.03125,-12.078125 -6.03125,-4.4375 -16.57812,-4.4375 -4.39063,0 -9.15625,0.859375 Q 411.2207,0.296875 405.95508,2 v 9.28125 q 4.98437,-2.59375 9.8125,-3.890625 4.82812,-1.28125 9.57812,-1.28125 6.34375,0 9.75,2.171875 3.42188,2.171875 3.42188,6.125 0,3.65625 -2.46875,5.609375 -2.45313,1.953125 -10.8125,3.765625 l -3.125,0.734375 q -8.34375,1.75 -12.0625,5.390625 -3.70313,3.640625 -3.70313,9.984375 0,7.71875 5.46875,11.90625 Q 417.2832,56 427.3457,56 q 4.96875,0 9.35938,-0.734375 4.40625,-0.71875 8.10937,-2.1875 z"
               inkscape:connector-curvature="0"
               style="stroke-width:0.015625;stroke-linecap:butt;stroke-linejoin:round" />
            <path
               id="use537"
               d=""
               inkscape:connector-curvature="0"
               style="stroke-width:0.015625;stroke-linecap:butt;stroke-linejoin:round" />
            <path
               id="use539"
               d="M 539.31055,33.015625 V 0 h -8.98438 v 32.71875 q 0,7.765625 -3.03125,11.609375 -3.03125,3.859375 -9.07812,3.859375 -7.28125,0 -11.48438,-4.640625 -4.20312,-4.625 -4.20312,-12.640625 V 0 h -9.03125 v 54.6875 h 9.03125 v -8.5 q 3.23437,4.9375 7.59375,7.375 4.375,2.4375 10.09375,2.4375 9.42187,0 14.25,-5.828125 4.84375,-5.828125 4.84375,-17.15625 z"
               inkscape:connector-curvature="0"
               style="stroke-width:0.015625;stroke-linecap:butt;stroke-linejoin:round" />
            <path
               id="use541"
               d="M 556.29883,21.578125 V 54.6875 h 8.98437 V 21.921875 q 0,-7.765625 3.01563,-11.65625 3.03125,-3.875 9.09375,-3.875 7.26562,0 11.48437,4.640625 4.23438,4.640625 4.23438,12.65625 v 31 h 8.98437 V 0 h -8.98437 V 8.40625 Q 589.8457,3.421875 585.51758,1 q -4.3125,-2.421875 -10.03125,-2.421875 -9.42188,0 -14.3125,5.859375 -4.875,5.859375 -4.875,17.140625 z M 578.9082,56 Z"
               inkscape:connector-curvature="0"
               style="stroke-width:0.015625;stroke-linecap:butt;stroke-linejoin:round" />
          </g>
        </g>
      </g>
      <g
         id="g2485"
         ns1:jacobian_sqrt="2.0"
         ns1:alignment="middle center"
         ns1:scale="2.0"
         ns1:preamble="/home/edwin/.config/inkscape/extensions/textext/default_packages.tex"
         ns1:text="valores de $\\nu$"
         ns1:pdfconverter="pdf2svg"
         ns1:texconverter="pdflatex"
         ns1:version="0.11.0"
         transform="matrix(2,0,0,2,3.9507316,80.134115)"
         style="stroke-linecap:butt;stroke-linejoin:round">
        <g
           style="stroke-linecap:butt;stroke-linejoin:round"
           id="g2972">
          <g
             style="fill:#000000;fill-opacity:1;stroke-linecap:butt;stroke-linejoin:round"
             id="g2458">
            <path
               inkscape:connector-curvature="0"
               style="stroke:none;stroke-width:0;stroke-linecap:butt;stroke-linejoin:round"
               d="M 4.140625,-3.3125 C 4.234375,-3.546875 4.40625,-3.984375 5.0625,-3.984375 v -0.3125 c -0.234375,0.015625 -0.515625,0.03125 -0.75,0.03125 -0.234375,0 -0.6875,-0.015625 -0.859375,-0.03125 v 0.3125 c 0.359375,0 0.46875,0.234375 0.46875,0.421875 0,0.09375 -0.015625,0.140625 -0.046875,0.25 L 2.84375,-0.78125 1.734375,-3.5625 c -0.0625,-0.125 -0.0625,-0.140625 -0.0625,-0.171875 0,-0.25 0.390625,-0.25 0.578125,-0.25 v -0.3125 c -0.3125,0.015625 -0.859375,0.03125 -1.09375,0.03125 -0.265625,0 -0.671875,-0.015625 -0.96875,-0.03125 v 0.3125 c 0.625,0 0.671875,0.0625 0.796875,0.359375 l 1.4375,3.546875 C 2.484375,0.0625 2.5,0.109375 2.625,0.109375 c 0.140625,0 0.171875,-0.09375 0.21875,-0.1875 z m 0,0"
               transform="translate(148.712,134.765)"
               id="path2456" />
          </g>
          <g
             style="fill:#000000;fill-opacity:1;stroke-linecap:butt;stroke-linejoin:round"
             id="g2472">
            <path
               inkscape:connector-curvature="0"
               style="stroke:none;stroke-width:0;stroke-linecap:butt;stroke-linejoin:round"
               d="m 3.3125,-0.75 c 0.046875,0.390625 0.3125,0.8125 0.78125,0.8125 0.21875,0 0.828125,-0.140625 0.828125,-0.953125 v -0.5625 h -0.25 v 0.5625 c 0,0.578125 -0.25,0.640625 -0.359375,0.640625 -0.328125,0 -0.375,-0.453125 -0.375,-0.5 v -1.984375 c 0,-0.421875 0,-0.8125 -0.359375,-1.1875 C 3.1875,-4.3125 2.6875,-4.46875 2.21875,-4.46875 c -0.828125,0 -1.515625,0.46875 -1.515625,1.125 0,0.296875 0.203125,0.46875 0.46875,0.46875 0.28125,0 0.453125,-0.203125 0.453125,-0.453125 0,-0.125 -0.046875,-0.453125 -0.515625,-0.453125 C 1.390625,-4.140625 1.875,-4.25 2.1875,-4.25 c 0.5,0 1.0625,0.390625 1.0625,1.28125 v 0.359375 c -0.515625,0.03125 -1.203125,0.0625 -1.828125,0.359375 -0.75,0.34375 -1,0.859375 -1,1.296875 0,0.8125 0.96875,1.0625 1.59375,1.0625 0.65625,0 1.109375,-0.40625 1.296875,-0.859375 z M 3.25,-2.390625 v 1 c 0,0.9375 -0.71875,1.28125 -1.171875,1.28125 -0.484375,0 -0.890625,-0.34375 -0.890625,-0.84375 0,-0.546875 0.421875,-1.375 2.0625,-1.4375 z m 0,0"
               transform="translate(153.41235,134.765)"
               id="path2460" />
            <path
               inkscape:connector-curvature="0"
               style="stroke:none;stroke-width:0;stroke-linecap:butt;stroke-linejoin:round"
               d="M 1.765625,-6.921875 0.328125,-6.8125 V -6.5 c 0.703125,0 0.78125,0.0625 0.78125,0.5625 V -0.75 c 0,0.4375 -0.109375,0.4375 -0.78125,0.4375 V 0 C 0.65625,-0.015625 1.1875,-0.03125 1.4375,-0.03125 c 0.25,0 0.734375,0.015625 1.109375,0.03125 v -0.3125 c -0.671875,0 -0.78125,0 -0.78125,-0.4375 z m 0,0"
               transform="translate(158.39365,134.765)"
               id="path2462" />
            <path
               inkscape:connector-curvature="0"
               style="stroke:none;stroke-width:0;stroke-linecap:butt;stroke-linejoin:round"
               d="M 4.6875,-2.140625 C 4.6875,-3.40625 3.703125,-4.46875 2.5,-4.46875 c -1.25,0 -2.21875,1.09375 -2.21875,2.328125 0,1.296875 1.03125,2.25 2.203125,2.25 1.203125,0 2.203125,-0.984375 2.203125,-2.25 z m -2.1875,2 c -0.4375,0 -0.875,-0.203125 -1.140625,-0.671875 -0.25,-0.4375 -0.25,-1.046875 -0.25,-1.40625 0,-0.390625 0,-0.921875 0.234375,-1.359375 C 1.609375,-4.03125 2.078125,-4.25 2.484375,-4.25 c 0.4375,0 0.859375,0.21875 1.125,0.65625 0.265625,0.421875 0.265625,1 0.265625,1.375 0,0.359375 0,0.90625 -0.21875,1.34375 C 3.421875,-0.421875 2.984375,-0.140625 2.5,-0.140625 Z m 0,0"
               transform="translate(161.16126,134.765)"
               id="path2464" />
            <path
               inkscape:connector-curvature="0"
               style="stroke:none;stroke-width:0;stroke-linecap:butt;stroke-linejoin:round"
               d="M 1.671875,-3.3125 V -4.40625 L 0.28125,-4.296875 v 0.3125 c 0.703125,0 0.78125,0.0625 0.78125,0.5625 V -0.75 c 0,0.4375 -0.109375,0.4375 -0.78125,0.4375 V 0 c 0.390625,-0.015625 0.859375,-0.03125 1.140625,-0.03125 0.390625,0 0.859375,0 1.265625,0.03125 V -0.3125 H 2.46875 c -0.734375,0 -0.75,-0.109375 -0.75,-0.46875 V -2.3125 c 0,-0.984375 0.421875,-1.875 1.171875,-1.875 0.0625,0 0.09375,0 0.109375,0.015625 -0.03125,0 -0.234375,0.125 -0.234375,0.390625 0,0.265625 0.21875,0.421875 0.4375,0.421875 0.171875,0 0.421875,-0.125 0.421875,-0.4375 0,-0.3125 -0.3125,-0.609375 -0.734375,-0.609375 -0.734375,0 -1.09375,0.671875 -1.21875,1.09375 z m 0,0"
               transform="translate(166.14256,134.765)"
               id="path2466" />
            <path
               inkscape:connector-curvature="0"
               style="stroke:none;stroke-width:0;stroke-linecap:butt;stroke-linejoin:round"
               d="M 1.109375,-2.515625 C 1.171875,-4 2.015625,-4.25 2.359375,-4.25 c 1.015625,0 1.125,1.34375 1.125,1.734375 z m 0,0.21875 h 2.78125 c 0.21875,0 0.25,0 0.25,-0.21875 0,-0.984375 -0.546875,-1.953125 -1.78125,-1.953125 -1.15625,0 -2.078125,1.03125 -2.078125,2.28125 0,1.328125 1.046875,2.296875 2.1875,2.296875 C 3.6875,0.109375 4.140625,-1 4.140625,-1.1875 4.140625,-1.28125 4.0625,-1.3125 4,-1.3125 c -0.078125,0 -0.109375,0.0625 -0.125,0.140625 -0.34375,1.03125 -1.25,1.03125 -1.34375,1.03125 -0.5,0 -0.890625,-0.296875 -1.125,-0.671875 -0.296875,-0.46875 -0.296875,-1.125 -0.296875,-1.484375 z m 0,0"
               transform="translate(170.04491,134.765)"
               id="path2468" />
            <path
               inkscape:connector-curvature="0"
               style="stroke:none;stroke-width:0;stroke-linecap:butt;stroke-linejoin:round"
               d="m 2.078125,-1.9375 c 0.21875,0.046875 1.03125,0.203125 1.03125,0.921875 0,0.5 -0.34375,0.90625 -1.125,0.90625 -0.84375,0 -1.203125,-0.5625 -1.390625,-1.421875 C 0.5625,-1.65625 0.5625,-1.6875 0.453125,-1.6875 c -0.125,0 -0.125,0.0625 -0.125,0.234375 V -0.125 c 0,0.171875 0,0.234375 0.109375,0.234375 0.046875,0 0.0625,-0.015625 0.25,-0.203125 0.015625,-0.015625 0.015625,-0.03125 0.203125,-0.21875 0.4375,0.40625 0.890625,0.421875 1.09375,0.421875 1.140625,0 1.609375,-0.671875 1.609375,-1.390625 0,-0.515625 -0.296875,-0.828125 -0.421875,-0.9375 C 2.84375,-2.546875 2.453125,-2.625 2.03125,-2.703125 1.46875,-2.8125 0.8125,-2.9375 0.8125,-3.515625 c 0,-0.359375 0.25,-0.765625 1.109375,-0.765625 1.09375,0 1.15625,0.90625 1.171875,1.203125 0,0.09375 0.09375,0.09375 0.109375,0.09375 0.140625,0 0.140625,-0.046875 0.140625,-0.234375 v -1.015625 c 0,-0.15625 0,-0.234375 -0.109375,-0.234375 -0.046875,0 -0.078125,0 -0.203125,0.125 -0.03125,0.03125 -0.125,0.125 -0.171875,0.15625 -0.375,-0.28125 -0.78125,-0.28125 -0.9375,-0.28125 -1.21875,0 -1.59375,0.671875 -1.59375,1.234375 0,0.34375 0.15625,0.625 0.421875,0.84375 0.328125,0.25 0.609375,0.3125 1.328125,0.453125 z m 0,0"
               transform="translate(174.47229,134.765)"
               id="path2470" />
          </g>
          <g
             style="fill:#000000;fill-opacity:1;stroke-linecap:butt;stroke-linejoin:round"
             id="g2478">
            <path
               inkscape:connector-curvature="0"
               style="stroke:none;stroke-width:0;stroke-linecap:butt;stroke-linejoin:round"
               d="m 3.78125,-0.546875 v 0.65625 L 5.25,0 v -0.3125 c -0.6875,0 -0.78125,-0.0625 -0.78125,-0.5625 V -6.921875 L 3.046875,-6.8125 V -6.5 c 0.6875,0 0.765625,0.0625 0.765625,0.5625 v 2.15625 c -0.28125,-0.359375 -0.71875,-0.625 -1.25,-0.625 -1.171875,0 -2.21875,0.984375 -2.21875,2.265625 0,1.265625 0.96875,2.25 2.109375,2.25 0.640625,0 1.078125,-0.34375 1.328125,-0.65625 z m 0,-2.671875 v 2.046875 c 0,0.171875 0,0.1875 -0.109375,0.359375 C 3.375,-0.328125 2.9375,-0.109375 2.5,-0.109375 2.046875,-0.109375 1.6875,-0.375 1.453125,-0.75 1.203125,-1.15625 1.171875,-1.71875 1.171875,-2.140625 1.171875,-2.5 1.1875,-3.09375 1.46875,-3.546875 1.6875,-3.859375 2.0625,-4.1875 2.609375,-4.1875 c 0.34375,0 0.765625,0.15625 1.0625,0.59375 0.109375,0.171875 0.109375,0.1875 0.109375,0.375 z m 0,0"
               transform="translate(181.72905,134.765)"
               id="path2474" />
            <path
               inkscape:connector-curvature="0"
               style="stroke:none;stroke-width:0;stroke-linecap:butt;stroke-linejoin:round"
               d="M 1.109375,-2.515625 C 1.171875,-4 2.015625,-4.25 2.359375,-4.25 c 1.015625,0 1.125,1.34375 1.125,1.734375 z m 0,0.21875 h 2.78125 c 0.21875,0 0.25,0 0.25,-0.21875 0,-0.984375 -0.546875,-1.953125 -1.78125,-1.953125 -1.15625,0 -2.078125,1.03125 -2.078125,2.28125 0,1.328125 1.046875,2.296875 2.1875,2.296875 C 3.6875,0.109375 4.140625,-1 4.140625,-1.1875 4.140625,-1.28125 4.0625,-1.3125 4,-1.3125 c -0.078125,0 -0.109375,0.0625 -0.125,0.140625 -0.34375,1.03125 -1.25,1.03125 -1.34375,1.03125 -0.5,0 -0.890625,-0.296875 -1.125,-0.671875 -0.296875,-0.46875 -0.296875,-1.125 -0.296875,-1.484375 z m 0,0"
               transform="translate(187.26427,134.765)"
               id="path2476" />
          </g>
          <g
             style="fill:#000000;fill-opacity:1;stroke-linecap:butt;stroke-linejoin:round"
             id="g2482">
            <path
               inkscape:connector-curvature="0"
               style="stroke:none;stroke-width:0;stroke-linecap:butt;stroke-linejoin:round"
               d="m 2.234375,-4.296875 c 0,-0.015625 0,-0.109375 -0.125,-0.109375 -0.234375,0 -0.96875,0.078125 -1.21875,0.09375 -0.078125,0.015625 -0.1875,0.03125 -0.1875,0.203125 0,0.125 0.078125,0.125 0.234375,0.125 0.484375,0 0.5,0.0625 0.5,0.171875 0,0.0625 -0.125,0.53125 -0.1875,0.796875 L 0.640625,-0.5625 C 0.59375,-0.421875 0.53125,-0.140625 0.53125,-0.125 0.53125,-0.015625 0.625,0 0.6875,0 h 0.140625 c 0.703125,-0.125 1.78125,-0.515625 2.8125,-1.46875 1.3125,-1.21875 1.578125,-2.578125 1.578125,-2.671875 0,-0.171875 -0.109375,-0.265625 -0.28125,-0.265625 -0.078125,0 -0.3125,0.046875 -0.390625,0.328125 -0.640625,2.265625 -2.15625,3.375 -3.296875,3.75 z m 0,0"
               transform="translate(195.011,134.765)"
               id="path2480" />
          </g>
        </g>
      </g>
      <text
         xml:space="preserve"
         style="font-style:normal;font-weight:normal;font-size:12px;line-height:1.25;font-family:sans-serif;letter-spacing:0px;word-spacing:0px;fill:#000000;fill-opacity:1;stroke:none;stroke-width:0.75;stroke-linecap:butt;stroke-linejoin:round"
         x="577.37292"
         y="60.635593"
         id="text3403"><tspan
           sodipodi:role="line"
           id="tspan3401"
           style="font-size:11px;stroke-width:0.75;stroke-linecap:butt;stroke-linejoin:round"
           x="577.37292"
           y="60.635593">Treino</tspan></text>
      <text
         xml:space="preserve"
         style="font-style:normal;font-weight:normal;font-size:12px;line-height:1.25;font-family:sans-serif;letter-spacing:0px;word-spacing:0px;fill:#000000;fill-opacity:1;stroke:none;stroke-width:0.75;stroke-linecap:butt;stroke-linejoin:round"
         x="577.63373"
         y="75.033035"
         id="text3403-3"><tspan
           sodipodi:role="line"
           id="tspan3401-6"
           style="font-size:11px;stroke-width:0.75;stroke-linecap:butt;stroke-linejoin:round"
           x="577.63373"
           y="75.033035">Teste</tspan></text>
    </g>
  </g>
  <defs
     id="defs552">
    <clipPath
       id="p609a828abe">
      <rect
         height="271.8"
         width="558"
         x="90"
         y="43.2"
         id="rect549" />
    </clipPath>
  </defs>
</svg>
