<svg version="1.1" xmlns="http://www.w3.org/2000/svg" xmlns:xlink="http://www.w3.org/1999/xlink" width="300" height="250" style="width: 300px; height: 250px;"><defs><clipPath id="XEoMylItcvWo"><path fill="none" stroke="none" d=" M 61 5 L 270 5 L 270 201 L 61 201 L 61 5 Z"/></clipPath><clipPath id="TkJXVgZkXRHS"><path fill="none" stroke="none" d=" M 61 5 L 270 5 L 270 201 L 61 201 L 61 5 Z"/></clipPath><clipPath id="lrfvpEnDhxWk"><path fill="none" stroke="none" d=" M 61 5 L 270 5 L 270 201 L 61 201 L 61 5 Z"/></clipPath><clipPath id="KpgURkdxzeIs"><path fill="none" stroke="none" d=" M 61 5 L 270 5 L 270 201 L 61 201 L 61 5 Z"/></clipPath><clipPath id="iTyMzkNKgGWS"><path fill="none" stroke="none" d=" M 61 5 L 270 5 L 270 201 L 61 201 L 61 5 Z"/></clipPath><clipPath id="TDbVTKWpqIGG"><path fill="none" stroke="none" d=" M 61 5 L 270 5 L 270 201 L 61 201 L 61 5 Z"/></clipPath><clipPath id="gFRuzlVZNUMo"><path fill="none" stroke="none" d=" M 61 5 L 270 5 L 270 201 L 61 201 L 61 5 Z"/></clipPath><clipPath id="syzHZcWOHVFH"><path fill="none" stroke="none" d=" M 61 5 L 270 5 L 270 201 L 61 201 L 61 5 Z"/></clipPath><clipPath id="dFbnqAfeQNTD"><path fill="none" stroke="none" d=" M 61 5 L 270 5 L 270 201 L 61 201 L 61 5 Z"/></clipPath><clipPath id="feueHekPATdX"><path fill="none" stroke="none" d=" M 61 5 L 270 5 L 270 201 L 61 201 L 61 5 Z"/></clipPath></defs><g><g transform="scale(1,1) translate(0.5,0.5)"><rect fill="#FFFFFF" stroke="none" x="0" y="0" width="300" height="250"/><rect fill="#ffffff" stroke="none" x="0" y="0" width="300" height="250"/><rect fill="#FFFFFF" stroke="none" x="61" y="5" width="209" height="196"/><rect fill="#efefef" stroke="none" x="61" y="5" width="209" height="196"/><g><rect fill="none" stroke="#e5e5e5" x="61" y="5" width="209" height="196" stroke-linejoin="bevel" stroke-miterlimit="10"/></g><g clip-path="url(#XEoMylItcvWo)"><g><g/></g></g><g clip-path="url(#TkJXVgZkXRHS)"><g><g><path fill="none" stroke="white" paint-order="fill stroke markers" d=" M 61 197 L 270 197" stroke-linejoin="bevel" stroke-miterlimit="10"/><path fill="none" stroke="white" paint-order="fill stroke markers" d=" M 61 166 L 270 166" stroke-linejoin="bevel" stroke-miterlimit="10"/><path fill="none" stroke="white" paint-order="fill stroke markers" d=" M 61 136 L 270 136" stroke-linejoin="bevel" stroke-miterlimit="10"/><path fill="none" stroke="white" paint-order="fill stroke markers" d=" M 61 106 L 270 106" stroke-linejoin="bevel" stroke-miterlimit="10"/><path fill="none" stroke="white" paint-order="fill stroke markers" d=" M 61 75 L 270 75" stroke-linejoin="bevel" stroke-miterlimit="10"/><path fill="none" stroke="white" paint-order="fill stroke markers" d=" M 61 45 L 270 45" stroke-linejoin="bevel" stroke-miterlimit="10"/><path fill="none" stroke="white" paint-order="fill stroke markers" d=" M 61 15 L 270 15" stroke-linejoin="bevel" stroke-miterlimit="10"/></g></g></g><g clip-path="url(#lrfvpEnDhxWk)"><g><g><path fill="none" stroke="none"/><rect fill="#1f77b4" stroke="none" x="106.97999999999999" y="84.33525951914135" width="12.54000000000002" height="1.2134970591268939"/><rect fill="#1f77b4" stroke="none" x="211.48" y="190.87741203178211" width="12.54000000000002" height="1.2134970591271212"/><path fill="none" stroke="black" paint-order="fill stroke markers" d=" M 106.97999999999999 84.33525951914135 L 119.52000000000001 84.33525951914135 L 119.52000000000001 85.54875657826824 L 106.97999999999999 85.54875657826824 L 106.97999999999999 84.33525951914135 Z" stroke-linejoin="bevel" stroke-miterlimit="10"/><path fill="none" stroke="black" paint-order="fill stroke markers" d=" M 211.48 190.87741203178211 L 224.02 190.87741203178211 L 224.02 192.09090909090924 L 211.48 192.09090909090924 L 211.48 190.87741203178211 Z" stroke-linejoin="bevel" stroke-miterlimit="10"/><path fill="none" stroke="black" paint-order="fill stroke markers" d="" stroke-linejoin="bevel" stroke-miterlimit="10"/></g></g></g><g clip-path="url(#KpgURkdxzeIs)"><g><g><path fill="none" stroke="none"/><rect fill="#1f77b4" stroke="none" x="106.97999999999999" y="40.996078836033575" width="12.54000000000002" height="1.2134970591271212"/><rect fill="#1f77b4" stroke="none" x="211.48" y="13.909090909090992" width="12.54000000000002" height="1.2134970591268939"/><path fill="none" stroke="black" paint-order="fill stroke markers" d=" M 106.97999999999999 40.996078836033575 L 119.52000000000001 40.996078836033575 L 119.52000000000001 42.2095758951607 L 106.97999999999999 42.2095758951607 L 106.97999999999999 40.996078836033575 Z" stroke-linejoin="bevel" stroke-miterlimit="10"/><path fill="none" stroke="black" paint-order="fill stroke markers" d=" M 211.48 13.909090909090992 L 224.02 13.909090909090992 L 224.02 15.122587968217886 L 211.48 15.122587968217886 L 211.48 13.909090909090992 Z" stroke-linejoin="bevel" stroke-miterlimit="10"/><path fill="none" stroke="black" paint-order="fill stroke markers" d="" stroke-linejoin="bevel" stroke-miterlimit="10"/></g></g></g><g clip-path="url(#iTyMzkNKgGWS)"><g><g><path fill="none" stroke="none"/><path fill="none" stroke="black" paint-order="fill stroke markers" d=" M 113.25 84.94200804870479 L 113.25 68.68981529253938" stroke-linejoin="bevel" stroke-miterlimit="10"/><path fill="none" stroke="black" paint-order="fill stroke markers" d=" M 217.75 191.48416056134556 L 217.75 115.64059436590651" stroke-linejoin="bevel" stroke-miterlimit="10"/></g></g></g><g clip-path="url(#TDbVTKWpqIGG)"><g><g><path fill="none" stroke="none"/><path fill="none" stroke="black" paint-order="fill stroke markers" d=" M 113.25 57.855020121762436 L 113.25 41.60282736559702" stroke-linejoin="bevel" stroke-miterlimit="10"/><path fill="none" stroke="black" paint-order="fill stroke markers" d=" M 217.75 65.07821690228047 L 217.75 14.515839438654439" stroke-linejoin="bevel" stroke-miterlimit="10"/></g></g></g><g clip-path="url(#gFRuzlVZNUMo)"><g><g><path fill="none" stroke="none"/><path fill="#E08E79" stroke="none" paint-order="stroke fill markers" d=" M 94.96249999999999 57.855020121762436 L 131.53750000000002 57.855020121762436 L 131.53750000000002 68.68981529253938 L 94.96249999999999 68.68981529253938 L 94.96249999999999 57.855020121762436 Z"/><path fill="none" stroke="black" paint-order="fill stroke markers" d=" M 94.96249999999999 57.855020121762436 L 131.53750000000002 57.855020121762436 L 131.53750000000002 68.68981529253938 L 94.96249999999999 68.68981529253938 L 94.96249999999999 57.855020121762436 Z" stroke-linejoin="bevel" stroke-miterlimit="10"/><path fill="#E08E79" stroke="none" paint-order="stroke fill markers" d=" M 199.4625 90.35940563409349 L 236.0375 90.35940563409349 L 236.0375 115.64059436590651 L 199.4625 115.64059436590651 L 199.4625 90.35940563409349 Z"/><path fill="none" stroke="black" paint-order="fill stroke markers" d=" M 199.4625 90.35940563409349 L 236.0375 90.35940563409349 L 236.0375 115.64059436590651 L 199.4625 115.64059436590651 L 199.4625 90.35940563409349 Z" stroke-linejoin="bevel" stroke-miterlimit="10"/></g></g></g><g clip-path="url(#syzHZcWOHVFH)"><g><g><path fill="none" stroke="none"/><path fill="#3B8686" stroke="none" paint-order="stroke fill markers" d=" M 94.96249999999999 57.855020121762436 L 131.53750000000002 57.855020121762436 L 131.53750000000002 57.855020121762436 L 94.96249999999999 57.855020121762436 L 94.96249999999999 57.855020121762436 Z"/><path fill="none" stroke="black" paint-order="fill stroke markers" d=" M 94.96249999999999 57.855020121762436 L 131.53750000000002 57.855020121762436 L 131.53750000000002 57.855020121762436 L 94.96249999999999 57.855020121762436 L 94.96249999999999 57.855020121762436 Z" stroke-linejoin="bevel" stroke-miterlimit="10"/><path fill="#3B8686" stroke="none" paint-order="stroke fill markers" d=" M 199.4625 90.35940563409349 L 236.0375 90.35940563409349 L 236.0375 65.07821690228047 L 199.4625 65.07821690228047 L 199.4625 90.35940563409349 Z"/><path fill="none" stroke="black" paint-order="fill stroke markers" d=" M 199.4625 90.35940563409349 L 236.0375 90.35940563409349 L 236.0375 65.07821690228047 L 199.4625 65.07821690228047 L 199.4625 90.35940563409349 Z" stroke-linejoin="bevel" stroke-miterlimit="10"/></g></g></g><g clip-path="url(#dFbnqAfeQNTD)"><g><g><path fill="none" stroke="none"/><path fill="orange" stroke="orange" paint-order="fill stroke markers" d=" M 115.25 90.35940563409349 A 2 2 0 1 1 115.24999900000009 90.35740563442683" stroke-linejoin="bevel" stroke-miterlimit="10" stroke-width="3"/><path fill="orange" stroke="orange" paint-order="fill stroke markers" d=" M 115.25 90.35940563409349 A 2 2 0 1 1 115.24999900000009 90.35740563442683" stroke-linejoin="bevel" stroke-miterlimit="10" stroke-width="3"/><path fill="orange" stroke="orange" paint-order="fill stroke markers" d=" M 115.25 90.35940563409349 A 2 2 0 1 1 115.24999900000009 90.35740563442683" stroke-linejoin="bevel" stroke-miterlimit="10" stroke-width="3"/><path fill="orange" stroke="orange" paint-order="fill stroke markers" d=" M 115.25 112.02899597564738 A 2 2 0 1 1 115.24999900000009 112.02699597598071" stroke-linejoin="bevel" stroke-miterlimit="10" stroke-width="3"/><path fill="orange" stroke="orange" paint-order="fill stroke markers" d=" M 115.25 90.35940563409349 A 2 2 0 1 1 115.24999900000009 90.35740563442683" stroke-linejoin="bevel" stroke-miterlimit="10" stroke-width="3"/><path fill="orange" stroke="orange" paint-order="fill stroke markers" d=" M 115.25 112.02899597564738 A 2 2 0 1 1 115.24999900000009 112.02699597598071" stroke-linejoin="bevel" stroke-miterlimit="10" stroke-width="3"/><path fill="orange" stroke="orange" paint-order="fill stroke markers" d=" M 115.25 36.185429780208324 A 2 2 0 1 1 115.24999900000009 36.18342978054166" stroke-linejoin="bevel" stroke-miterlimit="10" stroke-width="3"/><path fill="orange" stroke="orange" paint-order="fill stroke markers" d=" M 115.25 36.185429780208324 A 2 2 0 1 1 115.24999900000009 36.18342978054166" stroke-linejoin="bevel" stroke-miterlimit="10" stroke-width="3"/></g></g></g><g/><g/><g><g fill="#444444"><path fill="none" stroke="black" paint-order="fill stroke markers" d=" M 61 201 L 270 201" stroke-linejoin="bevel" stroke-miterlimit="10"/><path fill="none" stroke="black" paint-order="fill stroke markers" d=" M 113 207 L 113 199" stroke-linejoin="bevel" stroke-miterlimit="10"/><path fill="" stroke="black" paint-order="fill stroke markers" d=" M 218 207 L 218 199" stroke-linejoin="bevel" stroke-miterlimit="10"/><g transform="translate(113,212) rotate(0,0,0)"><text fill="" stroke="none" font-family="helvetica" font-size="8pt" font-style="normal" font-weight="normal" text-decoration="normal" x="0" y="0" text-anchor="middle" dominant-baseline="hanging">Treino</text><g transform="rotate(0,0,0) translate(-113,-212) translate(218,212) rotate(0,0,0)"><text fill="" stroke="none" font-family="helvetica" font-size="8pt" font-style="normal" font-weight="normal" text-decoration="normal" x="0" y="0" text-anchor="middle" dominant-baseline="hanging">Teste</text><g transform="rotate(0,0,0) translate(-218,-212) translate(166,232) rotate(0,0,0)"><text fill="" stroke="none" font-family="helvetica" font-size="10pt" font-style="italic" font-weight="normal" text-decoration="normal" x="0" y="0" text-anchor="middle" dominant-baseline="hanging">conjunto de dados</text><g transform="rotate(0,0,0) translate(-166,-232)"/></g></g></g></g></g><g><g fill="#444444"><path fill="none" stroke="black" paint-order="fill stroke markers" d=" M 61 201 L 61 5" stroke-linejoin="bevel" stroke-miterlimit="10"/><path fill="none" stroke="black" paint-order="fill stroke markers" d=" M 55 197 L 63 197" stroke-linejoin="bevel" stroke-miterlimit="10"/><path fill="none" stroke="black" paint-order="fill stroke markers" d=" M 55 166 L 63 166" stroke-linejoin="bevel" stroke-miterlimit="10"/><path fill="none" stroke="black" paint-order="fill stroke markers" d=" M 55 136 L 63 136" stroke-linejoin="bevel" stroke-miterlimit="10"/><path fill="none" stroke="black" paint-order="fill stroke markers" d=" M 55 106 L 63 106" stroke-linejoin="bevel" stroke-miterlimit="10"/><path fill="none" stroke="black" paint-order="fill stroke markers" d=" M 55 75 L 63 75" stroke-linejoin="bevel" stroke-miterlimit="10"/><path fill="none" stroke="black" paint-order="fill stroke markers" d=" M 55 45 L 63 45" stroke-linejoin="bevel" stroke-miterlimit="10"/><path fill="none" stroke="black" paint-order="fill stroke markers" d=" M 55 15 L 63 15" stroke-linejoin="bevel" stroke-miterlimit="10"/><path fill="none" stroke="black" paint-order="fill stroke markers" d=" M 57 197 L 61 197" stroke-linejoin="bevel" stroke-miterlimit="10"/><path fill="none" stroke="black" paint-order="fill stroke markers" d=" M 57 190 L 61 190" stroke-linejoin="bevel" stroke-miterlimit="10"/><path fill="none" stroke="black" paint-order="fill stroke markers" d=" M 57 184 L 61 184" stroke-linejoin="bevel" stroke-miterlimit="10"/><path fill="none" stroke="black" paint-order="fill stroke markers" d=" M 57 178 L 61 178" stroke-linejoin="bevel" stroke-miterlimit="10"/><path fill="none" stroke="black" paint-order="fill stroke markers" d=" M 57 172 L 61 172" stroke-linejoin="bevel" stroke-miterlimit="10"/><path fill="none" stroke="black" paint-order="fill stroke markers" d=" M 57 166 L 61 166" stroke-linejoin="bevel" stroke-miterlimit="10"/><path fill="none" stroke="black" paint-order="fill stroke markers" d=" M 57 160 L 61 160" stroke-linejoin="bevel" stroke-miterlimit="10"/><path fill="none" stroke="black" paint-order="fill stroke markers" d=" M 57 154 L 61 154" stroke-linejoin="bevel" stroke-miterlimit="10"/><path fill="none" stroke="black" paint-order="fill stroke markers" d=" M 57 148 L 61 148" stroke-linejoin="bevel" stroke-miterlimit="10"/><path fill="none" stroke="black" paint-order="fill stroke markers" d=" M 57 142 L 61 142" stroke-linejoin="bevel" stroke-miterlimit="10"/><path fill="none" stroke="black" paint-order="fill stroke markers" d=" M 57 136 L 61 136" stroke-linejoin="bevel" stroke-miterlimit="10"/><path fill="none" stroke="black" paint-order="fill stroke markers" d=" M 57 130 L 61 130" stroke-linejoin="bevel" stroke-miterlimit="10"/><path fill="none" stroke="black" paint-order="fill stroke markers" d=" M 57 124 L 61 124" stroke-linejoin="bevel" stroke-miterlimit="10"/><path fill="none" stroke="black" paint-order="fill stroke markers" d=" M 57 118 L 61 118" stroke-linejoin="bevel" stroke-miterlimit="10"/><path fill="none" stroke="black" paint-order="fill stroke markers" d=" M 57 112 L 61 112" stroke-linejoin="bevel" stroke-miterlimit="10"/><path fill="none" stroke="black" paint-order="fill stroke markers" d=" M 57 106 L 61 106" stroke-linejoin="bevel" stroke-miterlimit="10"/><path fill="none" stroke="black" paint-order="fill stroke markers" d=" M 57 99 L 61 99" stroke-linejoin="bevel" stroke-miterlimit="10"/><path fill="none" stroke="black" paint-order="fill stroke markers" d=" M 57 93 L 61 93" stroke-linejoin="bevel" stroke-miterlimit="10"/><path fill="none" stroke="black" paint-order="fill stroke markers" d=" M 57 87 L 61 87" stroke-linejoin="bevel" stroke-miterlimit="10"/><path fill="none" stroke="black" paint-order="fill stroke markers" d=" M 57 81 L 61 81" stroke-linejoin="bevel" stroke-miterlimit="10"/><path fill="none" stroke="black" paint-order="fill stroke markers" d=" M 57 75 L 61 75" stroke-linejoin="bevel" stroke-miterlimit="10"/><path fill="none" stroke="black" paint-order="fill stroke markers" d=" M 57 69 L 61 69" stroke-linejoin="bevel" stroke-miterlimit="10"/><path fill="none" stroke="black" paint-order="fill stroke markers" d=" M 57 63 L 61 63" stroke-linejoin="bevel" stroke-miterlimit="10"/><path fill="none" stroke="black" paint-order="fill stroke markers" d=" M 57 57 L 61 57" stroke-linejoin="bevel" stroke-miterlimit="10"/><path fill="none" stroke="black" paint-order="fill stroke markers" d=" M 57 51 L 61 51" stroke-linejoin="bevel" stroke-miterlimit="10"/><path fill="none" stroke="black" paint-order="fill stroke markers" d=" M 57 45 L 61 45" stroke-linejoin="bevel" stroke-miterlimit="10"/><path fill="none" stroke="black" paint-order="fill stroke markers" d=" M 57 39 L 61 39" stroke-linejoin="bevel" stroke-miterlimit="10"/><path fill="none" stroke="black" paint-order="fill stroke markers" d=" M 57 33 L 61 33" stroke-linejoin="bevel" stroke-miterlimit="10"/><path fill="none" stroke="black" paint-order="fill stroke markers" d=" M 57 27 L 61 27" stroke-linejoin="bevel" stroke-miterlimit="10"/><path fill="none" stroke="black" paint-order="fill stroke markers" d=" M 57 21 L 61 21" stroke-linejoin="bevel" stroke-miterlimit="10"/><path fill="none" stroke="black" paint-order="fill stroke markers" d=" M 57 15 L 61 15" stroke-linejoin="bevel" stroke-miterlimit="10"/><path fill="" stroke="black" paint-order="fill stroke markers" d=" M 57 8 L 61 8" stroke-linejoin="bevel" stroke-miterlimit="10"/><g transform="translate(50,197) rotate(0,0,0)"><text fill="" stroke="none" font-family="helvetica" font-size="8pt" font-style="normal" font-weight="normal" text-decoration="normal" x="0" y="0" text-anchor="end" dominant-baseline="central">0.88</text><g transform="rotate(0,0,0) translate(-50,-197) translate(50,166) rotate(0,0,0)"><text fill="" stroke="none" font-family="helvetica" font-size="8pt" font-style="normal" font-weight="normal" text-decoration="normal" x="0" y="0" text-anchor="end" dominant-baseline="central">0.9</text><g transform="rotate(0,0,0) translate(-50,-166) translate(50,136) rotate(0,0,0)"><text fill="" stroke="none" font-family="helvetica" font-size="8pt" font-style="normal" font-weight="normal" text-decoration="normal" x="0" y="0" text-anchor="end" dominant-baseline="central">0.92</text><g transform="rotate(0,0,0) translate(-50,-136) translate(50,106) rotate(0,0,0)"><text fill="" stroke="none" font-family="helvetica" font-size="8pt" font-style="normal" font-weight="normal" text-decoration="normal" x="0" y="0" text-anchor="end" dominant-baseline="central">0.94</text><g transform="rotate(0,0,0) translate(-50,-106) translate(50,75) rotate(0,0,0)"><text fill="" stroke="none" font-family="helvetica" font-size="8pt" font-style="normal" font-weight="normal" text-decoration="normal" x="0" y="0" text-anchor="end" dominant-baseline="central">0.96</text><g transform="rotate(0,0,0) translate(-50,-75) translate(50,45) rotate(0,0,0)"><text fill="" stroke="none" font-family="helvetica" font-size="8pt" font-style="normal" font-weight="normal" text-decoration="normal" x="0" y="0" text-anchor="end" dominant-baseline="central">0.98</text><g transform="rotate(0,0,0) translate(-50,-45) translate(50,15) rotate(0,0,0)"><text fill="" stroke="none" font-family="helvetica" font-size="8pt" font-style="normal" font-weight="normal" text-decoration="normal" x="0" y="0" text-anchor="end" dominant-baseline="central">1</text><g transform="rotate(0,0,0) translate(-50,-15) translate(18,103) rotate(-90,0,0)"><text fill="" stroke="none" font-family="helvetica" font-size="10pt" font-style="italic" font-weight="normal" text-decoration="normal" x="0" y="0" text-anchor="middle" dominant-baseline="alphabetic">pontuação recall</text><g transform="rotate(90,0,0) translate(-18,-103)"/></g></g></g></g></g></g></g></g></g></g><g clip-path="url(#feueHekPATdX)"><g/></g></g></g></svg>