<svg version="1.1" xmlns="http://www.w3.org/2000/svg" xmlns:xlink="http://www.w3.org/1999/xlink" width="300" height="250" style="width: 300px; height: 250px;"><defs><clipPath id="TPCDAByudlRz"><path fill="none" stroke="none" d=" M 61 5 L 270 5 L 270 201 L 61 201 L 61 5 Z"/></clipPath><clipPath id="CMKyrMpnwFwQ"><path fill="none" stroke="none" d=" M 61 5 L 270 5 L 270 201 L 61 201 L 61 5 Z"/></clipPath><clipPath id="MMZFhbZHisbU"><path fill="none" stroke="none" d=" M 61 5 L 270 5 L 270 201 L 61 201 L 61 5 Z"/></clipPath><clipPath id="zTlrJRroGrKu"><path fill="none" stroke="none" d=" M 61 5 L 270 5 L 270 201 L 61 201 L 61 5 Z"/></clipPath><clipPath id="SKIKPXivzTUQ"><path fill="none" stroke="none" d=" M 61 5 L 270 5 L 270 201 L 61 201 L 61 5 Z"/></clipPath><clipPath id="SExIBpiVGiJq"><path fill="none" stroke="none" d=" M 61 5 L 270 5 L 270 201 L 61 201 L 61 5 Z"/></clipPath><clipPath id="ZsXGySnHbeKF"><path fill="none" stroke="none" d=" M 61 5 L 270 5 L 270 201 L 61 201 L 61 5 Z"/></clipPath><clipPath id="KgvXBdLdTRAc"><path fill="none" stroke="none" d=" M 61 5 L 270 5 L 270 201 L 61 201 L 61 5 Z"/></clipPath><clipPath id="CrCKCNcdJFMw"><path fill="none" stroke="none" d=" M 61 5 L 270 5 L 270 201 L 61 201 L 61 5 Z"/></clipPath></defs><g><g transform="scale(1,1) translate(0.5,0.5)"><rect fill="#FFFFFF" stroke="none" x="0" y="0" width="300" height="250"/><rect fill="#ffffff" stroke="none" x="0" y="0" width="300" height="250"/><rect fill="#FFFFFF" stroke="none" x="61" y="5" width="209" height="196"/><rect fill="#efefef" stroke="none" x="61" y="5" width="209" height="196"/><g><rect fill="none" stroke="#e5e5e5" x="61" y="5" width="209" height="196" stroke-linejoin="bevel" stroke-miterlimit="10"/></g><g clip-path="url(#TPCDAByudlRz)"><g><g/></g></g><g clip-path="url(#CMKyrMpnwFwQ)"><g><g><path fill="none" stroke="white" paint-order="fill stroke markers" d=" M 61 176 L 270 176" stroke-linejoin="bevel" stroke-miterlimit="10"/><path fill="none" stroke="white" paint-order="fill stroke markers" d=" M 61 127 L 270 127" stroke-linejoin="bevel" stroke-miterlimit="10"/><path fill="none" stroke="white" paint-order="fill stroke markers" d=" M 61 79 L 270 79" stroke-linejoin="bevel" stroke-miterlimit="10"/><path fill="none" stroke="white" paint-order="fill stroke markers" d=" M 61 30 L 270 30" stroke-linejoin="bevel" stroke-miterlimit="10"/></g></g></g><g clip-path="url(#MMZFhbZHisbU)"><g><g><path fill="none" stroke="none"/><rect fill="#1f77b4" stroke="none" x="106.97999999999999" y="50.83318223028107" width="12.54000000000002" height="0.4846286985905408"/><rect fill="#1f77b4" stroke="none" x="211.48" y="191.60628039231847" width="12.54000000000002" height="0.4846286985906545"/><path fill="none" stroke="black" paint-order="fill stroke markers" d=" M 106.97999999999999 50.83318223028107 L 119.52000000000001 50.83318223028107 L 119.52000000000001 51.31781092887161 L 106.97999999999999 51.31781092887161 L 106.97999999999999 50.83318223028107 Z" stroke-linejoin="bevel" stroke-miterlimit="10"/><path fill="none" stroke="black" paint-order="fill stroke markers" d=" M 211.48 191.60628039231847 L 224.02 191.60628039231847 L 224.02 192.09090909090912 L 211.48 192.09090909090912 L 211.48 191.60628039231847 Z" stroke-linejoin="bevel" stroke-miterlimit="10"/><path fill="none" stroke="black" paint-order="fill stroke markers" d="" stroke-linejoin="bevel" stroke-miterlimit="10"/></g></g></g><g clip-path="url(#zTlrJRroGrKu)"><g><g><path fill="none" stroke="none"/><rect fill="#1f77b4" stroke="none" x="106.97999999999999" y="16.216846616665407" width="12.54000000000002" height="0.4846286985905408"/><rect fill="#1f77b4" stroke="none" x="211.48" y="13.909090909090992" width="12.54000000000002" height="0.4846286985905408"/><path fill="none" stroke="black" paint-order="fill stroke markers" d=" M 106.97999999999999 16.216846616665407 L 119.52000000000001 16.216846616665407 L 119.52000000000001 16.701475315255948 L 106.97999999999999 16.701475315255948 L 106.97999999999999 16.216846616665407 Z" stroke-linejoin="bevel" stroke-miterlimit="10"/><path fill="none" stroke="black" paint-order="fill stroke markers" d=" M 211.48 13.909090909090992 L 224.02 13.909090909090992 L 224.02 14.393719607681533 L 211.48 14.393719607681533 L 211.48 13.909090909090992 Z" stroke-linejoin="bevel" stroke-miterlimit="10"/><path fill="none" stroke="black" paint-order="fill stroke markers" d="" stroke-linejoin="bevel" stroke-miterlimit="10"/></g></g></g><g clip-path="url(#SKIKPXivzTUQ)"><g><g><path fill="none" stroke="none"/><path fill="none" stroke="black" paint-order="fill stroke markers" d=" M 113.25 51.07549657957634 L 113.25 44.152229456853206" stroke-linejoin="bevel" stroke-miterlimit="10"/><path fill="none" stroke="black" paint-order="fill stroke markers" d=" M 217.75 191.84859474161374 L 217.75 127.23143492953102" stroke-linejoin="bevel" stroke-miterlimit="10"/></g></g></g><g clip-path="url(#SExIBpiVGiJq)"><g><g><path fill="none" stroke="none"/><path fill="none" stroke="black" paint-order="fill stroke markers" d=" M 113.25 26.844061650045433 L 113.25 16.459160965960677" stroke-linejoin="bevel" stroke-miterlimit="10"/><path fill="none" stroke="black" paint-order="fill stroke markers" d=" M 217.75 62.6142751174483 L 217.75 14.151405258386262" stroke-linejoin="bevel" stroke-miterlimit="10"/></g></g></g><g clip-path="url(#ZsXGySnHbeKF)"><g><g><path fill="none" stroke="none"/><path fill="#E08E79" stroke="none" paint-order="stroke fill markers" d=" M 94.96249999999999 37.228962334130074 L 131.53750000000002 37.228962334130074 L 131.53750000000002 44.152229456853206 L 94.96249999999999 44.152229456853206 L 94.96249999999999 37.228962334130074 Z"/><path fill="none" stroke="black" paint-order="fill stroke markers" d=" M 94.96249999999999 37.228962334130074 L 131.53750000000002 37.228962334130074 L 131.53750000000002 44.152229456853206 L 94.96249999999999 44.152229456853206 L 94.96249999999999 37.228962334130074 Z" stroke-linejoin="bevel" stroke-miterlimit="10"/><path fill="#E08E79" stroke="none" paint-order="stroke fill markers" d=" M 199.4625 78.76856507046898 L 236.0375 78.76856507046898 L 236.0375 127.23143492953102 L 199.4625 127.23143492953102 L 199.4625 78.76856507046898 Z"/><path fill="none" stroke="black" paint-order="fill stroke markers" d=" M 199.4625 78.76856507046898 L 236.0375 78.76856507046898 L 236.0375 127.23143492953102 L 199.4625 127.23143492953102 L 199.4625 78.76856507046898 Z" stroke-linejoin="bevel" stroke-miterlimit="10"/></g></g></g><g clip-path="url(#KgvXBdLdTRAc)"><g><g><path fill="none" stroke="none"/><path fill="#3B8686" stroke="none" paint-order="stroke fill markers" d=" M 94.96249999999999 37.228962334130074 L 131.53750000000002 37.228962334130074 L 131.53750000000002 26.844061650045433 L 94.96249999999999 26.844061650045433 L 94.96249999999999 37.228962334130074 Z"/><path fill="none" stroke="black" paint-order="fill stroke markers" d=" M 94.96249999999999 37.228962334130074 L 131.53750000000002 37.228962334130074 L 131.53750000000002 26.844061650045433 L 94.96249999999999 26.844061650045433 L 94.96249999999999 37.228962334130074 Z" stroke-linejoin="bevel" stroke-miterlimit="10"/><path fill="#3B8686" stroke="none" paint-order="stroke fill markers" d=" M 199.4625 78.76856507046898 L 236.0375 78.76856507046898 L 236.0375 62.6142751174483 L 199.4625 62.6142751174483 L 199.4625 78.76856507046898 Z"/><path fill="none" stroke="black" paint-order="fill stroke markers" d=" M 199.4625 78.76856507046898 L 236.0375 78.76856507046898 L 236.0375 62.6142751174483 L 199.4625 62.6142751174483 L 199.4625 78.76856507046898 Z" stroke-linejoin="bevel" stroke-miterlimit="10"/></g></g></g><g/><g/><g><g fill="#444444"><path fill="none" stroke="black" paint-order="fill stroke markers" d=" M 61 201 L 270 201" stroke-linejoin="bevel" stroke-miterlimit="10"/><path fill="none" stroke="black" paint-order="fill stroke markers" d=" M 113 207 L 113 199" stroke-linejoin="bevel" stroke-miterlimit="10"/><path fill="" stroke="black" paint-order="fill stroke markers" d=" M 218 207 L 218 199" stroke-linejoin="bevel" stroke-miterlimit="10"/><g transform="translate(113,212) rotate(0,0,0)"><text fill="" stroke="none" font-family="helvetica" font-size="8pt" font-style="normal" font-weight="normal" text-decoration="normal" x="0" y="0" text-anchor="middle" dominant-baseline="hanging">Train</text><g transform="rotate(0,0,0) translate(-113,-212) translate(218,212) rotate(0,0,0)"><text fill="" stroke="none" font-family="helvetica" font-size="8pt" font-style="normal" font-weight="normal" text-decoration="normal" x="0" y="0" text-anchor="middle" dominant-baseline="hanging">Test</text><g transform="rotate(0,0,0) translate(-218,-212) translate(166,232) rotate(0,0,0)"><text fill="" stroke="none" font-family="helvetica" font-size="10pt" font-style="italic" font-weight="normal" text-decoration="normal" x="0" y="0" text-anchor="middle" dominant-baseline="hanging">conjunto de dados</text><g transform="rotate(0,0,0) translate(-166,-232)"/></g></g></g></g></g><g><g fill="#444444"><path fill="none" stroke="black" paint-order="fill stroke markers" d=" M 61 201 L 61 5" stroke-linejoin="bevel" stroke-miterlimit="10"/><path fill="none" stroke="black" paint-order="fill stroke markers" d=" M 55 176 L 63 176" stroke-linejoin="bevel" stroke-miterlimit="10"/><path fill="none" stroke="black" paint-order="fill stroke markers" d=" M 55 127 L 63 127" stroke-linejoin="bevel" stroke-miterlimit="10"/><path fill="none" stroke="black" paint-order="fill stroke markers" d=" M 55 79 L 63 79" stroke-linejoin="bevel" stroke-miterlimit="10"/><path fill="none" stroke="black" paint-order="fill stroke markers" d=" M 55 30 L 63 30" stroke-linejoin="bevel" stroke-miterlimit="10"/><path fill="none" stroke="black" paint-order="fill stroke markers" d=" M 57 185 L 61 185" stroke-linejoin="bevel" stroke-miterlimit="10"/><path fill="none" stroke="black" paint-order="fill stroke markers" d=" M 57 195 L 61 195" stroke-linejoin="bevel" stroke-miterlimit="10"/><path fill="none" stroke="black" paint-order="fill stroke markers" d=" M 57 176 L 61 176" stroke-linejoin="bevel" stroke-miterlimit="10"/><path fill="none" stroke="black" paint-order="fill stroke markers" d=" M 57 166 L 61 166" stroke-linejoin="bevel" stroke-miterlimit="10"/><path fill="none" stroke="black" paint-order="fill stroke markers" d=" M 57 156 L 61 156" stroke-linejoin="bevel" stroke-miterlimit="10"/><path fill="none" stroke="black" paint-order="fill stroke markers" d=" M 57 147 L 61 147" stroke-linejoin="bevel" stroke-miterlimit="10"/><path fill="none" stroke="black" paint-order="fill stroke markers" d=" M 57 137 L 61 137" stroke-linejoin="bevel" stroke-miterlimit="10"/><path fill="none" stroke="black" paint-order="fill stroke markers" d=" M 57 127 L 61 127" stroke-linejoin="bevel" stroke-miterlimit="10"/><path fill="none" stroke="black" paint-order="fill stroke markers" d=" M 57 118 L 61 118" stroke-linejoin="bevel" stroke-miterlimit="10"/><path fill="none" stroke="black" paint-order="fill stroke markers" d=" M 57 108 L 61 108" stroke-linejoin="bevel" stroke-miterlimit="10"/><path fill="none" stroke="black" paint-order="fill stroke markers" d=" M 57 98 L 61 98" stroke-linejoin="bevel" stroke-miterlimit="10"/><path fill="none" stroke="black" paint-order="fill stroke markers" d=" M 57 88 L 61 88" stroke-linejoin="bevel" stroke-miterlimit="10"/><path fill="none" stroke="black" paint-order="fill stroke markers" d=" M 57 79 L 61 79" stroke-linejoin="bevel" stroke-miterlimit="10"/><path fill="none" stroke="black" paint-order="fill stroke markers" d=" M 57 69 L 61 69" stroke-linejoin="bevel" stroke-miterlimit="10"/><path fill="none" stroke="black" paint-order="fill stroke markers" d=" M 57 59 L 61 59" stroke-linejoin="bevel" stroke-miterlimit="10"/><path fill="none" stroke="black" paint-order="fill stroke markers" d=" M 57 50 L 61 50" stroke-linejoin="bevel" stroke-miterlimit="10"/><path fill="none" stroke="black" paint-order="fill stroke markers" d=" M 57 40 L 61 40" stroke-linejoin="bevel" stroke-miterlimit="10"/><path fill="none" stroke="black" paint-order="fill stroke markers" d=" M 57 30 L 61 30" stroke-linejoin="bevel" stroke-miterlimit="10"/><path fill="none" stroke="black" paint-order="fill stroke markers" d=" M 57 21 L 61 21" stroke-linejoin="bevel" stroke-miterlimit="10"/><path fill="" stroke="black" paint-order="fill stroke markers" d=" M 57 11 L 61 11" stroke-linejoin="bevel" stroke-miterlimit="10"/><g transform="translate(50,176) rotate(0,0,0)"><text fill="" stroke="none" font-family="helvetica" font-size="8pt" font-style="normal" font-weight="normal" text-decoration="normal" x="0" y="0" text-anchor="end" dominant-baseline="central">0.8</text><g transform="rotate(0,0,0) translate(-50,-176) translate(50,127) rotate(0,0,0)"><text fill="" stroke="none" font-family="helvetica" font-size="8pt" font-style="normal" font-weight="normal" text-decoration="normal" x="0" y="0" text-anchor="end" dominant-baseline="central">0.85</text><g transform="rotate(0,0,0) translate(-50,-127) translate(50,79) rotate(0,0,0)"><text fill="" stroke="none" font-family="helvetica" font-size="8pt" font-style="normal" font-weight="normal" text-decoration="normal" x="0" y="0" text-anchor="end" dominant-baseline="central">0.9</text><g transform="rotate(0,0,0) translate(-50,-79) translate(50,30) rotate(0,0,0)"><text fill="" stroke="none" font-family="helvetica" font-size="8pt" font-style="normal" font-weight="normal" text-decoration="normal" x="0" y="0" text-anchor="end" dominant-baseline="central">0.95</text><g transform="rotate(0,0,0) translate(-50,-30) translate(18,103) rotate(-90,0,0)"><text fill="" stroke="none" font-family="helvetica" font-size="10pt" font-style="italic" font-weight="normal" text-decoration="normal" x="0" y="0" text-anchor="middle" dominant-baseline="alphabetic">pontuação recall</text><g transform="rotate(90,0,0) translate(-18,-103)"/></g></g></g></g></g></g></g><g clip-path="url(#CrCKCNcdJFMw)"><g/></g></g></g></svg>