<svg version="1.1" xmlns="http://www.w3.org/2000/svg" xmlns:xlink="http://www.w3.org/1999/xlink" width="350" height="210" style="width: 350px; height: 210px;"><defs><clipPath id="clIHKmKTfiOM"><path fill="none" stroke="none" d=" M 61 5 L 320 5 L 320 161 L 61 161 L 61 5 Z"/></clipPath><clipPath id="TtJdUUVMQESn"><path fill="none" stroke="none" d=" M 61 5 L 320 5 L 320 161 L 61 161 L 61 5 Z"/></clipPath><clipPath id="EWRgliglPTMf"><path fill="none" stroke="none" d=" M 61 5 L 320 5 L 320 161 L 61 161 L 61 5 Z"/></clipPath><clipPath id="DWbRxDQawdny"><path fill="none" stroke="none" d=" M 61 5 L 320 5 L 320 161 L 61 161 L 61 5 Z"/></clipPath><clipPath id="WtyUUOFJOfQF"><path fill="none" stroke="none" d=" M 61 5 L 320 5 L 320 161 L 61 161 L 61 5 Z"/></clipPath><clipPath id="XZmgqRUePxHl"><path fill="none" stroke="none" d=" M 61 5 L 320 5 L 320 161 L 61 161 L 61 5 Z"/></clipPath><clipPath id="qoRJzWpBsKAl"><path fill="none" stroke="none" d=" M 61 5 L 320 5 L 320 161 L 61 161 L 61 5 Z"/></clipPath><clipPath id="OHPvnseLIhOA"><path fill="none" stroke="none" d=" M 61 5 L 320 5 L 320 161 L 61 161 L 61 5 Z"/></clipPath><clipPath id="BKyMkObHHQFR"><path fill="none" stroke="none" d=" M 61 5 L 320 5 L 320 161 L 61 161 L 61 5 Z"/></clipPath><clipPath id="TzzUEHczFZLJ"><path fill="none" stroke="none" d=" M 61 5 L 320 5 L 320 161 L 61 161 L 61 5 Z"/></clipPath><clipPath id="GAaxUmPHhOKp"><path fill="none" stroke="none" d=" M 61 5 L 320 5 L 320 161 L 61 161 L 61 5 Z"/></clipPath><clipPath id="fzlVMOLAznOu"><path fill="none" stroke="none" d=" M 61 5 L 320 5 L 320 161 L 61 161 L 61 5 Z"/></clipPath><clipPath id="KTSpdbKsQqns"><path fill="none" stroke="none" d=" M 61 5 L 320 5 L 320 161 L 61 161 L 61 5 Z"/></clipPath><clipPath id="rCnChAldsJoW"><path fill="none" stroke="none" d=" M 61 5 L 320 5 L 320 161 L 61 161 L 61 5 Z"/></clipPath><clipPath id="vvqFGTEoBDmX"><path fill="none" stroke="none" d=" M 61 5 L 320 5 L 320 161 L 61 161 L 61 5 Z"/></clipPath><clipPath id="aMNmKScavNsQ"><path fill="none" stroke="none" d=" M 61 5 L 320 5 L 320 161 L 61 161 L 61 5 Z"/></clipPath><clipPath id="FCDLnMQPTgsp"><path fill="none" stroke="none" d=" M 61 5 L 320 5 L 320 161 L 61 161 L 61 5 Z"/></clipPath><clipPath id="ruQoKkxFTzaX"><path fill="none" stroke="none" d=" M 61 5 L 320 5 L 320 161 L 61 161 L 61 5 Z"/></clipPath></defs><g><g transform="scale(1,1) translate(0.5,0.5)"><rect fill="#FFFFFF" stroke="none" x="0" y="0" width="350" height="210"/><rect fill="#ffffff" stroke="none" x="0" y="0" width="350" height="210"/><rect fill="#FFFFFF" stroke="none" x="61" y="5" width="259" height="156"/><rect fill="#efefef" stroke="none" x="61" y="5" width="259" height="156"/><g><rect fill="none" stroke="#e5e5e5" x="61" y="5" width="259" height="156" stroke-linejoin="bevel" stroke-miterlimit="10"/></g><g clip-path="url(#clIHKmKTfiOM)"><g><g/></g></g><g clip-path="url(#TtJdUUVMQESn)"><g><g><path fill="none" stroke="white" paint-order="fill stroke markers" d=" M 61 146 L 320 146" stroke-linejoin="bevel" stroke-miterlimit="10"/><path fill="none" stroke="white" paint-order="fill stroke markers" d=" M 61 102 L 320 102" stroke-linejoin="bevel" stroke-miterlimit="10"/><path fill="none" stroke="white" paint-order="fill stroke markers" d=" M 61 57 L 320 57" stroke-linejoin="bevel" stroke-miterlimit="10"/><path fill="none" stroke="white" paint-order="fill stroke markers" d=" M 61 12 L 320 12" stroke-linejoin="bevel" stroke-miterlimit="10"/></g></g></g><g clip-path="url(#EWRgliglPTMf)"><g><g><path fill="none" stroke="none"/><rect fill="#1f77b4" stroke="none" x="79.80578512396694" y="53.603493284295155" width="7.3388429752066315" height="0.35726213536634077"/><rect fill="#1f77b4" stroke="none" x="263.2768595041323" y="153.55182877372442" width="7.338842975206603" height="0.35726213536645446"/><path fill="none" stroke="black" paint-order="fill stroke markers" d=" M 79.80578512396694 53.603493284295155 L 87.14462809917357 53.603493284295155 L 87.14462809917357 53.960755419661496 L 79.80578512396694 53.960755419661496 L 79.80578512396694 53.603493284295155 Z" stroke-linejoin="bevel" stroke-miterlimit="10"/><path fill="none" stroke="black" paint-order="fill stroke markers" d=" M 263.2768595041323 153.55182877372442 L 270.6157024793389 153.55182877372442 L 270.6157024793389 153.90909090909088 L 263.2768595041323 153.90909090909088 L 263.2768595041323 153.55182877372442 Z" stroke-linejoin="bevel" stroke-miterlimit="10"/><path fill="none" stroke="black" paint-order="fill stroke markers" d="" stroke-linejoin="bevel" stroke-miterlimit="10"/></g></g></g><g clip-path="url(#DWbRxDQawdny)"><g><g><path fill="none" stroke="none"/><rect fill="#1f77b4" stroke="none" x="79.80578512396694" y="31.27460982389084" width="7.3388429752066315" height="0.35726213536645446"/><rect fill="#1f77b4" stroke="none" x="263.2768595041323" y="27.021489164766194" width="7.338842975206603" height="0.35726213536645446"/><path fill="none" stroke="black" paint-order="fill stroke markers" d=" M 79.80578512396694 31.27460982389084 L 87.14462809917357 31.27460982389084 L 87.14462809917357 31.631871959257296 L 79.80578512396694 31.631871959257296 L 79.80578512396694 31.27460982389084 Z" stroke-linejoin="bevel" stroke-miterlimit="10"/><path fill="none" stroke="black" paint-order="fill stroke markers" d=" M 263.2768595041323 27.021489164766194 L 270.6157024793389 27.021489164766194 L 270.6157024793389 27.37875130013265 L 263.2768595041323 27.37875130013265 L 263.2768595041323 27.021489164766194 Z" stroke-linejoin="bevel" stroke-miterlimit="10"/><path fill="none" stroke="black" paint-order="fill stroke markers" d="" stroke-linejoin="bevel" stroke-miterlimit="10"/></g></g></g><g clip-path="url(#WtyUUOFJOfQF)"><g><g><path fill="none" stroke="none"/><path fill="none" stroke="black" paint-order="fill stroke markers" d=" M 83.47520661157026 53.78212435197838 L 83.47520661157026 44.2126028689479" stroke-linejoin="bevel" stroke-miterlimit="10"/><path fill="none" stroke="black" paint-order="fill stroke markers" d=" M 266.9462809917356 153.73045984140765 L 266.9462809917356 86.74380946019437" stroke-linejoin="bevel" stroke-miterlimit="10"/></g></g></g><g clip-path="url(#XZmgqRUePxHl)"><g><g><path fill="none" stroke="none"/><path fill="none" stroke="black" paint-order="fill stroke markers" d=" M 83.47520661157026 37.83292188026098 L 83.47520661157026 31.45324089157407" stroke-linejoin="bevel" stroke-miterlimit="10"/><path fill="none" stroke="black" paint-order="fill stroke markers" d=" M 266.9462809917356 42.08604253938563 L 266.9462809917356 27.20012023244942" stroke-linejoin="bevel" stroke-miterlimit="10"/></g></g></g><g clip-path="url(#qoRJzWpBsKAl)"><g><g><path fill="none" stroke="none"/><path fill="#F9A555" stroke="none" paint-order="stroke fill markers" d=" M 72.77272727272728 44.2126028689479 L 94.17768595041323 44.2126028689479 L 94.17768595041323 44.2126028689479 L 72.77272727272728 44.2126028689479 L 72.77272727272728 44.2126028689479 Z"/><path fill="none" stroke="black" paint-order="fill stroke markers" d=" M 72.77272727272728 44.2126028689479 L 94.17768595041323 44.2126028689479 L 94.17768595041323 44.2126028689479 L 72.77272727272728 44.2126028689479 L 72.77272727272728 44.2126028689479 Z" stroke-linejoin="bevel" stroke-miterlimit="10"/><path fill="#F9A555" stroke="none" paint-order="stroke fill markers" d=" M 256.2438016528926 56.97196484632195 L 277.64876033057857 56.97196484632195 L 277.64876033057857 86.74380946019437 L 256.2438016528926 86.74380946019437 L 256.2438016528926 56.97196484632195 Z"/><path fill="none" stroke="black" paint-order="fill stroke markers" d=" M 256.2438016528926 56.97196484632195 L 277.64876033057857 56.97196484632195 L 277.64876033057857 86.74380946019437 L 256.2438016528926 86.74380946019437 L 256.2438016528926 56.97196484632195 Z" stroke-linejoin="bevel" stroke-miterlimit="10"/></g></g></g><g clip-path="url(#OHPvnseLIhOA)"><g><g><path fill="none" stroke="none"/><path fill="#F9A555" stroke="none" paint-order="stroke fill markers" d=" M 72.77272727272728 44.2126028689479 L 94.17768595041323 44.2126028689479 L 94.17768595041323 37.83292188026098 L 72.77272727272728 37.83292188026098 L 72.77272727272728 44.2126028689479 Z"/><path fill="none" stroke="black" paint-order="fill stroke markers" d=" M 72.77272727272728 44.2126028689479 L 94.17768595041323 44.2126028689479 L 94.17768595041323 37.83292188026098 L 72.77272727272728 37.83292188026098 L 72.77272727272728 44.2126028689479 Z" stroke-linejoin="bevel" stroke-miterlimit="10"/><path fill="#F9A555" stroke="none" paint-order="stroke fill markers" d=" M 256.2438016528926 56.97196484632195 L 277.64876033057857 56.97196484632195 L 277.64876033057857 42.08604253938563 L 256.2438016528926 42.08604253938563 L 256.2438016528926 56.97196484632195 Z"/><path fill="none" stroke="black" paint-order="fill stroke markers" d=" M 256.2438016528926 56.97196484632195 L 277.64876033057857 56.97196484632195 L 277.64876033057857 42.08604253938563 L 256.2438016528926 42.08604253938563 L 256.2438016528926 56.97196484632195 Z" stroke-linejoin="bevel" stroke-miterlimit="10"/></g></g></g><g clip-path="url(#BKyMkObHHQFR)"><g><g><path fill="none" stroke="none"/><path fill="orange" stroke="orange" paint-order="fill stroke markers" d=" M 85.47520661157026 56.97196484632195 A 2 2 0 1 1 85.47520561157035 56.96996484665529" stroke-linejoin="bevel" stroke-miterlimit="10"/><path fill="orange" stroke="orange" paint-order="fill stroke markers" d=" M 85.47520661157026 56.97196484632195 A 2 2 0 1 1 85.47520561157035 56.96996484665529" stroke-linejoin="bevel" stroke-miterlimit="10"/><path fill="orange" stroke="orange" paint-order="fill stroke markers" d=" M 85.47520661157026 56.97196484632195 A 2 2 0 1 1 85.47520561157035 56.96996484665529" stroke-linejoin="bevel" stroke-miterlimit="10"/><path fill="orange" stroke="orange" paint-order="fill stroke markers" d=" M 85.47520661157026 63.35164583500887 A 2 2 0 1 1 85.47520561157035 63.3496458353422" stroke-linejoin="bevel" stroke-miterlimit="10"/><path fill="orange" stroke="orange" paint-order="fill stroke markers" d=" M 85.47520661157026 56.97196484632195 A 2 2 0 1 1 85.47520561157035 56.96996484665529" stroke-linejoin="bevel" stroke-miterlimit="10"/></g></g></g><g clip-path="url(#TzzUEHczFZLJ)"><g><g><path fill="none" stroke="none"/><rect fill="#1f77b4" stroke="none" x="110.38429752066118" y="71.63459831865407" width="7.338842975206603" height="0.4465776692080681"/><rect fill="#1f77b4" stroke="none" x="293.8553719008265" y="135.75857133314867" width="7.338842975206603" height="0.4465776692080681"/><path fill="none" stroke="black" paint-order="fill stroke markers" d=" M 110.38429752066118 71.63459831865407 L 117.72314049586778 71.63459831865407 L 117.72314049586778 72.08117598786214 L 110.38429752066118 72.08117598786214 L 110.38429752066118 71.63459831865407 Z" stroke-linejoin="bevel" stroke-miterlimit="10"/><path fill="none" stroke="black" paint-order="fill stroke markers" d=" M 293.8553719008265 135.75857133314867 L 301.19421487603313 135.75857133314867 L 301.19421487603313 136.20514900235673 L 293.8553719008265 136.20514900235673 L 293.8553719008265 135.75857133314867 Z" stroke-linejoin="bevel" stroke-miterlimit="10"/><path fill="none" stroke="black" paint-order="fill stroke markers" d="" stroke-linejoin="bevel" stroke-miterlimit="10"/></g></g></g><g clip-path="url(#GAaxUmPHhOKp)"><g><g><path fill="none" stroke="none"/><rect fill="#1f77b4" stroke="none" x="110.38429752066118" y="35.90838478200703" width="7.338842975206603" height="0.4465776692080681"/><rect fill="#1f77b4" stroke="none" x="293.8553719008265" y="12.090909090909008" width="7.338842975206603" height="0.4465776692080681"/><path fill="none" stroke="black" paint-order="fill stroke markers" d=" M 110.38429752066118 35.90838478200703 L 117.72314049586778 35.90838478200703 L 117.72314049586778 36.3549624512151 L 110.38429752066118 36.3549624512151 L 110.38429752066118 35.90838478200703 Z" stroke-linejoin="bevel" stroke-miterlimit="10"/><path fill="none" stroke="black" paint-order="fill stroke markers" d=" M 293.8553719008265 12.090909090909008 L 301.19421487603313 12.090909090909008 L 301.19421487603313 12.537486760117076 L 293.8553719008265 12.537486760117076 L 293.8553719008265 12.090909090909008 Z" stroke-linejoin="bevel" stroke-miterlimit="10"/><path fill="none" stroke="black" paint-order="fill stroke markers" d="" stroke-linejoin="bevel" stroke-miterlimit="10"/></g></g></g><g clip-path="url(#fzlVMOLAznOu)"><g><g><path fill="none" stroke="none"/><path fill="none" stroke="black" paint-order="fill stroke markers" d=" M 114.05371900826448 71.85788715325805 L 114.05371900826448 59.94914930770915" stroke-linejoin="bevel" stroke-miterlimit="10"/><path fill="none" stroke="black" paint-order="fill stroke markers" d=" M 297.5247933884298 135.98186016775276 L 297.5247933884298 101.62973176713058" stroke-linejoin="bevel" stroke-miterlimit="10"/></g></g></g><g clip-path="url(#KTSpdbKsQqns)"><g><g><path fill="none" stroke="none"/><path fill="none" stroke="black" paint-order="fill stroke markers" d=" M 114.05371900826448 48.04041146216014 L 114.05371900826448 36.13167361661101" stroke-linejoin="bevel" stroke-miterlimit="10"/><path fill="none" stroke="black" paint-order="fill stroke markers" d=" M 297.5247933884298 53.536752006259576 L 297.5247933884298 12.314197925513099" stroke-linejoin="bevel" stroke-miterlimit="10"/></g></g></g><g clip-path="url(#rCnChAldsJoW)"><g><g><path fill="none" stroke="none"/><path fill="#4FA8E5" stroke="none" paint-order="stroke fill markers" d=" M 103.35123966942152 53.99478038493453 L 124.75619834710744 53.99478038493453 L 124.75619834710744 59.94914930770915 L 103.35123966942152 59.94914930770915 L 103.35123966942152 53.99478038493453 Z"/><path fill="none" stroke="black" paint-order="fill stroke markers" d=" M 103.35123966942152 53.99478038493453 L 124.75619834710744 53.99478038493453 L 124.75619834710744 59.94914930770915 L 103.35123966942152 59.94914930770915 L 103.35123966942152 53.99478038493453 Z" stroke-linejoin="bevel" stroke-miterlimit="10"/><path fill="#4FA8E5" stroke="none" paint-order="stroke fill markers" d=" M 286.8223140495869 74.14802904663293 L 308.22727272727275 74.14802904663293 L 308.22727272727275 101.62973176713058 L 286.8223140495869 101.62973176713058 L 286.8223140495869 74.14802904663293 Z"/><path fill="none" stroke="black" paint-order="fill stroke markers" d=" M 286.8223140495869 74.14802904663293 L 308.22727272727275 74.14802904663293 L 308.22727272727275 101.62973176713058 L 286.8223140495869 101.62973176713058 L 286.8223140495869 74.14802904663293 Z" stroke-linejoin="bevel" stroke-miterlimit="10"/></g></g></g><g clip-path="url(#vvqFGTEoBDmX)"><g><g><path fill="none" stroke="none"/><path fill="#4FA8E5" stroke="none" paint-order="stroke fill markers" d=" M 103.35123966942152 53.99478038493453 L 124.75619834710744 53.99478038493453 L 124.75619834710744 48.04041146216014 L 103.35123966942152 48.04041146216014 L 103.35123966942152 53.99478038493453 Z"/><path fill="none" stroke="black" paint-order="fill stroke markers" d=" M 103.35123966942152 53.99478038493453 L 124.75619834710744 53.99478038493453 L 124.75619834710744 48.04041146216014 L 103.35123966942152 48.04041146216014 L 103.35123966942152 53.99478038493453 Z" stroke-linejoin="bevel" stroke-miterlimit="10"/><path fill="#4FA8E5" stroke="none" paint-order="stroke fill markers" d=" M 286.8223140495869 74.14802904663293 L 308.22727272727275 74.14802904663293 L 308.22727272727275 53.536752006259576 L 286.8223140495869 53.536752006259576 L 286.8223140495869 74.14802904663293 Z"/><path fill="none" stroke="black" paint-order="fill stroke markers" d=" M 286.8223140495869 74.14802904663293 L 308.22727272727275 74.14802904663293 L 308.22727272727275 53.536752006259576 L 286.8223140495869 53.536752006259576 L 286.8223140495869 74.14802904663293 Z" stroke-linejoin="bevel" stroke-miterlimit="10"/></g></g></g><g clip-path="url(#aMNmKScavNsQ)"><g><g><path fill="none" stroke="none"/></g></g></g><g clip-path="url(#FCDLnMQPTgsp)"><g><g/><g><path fill="#ffffff" stroke="#e5e5e5" paint-order="fill stroke markers" d=" M 146.4296875 88 L 234.5703125 88 L 234.5703125 151 L 146.4296875 151 L 146.4296875 88 Z" fill-opacity="0.95" stroke-linejoin="bevel" stroke-miterlimit="10" stroke-opacity="0.5"/><text fill="#444444" stroke="none" font-family="helvetica" font-size="8pt" font-style="normal" font-weight="normal" text-decoration="normal" x="181.4296875" y="108" text-anchor="start" dominant-baseline="central">SMOTE</text><rect fill="#F9A555" stroke="none" x="158.4296875" y="100" width="16" height="16"/><path fill="none" stroke="black" paint-order="fill stroke markers" d=" M 158.4296875 100 L 174.4296875 100 L 174.4296875 116 L 158.4296875 116 L 158.4296875 100 Z" stroke-linejoin="bevel" stroke-miterlimit="10"/><text fill="#444444" stroke="none" font-family="helvetica" font-size="8pt" font-style="normal" font-weight="normal" text-decoration="normal" x="181.4296875" y="131" text-anchor="start" dominant-baseline="central">GAN</text><rect fill="#4FA8E5" stroke="none" x="158.4296875" y="123" width="16" height="16"/><path fill="none" stroke="black" paint-order="fill stroke markers" d=" M 158.4296875 123 L 174.4296875 123 L 174.4296875 139 L 158.4296875 139 L 158.4296875 123 Z" stroke-linejoin="bevel" stroke-miterlimit="10"/></g></g></g><g/><g/><g><g fill="#444444"><path fill="none" stroke="black" paint-order="fill stroke markers" d=" M 61 161 L 320 161" stroke-linejoin="bevel" stroke-miterlimit="10"/><path fill="none" stroke="black" paint-order="fill stroke markers" d=" M 102 167 L 102 159" stroke-linejoin="bevel" stroke-miterlimit="10"/><path fill="" stroke="black" paint-order="fill stroke markers" d=" M 285 167 L 285 159" stroke-linejoin="bevel" stroke-miterlimit="10"/><g transform="translate(102,172) rotate(0,0,0)"><text fill="" stroke="none" font-family="helvetica" font-size="8pt" font-style="normal" font-weight="normal" text-decoration="normal" x="0" y="0" text-anchor="middle" dominant-baseline="hanging">Treino</text><g transform="rotate(0,0,0) translate(-102,-172) translate(285,172) rotate(0,0,0)"><text fill="" stroke="none" font-family="helvetica" font-size="8pt" font-style="normal" font-weight="normal" text-decoration="normal" x="0" y="0" text-anchor="middle" dominant-baseline="hanging">Teste</text><g transform="rotate(0,0,0) translate(-285,-172) translate(191,192) rotate(0,0,0)"><text fill="" stroke="none" font-family="helvetica" font-size="10pt" font-style="italic" font-weight="normal" text-decoration="normal" x="0" y="0" text-anchor="middle" dominant-baseline="hanging">Conjunto de dados aumentados</text><g transform="rotate(0,0,0) translate(-191,-192)"/></g></g></g></g></g><g><g fill="#444444"><path fill="none" stroke="black" paint-order="fill stroke markers" d=" M 61 161 L 61 5" stroke-linejoin="bevel" stroke-miterlimit="10"/><path fill="none" stroke="black" paint-order="fill stroke markers" d=" M 55 146 L 63 146" stroke-linejoin="bevel" stroke-miterlimit="10"/><path fill="none" stroke="black" paint-order="fill stroke markers" d=" M 55 102 L 63 102" stroke-linejoin="bevel" stroke-miterlimit="10"/><path fill="none" stroke="black" paint-order="fill stroke markers" d=" M 55 57 L 63 57" stroke-linejoin="bevel" stroke-miterlimit="10"/><path fill="none" stroke="black" paint-order="fill stroke markers" d=" M 55 12 L 63 12" stroke-linejoin="bevel" stroke-miterlimit="10"/><path fill="none" stroke="black" paint-order="fill stroke markers" d=" M 57 155 L 61 155" stroke-linejoin="bevel" stroke-miterlimit="10"/><path fill="none" stroke="black" paint-order="fill stroke markers" d=" M 57 146 L 61 146" stroke-linejoin="bevel" stroke-miterlimit="10"/><path fill="none" stroke="black" paint-order="fill stroke markers" d=" M 57 137 L 61 137" stroke-linejoin="bevel" stroke-miterlimit="10"/><path fill="none" stroke="black" paint-order="fill stroke markers" d=" M 57 128 L 61 128" stroke-linejoin="bevel" stroke-miterlimit="10"/><path fill="none" stroke="black" paint-order="fill stroke markers" d=" M 57 119 L 61 119" stroke-linejoin="bevel" stroke-miterlimit="10"/><path fill="none" stroke="black" paint-order="fill stroke markers" d=" M 57 111 L 61 111" stroke-linejoin="bevel" stroke-miterlimit="10"/><path fill="none" stroke="black" paint-order="fill stroke markers" d=" M 57 102 L 61 102" stroke-linejoin="bevel" stroke-miterlimit="10"/><path fill="none" stroke="black" paint-order="fill stroke markers" d=" M 57 93 L 61 93" stroke-linejoin="bevel" stroke-miterlimit="10"/><path fill="none" stroke="black" paint-order="fill stroke markers" d=" M 57 84 L 61 84" stroke-linejoin="bevel" stroke-miterlimit="10"/><path fill="none" stroke="black" paint-order="fill stroke markers" d=" M 57 75 L 61 75" stroke-linejoin="bevel" stroke-miterlimit="10"/><path fill="none" stroke="black" paint-order="fill stroke markers" d=" M 57 66 L 61 66" stroke-linejoin="bevel" stroke-miterlimit="10"/><path fill="none" stroke="black" paint-order="fill stroke markers" d=" M 57 57 L 61 57" stroke-linejoin="bevel" stroke-miterlimit="10"/><path fill="none" stroke="black" paint-order="fill stroke markers" d=" M 57 48 L 61 48" stroke-linejoin="bevel" stroke-miterlimit="10"/><path fill="none" stroke="black" paint-order="fill stroke markers" d=" M 57 39 L 61 39" stroke-linejoin="bevel" stroke-miterlimit="10"/><path fill="none" stroke="black" paint-order="fill stroke markers" d=" M 57 30 L 61 30" stroke-linejoin="bevel" stroke-miterlimit="10"/><path fill="none" stroke="black" paint-order="fill stroke markers" d=" M 57 21 L 61 21" stroke-linejoin="bevel" stroke-miterlimit="10"/><path fill="" stroke="black" paint-order="fill stroke markers" d=" M 57 12 L 61 12" stroke-linejoin="bevel" stroke-miterlimit="10"/><g transform="translate(50,146) rotate(0,0,0)"><text fill="" stroke="none" font-family="helvetica" font-size="8pt" font-style="normal" font-weight="normal" text-decoration="normal" x="0" y="0" text-anchor="end" dominant-baseline="central">0.85</text><g transform="rotate(0,0,0) translate(-50,-146) translate(50,102) rotate(0,0,0)"><text fill="" stroke="none" font-family="helvetica" font-size="8pt" font-style="normal" font-weight="normal" text-decoration="normal" x="0" y="0" text-anchor="end" dominant-baseline="central">0.9</text><g transform="rotate(0,0,0) translate(-50,-102) translate(50,57) rotate(0,0,0)"><text fill="" stroke="none" font-family="helvetica" font-size="8pt" font-style="normal" font-weight="normal" text-decoration="normal" x="0" y="0" text-anchor="end" dominant-baseline="central">0.95</text><g transform="rotate(0,0,0) translate(-50,-57) translate(50,12) rotate(0,0,0)"><text fill="" stroke="none" font-family="helvetica" font-size="8pt" font-style="normal" font-weight="normal" text-decoration="normal" x="0" y="0" text-anchor="end" dominant-baseline="central">1</text><g transform="rotate(0,0,0) translate(-50,-12) translate(18,83) rotate(-90,0,0)"><text fill="" stroke="none" font-family="helvetica" font-size="10pt" font-style="italic" font-weight="normal" text-decoration="normal" x="0" y="0" text-anchor="middle" dominant-baseline="alphabetic">Pontuação Recall</text><g transform="rotate(90,0,0) translate(-18,-83)"/></g></g></g></g></g></g></g><g clip-path="url(#ruQoKkxFTzaX)"><g/></g></g></g></svg>