<svg version="1.1" xmlns="http://www.w3.org/2000/svg" xmlns:xlink="http://www.w3.org/1999/xlink" width="350" height="200"><defs><clipPath id="pKqDyOETUXbh"><path fill="none" stroke="none" d="M 29.5 5.5 L 320.5 5.5 L 320.5 174.5 L 29.5 174.5 L 29.5 5.5"/></clipPath><clipPath id="tQaBiZfXfKTr"><path fill="none" stroke="none" d="M 29.5 5.5 L 320.5 5.5 L 320.5 174.5 L 29.5 174.5 L 29.5 5.5"/></clipPath><clipPath id="bsHuRTsCizal"><path fill="none" stroke="none" d="M 29.5 5.5 L 320.5 5.5 L 320.5 174.5 L 29.5 174.5 L 29.5 5.5"/></clipPath><clipPath id="LfFGuTsGHhLx"><path fill="none" stroke="none" d="M 29.5 5.5 L 320.5 5.5 L 320.5 174.5 L 29.5 174.5 L 29.5 5.5"/></clipPath><clipPath id="MDWeJHhlATMH"><path fill="none" stroke="none" d="M 29.5 5.5 L 320.5 5.5 L 320.5 174.5 L 29.5 174.5 L 29.5 5.5"/></clipPath><clipPath id="soSRfMwVRIFh"><path fill="none" stroke="none" d="M 29.5 5.5 L 320.5 5.5 L 320.5 174.5 L 29.5 174.5 L 29.5 5.5"/></clipPath><clipPath id="aTCDTbJPQXsO"><path fill="none" stroke="none" d="M 29.5 5.5 L 320.5 5.5 L 320.5 174.5 L 29.5 174.5 L 29.5 5.5"/></clipPath><clipPath id="wfXnTqmBuFGB"><path fill="none" stroke="none" d="M 29.5 5.5 L 320.5 5.5 L 320.5 174.5 L 29.5 174.5 L 29.5 5.5"/></clipPath><clipPath id="mLTWHFZyCepB"><path fill="none" stroke="none" d="M 29.5 5.5 L 320.5 5.5 L 320.5 174.5 L 29.5 174.5 L 29.5 5.5"/></clipPath><clipPath id="wGfseEQWdVMP"><path fill="none" stroke="none" d="M 29.5 5.5 L 320.5 5.5 L 320.5 174.5 L 29.5 174.5 L 29.5 5.5"/></clipPath><clipPath id="ypKdLwmKtPwd"><path fill="none" stroke="none" d="M 29.5 5.5 L 320.5 5.5 L 320.5 174.5 L 29.5 174.5 L 29.5 5.5"/></clipPath></defs><path fill="rgb(255,255,255)" stroke="none" paint-order="stroke" d="M 0.5 0.5 L 350.5 0.5 L 350.5 200.5 L 0.5 200.5 L 0.5 0.5" fill-opacity="1"/><rect fill="#FFFFFF" stroke="none" x="29" y="5" width="291" height="169" transform="matrix(1, 0, 0, 1, 0.5, 0.5)"/><path fill="rgb(255,255,255)" stroke="none" paint-order="stroke" d="M 29.5 5.5 L 320.5 5.5 L 320.5 174.5 L 29.5 174.5 L 29.5 5.5" fill-opacity="1"/><path fill="none" stroke="rgb(229,229,229)" paint-order="fill" d="M 29.5 5.5 L 320.5 5.5 L 320.5 174.5 L 29.5 174.5 L 29.5 5.5" stroke-opacity="1" stroke-linejoin="bevel" stroke-miterlimit="10" stroke-dasharray=""/><path fill="none" stroke="rgb(229,229,229)" paint-order="fill" d="M 78.5 174.5 L 78.5 5.5 M 175.5 174.5 L 175.5 5.5 M 272.5 174.5 L 272.5 5.5" stroke-opacity="1" stroke-linejoin="bevel" stroke-miterlimit="10" stroke-dasharray="" clip-path="url(#pKqDyOETUXbh)"/><path fill="none" stroke="rgb(229,229,229)" paint-order="fill" d="M 29.5 161.5 L 320.5 161.5 M 29.5 144.5 L 320.5 144.5 M 29.5 127.5 L 320.5 127.5 M 29.5 110.5 L 320.5 110.5 M 29.5 93.5 L 320.5 93.5 M 29.5 75.5 L 320.5 75.5 M 29.5 58.5 L 320.5 58.5 M 29.5 41.5 L 320.5 41.5 M 29.5 24.5 L 320.5 24.5 M 29.5 7.5 L 320.5 7.5 M 29.5 -9.5 L 320.5 -9.5" stroke-opacity="1" stroke-linejoin="bevel" stroke-miterlimit="10" stroke-dasharray="" clip-path="url(#tQaBiZfXfKTr)"/><path fill="none" stroke="none"/><path fill="rgb(31,119,180)" stroke="rgb(0,0,0)" paint-order="fill" d="M 70.7249984741211 97.05661010742188 L 85.27499866485596 97.05661010742188 L 85.27499866485596 97.22801759839058 L 70.7249984741211 97.22801759839058 L 70.7249984741211 97.05661010742188" fill-opacity="1" clip-path="url(#bsHuRTsCizal)" stroke-opacity="1" stroke-linejoin="bevel" stroke-miterlimit="10" stroke-dasharray=""/><path fill="rgb(31,119,180)" stroke="rgb(0,0,0)" paint-order="fill" d="M 167.72499084472656 46.627220153808594 L 182.27499103546143 46.627220153808594 L 182.27499103546143 46.7986276447773 L 167.72499084472656 46.7986276447773 L 167.72499084472656 46.627220153808594" fill-opacity="1" clip-path="url(#bsHuRTsCizal)" stroke-opacity="1" stroke-linejoin="bevel" stroke-miterlimit="10" stroke-dasharray=""/><path fill="rgb(31,119,180)" stroke="rgb(0,0,0)" paint-order="fill" d="M 264.7250061035156 166.6467742919922 L 279.2750062942505 166.6467742919922 L 279.2750062942505 166.8181817829609 L 264.7250061035156 166.8181817829609 L 264.7250061035156 166.6467742919922" fill-opacity="1" clip-path="url(#bsHuRTsCizal)" stroke-opacity="1" stroke-linejoin="bevel" stroke-miterlimit="10" stroke-dasharray=""/><path fill="none" stroke="none"/><path fill="none" stroke="rgb(0,0,0)" paint-order="fill" d="M 78 97.1423110961914 L 78 81.00984191894531" stroke-opacity="1" stroke-linejoin="bevel" stroke-miterlimit="10" stroke-dasharray="" clip-path="url(#LfFGuTsGHhLx)"/><path fill="none" stroke="rgb(0,0,0)" paint-order="fill" d="M 175 46.712921142578125 L 175 36.1450080871582" stroke-opacity="1" stroke-linejoin="bevel" stroke-miterlimit="10" stroke-dasharray="" clip-path="url(#LfFGuTsGHhLx)"/><path fill="none" stroke="rgb(0,0,0)" paint-order="fill" d="M 272 166.73248291015625 L 272 164.44712829589844" stroke-opacity="1" stroke-linejoin="bevel" stroke-miterlimit="10" stroke-dasharray="" clip-path="url(#LfFGuTsGHhLx)"/><path fill="none" stroke="none"/><path fill="rgb(59,134,134)" stroke="none" paint-order="stroke" d="M 63.45000076293945 75.96844482421875 L 92.55000305175781 75.96844482421875 L 92.55000305175781 81.00984191894531 L 63.45000076293945 81.00984191894531 L 63.45000076293945 75.96844482421875" fill-opacity="1" clip-path="url(#MDWeJHhlATMH)"/><path fill="none" stroke="rgb(0,0,0)" paint-order="fill" d="M 63.45000076293945 75.96844482421875 L 92.55000305175781 75.96844482421875 L 92.55000305175781 81.00984191894531 L 63.45000076293945 81.00984191894531 L 63.45000076293945 75.96844482421875" stroke-opacity="1" stroke-linejoin="bevel" stroke-miterlimit="10" stroke-dasharray="" clip-path="url(#MDWeJHhlATMH)"/><path fill="rgb(59,134,134)" stroke="none" paint-order="stroke" d="M 160.4499969482422 29.619953155517578 L 189.5500030517578 29.619953155517578 L 189.5500030517578 36.1450080871582 L 160.4499969482422 36.1450080871582 L 160.4499969482422 29.619953155517578" fill-opacity="1" clip-path="url(#MDWeJHhlATMH)"/><path fill="none" stroke="rgb(0,0,0)" paint-order="fill" d="M 160.4499969482422 29.619953155517578 L 189.5500030517578 29.619953155517578 L 189.5500030517578 36.1450080871582 L 160.4499969482422 36.1450080871582 L 160.4499969482422 29.619953155517578" stroke-opacity="1" stroke-linejoin="bevel" stroke-miterlimit="10" stroke-dasharray="" clip-path="url(#MDWeJHhlATMH)"/><path fill="rgb(59,134,134)" stroke="none" paint-order="stroke" d="M 257.45001220703125 163.57395935058594 L 286.54998779296875 163.57395935058594 L 286.54998779296875 164.44712829589844 L 257.45001220703125 164.44712829589844 L 257.45001220703125 163.57395935058594" fill-opacity="1" clip-path="url(#MDWeJHhlATMH)"/><path fill="none" stroke="rgb(0,0,0)" paint-order="fill" d="M 257.45001220703125 163.57395935058594 L 286.54998779296875 163.57395935058594 L 286.54998779296875 164.44712829589844 L 257.45001220703125 164.44712829589844 L 257.45001220703125 163.57395935058594" stroke-opacity="1" stroke-linejoin="bevel" stroke-miterlimit="10" stroke-dasharray="" clip-path="url(#MDWeJHhlATMH)"/><path fill="none" stroke="none"/><path fill="rgb(224,142,121)" stroke="none" paint-order="stroke" d="M 63.45000076293945 70.25486755371094 L 92.55000305175781 70.25486755371094 L 92.55000305175781 75.96844482421875 L 63.45000076293945 75.96844482421875 L 63.45000076293945 70.25486755371094" fill-opacity="1" clip-path="url(#soSRfMwVRIFh)"/><path fill="none" stroke="rgb(0,0,0)" paint-order="fill" d="M 63.45000076293945 70.25486755371094 L 92.55000305175781 70.25486755371094 L 92.55000305175781 75.96844482421875 L 63.45000076293945 75.96844482421875 L 63.45000076293945 70.25486755371094" stroke-opacity="1" stroke-linejoin="bevel" stroke-miterlimit="10" stroke-dasharray="" clip-path="url(#soSRfMwVRIFh)"/><path fill="rgb(224,142,121)" stroke="none" paint-order="stroke" d="M 160.4499969482422 25.521873474121094 L 189.5500030517578 25.521873474121094 L 189.5500030517578 29.619953155517578 L 160.4499969482422 29.619953155517578 L 160.4499969482422 25.521873474121094" fill-opacity="1" clip-path="url(#soSRfMwVRIFh)"/><path fill="none" stroke="rgb(0,0,0)" paint-order="fill" d="M 160.4499969482422 25.521873474121094 L 189.5500030517578 25.521873474121094 L 189.5500030517578 29.619953155517578 L 160.4499969482422 29.619953155517578 L 160.4499969482422 25.521873474121094" stroke-opacity="1" stroke-linejoin="bevel" stroke-miterlimit="10" stroke-dasharray="" clip-path="url(#soSRfMwVRIFh)"/><path fill="rgb(224,142,121)" stroke="none" paint-order="stroke" d="M 257.45001220703125 162.68951416015625 L 286.54998779296875 162.68951416015625 L 286.54998779296875 163.57395935058594 L 257.45001220703125 163.57395935058594 L 257.45001220703125 162.68951416015625" fill-opacity="1" clip-path="url(#soSRfMwVRIFh)"/><path fill="none" stroke="rgb(0,0,0)" paint-order="fill" d="M 257.45001220703125 162.68951416015625 L 286.54998779296875 162.68951416015625 L 286.54998779296875 163.57395935058594 L 257.45001220703125 163.57395935058594 L 257.45001220703125 162.68951416015625" stroke-opacity="1" stroke-linejoin="bevel" stroke-miterlimit="10" stroke-dasharray="" clip-path="url(#soSRfMwVRIFh)"/><path fill="none" stroke="none"/><path fill="none" stroke="rgb(0,0,0)" paint-order="fill" d="M 78 70.25486755371094 L 78 54.12239456176758" stroke-opacity="1" stroke-linejoin="bevel" stroke-miterlimit="10" stroke-dasharray="" clip-path="url(#aTCDTbJPQXsO)"/><path fill="none" stroke="rgb(0,0,0)" paint-order="fill" d="M 175 25.521873474121094 L 175 13.267521858215332" stroke-opacity="1" stroke-linejoin="bevel" stroke-miterlimit="10" stroke-dasharray="" clip-path="url(#aTCDTbJPQXsO)"/><path fill="none" stroke="rgb(0,0,0)" paint-order="fill" d="M 272 162.68951416015625 L 272 160.05311584472656" stroke-opacity="1" stroke-linejoin="bevel" stroke-miterlimit="10" stroke-dasharray="" clip-path="url(#aTCDTbJPQXsO)"/><path fill="none" stroke="none"/><path fill="rgb(31,119,180)" stroke="rgb(0,0,0)" paint-order="fill" d="M 70.7249984741211 54.03668975830078 L 85.27499866485596 54.03668975830078 L 85.27499866485596 54.208097249269485 L 70.7249984741211 54.208097249269485 L 70.7249984741211 54.03668975830078" fill-opacity="1" clip-path="url(#wfXnTqmBuFGB)" stroke-opacity="1" stroke-linejoin="bevel" stroke-miterlimit="10" stroke-dasharray=""/><path fill="rgb(31,119,180)" stroke="rgb(0,0,0)" paint-order="fill" d="M 167.72499084472656 13.181818008422852 L 182.27499103546143 13.181818008422852 L 182.27499103546143 13.353225499391556 L 167.72499084472656 13.353225499391556 L 167.72499084472656 13.181818008422852" fill-opacity="1" clip-path="url(#wfXnTqmBuFGB)" stroke-opacity="1" stroke-linejoin="bevel" stroke-miterlimit="10" stroke-dasharray=""/><path fill="rgb(31,119,180)" stroke="rgb(0,0,0)" paint-order="fill" d="M 264.7250061035156 159.96742248535156 L 279.2750062942505 159.96742248535156 L 279.2750062942505 160.13882997632027 L 264.7250061035156 160.13882997632027 L 264.7250061035156 159.96742248535156" fill-opacity="1" clip-path="url(#wfXnTqmBuFGB)" stroke-opacity="1" stroke-linejoin="bevel" stroke-miterlimit="10" stroke-dasharray=""/><path fill="none" stroke="none"/><path fill="rgb(255,168,81)" stroke="rgb(255,128,0)" paint-order="fill" d="M 80 99.34219360351562 A 2 2 0 1 1 79.99999900000009 99.34019360384896" fill-opacity="1" clip-path="url(#mLTWHFZyCepB)" stroke-opacity="1" stroke-linejoin="bevel" stroke-miterlimit="10" stroke-dasharray=""/><path fill="rgb(255,168,81)" stroke="rgb(255,128,0)" paint-order="fill" d="M 80 47.40053176879883 A 2 2 0 1 1 79.99999900000009 47.39853176913216" fill-opacity="1" clip-path="url(#mLTWHFZyCepB)" stroke-opacity="1" stroke-linejoin="bevel" stroke-miterlimit="10" stroke-dasharray=""/><path fill="none" stroke="none"/><path fill="rgb(255,168,81)" stroke="rgb(255,128,0)" paint-order="fill" d="M 274 159.53123474121094 A 2 2 0 1 1 273.99999900000006 159.52923474154426" fill-opacity="1" clip-path="url(#wGfseEQWdVMP)" stroke-opacity="1" stroke-linejoin="bevel" stroke-miterlimit="10" stroke-dasharray=""/><path fill="rgb(255,168,81)" stroke="rgb(255,128,0)" paint-order="fill" d="M 274 159.19241333007812 A 2 2 0 1 1 273.99999900000006 159.19041333041145" fill-opacity="1" clip-path="url(#wGfseEQWdVMP)" stroke-opacity="1" stroke-linejoin="bevel" stroke-miterlimit="10" stroke-dasharray=""/><path fill="rgb(255,168,81)" stroke="rgb(255,128,0)" paint-order="fill" d="M 274 159.8692626953125 A 2 2 0 1 1 273.99999900000006 159.86726269564582" fill-opacity="1" clip-path="url(#wGfseEQWdVMP)" stroke-opacity="1" stroke-linejoin="bevel" stroke-miterlimit="10" stroke-dasharray=""/><path fill="rgb(255,168,81)" stroke="rgb(255,128,0)" paint-order="fill" d="M 274 159.56544494628906 A 2 2 0 1 1 273.99999900000006 159.56344494662238" fill-opacity="1" clip-path="url(#wGfseEQWdVMP)" stroke-opacity="1" stroke-linejoin="bevel" stroke-miterlimit="10" stroke-dasharray=""/><path fill="none" stroke="rgb(0,0,0)" paint-order="fill" d="M 29.5 174.5 L 320.5 174.5" stroke-opacity="1" stroke-linejoin="bevel" stroke-miterlimit="10" stroke-dasharray=""/><path fill="none" stroke="rgb(0,0,0)" paint-order="fill" d="M 78.5 180.5 L 78.5 172.5 M 175.5 180.5 L 175.5 172.5 M 272.5 180.5 L 272.5 172.5" stroke-opacity="1" stroke-linejoin="bevel" stroke-miterlimit="10" stroke-dasharray=""/><path fill="none" stroke="rgb(0,0,0)" paint-order="fill" d="" stroke-opacity="1" stroke-linejoin="bevel" stroke-miterlimit="10" stroke-dasharray=""/><text fill="rgb(68,68,68)" stroke="none" font-family="helvetica" font-size="11px" font-style="normal" font-weight="normal" text-decoration="normal" x="55.4892578125" y="195" text-anchor="start" dominant-baseline="alphabetic" transform="matrix(1, 0, 0, 1, 0.5, 0.5)" fill-opacity="1">precision</text><text fill="rgb(68,68,68)" stroke="none" font-family="helvetica" font-size="11px" font-style="normal" font-weight="normal" text-decoration="normal" x="153.71923828125" y="195" text-anchor="start" dominant-baseline="alphabetic" transform="matrix(1, 0, 0, 1, 0.5, 0.5)" fill-opacity="1">s_metric</text><text fill="rgb(68,68,68)" stroke="none" font-family="helvetica" font-size="11px" font-style="normal" font-weight="normal" text-decoration="normal" x="260.80078125" y="195" text-anchor="start" dominant-baseline="alphabetic" transform="matrix(1, 0, 0, 1, 0.5, 0.5)" fill-opacity="1">KLD</text><path fill="none" stroke="rgb(0,0,0)" paint-order="fill" d="M 29.5 174.5 L 29.5 5.5" stroke-opacity="1" stroke-linejoin="bevel" stroke-miterlimit="10" stroke-dasharray=""/><path fill="none" stroke="rgb(0,0,0)" paint-order="fill" d="M 23.5 161.5 L 31.5 161.5 M 23.5 144.5 L 31.5 144.5 M 23.5 127.5 L 31.5 127.5 M 23.5 110.5 L 31.5 110.5 M 23.5 93.5 L 31.5 93.5 M 23.5 75.5 L 31.5 75.5 M 23.5 58.5 L 31.5 58.5 M 23.5 41.5 L 31.5 41.5 M 23.5 24.5 L 31.5 24.5 M 23.5 7.5 L 31.5 7.5" stroke-opacity="1" stroke-linejoin="bevel" stroke-miterlimit="10" stroke-dasharray=""/><path fill="none" stroke="rgb(0,0,0)" paint-order="fill" d="" stroke-opacity="1" stroke-linejoin="bevel" stroke-miterlimit="10" stroke-dasharray=""/><text fill="rgb(68,68,68)" stroke="none" font-family="helvetica" font-size="11px" font-style="normal" font-weight="normal" text-decoration="normal" x="11.88232421875" y="165.1721954345703" text-anchor="start" dominant-baseline="alphabetic" transform="matrix(1, 0, 0, 1, 0.5, 0.5)" fill-opacity="1">0</text><text fill="rgb(68,68,68)" stroke="none" font-family="helvetica" font-size="11px" font-style="normal" font-weight="normal" text-decoration="normal" x="2.70849609375" y="148.0314483642578" text-anchor="start" dominant-baseline="alphabetic" transform="matrix(1, 0, 0, 1, 0.5, 0.5)" fill-opacity="1">0.1</text><text fill="rgb(68,68,68)" stroke="none" font-family="helvetica" font-size="11px" font-style="normal" font-weight="normal" text-decoration="normal" x="2.70849609375" y="130.89069366455078" text-anchor="start" dominant-baseline="alphabetic" transform="matrix(1, 0, 0, 1, 0.5, 0.5)" fill-opacity="1">0.2</text><text fill="rgb(68,68,68)" stroke="none" font-family="helvetica" font-size="11px" font-style="normal" font-weight="normal" text-decoration="normal" x="2.70849609375" y="113.74994659423828" text-anchor="start" dominant-baseline="alphabetic" transform="matrix(1, 0, 0, 1, 0.5, 0.5)" fill-opacity="1">0.3</text><text fill="rgb(68,68,68)" stroke="none" font-family="helvetica" font-size="11px" font-style="normal" font-weight="normal" text-decoration="normal" x="2.70849609375" y="96.60919952392578" text-anchor="start" dominant-baseline="alphabetic" transform="matrix(1, 0, 0, 1, 0.5, 0.5)" fill-opacity="1">0.4</text><text fill="rgb(68,68,68)" stroke="none" font-family="helvetica" font-size="11px" font-style="normal" font-weight="normal" text-decoration="normal" x="2.70849609375" y="79.46844482421875" text-anchor="start" dominant-baseline="alphabetic" transform="matrix(1, 0, 0, 1, 0.5, 0.5)" fill-opacity="1">0.5</text><text fill="rgb(68,68,68)" stroke="none" font-family="helvetica" font-size="11px" font-style="normal" font-weight="normal" text-decoration="normal" x="2.70849609375" y="62.32769775390625" text-anchor="start" dominant-baseline="alphabetic" transform="matrix(1, 0, 0, 1, 0.5, 0.5)" fill-opacity="1">0.6</text><text fill="rgb(68,68,68)" stroke="none" font-family="helvetica" font-size="11px" font-style="normal" font-weight="normal" text-decoration="normal" x="2.70849609375" y="45.18695068359375" text-anchor="start" dominant-baseline="alphabetic" transform="matrix(1, 0, 0, 1, 0.5, 0.5)" fill-opacity="1">0.7</text><text fill="rgb(68,68,68)" stroke="none" font-family="helvetica" font-size="11px" font-style="normal" font-weight="normal" text-decoration="normal" x="2.70849609375" y="28.046201705932617" text-anchor="start" dominant-baseline="alphabetic" transform="matrix(1, 0, 0, 1, 0.5, 0.5)" fill-opacity="1">0.8</text><text fill="rgb(68,68,68)" stroke="none" font-family="helvetica" font-size="11px" font-style="normal" font-weight="normal" text-decoration="normal" x="2.70849609375" y="10.905452728271484" text-anchor="start" dominant-baseline="alphabetic" transform="matrix(1, 0, 0, 1, 0.5, 0.5)" fill-opacity="1">0.9</text></svg>