<svg version="1.1" xmlns="http://www.w3.org/2000/svg" xmlns:xlink="http://www.w3.org/1999/xlink" width="300" height="250"><defs><clipPath id="VfSVLSbOKGtu"><path fill="none" stroke="none" d="M 59.5 5.5 L 270.5 5.5 L 270.5 198.5 L 59.5 198.5 L 59.5 5.5"/></clipPath><clipPath id="AHODykpEThNx"><path fill="none" stroke="none" d="M 59.5 5.5 L 270.5 5.5 L 270.5 198.5 L 59.5 198.5 L 59.5 5.5"/></clipPath><clipPath id="MqXncDQbRJhc"><path fill="none" stroke="none" d="M 59.5 5.5 L 270.5 5.5 L 270.5 198.5 L 59.5 198.5 L 59.5 5.5"/></clipPath><clipPath id="GXaPOsJETqeV"><path fill="none" stroke="none" d="M 59.5 5.5 L 270.5 5.5 L 270.5 198.5 L 59.5 198.5 L 59.5 5.5"/></clipPath><clipPath id="kvzKKHfRDONd"><path fill="none" stroke="none" d="M 59.5 5.5 L 270.5 5.5 L 270.5 198.5 L 59.5 198.5 L 59.5 5.5"/></clipPath><clipPath id="ZpIblMaUHeKc"><path fill="none" stroke="none" d="M 59.5 5.5 L 270.5 5.5 L 270.5 198.5 L 59.5 198.5 L 59.5 5.5"/></clipPath><clipPath id="HcZhPwNerSMC"><path fill="none" stroke="none" d="M 59.5 5.5 L 270.5 5.5 L 270.5 198.5 L 59.5 198.5 L 59.5 5.5"/></clipPath><clipPath id="ksxDmAHeToBS"><path fill="none" stroke="none" d="M 59.5 5.5 L 270.5 5.5 L 270.5 198.5 L 59.5 198.5 L 59.5 5.5"/></clipPath><clipPath id="KtRtQiJHTkJT"><path fill="none" stroke="none" d="M 59.5 5.5 L 270.5 5.5 L 270.5 198.5 L 59.5 198.5 L 59.5 5.5"/></clipPath></defs><path fill="rgb(255,255,255)" stroke="none" paint-order="stroke" d="M 0.5 0.5 L 300.5 0.5 L 300.5 250.5 L 0.5 250.5 L 0.5 0.5" fill-opacity="1"/><rect fill="#FFFFFF" stroke="none" x="59" y="5" width="211" height="193" transform="matrix(1, 0, 0, 1, 0.5, 0.5)"/><path fill="rgb(239,239,239)" stroke="none" paint-order="stroke" d="M 59.5 5.5 L 270.5 5.5 L 270.5 198.5 L 59.5 198.5 L 59.5 5.5" fill-opacity="1"/><path fill="none" stroke="rgb(229,229,229)" paint-order="fill" d="M 59.5 5.5 L 270.5 5.5 L 270.5 198.5 L 59.5 198.5 L 59.5 5.5" stroke-opacity="1" stroke-linejoin="bevel" stroke-miterlimit="10" stroke-dasharray=""/><path fill="none" stroke="rgb(255,255,255)" paint-order="fill" d="M 59.5 191.5 L 270.5 191.5 M 59.5 166.5 L 270.5 166.5 M 59.5 140.5 L 270.5 140.5 M 59.5 115.5 L 270.5 115.5 M 59.5 90.5 L 270.5 90.5 M 59.5 65.5 L 270.5 65.5 M 59.5 39.5 L 270.5 39.5 M 59.5 14.5 L 270.5 14.5" stroke-opacity="1" stroke-linejoin="bevel" stroke-miterlimit="10" stroke-dasharray="" clip-path="url(#AHODykpEThNx)"/><path fill="none" stroke="none"/><path fill="rgb(31,119,180)" stroke="rgb(0,0,0)" paint-order="fill" d="M 105.91999816894531 68.98592376708984 L 118.57999801635742 68.98592376708984 L 118.57999801635742 69.61722993850708 L 105.91999816894531 69.61722993850708 L 105.91999816894531 68.98592376708984" fill-opacity="1" clip-path="url(#MqXncDQbRJhc)" stroke-opacity="1" stroke-linejoin="bevel" stroke-miterlimit="10" stroke-dasharray=""/><path fill="rgb(31,119,180)" stroke="rgb(0,0,0)" paint-order="fill" d="M 211.42001342773438 189.09596252441406 L 224.08001327514648 189.09596252441406 L 224.08001327514648 189.7272686958313 L 211.42001342773438 189.7272686958313 L 211.42001342773438 189.09596252441406" fill-opacity="1" clip-path="url(#MqXncDQbRJhc)" stroke-opacity="1" stroke-linejoin="bevel" stroke-miterlimit="10" stroke-dasharray=""/><path fill="none" stroke="none"/><path fill="rgb(31,119,180)" stroke="rgb(0,0,0)" paint-order="fill" d="M 105.91999816894531 35.31626510620117 L 118.57999801635742 35.31626510620117 L 118.57999801635742 35.94757127761841 L 105.91999816894531 35.94757127761841 L 105.91999816894531 35.31626510620117" fill-opacity="1" clip-path="url(#GXaPOsJETqeV)" stroke-opacity="1" stroke-linejoin="bevel" stroke-miterlimit="10" stroke-dasharray=""/><path fill="rgb(31,119,180)" stroke="rgb(0,0,0)" paint-order="fill" d="M 211.42001342773438 14.272727012634277 L 224.08001327514648 14.272727012634277 L 224.08001327514648 14.904033184051514 L 211.42001342773438 14.904033184051514 L 211.42001342773438 14.272727012634277" fill-opacity="1" clip-path="url(#GXaPOsJETqeV)" stroke-opacity="1" stroke-linejoin="bevel" stroke-miterlimit="10" stroke-dasharray=""/><path fill="none" stroke="none"/><path fill="none" stroke="rgb(0,0,0)" paint-order="fill" d="M 112.25 69.30158233642578 L 112.25 56.67545700073242" stroke-opacity="1" stroke-linejoin="bevel" stroke-miterlimit="10" stroke-dasharray="" clip-path="url(#kvzKKHfRDONd)"/><path fill="none" stroke="rgb(0,0,0)" paint-order="fill" d="M 217.75 189.41162109375 L 217.75 131.13720703125" stroke-opacity="1" stroke-linejoin="bevel" stroke-miterlimit="10" stroke-dasharray="" clip-path="url(#kvzKKHfRDONd)"/><path fill="none" stroke="none"/><path fill="none" stroke="rgb(0,0,0)" paint-order="fill" d="M 112.25 48.25804138183594 L 112.25 35.631919860839844" stroke-opacity="1" stroke-linejoin="bevel" stroke-miterlimit="10" stroke-dasharray="" clip-path="url(#ZpIblMaUHeKc)"/><path fill="none" stroke="rgb(0,0,0)" paint-order="fill" d="M 217.75 72.86279296875 L 217.75 14.588380813598633" stroke-opacity="1" stroke-linejoin="bevel" stroke-miterlimit="10" stroke-dasharray="" clip-path="url(#ZpIblMaUHeKc)"/><path fill="none" stroke="none"/><path fill="rgb(224,142,121)" stroke="none" paint-order="stroke" d="M 93.7874984741211 48.25804138183594 L 130.71249389648438 48.25804138183594 L 130.71249389648438 56.67545700073242 L 93.7874984741211 56.67545700073242 L 93.7874984741211 48.25804138183594" fill-opacity="1" clip-path="url(#HcZhPwNerSMC)"/><path fill="none" stroke="rgb(0,0,0)" paint-order="fill" d="M 93.7874984741211 48.25804138183594 L 130.71249389648438 48.25804138183594 L 130.71249389648438 56.67545700073242 L 93.7874984741211 56.67545700073242 L 93.7874984741211 48.25804138183594" stroke-opacity="1" stroke-linejoin="bevel" stroke-miterlimit="10" stroke-dasharray="" clip-path="url(#HcZhPwNerSMC)"/><path fill="rgb(224,142,121)" stroke="none" paint-order="stroke" d="M 199.28750610351562 92.28759765625 L 236.21249389648438 92.28759765625 L 236.21249389648438 131.13720703125 L 199.28750610351562 131.13720703125 L 199.28750610351562 92.28759765625" fill-opacity="1" clip-path="url(#HcZhPwNerSMC)"/><path fill="none" stroke="rgb(0,0,0)" paint-order="fill" d="M 199.28750610351562 92.28759765625 L 236.21249389648438 92.28759765625 L 236.21249389648438 131.13720703125 L 199.28750610351562 131.13720703125 L 199.28750610351562 92.28759765625" stroke-opacity="1" stroke-linejoin="bevel" stroke-miterlimit="10" stroke-dasharray="" clip-path="url(#HcZhPwNerSMC)"/><path fill="none" stroke="none"/><path fill="rgb(59,134,134)" stroke="none" paint-order="stroke" d="M 93.7874984741211 48.25804138183594 L 130.71249389648438 48.25804138183594 L 130.71249389648438 48.25804138183594 L 93.7874984741211 48.25804138183594 L 93.7874984741211 48.25804138183594" fill-opacity="1" clip-path="url(#ksxDmAHeToBS)"/><path fill="none" stroke="rgb(0,0,0)" paint-order="fill" d="M 93.7874984741211 48.25804138183594 L 130.71249389648438 48.25804138183594 L 130.71249389648438 48.25804138183594 L 93.7874984741211 48.25804138183594 L 93.7874984741211 48.25804138183594" stroke-opacity="1" stroke-linejoin="bevel" stroke-miterlimit="10" stroke-dasharray="" clip-path="url(#ksxDmAHeToBS)"/><path fill="rgb(59,134,134)" stroke="none" paint-order="stroke" d="M 199.28750610351562 92.28759765625 L 236.21249389648438 92.28759765625 L 236.21249389648438 72.86279296875 L 199.28750610351562 72.86279296875 L 199.28750610351562 92.28759765625" fill-opacity="1" clip-path="url(#ksxDmAHeToBS)"/><path fill="none" stroke="rgb(0,0,0)" paint-order="fill" d="M 199.28750610351562 92.28759765625 L 236.21249389648438 92.28759765625 L 236.21249389648438 72.86279296875 L 199.28750610351562 72.86279296875 L 199.28750610351562 92.28759765625" stroke-opacity="1" stroke-linejoin="bevel" stroke-miterlimit="10" stroke-dasharray="" clip-path="url(#ksxDmAHeToBS)"/><path fill="none" stroke="rgb(0,0,0)" paint-order="fill" d="M 59.5 198.5 L 270.5 198.5" stroke-opacity="1" stroke-linejoin="bevel" stroke-miterlimit="10" stroke-dasharray=""/><path fill="none" stroke="rgb(0,0,0)" paint-order="fill" d="M 112.5 204.5 L 112.5 196.5 M 217.5 204.5 L 217.5 196.5" stroke-opacity="1" stroke-linejoin="bevel" stroke-miterlimit="10" stroke-dasharray=""/><path fill="none" stroke="rgb(0,0,0)" paint-order="fill" d="" stroke-opacity="1" stroke-linejoin="bevel" stroke-miterlimit="10" stroke-dasharray=""/><text fill="rgb(68,68,68)" stroke="none" font-family="helvetica" font-size="11px" font-style="normal" font-weight="normal" text-decoration="normal" x="96.71666622161865" y="220" text-anchor="start" dominant-baseline="alphabetic" transform="matrix(1, 0, 0, 1, 0.5, 0.5)" fill-opacity="1">Treino</text><text fill="rgb(68,68,68)" stroke="none" font-family="helvetica" font-size="11px" font-style="normal" font-weight="normal" text-decoration="normal" x="204.125" y="220" text-anchor="start" dominant-baseline="alphabetic" transform="matrix(1, 0, 0, 1, 0.5, 0.5)" fill-opacity="1">Teste</text><text fill="rgb(68,68,68)" stroke="none" font-family="helvetica" font-size="13px" font-style="italic" font-weight="normal" text-decoration="normal" x="111.41666793823242" y="244" text-anchor="start" dominant-baseline="alphabetic" transform="matrix(1, 0, 0, 1, 0.5, 0.5)" fill-opacity="1">conjunto de dados</text><path fill="none" stroke="rgb(0,0,0)" paint-order="fill" d="M 59.5 198.5 L 59.5 5.5" stroke-opacity="1" stroke-linejoin="bevel" stroke-miterlimit="10" stroke-dasharray=""/><path fill="none" stroke="rgb(0,0,0)" paint-order="fill" d="M 53.5 191.5 L 61.5 191.5 M 53.5 166.5 L 61.5 166.5 M 53.5 140.5 L 61.5 140.5 M 53.5 115.5 L 61.5 115.5 M 53.5 90.5 L 61.5 90.5 M 53.5 65.5 L 61.5 65.5 M 53.5 39.5 L 61.5 39.5 M 53.5 14.5 L 61.5 14.5" stroke-opacity="1" stroke-linejoin="bevel" stroke-miterlimit="10" stroke-dasharray=""/><path fill="none" stroke="rgb(0,0,0)" paint-order="fill" d="M 55.5 196.5 L 59.5 196.5 M 55.5 191.5 L 59.5 191.5 M 55.5 186.5 L 59.5 186.5 M 55.5 181.5 L 59.5 181.5 M 55.5 176.5 L 59.5 176.5 M 55.5 171.5 L 59.5 171.5 M 55.5 166.5 L 59.5 166.5 M 55.5 161.5 L 59.5 161.5 M 55.5 156.5 L 59.5 156.5 M 55.5 150.5 L 59.5 150.5 M 55.5 145.5 L 59.5 145.5 M 55.5 140.5 L 59.5 140.5 M 55.5 135.5 L 59.5 135.5 M 55.5 130.5 L 59.5 130.5 M 55.5 125.5 L 59.5 125.5 M 55.5 120.5 L 59.5 120.5 M 55.5 115.5 L 59.5 115.5 M 55.5 110.5 L 59.5 110.5 M 55.5 105.5 L 59.5 105.5 M 55.5 100.5 L 59.5 100.5 M 55.5 95.5 L 59.5 95.5 M 55.5 90.5 L 59.5 90.5 M 55.5 85.5 L 59.5 85.5 M 55.5 80.5 L 59.5 80.5 M 55.5 75.5 L 59.5 75.5 M 55.5 70.5 L 59.5 70.5 M 55.5 65.5 L 59.5 65.5 M 55.5 60.5 L 59.5 60.5 M 55.5 54.5 L 59.5 54.5 M 55.5 49.5 L 59.5 49.5 M 55.5 44.5 L 59.5 44.5 M 55.5 39.5 L 59.5 39.5 M 55.5 34.5 L 59.5 34.5 M 55.5 29.5 L 59.5 29.5 M 55.5 24.5 L 59.5 24.5 M 55.5 19.5 L 59.5 19.5 M 55.5 14.5 L 59.5 14.5 M 55.5 9.5 L 59.5 9.5" stroke-opacity="1" stroke-linejoin="bevel" stroke-miterlimit="10" stroke-dasharray=""/><text fill="rgb(68,68,68)" stroke="none" font-family="helvetica" font-size="11px" font-style="normal" font-weight="normal" text-decoration="normal" x="26.600000381469727" y="194.85409545898438" text-anchor="start" dominant-baseline="alphabetic" transform="matrix(1, 0, 0, 1, 0.5, 0.5)" fill-opacity="1">0.86</text><text fill="rgb(68,68,68)" stroke="none" font-family="helvetica" font-size="11px" font-style="normal" font-weight="normal" text-decoration="normal" x="26.600000381469727" y="169.6018524169922" text-anchor="start" dominant-baseline="alphabetic" transform="matrix(1, 0, 0, 1, 0.5, 0.5)" fill-opacity="1">0.88</text><text fill="rgb(68,68,68)" stroke="none" font-family="helvetica" font-size="11px" font-style="normal" font-weight="normal" text-decoration="normal" x="32.71666622161865" y="144.349609375" text-anchor="start" dominant-baseline="alphabetic" transform="matrix(1, 0, 0, 1, 0.5, 0.5)" fill-opacity="1">0.9</text><text fill="rgb(68,68,68)" stroke="none" font-family="helvetica" font-size="11px" font-style="normal" font-weight="normal" text-decoration="normal" x="26.600000381469727" y="119.09736633300781" text-anchor="start" dominant-baseline="alphabetic" transform="matrix(1, 0, 0, 1, 0.5, 0.5)" fill-opacity="1">0.92</text><text fill="rgb(68,68,68)" stroke="none" font-family="helvetica" font-size="11px" font-style="normal" font-weight="normal" text-decoration="normal" x="26.600000381469727" y="93.8451156616211" text-anchor="start" dominant-baseline="alphabetic" transform="matrix(1, 0, 0, 1, 0.5, 0.5)" fill-opacity="1">0.94</text><text fill="rgb(68,68,68)" stroke="none" font-family="helvetica" font-size="11px" font-style="normal" font-weight="normal" text-decoration="normal" x="26.600000381469727" y="68.5928726196289" text-anchor="start" dominant-baseline="alphabetic" transform="matrix(1, 0, 0, 1, 0.5, 0.5)" fill-opacity="1">0.96</text><text fill="rgb(68,68,68)" stroke="none" font-family="helvetica" font-size="11px" font-style="normal" font-weight="normal" text-decoration="normal" x="26.600000381469727" y="43.34062576293945" text-anchor="start" dominant-baseline="alphabetic" transform="matrix(1, 0, 0, 1, 0.5, 0.5)" fill-opacity="1">0.98</text><text fill="rgb(68,68,68)" stroke="none" font-family="helvetica" font-size="11px" font-style="normal" font-weight="normal" text-decoration="normal" x="41.88333320617676" y="18.088380813598633" text-anchor="start" dominant-baseline="alphabetic" transform="matrix(1, 0, 0, 1, 0.5, 0.5)" fill-opacity="1">1</text><text fill="rgb(68,68,68)" stroke="none" font-family="helvetica" font-size="13px" font-style="italic" font-weight="normal" text-decoration="normal" x="-28.966665267944336" y="98.5" text-anchor="start" dominant-baseline="alphabetic" transform="matrix(6.123233995736766e-17, -1, 1, 6.123233995736766e-17, -82.39999961853027, 120.60000038146973)" fill-opacity="1">pontuação recall</text></svg>